<svg width="86" height="86" fill="none" xmlns="http://www.w3.org/2000/svg"><path d="M43 86c23.748 0 43-19.252 43-43S66.748 0 43 0 0 19.252 0 43s19.252 43 43 43z" fill="#334D5C"/><path d="M33.661 62.164h-10.58c-.506 0-.916-.442-.916-.989v1.67c0 .547.41.99.916.99h10.58c.506 0 .916-.443.916-.99v-1.67c0 .547-.41.99-.916.99z" fill="#F6C358"/><path d="M47.912 62.164h-9.824c-.47 0-.85-.442-.85-.989v1.67c0 .547.38.99.85.99h9.824c.47 0 .85-.443.85-.99v-1.67c0 .547-.38.99-.85.99z" fill="#2D93BA"/><path d="M62.919 62.164h-10.58c-.506 0-.916-.442-.916-.989v1.67c0 .547.41.99.916.99h10.58c.506 0 .916-.443.916-.99v-1.67c0 .547-.41.99-.916.99z" fill="#D15241"/><path d="M33.661 22.165h-10.58c-.506 0-.916.4-.916.891V61.17c0 .493.41.892.916.892h10.58a.904.904 0 00.916-.892V23.056a.904.904 0 00-.916-.891z" fill="#FCD462"/><path d="M47.912 22.165h-9.824c-.47 0-.85.4-.85.891V61.17c0 .493.38.892.85.892h9.824c.47 0 .85-.4.85-.892V23.056c0-.492-.38-.891-.85-.891z" fill="#27A2DB"/><path d="M62.919 22.165h-10.58c-.506 0-.916.4-.916.891V61.17c0 .493.41.892.916.892h10.58a.904.904 0 00.916-.892V23.056a.904.904 0 00-.916-.891z" fill="#E56353"/><path d="M31.515 24.435h-6.544a.86.86 0 00-.86.861v15.33c0 .476.385.862.86.862h6.544a.86.86 0 00.86-.861v-15.33a.86.86 0 00-.86-.862zM46.272 24.435h-6.544a.86.86 0 00-.86.861v15.33c0 .476.385.862.86.862h6.544a.86.86 0 00.86-.861v-15.33a.86.86 0 00-.86-.862zM61.029 24.435h-6.544a.86.86 0 00-.86.861v15.33c0 .476.385.862.86.862h6.544c.475 0 .86-.386.86-.861v-15.33a.861.861 0 00-.86-.862z" fill="#fff"/><path d="M27.928 58.516c1.224 0 2.216-.794 2.216-1.774 0-.979-.992-1.773-2.216-1.773-1.224 0-2.217.794-2.217 1.773 0 .98.993 1.774 2.217 1.774z" fill="#EBF0F3"/><path d="M28.371 58.516a1.773 1.773 0 100-3.547 1.773 1.773 0 000 3.547z" fill="#64798A"/><path d="M43 58.516c1.224 0 2.217-.794 2.217-1.774 0-.979-.993-1.773-2.217-1.773-1.224 0-2.217.794-2.217 1.773 0 .98.993 1.774 2.217 1.774z" fill="#EBF0F3"/><path d="M43 58.516c.734 0 1.33-.794 1.33-1.774 0-.979-.596-1.773-1.33-1.773-.734 0-1.33.794-1.33 1.773 0 .98.596 1.774 1.33 1.774z" fill="#64798A"/><path d="M58.072 58.516c1.224 0 2.217-.794 2.217-1.774 0-.979-.993-1.773-2.217-1.773-1.224 0-2.216.794-2.216 1.773 0 .98.992 1.774 2.216 1.774z" fill="#EBF0F3"/><path d="M57.629 58.516a1.773 1.773 0 100-3.547 1.773 1.773 0 000 3.547z" fill="#64798A"/><path d="M31.422 27.234h-6.393v.757h6.393v-.757zM31.422 29.907h-6.393v.758h6.393v-.758zM31.422 32.583h-6.393v.757h6.393v-.757zM31.422 35.259h-6.393v.757h6.393v-.757zM31.422 37.931h-6.393v.758h6.393v-.758zM46.197 27.234h-6.393v.757h6.393v-.757zM46.197 29.907h-6.393v.758h6.393v-.758zM46.197 32.583h-6.393v.757h6.393v-.757zM46.197 35.259h-6.393v.757h6.393v-.757zM46.197 37.931h-6.393v.758h6.393v-.758zM60.955 27.234h-6.393v.757h6.393v-.757zM60.955 29.907h-6.393v.758h6.393v-.758zM60.955 32.583h-6.393v.757h6.393v-.757zM60.955 35.259h-6.393v.757h6.393v-.757zM60.955 37.931h-6.393v.758h6.393v-.758z" fill="#EBF0F3"/></svg>