<svg width="72" height="72" fill="none" xmlns="http://www.w3.org/2000/svg"><g clip-path="url(#clip0)"><path d="M36 72c19.882 0 36-16.118 36-36S55.882 0 36 0 0 16.118 0 36s16.118 36 36 36z" fill="#FF7069"/><path d="M36.638 51.119l7.325-4.418c1.696-1.025 2.603.94 1.579 1.512l-5.729 3.158-3.175-.252z" fill="#FEC982"/><path d="M39.847 50.716l7.862-4.838c1.848-1.142 2.822 1.176 1.814 1.764L44.131 50.8l-4.284-.067v-.017z" fill="#FFD190"/><path d="M20.847 52.396L5.93 55.806A36.18 36.18 0 01.991 44.45l18.63-1.226c2.99-.42 5.745-.404 6.972.268 2.167 1.21 1.931 3.847 6.887 5.225l7.073 1.226 11.355-2.788c2.084-.37 2.503 1.965 1.126 2.52l-15.253 5.409c-2.05.722-6.989-.941-16.934-2.688z" fill="#FFD190"/><path d="M42.804 49.389c.772.823-.773 1.276-2.974 1.747-1.579.336-3.695.739-4.72.991-1.983.067-7.073-1.142-10.65-2.453 1.83-.033 9.49 2.251 10.7 2.016 1.21-.235 7.005-1.764 7.392-1.982.386-.219.201-.185.252-.32z" fill="#F0B97D"/><path d="M13.053 42.266l1.999 14.8-7.274 1.276A35.71 35.71 0 01.739 43.224l12.314-.958z" fill="#6B7F9E"/><path d="M15.74 42.367l1.95 13.876-2.689.352-1.948-13.892 2.688-.336z" fill="#fff"/><path d="M13.741 55.05c.068.554-.302 1.058-.84 1.126a.998.998 0 01-1.108-.874c-.067-.554.302-1.058.84-1.126a.998.998 0 011.108.874z" fill="#8597B1"/><path d="M24.728 43.005c3.712-.588 6.182 1.596 8.047 4.217l3.376.79s3.158-.69 4.855-.169c1.68.52 2.2 1.882 1.546 2.251-.656.37-6.182 1.344-7.392 1.58-1.226.234-8.114-1.194-10.684-2-2.57-.79-4.082-5.745.252-6.686v.017z" fill="#FFD190"/><path d="M51.875 50.077l1.797-.587c.219-.068.034-.639-.252-.639-.285 0-1.915.403-1.915.403.202.219.42.538.37.823z" fill="#FFF1DF"/><path d="M40.133 50.531l2.284-.504c.185-.034.034-.924-.403-1.109-.437-.168-2.335.219-2.335.219.151.319.403.89.437 1.377l.017.017z" fill="#fff"/><path d="M36.991 28.273l4.973-.387c.705-.05 2.587-1.226 2.587-1.226l-1.798-3.024-4.636-.554-3.578 3.292-1.378 2.822c-.823 1.479-3.528 1.193-2.873-.688l1.563-4.72s3.914-4.217 5.358-4.805c1.445-.588 11.608-1.092 11.608-1.092s8.316 4.536 11.407 6.501l9.81-.134a36.082 36.082 0 011.815 8.433l-12.364-.286s-7.862 1.529-10.533 1.142c-2.688-.386-6.4-1.545-6.4-1.545s-4.688.084-6.015-.521c-1.881-.655-1.73-3.04.47-3.209h-.016z" fill="#FFD190"/><path d="M30.356 27.937l.537.218-.453 1.377s-.538.253-.454-.335c.084-.588.37-1.277.37-1.277v.017z" fill="#fff"/><path d="M38.52 28.205c-.05-.218-.101-.436-.168-.655a6.997 6.997 0 00-1.546-2.62 6.868 6.868 0 00-11.86 4.72 6.868 6.868 0 006.871 6.87 6.813 6.813 0 005.661-2.99 6.661 6.661 0 001.126-2.855c.05-.336.084-.69.084-1.042 0-.504-.05-.99-.151-1.461l-.017.033z" fill="#FFE356"/><path d="M38.2 28.273c-.05-.202-.1-.42-.167-.622a6.45 6.45 0 00-1.479-2.486 6.543 6.543 0 00-4.754-2.05 6.56 6.56 0 00-6.551 6.552 6.56 6.56 0 006.551 6.551 6.536 6.536 0 005.393-2.839c.436-.638.772-1.36.957-2.15.05-.185.084-.386.118-.588.05-.32.067-.655.067-.991 0-.487-.05-.94-.151-1.394l.017.017z" fill="#FCD34E"/><path d="M31.8 24.543a5.122 5.122 0 00-5.123 5.124A5.133 5.133 0 0031.8 34.79a5.133 5.133 0 005.124-5.123 5.122 5.122 0 00-5.124-5.124zm0 .639a4.495 4.495 0 014.485 4.485 4.495 4.495 0 01-4.485 4.485 4.495 4.495 0 01-4.485-4.485 4.495 4.495 0 014.485-4.485z" fill="#FFE356"/><path d="M36.991 28.273c2.2-.168 4.25-.353 4.973-.387.705-.05 2.587-1.226 2.587-1.226s4.888 2.016 4.569 4.048c-.319 2.033-.756 2.1-1.31 2.655-2.487-.488-5.275-1.344-5.275-1.344s-4.687.084-6.014-.521c-1.882-.655-1.73-3.04.47-3.209v-.017z" fill="#FFD190"/><path d="M60.728 22.494l.823 13.036 3.444-.219-.823-13.036-3.444.219z" fill="#fff"/><path d="M63.567 20.931l1.008 15.775L72 36.588v-.605c0-5.543-1.26-10.785-3.494-15.488l-4.956.42.017.017z" fill="#6B7F9E"/><path d="M35.563 30.154l2.386-.067v1.444s-2.067.084-2.453-.235c-.386-.336-.218-1.024.067-1.125v-.017z" fill="#fff"/><path d="M67.935 34.538c.067.555-.303 1.059-.84 1.126a.998.998 0 01-1.109-.873c-.067-.555.302-1.059.84-1.126a.998.998 0 011.109.873z" fill="#8597B1"/></g><defs><clipPath id="clip0"><path fill="#fff" d="M0 0h72v72H0z"/></clipPath></defs></svg>