<svg width="15" height="15" fill="none" xmlns="http://www.w3.org/2000/svg"><path d="M14.953 6.636a.631.631 0 00-.136-.204l-1.874-1.874a.625.625 0 00-.884.884l.808.808H9.375a.625.625 0 100 1.25h3.492l-.808.808a.624.624 0 10.884.884l1.874-1.875a.626.626 0 00.136-.681z" fill="#CDCEDE"/><path d="M10.626 8.75a.625.625 0 00-.625.625V12.5H7.5v-10a.626.626 0 00-.446-.599L4.884 1.25h5.117v3.125a.625.625 0 101.25 0V.625A.625.625 0 0010.626 0H.625C.603 0 .583.01.561.012a.626.626 0 00-.265.092c-.014.01-.031.01-.044.02C.247.128.245.134.24.138a.62.62 0 00-.166.198C.065.352.064.37.056.388.036.436.014.482.006.534.005.554.01.571.01.59.009.6 0 .613 0 .625v12.5c0 .298.21.554.503.613l6.25 1.25a.624.624 0 00.748-.613v-.625h3.125c.345 0 .625-.28.625-.625v-3.75a.625.625 0 00-.625-.625z" fill="#CDCEDE"/></svg>