<svg width="15" height="16" fill="none" xmlns="http://www.w3.org/2000/svg"><path d="M13.014 6.029l-.071-.026-.28-.68.031-.069c.844-1.954.786-2.013.646-2.154l-1.126-1.122a.298.298 0 00-.197-.08c-.063 0-.255 0-1.918.77l-.067.03-.686-.282-.027-.07C8.537.37 8.456.37 8.262.37h-1.59c-.194 0-.283 0-1.008 1.98l-.027.072-.683.284-.065-.028c-1.126-.484-1.783-.73-1.954-.73-.07 0-.151.032-.197.079L1.61 3.15c-.143.144-.203.204.686 2.118l.032.071-.279.678-.068.027C0 6.827 0 6.903 0 7.107v1.59c0 .205 0 .29 1.986 1.016l.07.026.28.676-.03.07c-.844 1.954-.79 2.007-.647 2.153l1.124 1.123c.048.046.13.08.199.08.063 0 .254 0 1.918-.77l.067-.03.687.282.026.07c.783 1.977.863 1.977 1.058 1.977h1.59c.2 0 .283 0 1.01-1.982l.026-.072.684-.282.065.027c1.125.486 1.782.731 1.952.731.069 0 .15-.03.198-.078l1.129-1.127c.142-.145.2-.204-.69-2.116l-.032-.072.278-.675.067-.027C15 8.911 15 8.835 15 8.631V7.04c0-.204 0-.288-1.986-1.012zM7.5 10.449A2.582 2.582 0 014.923 7.87 2.58 2.58 0 017.5 5.292a2.58 2.58 0 012.577 2.578A2.581 2.581 0 017.5 10.45z" fill="#CDCEDE"/></svg>