<svg width="122" height="32" fill="none" xmlns="http://www.w3.org/2000/svg"><circle cx="108.885" cy="13.961" r="13.115" fill="#333"/><path d="M105.204 12.964V17h-1.789V8.115h1.789v3.326c.576-.626 1.282-.94 2.12-.94.728 0 1.295.233 1.701.699.406.457.609 1.095.609 1.916V17h-1.79v-3.516c0-.457-.114-.795-.342-1.015-.22-.22-.508-.33-.863-.33-.271 0-.542.08-.813.241a1.805 1.805 0 00-.622.584zM113.05 17h-1.789v-6.334h1.789v1.067c.195-.339.491-.627.889-.863a2.547 2.547 0 011.32-.368c.101 0 .169.004.203.012v1.752a2.3 2.3 0 00-.559-.064c-.414 0-.795.11-1.142.33-.338.212-.575.47-.711.774V17z" fill="#fff"/><path d="M10.528 20.384h-2.06v-9.369h2.06v1.221c.712-.98 1.743-1.469 3.091-1.469.725 0 1.349.153 1.87.458.522.305.884.712 1.088 1.221.343-.509.814-.916 1.412-1.221a4.417 4.417 0 012.003-.458c1.043 0 1.857.324 2.443.973.585.649.877 1.578.877 2.786v5.858h-2.06v-5.381c0-1.54-.636-2.309-1.909-2.309-.496 0-.973.153-1.43.458-.446.293-.77.662-.974 1.107v6.125h-2.06v-5.381c0-1.54-.643-2.309-1.928-2.309-.483 0-.954.146-1.412.44a2.8 2.8 0 00-1.01 1.068v6.182zM25.39 15.69c0-1.412.445-2.582 1.335-3.511.904-.941 2.061-1.412 3.473-1.412.967 0 1.788.254 2.462.763 1.323.942 1.984 2.354 1.984 4.236v.534H27.47c.127.79.502 1.406 1.126 1.851.636.446 1.437.668 2.404.668 1.068 0 2.073-.28 3.014-.84v1.737c-.864.61-2.016.916-3.453.916-1.438 0-2.665-.458-3.683-1.374-.992-.916-1.488-2.105-1.488-3.568zm2.099-.954h5.075a2.341 2.341 0 00-.668-1.546c-.432-.458-1.03-.687-1.793-.687-.725 0-1.33.217-1.813.65-.47.419-.738.947-.801 1.583zm14.888 5.896c-1.437 0-2.55-.509-3.34-1.527v1.279h-2.06V7.027h2.06v5.266c.79-1.017 1.903-1.526 3.34-1.526 1.323 0 2.41.477 3.263 1.431.852.941 1.278 2.105 1.278 3.492 0 1.4-.426 2.57-1.278 3.51-.852.955-1.94 1.432-3.263 1.432zm-.553-1.813c.865 0 1.584-.299 2.156-.897.572-.61.859-1.354.859-2.232 0-.865-.287-1.596-.86-2.194-.572-.611-1.29-.916-2.155-.916a3.04 3.04 0 00-1.641.477c-.496.305-.878.7-1.145 1.183v2.9c.267.496.649.903 1.145 1.221a3.07 3.07 0 001.64.458zm11.842 0c.865 0 1.597-.299 2.195-.897.585-.585.878-1.329.878-2.232 0-.89-.293-1.628-.878-2.213-.598-.598-1.33-.897-2.195-.897-.877 0-1.615.299-2.213.896-.585.586-.878 1.323-.878 2.214 0 .903.293 1.647.878 2.232.598.598 1.336.897 2.213.897zm0 1.813c-1.5 0-2.734-.477-3.701-1.431-.967-.954-1.45-2.125-1.45-3.511 0-1.374.483-2.538 1.45-3.492.966-.954 2.2-1.431 3.701-1.431 1.476 0 2.704.477 3.683 1.431.967.954 1.45 2.118 1.45 3.492s-.483 2.544-1.45 3.51c-.98.955-2.207 1.432-3.683 1.432zm8.117-2.805v-5H59.78v-1.812h2.004V8.286h2.06v2.73h2.958v1.812h-2.957v4.407c0 .522.12.904.362 1.145.242.242.611.363 1.107.363s.967-.115 1.412-.343v1.774c-.445.305-1.138.458-2.08.458-.89 0-1.59-.242-2.099-.725-.508-.483-.763-1.177-.763-2.08zm14.787 2.557h-8.242V19.03l3.723-3.486c.79-.733 1.371-1.365 1.743-1.896.339-.507.508-1.049.508-1.624 0-.598-.22-1.077-.66-1.439-.428-.372-.993-.558-1.692-.558-1.174 0-2.28.49-3.317 1.472V9.553c.97-.823 2.138-1.235 3.503-1.235 1.117 0 2.065.321 2.843.964.79.643 1.185 1.484 1.185 2.522 0 .8-.198 1.529-.593 2.183-.417.666-1.083 1.433-1.996 2.301l-2.556 2.437h5.55v1.659zm8.996 0h-1.828v-3.097h-6.143v-1.422l6.143-7.327h1.828v7.158h1.845v1.591h-1.845v3.097zm-1.828-9.46l-4.027 4.772h4.027v-4.772z" fill="#333"/><path d="M32.688 26.377v3.899a.3.3 0 01-.466.25l-4.665-3.089H6.432c-3 0-5.432-2.489-5.432-5.559V8.943c0-3.07 2.432-5.558 5.432-5.558h21.125" stroke="#333" stroke-width="1.5"/></svg>