<svg width="62" height="62" viewBox="0 0 62 62" fill="none" xmlns="http://www.w3.org/2000/svg">
<path d="M46.8594 0.174042H5.86925C3.04093 0.177372 0.748814 2.46949 0.745483 5.29781V38.0899C0.745227 40.427 2.32642 42.4679 4.58933 43.0518L5.10171 41.0678C3.74353 40.7176 2.79448 39.4925 2.79499 38.0899V5.29781C2.79499 3.59992 4.17136 2.22355 5.86925 2.22355H46.8594C48.5573 2.22355 49.9336 3.59992 49.9336 5.29781V6.32256H51.9831V5.29781C51.9798 2.46949 49.6877 0.177372 46.8594 0.174042Z" fill="#67B7F0"/>
<path d="M6.894 4.27305H4.84449V6.32256H6.894V4.27305Z" fill="#67B7F0"/>
<path d="M10.993 4.27305H8.9435V6.32256H10.993V4.27305Z" fill="#67B7F0"/>
<path d="M15.092 4.27305H13.0425V6.32256H15.092V4.27305Z" fill="#67B7F0"/>
<path d="M60.9057 56.8357L51.1859 47.1159C51.6965 46.2046 52.1048 45.2395 52.4033 44.2384H54.0326V42.1889H52.8439C53.2299 39.7084 52.9323 37.1696 51.9831 34.8455V24.7681H49.9336V31.2938C49.325 30.5163 48.6383 29.8035 47.8841 29.1664V20.6691H45.8346V27.7338C45.1786 27.3536 44.4932 27.0263 43.7851 26.7551V16.5701H41.7356V26.1331C41.0603 25.9873 40.3754 25.8911 39.6861 25.8451V18.6196H37.6366V25.8451C36.9473 25.8911 36.2624 25.9873 35.5871 26.1331V22.7186H33.5376V26.7551C32.8295 27.0263 32.1442 27.3536 31.4881 27.7338V21.6939H29.4386V29.1664C28.6843 29.8035 27.9976 30.5163 27.3891 31.2938V23.7434H25.3395V34.8455C24.3904 37.1696 24.0928 39.7084 24.4788 42.1889H10.993V44.2384H24.9194C27.1669 51.8193 35.1344 56.1427 42.7151 53.8952C44.209 53.4523 45.6206 52.7685 46.8942 51.8708L56.3824 61.359C56.7826 61.759 57.4312 61.759 57.8314 61.359L60.9057 58.2847C61.3057 57.8846 61.3057 57.2359 60.9057 56.8357ZM38.6613 52.4365C31.8729 52.4292 26.3716 46.9279 26.3643 40.1394C26.3643 33.348 31.8699 27.8424 38.6613 27.8424C45.4528 27.8424 50.9584 33.348 50.9584 40.1394C50.9584 46.9308 45.4528 52.4365 38.6613 52.4365ZM57.1069 59.1855L48.4867 50.5653C49.0452 50.0375 49.5609 49.4663 50.0289 48.857L58.7321 57.5602L57.1069 59.1855Z" fill="#67B7F0"/>
<path d="M38.6613 29.8919C33.0018 29.8919 28.4138 34.4798 28.4138 40.1394C28.4138 45.799 33.0018 50.3869 38.6613 50.3869C44.3209 50.3869 48.9089 45.799 48.9089 40.1394C48.9027 34.4824 44.3184 29.898 38.6613 29.8919ZM38.6613 48.3374C35.7362 48.3337 33.0347 46.7716 31.5721 44.2384H45.7506C44.288 46.7716 41.5865 48.3337 38.6613 48.3374ZM30.7328 42.1889C29.9083 39.0685 31.0093 35.756 33.5376 33.7501V40.1394H35.5871V32.545C36.2442 32.279 36.9332 32.1 37.6366 32.0121V40.1394H39.6861V32.0121C40.3895 32.1 41.0785 32.279 41.7356 32.545V40.1394H43.7851V33.7501C46.3134 35.756 47.4144 39.0685 46.5899 42.1889H30.7328Z" fill="#67B7F0"/>
<path d="M53.0079 8.37206H12.0178C9.18944 8.37539 6.89733 10.6675 6.894 13.4958V46.2879C6.89733 49.1162 9.18944 51.4084 12.0178 51.4117H25.3396V49.3622H12.0178C10.3199 49.3622 8.9435 47.9858 8.9435 46.2879V13.4958C8.9435 11.7979 10.3199 10.4216 12.0178 10.4216H53.0079C54.7058 10.4216 56.0821 11.7979 56.0821 13.4958V46.2879C56.082 47.0366 55.8088 47.7595 55.3136 48.321L56.8507 49.6768C57.6767 48.7412 58.1322 47.5359 58.1316 46.2879V13.4958C58.1283 10.6675 55.8362 8.37539 53.0079 8.37206Z" fill="#67B7F0"/>
<path d="M13.0425 12.4711H10.993V14.5206H13.0425V12.4711Z" fill="#67B7F0"/>
<path d="M17.1415 12.4711H15.092V14.5206H17.1415V12.4711Z" fill="#67B7F0"/>
<path d="M21.2405 12.4711H19.191V14.5206H21.2405V12.4711Z" fill="#67B7F0"/>
<path d="M15.092 33.9909H13.0425V40.1394H15.092V33.9909Z" fill="#67B7F0"/>
<path d="M19.191 27.8424H17.1415V40.1394H19.191V27.8424Z" fill="#67B7F0"/>
<path d="M23.29 30.9167H21.2405V40.1394H23.29V30.9167Z" fill="#67B7F0"/>
</svg>
