<svg width="58" height="58" viewBox="0 0 58 58" fill="none" xmlns="http://www.w3.org/2000/svg">
<path d="M55.9196 26.1026L50.8183 31.131L42.5433 22.9743L47.6446 17.9459L46.2818 16.6025L35.9627 26.7743H21.3402L11.0211 16.6025L9.65828 17.9459L14.7596 22.9743L6.48456 31.131L1.38329 26.1026L0.0205078 27.4459L10.6221 37.896L15.7301 42.9045L14.9591 43.6645C13.7896 44.8045 13.7793 46.6632 14.9358 47.8159C14.9435 47.8236 14.9512 47.8312 14.9591 47.8388C15.496 48.3632 16.214 48.6686 16.9695 48.6938C16.9973 49.4371 17.3125 50.1417 17.8504 50.6632C18.3876 51.1873 19.1055 51.4926 19.8608 51.5182C19.8902 52.2627 20.2079 52.9678 20.7485 53.4885C21.2856 54.0126 22.0035 54.3179 22.7589 54.3435C22.7867 55.0868 23.1019 55.7914 23.6398 56.3129C24.817 57.4593 26.7109 57.4593 27.8881 56.3129L28.6514 55.5596L29.4147 56.3072C30.5909 57.4644 32.4959 57.4628 33.6699 56.3034C34.203 55.777 34.516 55.0724 34.5469 54.3293C35.3034 54.3023 36.0217 53.995 36.5583 53.4686C37.0959 52.9438 37.4106 52.2369 37.4382 51.4916C38.1949 51.4643 38.9131 51.1566 39.4496 50.63C39.9873 50.1052 40.3019 49.3983 40.3295 48.653C41.984 48.5967 43.2788 47.229 43.2216 45.5982C43.1953 44.8482 42.8804 44.1361 42.3409 43.6065L41.6104 42.8893L57.2804 27.4431L55.9196 26.1026ZM7.84734 32.4743L16.1223 24.3176L19.5784 27.7243L11.3034 35.8811L7.84734 32.4743ZM17.8571 46.4879C17.4311 46.9074 16.7411 46.9074 16.3151 46.4879C15.9015 46.0861 15.8967 45.4299 16.3044 45.0222C16.3079 45.0186 16.3115 45.0151 16.3151 45.0116L17.0986 44.2459L18.6282 45.7355L17.8571 46.4879ZM20.7359 49.3161C20.3105 49.7258 19.6308 49.725 19.2064 49.3142C18.7926 48.9112 18.7885 48.2538 19.1975 47.8457C19.2005 47.8428 19.2034 47.8398 19.2064 47.8369L19.9861 47.0769L21.507 48.5665L20.7359 49.3161ZM23.6398 52.1395C23.2134 52.5579 22.5241 52.5579 22.0977 52.1395C21.6842 51.7377 21.6793 51.0815 22.087 50.6738C22.0905 50.6702 22.0941 50.6667 22.0977 50.6632L22.8746 49.9032L24.3944 51.3928L23.6398 52.1395ZM26.5311 54.9649C26.1056 55.3782 25.4223 55.3782 24.9968 54.9649C24.5832 54.563 24.5784 53.9068 24.9861 53.4991C24.9896 53.4955 24.9932 53.492 24.9968 53.4885L25.7678 52.7333L27.2877 54.2229L26.5311 54.9649ZM40.9892 46.4428C40.9874 46.4446 40.9857 46.4462 40.9839 46.448H40.9878C40.5642 46.8625 39.8809 46.8625 39.4573 46.448L38.0116 45.0287C37.6346 44.6583 37.0241 44.6594 36.6484 45.0311C36.2726 45.4028 36.2737 46.0045 36.6508 46.3749L38.0965 47.7942C38.5146 48.2034 38.5169 48.8694 38.1018 49.2814C38.0999 49.2832 38.0983 49.2849 38.0965 49.2867C37.6729 49.7011 36.9896 49.7011 36.566 49.2867L35.1203 47.8673C34.7432 47.497 34.1328 47.498 33.757 47.8697C33.3813 48.2414 33.3824 48.8431 33.7595 49.2135L35.2051 50.6328C35.6233 51.042 35.6256 51.708 35.2104 52.1201C35.2086 52.1218 35.2069 52.1235 35.2051 52.1253C34.7815 52.5397 34.0982 52.5397 33.6746 52.1253L32.229 50.706C31.8519 50.3356 31.2415 50.3366 30.8657 50.7083C30.49 51.08 30.491 51.6817 30.8681 52.0521L32.3138 53.4714C32.7319 53.8807 32.7342 54.5466 32.3191 54.9587C32.3173 54.9605 32.3156 54.9621 32.3138 54.9639C31.8897 55.378 31.2064 55.378 30.7823 54.9639L12.6682 37.2244L21.3421 28.6743H24.4368L17.3627 35.8108C16.9937 36.1829 16.9972 36.7785 17.3704 37.1465C18.5649 38.3357 20.1688 39.0395 21.8645 39.1187C23.5709 39.2078 25.2354 38.5782 26.4434 37.3868C26.4861 37.3453 26.5244 37.2998 26.5581 37.251L26.907 36.7465C28.9882 38.3639 31.7011 38.9639 34.2837 38.3777L40.9839 44.9556C41.402 45.3648 41.4044 46.0307 40.9892 46.4428ZM40.2524 41.5517L36.2094 37.5825L36.9399 37.0344C36.9743 37.008 37.0064 36.9792 37.0363 36.9479L38.0001 35.9979L36.6373 34.6546L35.7207 35.5581L34.8871 36.1775C32.3138 37.2625 29.3275 36.6563 27.3985 34.6575C27.0222 34.2864 26.412 34.2864 26.0355 34.6572C25.9931 34.699 25.9548 34.7445 25.9211 34.7933L25.0103 36.1072C24.1866 36.8757 23.0802 37.2793 21.9474 37.2244C21.0614 37.1794 20.2048 36.8962 19.4705 36.4055L27.1296 28.6743H35.9627L44.6366 37.2244L40.2524 41.5517ZM45.9994 35.8811L37.7244 27.7243L41.1805 24.3176L49.4555 32.4743L45.9994 35.8811Z" fill="#67B7F0"/>
<path d="M12.2672 31.5243H10.3397V33.4243H12.2672V31.5243Z" fill="#67B7F0"/>
<path d="M46.9632 31.5243H45.0357V33.4243H46.9632V31.5243Z" fill="#67B7F0"/>
<path d="M30.579 17.2742C34.8353 17.2694 38.2844 13.8696 38.2892 9.67413C38.2892 9.14949 37.8577 8.72412 37.3254 8.72412H35.3979C33.1817 8.72531 31.0739 9.66926 29.6152 11.3138V7.77411H30.579C34.3031 7.76996 37.3212 4.795 37.3254 1.12405C37.3254 0.599408 36.8939 0.174042 36.3616 0.174042H34.4341C32.0624 0.177723 29.8667 1.40882 28.6514 3.41642C27.4361 1.40882 25.2405 0.177723 22.8688 0.174042H20.9412C20.409 0.174042 19.9774 0.599408 19.9774 1.12405C19.9817 4.795 22.9997 7.76996 26.7239 7.77411H27.6877V11.3138C26.229 9.66926 24.1212 8.72531 21.905 8.72412H19.9774C19.4452 8.72412 19.0137 9.14949 19.0137 9.67413C19.0185 13.8696 22.4676 17.2694 26.7239 17.2742H27.6877V18.7809L21.506 24.8743H24.2315L28.6514 20.5175L33.0713 24.8743H35.7969L29.6152 18.7809V17.2742H30.579ZM35.3979 10.6241H36.2816C35.8076 13.3649 33.3996 15.3707 30.579 15.3742H29.6952C30.1691 12.6334 32.5771 10.6276 35.3979 10.6241ZM34.4341 2.07406H35.3015C34.8407 4.28437 32.8682 5.8716 30.579 5.87409H29.7116C30.1723 3.66378 32.1449 2.07655 34.4341 2.07406ZM26.7239 5.87409C24.4347 5.8716 22.4622 4.28437 22.0014 2.07406H22.8688C25.158 2.07655 27.1305 3.66378 27.5913 5.87409H26.7239ZM26.7239 15.3742C23.9033 15.3707 21.4953 13.3649 21.0212 10.6241H21.905C24.7256 10.6276 27.1336 12.6334 27.6077 15.3742H26.7239Z" fill="#67B7F0"/>
</svg>
