<svg width="52" height="58" viewBox="0 0 52 58" fill="none" xmlns="http://www.w3.org/2000/svg">
<path d="M45.3252 42.791V40.6146C49.4549 38.0497 51.969 33.5354 51.9752 28.674C51.9752 28.1494 51.5498 27.724 51.0252 27.724H47.2252C46.7005 27.724 46.2752 28.1494 46.2752 28.674C46.2679 30.6612 45.5716 32.5845 44.3049 34.1156C44.3495 33.8878 44.373 33.6562 44.3752 33.424V31.524C44.3752 29.4254 42.6738 27.724 40.5752 27.724C38.4765 27.724 36.7752 29.4254 36.7752 31.524V33.424C36.7773 33.6562 36.8008 33.8878 36.8455 34.1156C35.5788 32.5845 34.8824 30.6612 34.8752 28.674C34.8505 28.5895 34.838 28.5019 34.8381 28.4137L31.0752 15.241V13.0646C35.2049 10.4997 37.719 5.98543 37.7252 1.12404C37.7252 0.599404 37.2998 0.174042 36.7752 0.174042H32.9752C32.4505 0.174042 32.0252 0.599404 32.0252 1.12404C32.0179 3.1112 31.3216 5.03448 30.0549 6.56564C30.0995 6.33776 30.123 6.1062 30.1252 5.87404V3.97404C30.1252 1.87537 28.4238 0.174042 26.3252 0.174042C24.2265 0.174042 22.5252 1.87537 22.5252 3.97404V5.87404C22.5273 6.1062 22.5508 6.33776 22.5955 6.56564C21.3288 5.03448 20.6324 3.1112 20.6252 1.12404C20.6252 0.599404 20.1998 0.174042 19.6752 0.174042H15.8752C15.3505 0.174042 14.9252 0.599404 14.9252 1.12404C14.9347 5.98412 17.448 10.4961 21.5752 13.0627V16.1815L17.817 28.3947C17.8129 28.4291 17.8107 28.4637 17.8103 28.4983C17.7929 28.5555 17.7811 28.6144 17.7752 28.674C17.7679 30.6612 17.0716 32.5845 15.8049 34.1156C15.8495 33.8878 15.873 33.6562 15.8752 33.424V31.524C15.8752 29.4254 14.1738 27.724 12.0752 27.724C9.9765 27.724 8.27517 29.4254 8.27517 31.524V33.424C8.27731 33.6562 8.30082 33.8878 8.34547 34.1156C7.07876 32.5845 6.38241 30.6612 6.37517 28.674C6.37517 28.1494 5.94981 27.724 5.42517 27.724H1.62517C1.10053 27.724 0.675171 28.1494 0.675171 28.674C0.684671 33.5341 3.19801 38.0461 7.32517 40.6127V43.7315L3.56697 55.9447C3.41271 56.4462 3.69415 56.9777 4.19563 57.132C4.28624 57.1599 4.38041 57.174 4.47517 57.174H8.27517C8.67465 57.1742 9.03149 56.9243 9.16817 56.5489L12.0752 48.5537L14.9822 56.5489C15.1189 56.9243 15.4757 57.1742 15.8752 57.174H19.6752C20.1998 57.1737 20.6248 56.748 20.6245 56.2233C20.6245 56.1356 20.6121 56.0482 20.5881 55.9637L16.8252 42.791V40.6146C20.8979 38.0834 23.4019 33.653 23.4695 28.8583L26.3252 21.0037L29.1809 28.8583C29.2525 33.6514 31.7555 38.0795 35.8252 40.6127V43.7315L32.067 55.9447C31.9127 56.4462 32.1941 56.9777 32.6956 57.132C32.7861 57.1599 32.8804 57.174 32.9752 57.174H36.7752C37.1746 57.1742 37.5315 56.9243 37.6682 56.5489L40.5752 48.5537L43.4822 56.5489C43.6189 56.9243 43.9757 57.1742 44.3752 57.174H48.1752C48.6998 57.1737 49.1248 56.748 49.1245 56.2233C49.1243 56.1356 49.1121 56.0482 49.0881 55.9637L45.3252 42.791ZM38.6752 31.524C38.6752 30.4746 39.5258 29.624 40.5752 29.624C41.6246 29.624 42.4752 30.4746 42.4752 31.524V33.424C42.4752 34.4734 41.6246 35.324 40.5752 35.324C39.5258 35.324 38.6752 34.4734 38.6752 33.424V31.524ZM24.4252 3.97404C24.4252 2.92465 25.2758 2.07404 26.3252 2.07404C27.3746 2.07404 28.2252 2.92465 28.2252 3.97404V5.87404C28.2252 6.92344 27.3746 7.77404 26.3252 7.77404C25.2758 7.77404 24.4252 6.92344 24.4252 5.87404V3.97404ZM10.1752 31.524C10.1752 30.4746 11.0258 29.624 12.0752 29.624C13.1246 29.624 13.9752 30.4746 13.9752 31.524V33.424C13.9752 34.4734 13.1246 35.324 12.0752 35.324C11.0258 35.324 10.1752 34.4734 10.1752 33.424V31.524ZM15.4002 39.2513C15.1063 39.421 14.9252 39.7347 14.9252 40.074V42.924C14.9251 43.0122 14.9375 43.0998 14.9622 43.1843L18.4155 55.274H16.5402L12.9682 45.4491C12.7892 44.956 12.2443 44.7013 11.7511 44.8802C11.4865 44.9763 11.2782 45.1846 11.1822 45.4491L7.61017 55.274H5.76147L9.18147 44.1533C9.20973 44.063 9.22446 43.9688 9.22517 43.874V40.074C9.20629 39.7172 9.00631 39.3947 8.69507 39.219C5.20845 37.2205 2.93261 33.6301 2.61317 29.624H4.51887C4.79496 32.5656 6.2962 35.2552 8.65517 37.034C8.81964 37.1574 9.01961 37.224 9.22517 37.224H14.9252C15.1307 37.224 15.3307 37.1574 15.4952 37.034C17.8541 35.2552 19.3554 32.5656 19.6315 29.624H21.5372C21.2101 33.6507 18.9126 37.2551 15.4002 39.2513ZM27.2182 17.8991C27.0392 17.406 26.4943 17.1513 26.0011 17.3302C25.7365 17.4263 25.5282 17.6346 25.4322 17.8991L21.8602 27.724H20.0115L23.4315 16.6033C23.4597 16.513 23.4745 16.4188 23.4752 16.324V12.524C23.4563 12.1672 23.2563 11.8447 22.9451 11.669C19.4585 9.67048 17.1826 6.08007 16.8632 2.07404H18.7689C19.045 5.0156 20.5462 7.70517 22.9052 9.48404C23.0696 9.60742 23.2696 9.67404 23.4752 9.67404H29.1752C29.3807 9.67404 29.5807 9.60742 29.7452 9.48404C32.1041 7.70517 33.6054 5.0156 33.8815 2.07404H35.7872C35.4601 6.10074 33.1626 9.70515 29.6502 11.7013C29.3563 11.871 29.1752 12.1847 29.1752 12.524V15.374C29.1751 15.4622 29.1875 15.5498 29.2122 15.6343L32.6655 27.724H30.7902L27.2182 17.8991ZM45.0402 55.274L41.4682 45.4491C41.2892 44.956 40.7443 44.7013 40.2511 44.8802C39.9865 44.9762 39.7782 45.1846 39.6822 45.4491L36.1102 55.274H34.2615L37.6815 44.1533C37.7097 44.063 37.7245 43.9688 37.7252 43.874V40.074C37.7063 39.7172 37.5063 39.3947 37.1951 39.219C33.7085 37.2205 31.4326 33.6301 31.1132 29.624H33.0189C33.295 32.5656 34.7962 35.2552 37.1552 37.034C37.3196 37.1574 37.5196 37.224 37.7252 37.224H43.4252C43.6307 37.224 43.8307 37.1574 43.9952 37.034C46.3541 35.2552 47.8554 32.5656 48.1315 29.624H50.0372C49.7101 33.6507 47.4126 37.2551 43.9002 39.2513C43.6063 39.421 43.4252 39.7347 43.4252 40.074V42.924C43.4251 43.0122 43.4375 43.0998 43.4622 43.1843L46.9155 55.274H45.0402Z" fill="#67B7F0"/>
</svg>
