<svg width="58" height="58" viewBox="0 0 58 58" fill="none" xmlns="http://www.w3.org/2000/svg">
<path d="M52.75 30.574H52.7253C53.354 29.7567 53.6966 28.7553 53.7 27.724V25.824C53.7 23.2007 51.5733 21.074 48.95 21.074C46.3267 21.074 44.2 23.2007 44.2 25.824V27.724C44.2037 28.758 44.5479 29.762 45.1794 30.5807C43.6064 30.6161 42.1525 31.4269 41.2958 32.7467L38.7061 37.301L36.7491 33.0507C36.7323 33.014 36.7129 32.9784 36.6912 32.9443C35.8512 31.5589 34.3816 30.6773 32.7639 30.5883C33.3996 29.7684 33.7463 28.7614 33.75 27.724V25.824C33.75 23.2007 31.6233 21.074 29 21.074C26.3767 21.074 24.25 23.2007 24.25 25.824V27.724C24.2537 28.758 24.5979 29.762 25.2294 30.5807C23.6786 30.6105 22.2407 31.3985 21.381 32.6897C21.3525 32.7326 21.3273 32.7777 21.3059 32.8246L19.2872 37.2896L16.669 32.6897C15.8092 31.3985 14.3714 30.6105 12.8205 30.5807C13.4521 29.762 13.7963 28.758 13.8 27.724V25.824C13.8 23.2007 11.6733 21.074 9.05 21.074C6.42669 21.074 4.3 23.2007 4.3 25.824V27.724C4.30344 28.7553 4.64604 29.7567 5.2747 30.574H5.25C2.628 30.5771 0.503087 32.702 0.5 35.324V42.924C0.5 43.4487 0.925362 43.874 1.45 43.874H4.3V56.224C4.3 56.7487 4.72536 57.174 5.25 57.174H12.85C13.3746 57.174 13.8 56.7487 13.8 56.224V38.6357L16.7944 43.4275C16.968 43.7053 17.2725 43.874 17.6 43.874H21.4C21.7387 43.8733 22.0515 43.6923 22.2208 43.399C22.2265 43.3895 22.2284 43.3781 22.2341 43.3677C22.2398 43.3572 22.2455 43.3544 22.2502 43.3458L24.25 39.3482V56.224C24.25 56.7487 24.6754 57.174 25.2 57.174H32.8C33.3246 57.174 33.75 56.7487 33.75 56.224V39.3482L35.745 43.3487C35.7497 43.3582 35.7573 43.3648 35.7621 43.3734C35.7668 43.3819 35.7687 43.3924 35.7744 43.4019C35.7958 43.435 35.8192 43.4668 35.8447 43.4969C35.8659 43.5276 35.8887 43.5571 35.9132 43.5852C35.9485 43.6199 35.9867 43.6517 36.0271 43.6802C36.0931 43.7404 36.172 43.7844 36.258 43.8085C36.2848 43.8215 36.3125 43.8329 36.3406 43.8427C36.4252 43.865 36.5125 43.8756 36.6 43.874H40.4C40.7275 43.874 41.032 43.7053 41.2056 43.4275L44.2 38.6357V56.224C44.2 56.7487 44.6254 57.174 45.15 57.174H52.75C53.2746 57.174 53.7 56.7487 53.7 56.224V43.874H56.55C57.0746 43.874 57.5 43.4487 57.5 42.924V35.324C57.4969 32.702 55.372 30.5771 52.75 30.574ZM46.1 25.824C46.1 24.25 47.376 22.974 48.95 22.974C50.524 22.974 51.8 24.25 51.8 25.824V27.724C51.8 29.2981 50.524 30.574 48.95 30.574C47.376 30.574 46.1 29.2981 46.1 27.724V25.824ZM26.15 25.824C26.15 24.25 27.426 22.974 29 22.974C30.574 22.974 31.85 24.25 31.85 25.824V27.724C31.85 29.2981 30.574 30.574 29 30.574C27.426 30.574 26.15 29.2981 26.15 27.724V25.824ZM6.2 25.824C6.2 24.25 7.47597 22.974 9.05 22.974C10.624 22.974 11.9 24.25 11.9 25.824V27.724C11.9 29.2981 10.624 30.574 9.05 30.574C7.47597 30.574 6.2 29.2981 6.2 27.724V25.824ZM11.9 55.274H10V45.774H8.1V55.274H6.2V43.874H11.9V55.274ZM18.1263 41.974L13.6556 34.8205C13.3775 34.3756 12.7915 34.2403 12.3465 34.5184C12.0687 34.692 11.9 34.9965 11.9 35.324V41.974H6.2V35.324H4.3V41.974H2.4V35.324C2.4 33.75 3.67597 32.474 5.25 32.474H8.1V40.074H10V32.474H12.5982C12.6524 32.474 12.7075 32.474 12.7616 32.4788H12.7901C12.8314 32.4788 12.8713 32.4788 12.9098 32.4788C13.7708 32.5308 14.5604 32.9748 15.0521 33.6834L19.7669 41.974H18.1263ZM31.85 55.274H29.95V45.774H28.05V55.274H26.15V43.874H31.85V55.274ZM36.6 40.7998L33.655 34.8994C33.4264 34.4271 32.8582 34.2296 32.3859 34.4583C32.0546 34.6188 31.8458 34.956 31.85 35.324V41.974H26.15V35.324C26.1505 34.7994 25.7256 34.3737 25.2009 34.3731C24.8403 34.3727 24.5107 34.5766 24.3499 34.8994L21.4 40.7998L20.5516 39.1041L23.0026 33.6834C23.5367 32.9249 24.4064 32.4738 25.334 32.474H28.05V40.074H29.95V32.474H32.5482C33.5733 32.4863 34.5195 33.0269 35.0505 33.9038L37.4464 39.1069L36.6 40.7998ZM51.8 55.274H49.9V45.774H48V55.274H46.1V43.874H51.8V55.274ZM55.6 41.974H53.7V35.324H51.8V41.974H46.1V35.324C46.1 34.7994 45.6746 34.374 45.15 34.374C44.8225 34.374 44.518 34.5428 44.3444 34.8205L39.8737 41.974H38.233L42.9127 33.7432C43.4024 33.0064 44.2074 32.5396 45.0901 32.4807C45.1291 32.4807 45.169 32.4807 45.2089 32.4807H45.2383C45.2925 32.4807 45.3476 32.4759 45.4017 32.4759H48V40.0759H49.9V32.474H52.75C54.324 32.474 55.6 33.75 55.6 35.324V41.974Z" fill="#67B7F0"/>
<path d="M29 0.174042C13.2673 0.191854 0.517812 12.9413 0.5 28.674V29.624H2.4V28.674C2.39644 24.7298 3.27507 20.8348 4.97165 17.274H13.6717C13.3668 18.4796 13.1017 19.6956 12.9117 20.9277L14.7889 21.2203C15.0003 19.8909 15.282 18.5736 15.6325 17.274H28.05V19.174H29.95V17.274H42.413C42.7653 18.5733 43.0484 19.8902 43.2614 21.2194L45.1386 20.9287C44.9486 19.6937 44.6778 18.4805 44.3786 17.274H53.0331C54.728 20.8351 55.6051 24.7302 55.6 28.674V29.624H57.5V28.674C57.4822 12.9413 44.7327 0.191854 29 0.174042ZM19.975 3.65199C19.2444 4.67989 18.5567 5.73534 17.9239 6.82404H13.8551C15.7484 5.50497 17.8058 4.43871 19.975 3.65199ZM14.1942 15.374H5.97865C7.42669 12.8779 9.26874 10.6322 11.4335 8.72404H16.8742C15.7866 10.8574 14.8898 13.0826 14.1942 15.374ZM28.05 15.374H16.1921C16.9324 13.0733 17.8865 10.8469 19.0421 8.72404H28.05V15.374ZM28.0538 6.82404H20.1451C20.8887 5.61564 21.6983 4.44916 22.5704 3.32994L23.0188 2.75994C24.672 2.37757 26.358 2.15491 28.0538 2.09494V6.82404ZM44.1449 6.82404H40.1216C39.4927 5.74294 38.8131 4.6926 38.0829 3.67289C40.2308 4.45795 42.2683 5.51708 44.1449 6.82404ZM29.95 2.09779C31.6633 2.15812 33.3667 2.38422 35.0363 2.77324L35.4742 3.32994C36.3469 4.44892 37.1569 5.6154 37.9005 6.82404H29.95V2.09779ZM29.95 15.374V8.72404H39.0025C40.1585 10.8467 41.1126 13.0731 41.8525 15.374H29.95ZM43.8513 15.374C43.1555 13.0829 42.2587 10.8575 41.1714 8.72404H46.5664C48.7313 10.6322 50.5733 12.8779 52.0213 15.374H43.8513Z" fill="#67B7F0"/>
<path d="M17.6 25.824H15.7V27.724H17.6V25.824Z" fill="#67B7F0"/>
<path d="M21.4 25.824H19.5V27.724H21.4V25.824Z" fill="#67B7F0"/>
<path d="M38.5 25.824H36.6V27.724H38.5V25.824Z" fill="#67B7F0"/>
<path d="M42.3 25.824H40.4V27.724H42.3V25.824Z" fill="#67B7F0"/>
</svg>
