<svg width="19" height="19" viewBox="0 0 19 19" fill="none" xmlns="http://www.w3.org/2000/svg">
<path d="M0 9.50037C0 4.25372 4.25372 0 9.50037 0C14.747 0 19 4.25372 19 9.50037C19 14.747 14.747 19 9.50037 19C4.25372 19 0 14.747 0 9.50037Z" fill="white"/>
<path d="M7.99253 11.5851C7.69728 11.2436 7.69195 10.6937 7.98063 10.3631L11.3864 6.46826C11.6751 6.13815 12.1528 6.14757 12.4485 6.48907C12.7442 6.83107 12.7495 7.38045 12.4608 7.71108L9.05459 11.606C8.76588 11.936 8.28824 11.9266 7.99253 11.5851Z" fill="#0079CE"/>
<path d="M6.14852 8.5034C6.4457 8.16716 6.93607 8.17582 7.2389 8.52313L8.85684 10.3781C9.15967 10.7254 9.16459 11.2844 8.8679 11.6211C8.57072 11.9574 8.08029 11.9482 7.77746 11.6009L6.15958 9.74651C5.85675 9.3992 5.85177 8.83964 6.14852 8.5034Z" fill="#0079CE"/>
</svg>
