<svg width="72" height="72" viewBox="0 0 72 72" fill="none" xmlns="http://www.w3.org/2000/svg">
<path d="M58.4546 24.9899H13.5452V16.0965C13.5452 13.1673 15.9198 10.7927 18.849 10.7927H53.1508C56.08 10.7927 58.4546 13.1673 58.4546 16.0965V24.9899Z" fill="#1D73AC"/>
<path d="M31.6541 41.8739H40.3462V56.3608H31.6541V41.8739Z" fill="#E8916F"/>
<path d="M20.354 28.6218V17.0013C20.354 8.85191 26.9604 2.24548 35.1098 2.24548H36.89C45.0393 2.24548 51.6457 8.85191 51.6457 17.0013V28.6218C51.6457 37.2572 44.6454 44.2575 36.0101 44.2575H35.9897C27.3545 44.2575 20.354 37.2572 20.354 28.6218Z" fill="#EBAD88"/>
<path d="M36.8899 2.24548H35.1098C34.6774 2.24548 34.2498 2.26517 33.8269 2.30159C41.3754 2.95184 47.2998 9.28419 47.2998 17.0013V28.6218C47.2998 36.5231 41.4385 43.0544 33.8269 44.1079C34.534 44.2057 35.2558 44.2575 35.9897 44.2575H36.0101C44.6455 44.2575 51.6458 37.2572 51.6458 28.6218V17.0013C51.6458 8.85191 45.0394 2.24548 36.8899 2.24548Z" fill="#E8916F"/>
<path d="M27.5977 50.2697H44.4025C51.7634 50.2697 57.7305 56.2368 57.7305 63.5977V71.1563C57.7305 71.6223 57.3528 72 56.8867 72H15.1135C14.6475 72 14.2698 71.6223 14.2698 71.1563V63.5977C14.2698 56.2368 20.2369 50.2697 27.5977 50.2697Z" fill="#1D73AC"/>
<path d="M44.4024 50.2697H40.0564C47.4173 50.2697 53.3844 56.2368 53.3844 63.5977V72H56.8867C57.3527 72 57.7304 71.6223 57.7304 71.1563V63.5977C57.7304 56.2368 51.7633 50.2697 44.4024 50.2697Z" fill="#125F93"/>
<path d="M31.4941 47.7312L28.679 50.0769C28.5526 50.1822 28.5392 50.3713 28.6493 50.4935L32.6741 54.9556C32.8035 55.099 33.0344 55.078 33.1359 54.9137L36.0001 50.2697L31.8312 47.7069C31.7253 47.6418 31.5896 47.6515 31.4941 47.7312Z" fill="#FFF7E6"/>
<path d="M40.5059 47.7312L43.3212 50.0769C43.4476 50.1822 43.461 50.3713 43.3509 50.4935L39.3261 54.9556C39.1967 55.099 38.9658 55.078 38.8643 54.9137L36 50.2697L40.1688 47.7069C40.2747 47.6418 40.4104 47.6515 40.5059 47.7312Z" fill="#FFF7E6"/>
<path d="M53.7087 21.8506C51.6574 22.2214 51.6458 26.0099 51.6458 26.0099C51.6458 26.0099 50.1493 26.6285 49.6031 25.7389C49.0583 24.8494 48.5991 19.0952 48.3904 16.589C48.1833 14.0813 46.5042 10.6826 42.5421 12.2182C38.58 13.7568 33.4198 13.7568 29.4575 12.2182C25.4954 10.6826 23.8164 14.0812 23.6092 16.589C23.4007 19.0952 22.9414 24.8494 22.3966 25.7389C21.8504 26.6283 20.3539 26.0099 20.3539 26.0099C20.3539 26.0099 20.3424 22.2216 18.2909 21.8506C18.2909 21.8506 16.5206 17.2756 17.5029 12.1821C18.7041 5.94984 22.1664 0 36 0C49.8335 0 53.2959 5.94984 54.4969 12.1821C55.4791 17.2756 53.7087 21.8506 53.7087 21.8506Z" fill="#7D4D3D"/>
<path d="M54.4968 12.1821C53.2959 5.94984 49.8335 0 36 0C35.2445 0 34.5219 0.0188438 33.8269 0.0532969C45.8571 0.651656 49.0154 6.29002 50.1508 12.1821C51.1331 17.2756 49.3627 21.8506 49.3627 21.8506C49.1941 21.8811 49.0404 21.9367 48.8982 22.0094C49.1016 23.7736 49.3426 25.3133 49.6032 25.7389C50.1494 26.6283 51.6459 26.0099 51.6459 26.0099C51.6459 26.0099 51.6574 22.2216 53.7089 21.8506C53.7087 21.8506 55.4791 17.2756 54.4968 12.1821Z" fill="#704537"/>
<path d="M18.7411 34.7037H14.9106C13.1293 34.7037 11.6719 33.2463 11.6719 31.465V23.3105C11.6719 21.5292 13.1293 20.0718 14.9106 20.0718H18.7411C19.6317 20.0718 20.3604 20.8005 20.3604 21.6911V33.0841C20.3605 33.975 19.6318 34.7037 18.7411 34.7037Z" fill="#4F4F4F"/>
<path d="M18.7416 20.072H14.9102C14.8071 20.072 14.7054 20.0773 14.6047 20.0869C15.398 20.1898 16.0163 20.8713 16.0163 21.6915V33.084C16.0163 33.9044 15.3979 34.5859 14.6047 34.6888C14.7053 34.6984 14.8071 34.7037 14.9102 34.7037H18.7416C19.6321 34.7037 20.3607 33.9749 20.3607 33.084V21.6915C20.3607 20.8008 19.6321 20.072 18.7416 20.072Z" fill="#828282"/>
<path d="M53.2589 34.7037H57.0894C58.8707 34.7037 60.3282 33.2463 60.3282 31.465V23.3105C60.3282 21.5292 58.8707 20.0718 57.0894 20.0718H53.2589C52.3684 20.0718 51.6396 20.8005 51.6396 21.6911V33.0841C51.6395 33.975 52.3682 34.7037 53.2589 34.7037Z" fill="#4F4F4F"/>
<path d="M57.0902 20.072H53.2587C53.1882 20.072 53.1193 20.0781 53.0513 20.0869C54.6903 20.2421 55.9839 21.6328 55.9839 23.3113V31.4643C55.9839 33.1429 54.6903 34.5334 53.0513 34.6887C53.1193 34.6975 53.1882 34.7036 53.2587 34.7036H57.0902C58.871 34.7036 60.3282 33.2459 60.3282 31.4643V23.3113C60.3282 21.5297 58.871 20.072 57.0902 20.072Z" fill="#828282"/>
<path d="M36.0001 64.3944C37.2802 64.3944 38.318 63.3567 38.318 62.0765C38.318 60.7964 37.2802 59.7586 36.0001 59.7586C34.7199 59.7586 33.6821 60.7964 33.6821 62.0765C33.6821 63.3567 34.7199 64.3944 36.0001 64.3944Z" fill="#FFF7E6"/>
<path d="M55.992 32.8866C55.4094 32.8866 54.9373 33.3588 54.9373 33.9413V35.7955C54.9373 37.4863 53.5619 38.8619 51.871 38.8619H37.3281C36.7455 38.8619 36.2734 39.3341 36.2734 39.9165C36.2734 40.499 36.7455 40.9712 37.3281 40.9712H51.871C54.7248 40.9712 57.0467 38.6494 57.0467 35.7955V33.9413C57.0467 33.3588 56.5746 32.8866 55.992 32.8866Z" fill="#4F4F4F"/>
</svg>
