<svg width="81" height="81" viewBox="0 0 81 81" fill="none" xmlns="http://www.w3.org/2000/svg">
<path d="M65.6586 29.5086H62.9037V11.9048H65.6586C66.7389 11.9048 67.6146 12.7805 67.6146 13.8607V27.5521C67.6146 28.6329 66.7389 29.5086 65.6586 29.5086Z" fill="#2A2F4F"/>
<path d="M15.1054 19.0548H18.5698V11.9048H15.1054C14.4169 11.9048 13.8583 12.4628 13.8583 13.1513V17.8077C13.8583 18.4968 14.4169 19.0548 15.1054 19.0548Z" fill="#2A2F4F"/>
<path d="M15.1054 27.2443H18.5698V20.0942H15.1054C14.4169 20.0942 13.8583 20.6523 13.8583 21.3413V25.9978C13.8583 26.6862 14.4169 27.2443 15.1054 27.2443Z" fill="#2A2F4F"/>
<rect x="15" y="2" width="51" height="79" rx="8" fill="#3D4159"/>
<path d="M60.3143 70.7155H20.6844C18.7965 70.7155 17.2657 69.1854 17.2657 67.2975V16.8585C17.2657 14.9706 18.7965 13.4398 20.6844 13.4398H60.3143C62.2022 13.4398 63.733 14.9706 63.733 16.8585V67.2975C63.733 69.1854 62.2022 70.7155 60.3143 70.7155Z" fill="white"/>
<path d="M58.9091 62.1816C58.9091 65.345 56.3451 67.9091 53.1816 67.9091C50.0187 67.9091 47.4546 65.345 47.4546 62.1816C47.4546 59.0186 50.0187 56.4545 53.1816 56.4545C56.3451 56.4545 58.9091 59.0186 58.9091 62.1816Z" fill="#F74F4F"/>
<path d="M33.5455 62.1816C33.5455 65.345 30.9811 67.9091 27.8182 67.9091C24.6554 67.9091 22.0909 65.345 22.0909 62.1816C22.0909 59.0186 24.6554 56.4545 27.8182 56.4545C30.9811 56.4545 33.5455 59.0186 33.5455 62.1816Z" fill="#3FB777"/>
<path d="M47.1118 8.64805H33.887C33.2023 8.64805 32.6473 8.09248 32.6473 7.40776C32.6473 6.72366 33.2023 6.16809 33.887 6.16809H47.1118C47.7965 6.16809 48.3515 6.72366 48.3515 7.40776C48.3515 8.09248 47.7965 8.64805 47.1118 8.64805Z" fill="#2A2F4F"/>
<path d="M42.9787 76.3565C42.9787 77.7253 41.8688 78.8358 40.4994 78.8358C39.1299 78.8358 38.02 77.7253 38.02 76.3565C38.02 74.987 39.1299 73.8765 40.4994 73.8765C41.8688 73.8765 42.9787 74.987 42.9787 76.3565Z" fill="#2A2F4F"/>
<path d="M29.2595 39.3011C29.2595 41.1983 27.874 42.7711 26.0596 43.0628C25.8612 43.0949 25.6573 43.1116 25.449 43.1116C23.3442 43.1116 21.6385 41.4066 21.6385 39.3011C21.6385 37.1963 23.3442 35.4907 25.449 35.4907C25.6573 35.4907 25.8612 35.5073 26.0596 35.5401C27.874 35.8318 29.2595 37.4045 29.2595 39.3011Z" fill="#D3A489"/>
<path d="M29.2595 39.3011C29.2595 41.1983 27.874 42.7711 26.0596 43.0628C25.7302 41.8645 25.5541 40.6032 25.5541 39.3011C25.5541 37.9997 25.7302 36.7384 26.0596 35.5401C27.874 35.8318 29.2595 37.4045 29.2595 39.3011Z" fill="#BF8E75"/>
<path d="M26.8111 39.3011C26.8111 40.0532 26.2011 40.6631 25.4491 40.6631C24.697 40.6631 24.0876 40.0532 24.0876 39.3011C24.0876 38.549 24.697 37.9397 25.4491 37.9397C26.2011 37.9397 26.8111 38.549 26.8111 39.3011Z" fill="#BF8E75"/>
<path d="M51.7393 39.3011C51.7393 41.1983 53.1248 42.7711 54.9392 43.0628C55.1375 43.0949 55.3415 43.1116 55.5497 43.1116C57.6546 43.1116 59.3602 41.4066 59.3602 39.3011C59.3602 37.1963 57.6546 35.4907 55.5497 35.4907C55.3415 35.4907 55.1375 35.5073 54.9392 35.5401C53.1248 35.8318 51.7393 37.4045 51.7393 39.3011Z" fill="#D3A489"/>
<path d="M51.7393 39.3011C51.7393 41.1983 53.1248 42.7711 54.9392 43.0628C55.2685 41.8645 55.4447 40.6032 55.4447 39.3011C55.4447 37.9997 55.2685 36.7384 54.9392 35.5401C53.1248 35.8318 51.7393 37.4045 51.7393 39.3011Z" fill="#BF8E75"/>
<path d="M56.9117 39.3011C56.9117 40.0532 56.3017 40.6631 55.5497 40.6631C54.7976 40.6631 54.1876 40.0532 54.1876 39.3011C54.1876 38.549 54.7976 37.9397 55.5497 37.9397C56.3017 37.9397 56.9117 38.549 56.9117 39.3011Z" fill="#BF8E75"/>
<path d="M54.6771 37.276C54.6771 44.3315 49.5231 50.1838 42.7748 51.2708C42.0344 51.3919 41.2749 51.4537 40.4994 51.4537C32.6689 51.4537 26.3223 45.1065 26.3223 37.276C26.3223 33.5712 27.6089 28.0094 29.9356 25.4843C32.5262 22.6719 36.3737 23.0989 40.4994 23.0989C41.2749 23.0989 42.0344 23.1601 42.7748 23.2818C49.5231 24.3682 54.6771 30.2211 54.6771 37.276Z" fill="#BF8E75"/>
<path d="M54.6771 37.276C54.6771 44.3315 49.5231 50.1837 42.7747 51.2708C36.027 50.1837 30.873 44.3315 30.873 37.276C30.873 32.9322 32.8271 29.0432 35.9053 26.4428C37.8247 24.8193 40.1823 23.6996 42.7747 23.2818C49.0658 24.2941 53.9732 29.4511 54.6072 35.8627C54.6536 36.3274 54.6771 36.7995 54.6771 37.276Z" fill="#D3A489"/>
<path d="M39.67 19.0486C43.965 19.3551 47.4133 22.8245 47.6315 27.1918L47.6723 28.0118H50.1423L51.4735 36.8601L54.6963 35.8626L54.2637 27.1924C54.035 22.6045 50.2406 19.0091 45.649 19.0258L39.67 19.0486Z" fill="#2A2F4F"/>
<path d="M53.9906 15.6263C57.4105 19.0468 57.4105 24.5913 53.9906 28.0112C50.5706 31.4318 45.0255 31.4318 41.6056 28.0112L53.9906 15.6263Z" fill="#3D4159"/>
<path d="M41.6055 28.0112H30.8576L29.5265 36.8601L26.3037 35.8626L26.7357 27.1918C26.9643 22.6051 30.7587 19.0091 35.351 19.0258L50.874 19.0845L52.9263 22.7781" fill="#3D4159"/>
<path d="M41.3293 19.0486C37.0343 19.3551 33.586 22.8245 33.3679 27.1918L33.3271 28.0118H30.8564L29.5259 36.8601L26.3031 35.8626L26.7357 27.1924C26.9643 22.6045 30.7587 19.0091 35.3503 19.0258L41.3293 19.0486Z" fill="#2A2F4F"/>
</svg>
