<svg width="62" height="62" viewBox="0 0 62 62" fill="none" xmlns="http://www.w3.org/2000/svg">
<g clip-path="url(#clip0)">
<path d="M54.1957 55.5863L50.8713 60.5677C50.2776 61.4636 49.2739 62.0019 48.1987 62H5.02359C4.19864 62.0024 3.40538 61.684 2.81079 61.1126L9.84464 54.8592V54.5281L10.3683 54.5172H53.3301L54.1957 55.5863Z" fill="#6C96AA"/>
<path d="M53.33 54.5173H10.3682L9.84454 54.5281L9.29915 11.7584L1.81641 19.2416V7.48274L9.29915 0L53.33 54.5173Z" fill="#802F34"/>
<path d="M9.84454 54.5281V54.8592L2.8107 61.1126C2.17732 60.5071 1.8183 59.6694 1.81641 58.7929V19.2416L9.29915 11.7584L9.84454 54.5281Z" fill="#ADCAD8"/>
<path d="M58.0228 55.5863H19.9889C11.2981 51.6417 9.6198 33.6938 9.33125 24.5863C9.22435 21.3579 9.29909 19.2416 9.29909 19.2416V11.7584H53.1265V19.2416C53.1265 19.2416 52.3247 42.4594 59.7327 52.1762C60.2209 52.8219 60.3004 53.689 59.9376 54.4127C59.5743 55.1364 58.8321 55.5915 58.0228 55.5863Z" fill="white"/>
<path d="M19.989 55.5863H11.4373C10.258 55.5825 9.30251 54.6275 9.29919 53.4482V24.5863H9.33136C9.6199 33.6938 11.2982 51.6417 19.989 55.5863Z" fill="#D7E8F0"/>
<path d="M49.92 0H9.29919V11.7584H53.1266V3.20709C53.1266 1.43562 51.691 0 49.92 0Z" fill="#E64C3C"/>
<path d="M52.1862 0.940842L41.3682 11.7584H34.9545L46.7129 0H49.92C50.7704 0 51.5859 0.338211 52.1862 0.940842Z" fill="#E64C3C"/>
<path d="M46.7129 0L34.9545 11.7584H28.5408L40.2992 0H46.7129Z" fill="#C03A2B"/>
<path d="M40.2992 0L28.5408 11.7584H22.1266L33.8855 0H40.2992Z" fill="#E64C3C"/>
<path d="M33.8855 0L22.1266 11.7584H15.7129L27.4718 0H33.8855Z" fill="#C03A2B"/>
<path d="M27.4718 0L15.7129 11.7584H9.29919L21.0581 0H27.4718Z" fill="#E64C3C"/>
<path d="M21.0581 0L9.29919 11.7584V5.34468L14.6439 0H21.0581Z" fill="#C03A2B"/>
<path d="M14.6439 0L9.29919 5.34468V0H14.6439Z" fill="#E64C3C"/>
<path d="M53.1266 3.20708V6.4137L47.7819 11.7584H41.3682L52.1862 0.940826C52.7884 1.54109 53.127 2.35658 53.1266 3.20708Z" fill="#C03A2B"/>
<path d="M53.1265 6.4137V11.7584H47.7819L53.1265 6.4137Z" fill="#E64C3C"/>
<path d="M40.0428 48.1035H33.6504C31.0847 41.4973 30.1334 32.657 29.7914 26.1042L24.2646 28.8619V22.4482L29.6311 17.1035H36.0235C36.0235 17.1035 35.4247 36.2165 40.0428 48.1035Z" fill="#C03A2B"/>
</g>
<defs>
<clipPath id="clip0">
<rect width="62" height="62" fill="white"/>
</clipPath>
</defs>
</svg>
