<svg width="53" height="54" viewBox="0 0 53 54" fill="none" xmlns="http://www.w3.org/2000/svg">
<g clip-path="url(#clip0)">
<path d="M30.4028 47.58C30.4028 44.0925 27.6182 41.2655 24.183 41.2655C20.7477 41.2655 17.9631 44.0925 17.9631 47.58C17.9631 51.0675 20.7477 53.8945 24.183 53.8945C27.6182 53.8945 30.4028 51.0675 30.4028 47.58Z" fill="#F1E7A0"/>
<path d="M24.183 41.2655C23.5542 41.2655 22.9473 41.3611 22.3752 41.5374C24.9285 42.3235 26.7873 44.7307 26.7873 47.58C26.7873 50.4289 24.9285 52.8365 22.3752 53.6226C22.9473 53.799 23.5542 53.8945 24.183 53.8945C27.6183 53.8945 30.4029 51.0675 30.4029 47.58C30.4029 44.0925 27.6183 41.2655 24.183 41.2655Z" fill="#C1B665"/>
<path d="M24.9098 10.7261C22.912 11.1336 20.9677 9.82015 20.5662 7.79194C20.1647 5.76414 21.4588 3.78989 23.4561 3.38244C25.4535 2.97498 27.3983 4.2884 27.7998 6.31661C28.2009 8.34441 26.9072 10.3187 24.9098 10.7261Z" fill="#FEF5B5"/>
<path d="M27.7998 6.31661C27.3983 4.2884 25.4536 2.97498 23.4562 3.38244C23.2702 3.42034 23.0907 3.47225 22.9177 3.5357C24.0837 3.96911 25.0071 4.99001 25.2696 6.31661C25.6338 8.15572 24.6031 9.95075 22.9181 10.5729C23.5348 10.8019 24.2191 10.867 24.9098 10.7261C26.9072 10.3187 28.2009 8.34441 27.7998 6.31661Z" fill="#C1B665"/>
<path d="M39.5883 46.5233H8.77749C6.02045 46.5233 3.78564 44.2545 3.78564 41.4558C3.78564 39.9063 4.47642 38.4401 5.66432 37.4674L6.6541 36.6566C8.9436 34.782 10.2749 31.9562 10.2749 28.9701V23.6444C10.2749 15.7865 16.5491 9.41681 24.289 9.41681C32.0286 9.41681 38.3031 15.7865 38.3031 23.6444V29.0686C38.3031 31.9982 39.5846 34.7771 41.8012 36.6533L42.765 37.469C43.9153 38.4426 44.5801 39.8845 44.5801 41.4047V41.4558C44.5801 44.2545 42.3453 46.5233 39.5883 46.5233Z" fill="#FEF5B5"/>
<path d="M42.7652 37.469L41.8013 36.6533C39.5848 34.7767 38.3033 31.9982 38.3033 29.0682V23.644C38.3033 15.7865 32.0287 9.41638 24.2892 9.41638C22.9177 9.41638 21.5929 9.61743 20.3406 9.99028C26.1577 11.721 30.4061 17.1786 30.4061 23.644V29.0682C30.4061 31.9982 31.6876 34.7767 33.9042 36.6533L34.8684 37.469C36.0182 38.4425 36.6835 39.8845 36.6835 41.4047V41.4558C36.6835 44.2544 34.4487 46.5233 31.6916 46.5233H39.5888C42.3454 46.5233 44.5802 44.2544 44.5802 41.4558V41.4047C44.5802 39.8845 43.9154 38.4425 42.7652 37.469Z" fill="#F1E7A0"/>
<path d="M49.378 12.1054C49.378 5.3616 43.9932 -0.105469 37.3503 -0.105469C30.7075 -0.105469 25.3223 5.3616 25.3223 12.1054C25.3223 18.8492 30.7075 24.3163 37.3503 24.3163C43.9932 24.3163 49.378 18.8492 49.378 12.1054Z" fill="#FF6363"/>
<path d="M40.5778 0.339874C43.6452 2.55266 45.6462 6.18927 45.6462 10.3005C45.6462 17.0443 40.2614 22.5114 33.6185 22.5114C32.5003 22.5114 31.4182 22.3561 30.3911 22.066C32.3553 23.4833 34.757 24.3163 37.3504 24.3163C43.9928 24.3163 49.378 18.8492 49.378 12.1054C49.378 6.49661 45.6531 1.77194 40.5778 0.339874Z" fill="#D94C4C"/>
<path d="M37.3503 17.8086C36.8864 17.8086 36.5104 17.4271 36.5104 16.9562V8.73372L36.1972 9.02417C35.8545 9.3414 35.3233 9.31668 35.011 8.96855C34.6986 8.62084 34.7229 8.08154 35.0657 7.76431L36.7843 6.17322C37.0302 5.9458 37.3847 5.88689 37.6894 6.02326C37.9937 6.15962 38.1898 6.46532 38.1898 6.80315V16.9562C38.1898 17.4271 37.8138 17.8086 37.3503 17.8086Z" fill="#E3FAFF"/>
</g>
<defs>
<clipPath id="clip0">
<rect width="53" height="54" fill="white"/>
</clipPath>
</defs>
</svg>
