<svg width="54" height="54" viewBox="0 0 54 54" fill="none" xmlns="http://www.w3.org/2000/svg">
<path d="M10.125 54V40.5H3.375C1.51117 40.5 0 38.9888 0 37.125V6.75C0 4.88617 1.51117 3.375 3.375 3.375H50.625C52.4888 3.375 54 4.88617 54 6.75V37.125C54 38.9888 52.4888 40.5 50.625 40.5H30.8661L10.125 54Z" fill="#1D73AC"/>
<path d="M8.4375 13.5H16.875C17.8069 13.5 18.5625 14.2556 18.5625 15.1875C18.5625 16.1194 17.8069 16.875 16.875 16.875H8.4375C7.50558 16.875 6.75 16.1194 6.75 15.1875C6.75 14.2556 7.50558 13.5 8.4375 13.5Z" fill="white"/>
<path d="M8.4375 20.25H16.875C17.8069 20.25 18.5625 21.0056 18.5625 21.9375C18.5625 22.8694 17.8069 23.625 16.875 23.625H8.4375C7.50558 23.625 6.75 22.8694 6.75 21.9375C6.75 21.0056 7.50558 20.25 8.4375 20.25Z" fill="white"/>
<path d="M8.4375 27H23.625C24.5569 27 25.3125 27.7556 25.3125 28.6875C25.3125 29.6194 24.5569 30.375 23.625 30.375H8.4375C7.50558 30.375 6.75 29.6194 6.75 28.6875C6.75 27.7556 7.50558 27 8.4375 27Z" fill="white"/>
<path d="M28.6875 31.597V23.625H25.3125C23.4487 23.625 21.9375 22.1138 21.9375 20.25V3.375C21.9375 1.51117 23.4487 0 25.3125 0H50.625C52.4888 0 54 1.51117 54 3.375V20.25C54 22.1138 52.4888 23.625 50.625 23.625H42.6366L28.6875 31.597Z" fill="#FFC32C"/>
<path d="M30.375 6.75H45.5625C46.4944 6.75 47.25 7.50558 47.25 8.4375C47.25 9.36942 46.4944 10.125 45.5625 10.125H30.375C29.4431 10.125 28.6875 9.36942 28.6875 8.4375C28.6875 7.50558 29.4431 6.75 30.375 6.75Z" fill="white"/>
<path d="M43.875 16.875H40.5V13.5H43.875V16.875ZM37.125 16.875H30.375C29.4431 16.875 28.6875 16.1194 28.6875 15.1875C28.6875 14.2556 29.4431 13.5 30.375 13.5H37.125V16.875Z" fill="white"/>
</svg>
