<svg width="64" height="64" viewBox="0 0 64 64" fill="none" xmlns="http://www.w3.org/2000/svg">
<g clip-path="url(#clip0)">
<path d="M62 64H2C0.9645 64 0.125 63.1605 0.125 62.125V23.125C0.125 22.0895 0.9645 21.25 2 21.25H62C63.0355 21.25 63.875 22.0895 63.875 23.125V62.125C63.875 63.1605 63.0355 64 62 64Z" fill="#FEF5B5"/>
<path d="M63.875 62.125V23.125C63.875 22.0895 63.0355 21.25 62 21.25H32V64H62C63.0355 64 63.875 63.1605 63.875 62.125Z" fill="#EDE28F"/>
<path d="M37.3367 44.2734C37.3367 43.2378 36.4972 42.3984 35.4617 42.3984H28.5384C27.5029 42.3984 26.6634 43.2379 26.6634 44.2734L0.482666 63.2233C0.823416 63.6931 1.37529 64 2.00004 64H62C62.6248 64 63.1767 63.6933 63.5174 63.2233L37.3367 44.2734Z" fill="#EDE28F"/>
<path d="M63.5174 63.2233L37.3366 44.2734C37.3366 43.2379 36.4971 42.3984 35.4616 42.3984H32V64H62C62.6248 64 63.1766 63.6933 63.5174 63.2233Z" fill="#D9CC73"/>
<path d="M37.3367 44.2734L63.1364 24.6164C63.611 24.2547 63.8852 23.6889 63.8748 23.0924C63.8644 22.4959 63.5707 21.9397 63.0838 21.595L33.0838 0.345C32.4347 -0.115 31.5655 -0.115 30.9163 0.345L0.916284 21.595C0.429284 21.9399 0.135659 22.4959 0.125284 23.0924C0.114909 23.6889 0.389034 24.2549 0.863659 24.6164L26.6634 44.2734H37.3367Z" fill="#D9CC73"/>
<path d="M37.3366 44.2734L63.1364 24.6164C63.611 24.2547 63.8851 23.6889 63.8748 23.0924C63.8644 22.4959 63.5706 21.9397 63.0838 21.595L33.0838 0.345C32.7591 0.115 32.3796 0 32 0V44.2734H37.3366Z" fill="#C9BA58"/>
<path d="M37.3366 44.2734L53.875 31.6728V9.375C53.875 8.3395 53.0355 7.5 52 7.5H12C10.9645 7.5 10.125 8.3395 10.125 9.375V31.6728L26.6634 44.2734H37.3366Z" fill="#FFFBF4"/>
<rect x="16" y="15" width="32" height="2" rx="1" fill="#E3E4EE"/>
<rect x="16" y="20" width="32" height="2" rx="1" fill="#E3E4EE"/>
<rect x="16" y="25" width="32" height="2" rx="1" fill="#E3E4EE"/>
</g>
<defs>
<clipPath id="clip0">
<rect width="64" height="64" fill="white"/>
</clipPath>
</defs>
</svg>
