<svg width="10" height="15" viewBox="0 0 10 15" fill="none" xmlns="http://www.w3.org/2000/svg">
<path d="M5 0.862671C2.24299 0.862671 0 3.13718 0 5.93292C0 9.40252 4.47451 14.4961 4.66502 14.7112C4.84396 14.9133 5.15637 14.913 5.33498 14.7112C5.52549 14.4961 10 9.40252 10 5.93292C9.99995 3.13718 7.75699 0.862671 5 0.862671ZM5 8.4839C3.61288 8.4839 2.4844 7.33954 2.4844 5.93292C2.4844 4.5263 3.6129 3.38196 5 3.38196C6.3871 3.38196 7.51557 4.52633 7.51557 5.93295C7.51557 7.33957 6.3871 8.4839 5 8.4839Z" fill="#BDBDBD"/>
</svg>
