<svg width="50" height="51" fill="none" xmlns="http://www.w3.org/2000/svg"><circle cx="25" cy="25.261" r="25" fill="#E0E0E0"/><path d="M33.596 30.498l-2.78-2.786c-.553-.553-1.47-.536-2.043.039l-1.4 1.403-.277-.154c-.884-.491-2.095-1.164-3.368-2.442-1.278-1.28-1.95-2.495-2.442-3.382-.052-.094-.101-.185-.15-.27l.94-.941.462-.464c.574-.576.59-1.494.037-2.049l-2.78-2.786c-.552-.554-1.47-.537-2.043.038l-.784.79.022.021a4.546 4.546 0 00-.646 1.142c-.15.397-.244.777-.287 1.157-.367 3.05 1.023 5.837 4.797 9.62 5.217 5.228 9.42 4.833 9.602 4.814a4.693 4.693 0 001.158-.292c.413-.162.8-.382 1.135-.644l.017.015.793-.78c.573-.574.59-1.493.038-2.048z" fill="#fff"/></svg>