<svg width="50" height="51" fill="none" xmlns="http://www.w3.org/2000/svg"><circle cx="25" cy="25.261" r="25" fill="#E0E0E0"/><path d="M18.536 22.96c.202.136.812.541 1.83 1.215 1.018.673 1.798 1.191 2.34 1.555l.379.26c.193.134.354.242.482.324.128.082.282.174.464.277.182.102.353.179.514.23.16.05.31.076.446.076h.018c.137 0 .286-.025.447-.076.16-.051.331-.128.513-.23.181-.103.336-.195.464-.277.128-.082.289-.19.482-.324.194-.134.32-.22.38-.26.547-.364 1.94-1.287 4.178-2.77.435-.29.798-.64 1.09-1.048.291-.41.437-.838.437-1.287 0-.375-.142-.696-.424-.963a1.414 1.414 0 00-1.005-.4H18.428c-.458 0-.81.147-1.058.442-.247.296-.37.665-.37 1.108 0 .358.164.746.491 1.164.327.417.676.745 1.045.984z" fill="#fff"/><path d="M32.107 23.872a185.964 185.964 0 00-4.446 2.94c-.34.239-.615.425-.826.559a5.2 5.2 0 01-.844.409c-.351.139-.678.208-.982.208h-.018c-.303 0-.631-.07-.982-.208a5.202 5.202 0 01-.844-.41c-.211-.133-.486-.32-.826-.558-.803-.562-2.282-1.542-4.437-2.94A4.67 4.67 0 0117 23.13v6.766c0 .376.14.697.42.964.28.267.616.4 1.009.4h13.143c.392 0 .729-.133 1.008-.4.28-.268.42-.588.42-.964v-6.766c-.256.272-.553.52-.893.74z" fill="#fff"/></svg>