<svg width="62" height="62" fill="none" xmlns="http://www.w3.org/2000/svg"><path d="M46.86.174H5.87A5.13 5.13 0 00.744 5.298V38.09a5.124 5.124 0 003.844 4.962l.513-1.984a3.074 3.074 0 01-2.307-2.978V5.298a3.074 3.074 0 013.074-3.074h40.99a3.074 3.074 0 013.075 3.074v1.025h2.05V5.298A5.13 5.13 0 0046.858.174z" fill="#67B7F0"/><path d="M6.894 4.273h-2.05v2.05h2.05v-2.05zM10.993 4.273h-2.05v2.05h2.05v-2.05zM15.092 4.273h-2.05v2.05h2.05v-2.05zM60.906 56.836l-9.72-9.72c.51-.911.919-1.877 1.217-2.878h1.63v-2.05h-1.19c.387-2.48.09-5.018-.86-7.343V24.769h-2.05v6.526a14.419 14.419 0 00-2.049-2.128V20.67h-2.05v7.065a14.255 14.255 0 00-2.049-.979V16.57h-2.05v9.563a14.187 14.187 0 00-2.049-.288V18.62h-2.05v7.225c-.689.046-1.374.142-2.049.288V22.72h-2.05v4.036a14.26 14.26 0 00-2.049.979v-6.04h-2.05v7.472a14.409 14.409 0 00-2.049 2.128v-7.55h-2.05v11.102a13.808 13.808 0 00-.86 7.343H10.993v2.05h13.926c2.248 7.58 10.215 11.904 17.796 9.656a14.318 14.318 0 004.18-2.024l9.487 9.488c.4.4 1.05.4 1.45 0l3.074-3.074c.4-.4.4-1.05 0-1.45zm-22.245-4.4c-6.788-.007-12.29-5.508-12.297-12.297 0-6.791 5.506-12.297 12.297-12.297 6.792 0 12.297 5.506 12.297 12.297 0 6.792-5.505 12.297-12.297 12.297zm18.446 6.75l-8.62-8.62a14.52 14.52 0 001.542-1.709l8.703 8.703-1.625 1.625z" fill="#67B7F0"/><path d="M38.661 29.892c-5.66 0-10.247 4.588-10.247 10.247 0 5.66 4.588 10.248 10.247 10.248 5.66 0 10.248-4.588 10.248-10.248-.006-5.657-4.59-10.241-10.248-10.247zm0 18.445a8.198 8.198 0 01-7.089-4.099h14.179a8.198 8.198 0 01-7.09 4.1zm-7.928-6.148a8.123 8.123 0 012.805-8.439v6.39h2.05v-7.595a8.158 8.158 0 012.049-.533v8.127h2.05v-8.127a8.158 8.158 0 012.049.533v7.594h2.05V33.75a8.123 8.123 0 012.804 8.439H30.733z" fill="#67B7F0"/><path d="M53.008 8.372h-40.99a5.13 5.13 0 00-5.124 5.124v32.792a5.13 5.13 0 005.124 5.124H25.34v-2.05H12.018a3.074 3.074 0 01-3.075-3.074V13.496a3.074 3.074 0 013.075-3.074h40.99a3.074 3.074 0 013.074 3.074v32.792c0 .749-.273 1.472-.768 2.033l1.537 1.356a5.117 5.117 0 001.28-3.39V13.497a5.13 5.13 0 00-5.123-5.124z" fill="#67B7F0"/><path d="M13.043 12.471h-2.05v2.05h2.05v-2.05zM17.142 12.471h-2.05v2.05h2.05v-2.05zM21.24 12.471h-2.049v2.05h2.05v-2.05zM15.092 33.99h-2.05v6.15h2.05v-6.15zM19.191 27.842h-2.05V40.14h2.05V27.842zM23.29 30.917h-2.05v9.222h2.05v-9.222z" fill="#67B7F0"/></svg>