<svg width="58" height="58" fill="none" xmlns="http://www.w3.org/2000/svg"><path d="M55.92 26.103l-5.102 5.028-8.275-8.157 5.102-5.028-1.363-1.344-10.32 10.172H21.34L11.021 16.602l-1.363 1.344 5.102 5.028-8.275 8.157-5.102-5.028-1.362 1.343 10.601 10.45 5.108 5.008-.77.76a2.906 2.906 0 000 4.175c.536.524 1.254.83 2.01.855.027.743.343 1.448.88 1.97.538.523 1.255.829 2.01.854.03.745.348 1.45.889 1.97.537.525 1.255.83 2.01.855.028.744.343 1.448.88 1.97a3.054 3.054 0 004.25 0l.762-.753.764.747a3.04 3.04 0 004.255-.004 2.946 2.946 0 00.877-1.974 3.026 3.026 0 002.011-.86 2.914 2.914 0 00.88-1.977 3.027 3.027 0 002.012-.862 2.913 2.913 0 00.88-1.977c1.654-.056 2.949-1.424 2.892-3.055a2.935 2.935 0 00-.881-1.992l-.73-.717 15.67-15.446-1.361-1.34zM7.847 32.474l8.275-8.156 3.456 3.406-8.275 8.157-3.456-3.407zm10.01 14.014c-.426.42-1.116.42-1.542 0a1.026 1.026 0 010-1.476l.784-.766 1.53 1.49-.772.752zm2.879 2.828a1.104 1.104 0 01-1.53-.002 1.028 1.028 0 01-.008-1.468l.008-.01.78-.76 1.521 1.49-.771.75zm2.904 2.823a1.104 1.104 0 01-1.542 0 1.026 1.026 0 010-1.476l.777-.76 1.52 1.49-.755.746zm2.891 2.826a1.104 1.104 0 01-1.534 0 1.026 1.026 0 010-1.477l.77-.755 1.52 1.49-.756.742zm14.458-8.522l-.005.005h.004a1.097 1.097 0 01-1.53 0l-1.446-1.42a.974.974 0 00-1.364.003.94.94 0 00.003 1.344l1.445 1.42c.419.408.42 1.074.006 1.486l-.005.006a1.097 1.097 0 01-1.531 0l-1.446-1.42a.974.974 0 00-1.363.003.94.94 0 00.003 1.344l1.445 1.419a1.041 1.041 0 010 1.492 1.097 1.097 0 01-1.53 0l-1.446-1.419a.974.974 0 00-1.363.002.94.94 0 00.002 1.344l1.446 1.42c.418.409.42 1.075.005 1.487l-.005.005a1.1 1.1 0 01-1.532 0l-18.114-17.74 8.674-8.55h3.095l-7.074 7.137a.94.94 0 00.007 1.336 6.821 6.821 0 004.494 1.972c1.707.089 3.371-.54 4.58-1.732a.911.911 0 00.114-.136l.349-.505a8.843 8.843 0 007.377 1.632l6.7 6.578c.418.409.42 1.075.005 1.487zm-.737-4.891l-4.043-3.97.73-.548a.842.842 0 00.097-.086l.964-.95-1.363-1.343-.916.903-.834.62a6.769 6.769 0 01-7.489-1.52.974.974 0 00-1.477.135l-.91 1.314a4.194 4.194 0 01-3.064 1.117 4.907 4.907 0 01-2.476-.818l7.659-7.732h8.833l8.674 8.55-4.385 4.328zM46 35.882l-8.275-8.158 3.457-3.406 8.275 8.156-3.457 3.407z" fill="#67B7F0"/><path d="M12.267 31.524H10.34v1.9h1.927v-1.9zM46.963 31.524h-1.927v1.9h1.927v-1.9zM30.579 17.274c4.256-.005 7.705-3.404 7.71-7.6a.957.957 0 00-.964-.95h-1.927a7.735 7.735 0 00-5.783 2.59v-3.54h.964c3.724-.004 6.742-2.979 6.746-6.65a.957.957 0 00-.963-.95h-1.928a6.767 6.767 0 00-5.783 3.242A6.766 6.766 0 0022.87.174H20.94a.957.957 0 00-.964.95c.005 3.671 3.023 6.646 6.747 6.65h.964v3.54a7.735 7.735 0 00-5.783-2.59h-1.928a.957.957 0 00-.963.95c.005 4.196 3.454 7.595 7.71 7.6h.964v1.507l-6.182 6.093h2.726l4.42-4.357 4.42 4.357h2.725l-6.182-6.093v-1.507h.964zm4.819-6.65h.884c-.474 2.74-2.882 4.747-5.703 4.75h-.884c.474-2.74 2.882-4.746 5.703-4.75zm-.964-8.55h.867c-.46 2.21-2.433 3.798-4.722 3.8h-.867c.46-2.21 2.433-3.797 4.722-3.8zm-7.71 3.8c-2.29-.002-4.262-1.59-4.723-3.8h.868c2.289.003 4.262 1.59 4.722 3.8h-.867zm0 9.5c-2.82-.003-5.229-2.01-5.703-4.75h.884c2.82.004 5.229 2.01 5.703 4.75h-.884z" fill="#67B7F0"/></svg>