<svg width="58" height="58" fill="none" xmlns="http://www.w3.org/2000/svg"><path d="M52.75 30.574h-.025a4.7 4.7 0 00.975-2.85v-1.9a4.75 4.75 0 00-9.5 0v1.9a4.705 4.705 0 00.98 2.857 4.758 4.758 0 00-3.884 2.166l-2.59 4.554-1.957-4.25a.883.883 0 00-.058-.107 4.908 4.908 0 00-3.927-2.356c.636-.82.982-1.827.986-2.864v-1.9a4.75 4.75 0 00-9.5 0v1.9a4.705 4.705 0 00.98 2.857 4.733 4.733 0 00-3.849 2.109.977.977 0 00-.075.135l-2.019 4.465-2.618-4.6a4.733 4.733 0 00-3.849-2.11 4.704 4.704 0 00.98-2.856v-1.9a4.75 4.75 0 00-9.5 0v1.9a4.7 4.7 0 00.975 2.85H5.25a4.756 4.756 0 00-4.75 4.75v7.6c0 .525.425.95.95.95H4.3v12.35c0 .525.425.95.95.95h7.6a.95.95 0 00.95-.95V38.636l2.994 4.791a.95.95 0 00.806.447h3.8a.95.95 0 00.82-.475c.007-.01.008-.02.014-.031.006-.01.011-.014.016-.022l2-3.998v16.876c0 .525.425.95.95.95h7.6a.95.95 0 00.95-.95V39.348l1.995 4c.005.01.012.017.017.025.005.009.007.02.012.029a.917.917 0 00.07.095c.022.03.045.06.07.088a.915.915 0 00.113.095c.066.06.145.104.231.129a.772.772 0 00.083.034.95.95 0 00.259.031h3.8a.95.95 0 00.806-.447l2.994-4.791v17.588c0 .525.425.95.95.95h7.6a.95.95 0 00.95-.95v-12.35h2.85a.95.95 0 00.95-.95v-7.6a4.756 4.756 0 00-4.75-4.75zm-6.65-4.75a2.85 2.85 0 015.7 0v1.9a2.85 2.85 0 11-5.7 0v-1.9zm-19.95 0a2.85 2.85 0 015.7 0v1.9a2.85 2.85 0 11-5.7 0v-1.9zm-19.95 0a2.85 2.85 0 115.7 0v1.9a2.85 2.85 0 11-5.7 0v-1.9zm5.7 29.45H10v-9.5H8.1v9.5H6.2v-11.4h5.7v11.4zm6.226-13.3l-4.47-7.153a.95.95 0 00-1.756.503v6.65H6.2v-6.65H4.3v6.65H2.4v-6.65a2.85 2.85 0 012.85-2.85H8.1v7.6H10v-7.6h2.598c.054 0 .11 0 .164.005h.148c.86.052 1.65.496 2.142 1.204l4.715 8.291h-1.64zm13.724 13.3h-1.9v-9.5h-1.9v9.5h-1.9v-11.4h5.7v11.4zM36.6 40.8l-2.945-5.9a.95.95 0 00-1.805.424v6.65h-5.7v-6.65a.95.95 0 00-1.8-.425l-2.95 5.9-.848-1.695 2.45-5.42a2.85 2.85 0 012.332-1.21h2.716v7.6h1.9v-7.6h2.598a2.967 2.967 0 012.502 1.43l2.396 5.203L36.6 40.8zm15.2 14.474h-1.9v-9.5H48v9.5h-1.9v-11.4h5.7v11.4zm3.8-13.3h-1.9v-6.65h-1.9v6.65h-5.7v-6.65a.95.95 0 00-1.756-.503l-4.47 7.153h-1.641l4.68-8.23a2.842 2.842 0 012.177-1.263h.149c.053 0 .109-.005.163-.005H48v7.6h1.9v-7.602h2.85a2.85 2.85 0 012.85 2.85v6.65z" fill="#67B7F0"/><path d="M29 .174C13.267.192.518 12.941.5 28.674v.95h1.9v-.95a26.448 26.448 0 012.572-11.4h8.7a39.401 39.401 0 00-.76 3.654l1.877.292c.211-1.33.493-2.646.844-3.946H28.05v1.9h1.9v-1.9h12.463c.352 1.3.635 2.616.848 3.945l1.878-.29c-.19-1.235-.461-2.448-.76-3.655h8.654a26.447 26.447 0 012.567 11.4v.95h1.9v-.95C57.482 12.941 44.733.192 29 .174zm-9.025 3.478a41.33 41.33 0 00-2.051 3.172h-4.069a26.527 26.527 0 016.12-3.172zm-5.78 11.722H5.978a26.774 26.774 0 015.455-6.65h5.44a40.62 40.62 0 00-2.68 6.65zm13.855 0H16.192c.74-2.3 1.695-4.527 2.85-6.65h9.008v6.65zm.004-8.55h-7.909A38.583 38.583 0 0122.57 3.33l.449-.57a26.5 26.5 0 015.035-.665v4.729zm16.09 0h-4.022a39.68 39.68 0 00-2.04-3.151 26.562 26.562 0 016.063 3.151zM29.95 2.098c1.713.06 3.417.286 5.086.675l.438.557a38.405 38.405 0 012.427 3.494H29.95V2.098zm0 13.276v-6.65h9.052a38.63 38.63 0 012.85 6.65H29.95zm13.901 0a40.678 40.678 0 00-2.68-6.65h5.395a26.77 26.77 0 015.455 6.65h-8.17z" fill="#67B7F0"/><path d="M17.6 25.824h-1.9v1.9h1.9v-1.9zM21.4 25.824h-1.9v1.9h1.9v-1.9zM38.5 25.824h-1.9v1.9h1.9v-1.9zM42.3 25.824h-1.9v1.9h1.9v-1.9z" fill="#67B7F0"/></svg>