<svg width="52" height="58" fill="none" xmlns="http://www.w3.org/2000/svg"><path d="M45.325 42.791v-2.176a14.077 14.077 0 006.65-11.941.95.95 0 00-.95-.95h-3.8a.95.95 0 00-.95.95 8.586 8.586 0 01-1.97 5.442c.044-.228.068-.46.07-.692v-1.9a3.8 3.8 0 00-7.6 0v1.9c.002.232.026.464.07.692a8.586 8.586 0 01-1.97-5.442.924.924 0 01-.037-.26L31.075 15.24v-2.176a14.077 14.077 0 006.65-11.941.95.95 0 00-.95-.95h-3.8a.95.95 0 00-.95.95 8.586 8.586 0 01-1.97 5.442c.044-.228.068-.46.07-.692v-1.9a3.8 3.8 0 00-7.6 0v1.9c.002.232.026.464.07.692a8.586 8.586 0 01-1.97-5.442.95.95 0 00-.95-.95h-3.8a.95.95 0 00-.95.95 14.091 14.091 0 006.65 11.939v3.118l-3.758 12.214a.97.97 0 00-.007.103.913.913 0 00-.035.176 8.586 8.586 0 01-1.97 5.442c.045-.228.068-.46.07-.692v-1.9a3.8 3.8 0 00-7.6 0v1.9c.002.232.026.464.07.692a8.586 8.586 0 01-1.97-5.442.95.95 0 00-.95-.95h-3.8a.95.95 0 00-.95.95 14.091 14.091 0 006.65 11.939v3.118L3.567 55.945a.95.95 0 00.908 1.229h3.8c.4 0 .756-.25.893-.625l2.907-7.995 2.907 7.995a.95.95 0 00.893.625h3.8a.95.95 0 00.913-1.21L16.825 42.79v-2.176a14.076 14.076 0 006.645-11.757l2.855-7.854 2.856 7.854a14.093 14.093 0 006.644 11.755v3.118l-3.758 12.214a.95.95 0 00.908 1.229h3.8c.4 0 .757-.25.893-.625l2.907-7.995 2.907 7.995a.95.95 0 00.893.625h3.8a.95.95 0 00.913-1.21L45.325 42.79zm-6.65-11.267a1.9 1.9 0 113.8 0v1.9a1.9 1.9 0 11-3.8 0v-1.9zm-14.25-27.55a1.9 1.9 0 113.8 0v1.9a1.9 1.9 0 11-3.8 0v-1.9zm-14.25 27.55a1.9 1.9 0 113.8 0v1.9a1.9 1.9 0 11-3.8 0v-1.9zm5.225 7.727a.95.95 0 00-.475.823v2.85c0 .088.012.176.037.26l3.454 12.09H16.54l-3.572-9.825a.95.95 0 00-1.786 0L7.61 55.274H5.761l3.42-11.12a.96.96 0 00.044-.28v-3.8a1.045 1.045 0 00-.53-.855 12.175 12.175 0 01-6.082-9.595H4.52a10.51 10.51 0 004.136 7.41.95.95 0 00.57.19h5.7a.95.95 0 00.57-.19 10.51 10.51 0 004.136-7.41h1.906a12.21 12.21 0 01-6.137 9.627zM27.218 17.9a.95.95 0 00-1.786 0l-3.572 9.825h-1.848l3.42-11.12a.961.961 0 00.043-.28v-3.8a1.046 1.046 0 00-.53-.855 12.175 12.175 0 01-6.082-9.595h1.906a10.51 10.51 0 004.136 7.41.95.95 0 00.57.19h5.7a.95.95 0 00.57-.19 10.511 10.511 0 004.137-7.41h1.905a12.21 12.21 0 01-6.137 9.627.95.95 0 00-.475.823v2.85c0 .088.012.176.037.26l3.454 12.09H30.79l-3.572-9.825zM45.04 55.274l-3.572-9.825a.95.95 0 00-1.786 0l-3.572 9.825h-1.849l3.42-11.12a.961.961 0 00.044-.28v-3.8a1.046 1.046 0 00-.53-.855 12.175 12.175 0 01-6.082-9.595h1.906a10.51 10.51 0 004.136 7.41.95.95 0 00.57.19h5.7a.95.95 0 00.57-.19 10.51 10.51 0 004.137-7.41h1.905a12.21 12.21 0 01-6.137 9.627.95.95 0 00-.475.823v2.85c0 .088.013.176.037.26l3.453 12.09H45.04z" fill="#67B7F0"/></svg>