<svg width="47" height="39" fill="none" xmlns="http://www.w3.org/2000/svg"><path d="M46.299 5.376a19.36 19.36 0 01-5.369 1.478A9.299 9.299 0 0045.03 1.68a18.57 18.57 0 01-5.908 2.266A9.318 9.318 0 0032.315.985c-5.158 0-9.311 4.205-9.311 9.36 0 .743.062 1.456.216 2.135-7.746-.38-14.6-4.108-19.205-9.789A9.383 9.383 0 006.878 15.2c-1.497-.029-2.965-.465-4.21-1.153v.103c0 4.548 3.23 8.325 7.466 9.195a9.259 9.259 0 01-2.443.308c-.597 0-1.199-.034-1.764-.16 1.207 3.707 4.633 6.431 8.706 6.52A18.669 18.669 0 013.08 34.003c-.764 0-1.497-.034-2.23-.128 4.127 2.673 9.018 4.2 14.293 4.2 17.145 0 26.519-14.266 26.519-26.63 0-.414-.014-.814-.034-1.21 1.849-1.318 3.403-2.965 4.67-4.86z" fill="#03A9F4"/></svg>