<svg width="43" height="25" fill="none" xmlns="http://www.w3.org/2000/svg"><path d="M21.077 24.705h2.528s.765-.084 1.154-.503c.36-.384.346-1.106.346-1.106s-.05-3.377 1.526-3.875c1.552-.49 3.547 3.265 5.66 4.71 1.597 1.092 2.811.853 2.811.853l5.652-.08s2.957-.18 1.555-2.495c-.113-.19-.817-1.71-4.202-4.838-3.544-3.275-3.068-2.743 1.2-8.405 2.6-3.449 3.64-5.555 3.314-6.455-.309-.858-2.221-.632-2.221-.632l-6.358.037s-.471-.063-.823.145c-.341.205-.56.68-.56.68s-1.008 2.668-2.352 4.937c-2.832 4.789-3.967 5.042-4.43 4.744-1.076-.692-.806-2.785-.806-4.27 0-4.64.706-6.575-1.378-7.076C23 .911 22.492.8 20.723.782c-2.27-.024-4.192.008-5.28.537-.724.352-1.282 1.14-.94 1.184.42.055 1.372.256 1.877.94.653.882.63 2.867.63 2.867s.375 5.462-.876 6.141c-.86.466-2.037-.484-4.562-4.83C10.278 5.396 9.3 2.935 9.3 2.935s-.188-.458-.524-.703c-.407-.297-.978-.392-.978-.392l-6.046.037s-.908.026-1.24.418c-.297.35-.025 1.072-.025 1.072S5.222 14.388 10.58 19.945c4.916 5.094 10.497 4.76 10.497 4.76z" fill="#1E88E5"/></svg>