<svg width="21" height="22" viewBox="0 0 21 22" fill="none" xmlns="http://www.w3.org/2000/svg">
<path d="M0 11.4466C0 5.64764 4.70148 0.946167 10.5004 0.946167C16.2994 0.946167 21 5.64764 21 11.4466C21 17.2455 16.2994 21.9462 10.5004 21.9462C4.70148 21.9462 0 17.2455 0 11.4466Z" fill="white"/>
<path d="M8.36862 14.6531C7.93732 14.1542 7.92953 13.351 8.35124 12.868L13.3263 7.17849C13.7481 6.69627 14.4459 6.71002 14.8778 7.20889C15.3098 7.70846 15.3175 8.51099 14.8958 8.99398L9.92006 14.6836C9.49832 15.1657 8.80059 15.152 8.36862 14.6531Z" fill="#219653"/>
<path d="M5.67491 10.1514C6.10903 9.66021 6.82536 9.67286 7.26773 10.1802L9.63118 12.8899C10.0736 13.3972 10.0808 14.2139 9.64734 14.7057C9.21323 15.1969 8.49682 15.1835 8.05445 14.6762L5.69108 11.9673C5.2487 11.46 5.24144 10.6426 5.67491 10.1514Z" fill="#219653"/>
</svg>
