<svg width="72" height="72" viewBox="0 0 72 72" fill="none" xmlns="http://www.w3.org/2000/svg">
<circle cx="36" cy="36" r="36" fill="#6FCF97"/>
<mask id="mask0" mask-type="alpha" maskUnits="userSpaceOnUse" x="0" y="0" width="72" height="72">
<circle cx="36" cy="36" r="36" fill="#6FCF97"/>
</mask>
<g mask="url(#mask0)">
<g clip-path="url(#clip0)">
<path d="M21.3554 40.6184L19.8415 39.8614C19.4872 39.6842 19.2633 39.322 19.2633 38.9258V34.9886C19.2633 34.5924 19.4872 34.2302 19.8415 34.053L21.3554 33.296V40.6184Z" fill="#707487"/>
<path d="M45.4144 54.2169V46.8947H26.5856V54.2169L36 62.5853L45.4144 54.2169Z" fill="#E6AF78"/>
<path d="M59.9714 57.6421L47.0274 54.5965C46.8319 54.5505 46.6521 54.4724 46.4838 54.3777L35.9999 60.4933L25.9249 54.0819C25.6641 54.3274 25.3403 54.5099 24.9726 54.5966L12.0286 57.6422C10.1384 58.087 8.80267 59.7735 8.80267 61.7152V69.9078C8.80267 71.0633 9.73932 71.9999 10.8947 71.9999H61.1049C62.2604 71.9999 63.197 71.0632 63.197 69.9078V61.7152C63.1972 59.7734 61.8614 58.0867 59.9714 57.6421Z" fill="#B4E1FA"/>
<path d="M26.5856 46.8947V54.6203C38.4452 58.8932 45.4144 48.1992 45.4144 48.1992V46.8946H26.5856V46.8947Z" fill="#D29B6E"/>
<path d="M22.4014 22.8358L23.313 42.8899C23.398 44.7633 24.3167 46.5007 25.8169 47.6259L30.1421 50.8698C31.2285 51.6845 32.5498 52.1251 33.9079 52.1251H38.0921C39.4502 52.1251 40.7715 51.6846 41.8579 50.8698L46.1831 47.6259C47.6833 46.5006 48.602 44.7634 48.6871 42.8899L49.5986 22.8358C49.5985 22.8358 22.4014 22.8358 22.4014 22.8358Z" fill="#F0C087"/>
<path d="M32.862 27.0198C37.0462 27.0198 43.3224 25.9737 44.811 22.8355H22.4014L23.313 42.8896C23.398 44.7631 24.3167 46.5003 25.8171 47.6256L30.1422 50.8695C31.2286 51.6842 32.55 52.1248 33.908 52.1248H36.0001C33.908 52.1248 29.7238 47.9406 29.7238 42.7105C29.7238 40.1524 29.7238 33.2961 29.7238 30.1578C29.7238 29.1118 30.7698 27.0198 32.862 27.0198Z" fill="#E6AF78"/>
<path d="M16.4823 65.2111L9.70402 59.1221C9.13603 59.8413 8.80304 60.7463 8.80304 61.7152V69.9078C8.80304 71.0634 9.73969 71.9999 10.8951 71.9999H18.2174V69.102C18.2173 67.6175 17.5865 66.2029 16.4823 65.2111Z" fill="#A0D2F0"/>
<path d="M55.5179 65.211L62.2962 59.1221C62.8642 59.8413 63.1972 60.7463 63.1972 61.7152V69.9078C63.1972 71.0633 62.2605 71.9999 61.1051 71.9999H53.7828V69.102C53.7828 67.6175 54.4136 66.2029 55.5179 65.211Z" fill="#A0D2F0"/>
<path d="M38.6152 71.9998H33.3849L34.0387 62.5853H37.9614L38.6152 71.9998Z" fill="#5B5D6E"/>
<path d="M38.6152 60.4932H33.3849V62.4619C33.3849 63.1079 33.9084 63.6314 34.5544 63.6314H37.4455C38.0915 63.6314 38.615 63.1079 38.615 62.4619V60.4932H38.6152Z" fill="#515262"/>
<path d="M26.4388 51.888L36.0002 60.4932C36.0002 60.4932 33.3225 61.8449 30.0181 64.5695C29.3365 65.1314 28.3054 64.9038 27.9398 64.0995L23.4477 54.217L24.8688 52.0855C25.2224 51.5546 25.9647 51.4614 26.4388 51.888Z" fill="#A0D2F0"/>
<path d="M45.5614 51.888L36.0001 60.4931C36.0001 60.4931 38.6778 61.8449 41.9821 64.5694C42.6637 65.1313 43.6948 64.9037 44.0604 64.0994L48.5525 54.2169L47.1315 52.0854C46.7777 51.5545 46.0354 51.4614 45.5614 51.888Z" fill="#A0D2F0"/>
<path d="M42.3417 15.9057L43.3223 22.8358C47.7988 23.7311 48.4439 30.7562 48.5368 32.7627C48.5536 33.1269 48.6699 33.4785 48.8674 33.7848L50.5754 36.4343C50.5754 36.4343 49.9908 32.0539 52.6675 29.112C52.6676 29.112 53.5867 11.7214 42.3417 15.9057Z" fill="#785550"/>
<path d="M23.4039 14.0314L24.9511 15.0883C17.9557 20.2532 19.2632 29.1119 19.2632 29.1119C21.3552 31.204 21.3552 36.4342 21.3552 36.4342L23.4473 34.3422C23.4473 34.3422 22.6399 28.2987 26.5854 25.9738C30.2466 23.8163 33.4501 24.9278 36.719 24.9278C45.4796 24.9278 47.9313 21.6261 47.5064 17.6054C47.2864 15.525 44.1056 11.1913 35.9999 11.3291C32.7287 11.3847 26.5856 12.3752 23.4039 14.0314Z" fill="#694B4B"/>
<path d="M22.7936 24.0125C22.7936 24.0125 21.6822 19.6321 24.9511 15.0885C17.9557 20.2533 19.2632 29.1121 19.2632 29.1121C21.3552 31.2041 21.3552 36.4344 21.3552 36.4344L23.4473 34.3423C23.4473 34.3423 22.6399 28.2989 26.5854 25.974C30.2466 23.8165 33.4501 24.9279 36.719 24.9279C38.1438 24.9279 39.3853 24.8325 40.4912 24.669C33.7445 24.8951 29.7675 19.7846 22.7936 24.0125Z" fill="#5A4146"/>
<path d="M22.9245 41.6644H21.3554C20.7777 41.6644 20.3093 41.1961 20.3093 40.6184V33.296C20.3093 32.7183 20.7777 32.25 21.3554 32.25H22.9245C23.2133 32.25 23.4475 32.4842 23.4475 32.7731V41.1413C23.4474 41.4303 23.2133 41.6644 22.9245 41.6644Z" fill="#5B5D6E"/>
<path d="M40.1843 47.6791V46.11C47.2641 46.11 48.8142 42.1457 48.8142 40.6183H50.3833C50.3832 42.5823 48.551 47.6791 40.1843 47.6791Z" fill="#464655"/>
<path d="M40.1843 47.9406H39.1383C38.5605 47.9406 38.0922 47.4723 38.0922 46.8946C38.0922 46.3169 38.5605 45.8486 39.1383 45.8486H40.1843C40.762 45.8486 41.2303 46.3169 41.2303 46.8946C41.2303 47.4723 40.7619 47.9406 40.1843 47.9406Z" fill="#5B5D6E"/>
<path d="M50.6447 40.6184L52.1586 39.8614C52.5129 39.6842 52.7368 39.322 52.7368 38.9258V34.9886C52.7368 34.5924 52.5129 34.2302 52.1586 34.053L50.6447 33.296V40.6184Z" fill="#707487"/>
<path d="M49.0756 41.6644H50.6447C51.2224 41.6644 51.6908 41.1961 51.6908 40.6184V33.296C51.6908 32.7183 51.2224 32.25 50.6447 32.25H49.0756C48.7868 32.25 48.5526 32.4842 48.5526 32.7731V41.1413C48.5527 41.4303 48.7868 41.6644 49.0756 41.6644Z" fill="#5B5D6E"/>
<path d="M49.5986 69.9076H42.2763C41.6986 69.9076 41.2303 70.3759 41.2303 70.9536V71.9997H50.6447V70.9536C50.6447 70.3761 50.1762 69.9076 49.5986 69.9076Z" fill="#A0D2F0"/>
</g>
</g>
<defs>
<clipPath id="clip0">
<rect x="5.6629" y="11.3258" width="60.6742" height="60.6742" fill="white"/>
</clipPath>
</defs>
</svg>
