<svg width="55" height="55" viewBox="0 0 55 55" fill="none" xmlns="http://www.w3.org/2000/svg">
<path d="M8 27.5008C8 16.7313 16.7313 8 27.5008 8C38.2702 8 47 16.7313 47 27.5008C47 38.2702 38.2702 47 27.5008 47C16.7313 47 8 38.2702 8 27.5008Z" fill="#333333"/>
<path d="M24.4058 31.78C23.7997 31.079 23.7888 29.9503 24.3813 29.2717L31.3721 21.277C31.9648 20.5994 32.9453 20.6187 33.5522 21.3197C34.1592 22.0217 34.17 23.1494 33.5775 23.828L26.5858 31.8228C25.9932 32.5003 25.0127 32.481 24.4058 31.78Z" fill="white"/>
<path d="M20.6207 25.4544C21.2307 24.7642 22.2372 24.782 22.8588 25.4949L26.1798 29.3024C26.8015 30.0153 26.8116 31.1628 26.2025 31.8539C25.5926 32.5441 24.5859 32.5253 23.9643 31.8124L20.6434 28.006C20.0218 27.2931 20.0116 26.1446 20.6207 25.4544Z" fill="white"/>
<path d="M0.5 27.5011C0.5 12.5895 12.5895 0.5 27.5011 0.5C42.4126 0.5 54.5 12.5895 54.5 27.5011C54.5 42.4126 42.4126 54.5 27.5011 54.5C12.5895 54.5 0.5 42.4126 0.5 27.5011Z" stroke="#333333"/>
</svg>
