<svg width="76" height="20" fill="none" xmlns="http://www.w3.org/2000/svg"><circle cx="67.871" cy="8.654" r="8.129" fill="#333"/><path d="M65.59 8.498V11h-1.11V5.493h1.11v2.061a1.715 1.715 0 011.313-.582c.451 0 .802.144 1.054.433.252.283.378.679.378 1.188V11h-1.11V8.82c0-.282-.07-.492-.212-.629a.724.724 0 00-.535-.204.979.979 0 00-.503.15 1.113 1.113 0 00-.386.361zM70.451 11h-1.109V7.074h1.11v.661a1.5 1.5 0 01.55-.535 1.58 1.58 0 01.818-.228c.063 0 .105.003.126.008v1.086a1.426 1.426 0 00-.346-.04c-.257 0-.493.068-.708.205-.21.13-.357.29-.44.48V11z" fill="#F0F1FA"/><path d="M6.906 12.337H5.628V6.53h1.278v.757c.441-.607 1.08-.91 1.916-.91.449 0 .835.094 1.159.283.323.19.548.442.674.757.213-.315.504-.568.875-.757.378-.19.792-.284 1.242-.284.646 0 1.151.201 1.514.603.362.402.544.978.544 1.727v3.631h-1.278V9.002c0-.954-.394-1.431-1.182-1.431-.308 0-.603.094-.887.284-.276.18-.477.41-.604.686v3.796H9.603V9.002c0-.954-.398-1.431-1.194-1.431-.3 0-.592.09-.876.272a1.737 1.737 0 00-.626.662v3.832zm9.211-2.91c0-.875.276-1.6.828-2.176.56-.583 1.278-.875 2.153-.875.6 0 1.108.158 1.526.473.82.584 1.23 1.459 1.23 2.626v.331h-4.447c.078.489.311.871.697 1.147.395.276.891.414 1.49.414.663 0 1.286-.173 1.87-.52v1.076c-.537.379-1.25.568-2.141.568s-1.652-.284-2.283-.852c-.615-.567-.923-1.305-.923-2.211zm1.301-.59h3.146a1.452 1.452 0 00-.413-.959c-.269-.284-.64-.426-1.112-.426-.45 0-.824.134-1.124.403-.292.26-.457.587-.497.981zm9.229 3.654c-.891 0-1.581-.316-2.07-.946v.792H23.3V4.058h1.277v3.264c.489-.63 1.179-.946 2.07-.946.82 0 1.494.296 2.022.887.528.584.793 1.305.793 2.165 0 .867-.265 1.592-.793 2.176-.528.591-1.202.887-2.022.887zm-.343-1.124c.536 0 .981-.185 1.336-.556.355-.378.532-.84.532-1.383 0-.537-.177-.99-.532-1.36a1.755 1.755 0 00-1.336-.568c-.363 0-.702.098-1.017.295-.308.19-.544.434-.71.734v1.797c.165.308.402.56.71.757.307.19.646.284 1.017.284zm7.34 0c.536 0 .99-.185 1.36-.556.363-.362.544-.824.544-1.383 0-.552-.181-1.01-.544-1.372a1.85 1.85 0 00-1.36-.556c-.544 0-1.001.185-1.372.556-.362.362-.544.82-.544 1.372 0 .56.181 1.02.544 1.383.37.37.828.556 1.372.556zm0 1.124c-.93 0-1.695-.296-2.294-.887-.6-.592-.9-1.317-.9-2.176 0-.852.3-1.573.9-2.165.599-.591 1.364-.887 2.294-.887.915 0 1.676.296 2.283.887.6.592.899 1.313.899 2.165 0 .851-.3 1.576-.9 2.176-.606.591-1.367.887-2.282.887zm5.031-1.739V7.653h-1.242V6.53h1.242V4.839h1.278v1.69h1.833v1.124h-1.834v2.733c0 .323.075.56.225.71.15.149.379.224.686.224.308 0 .6-.071.875-.213v1.1c-.276.19-.705.284-1.289.284-.552 0-.985-.15-1.3-.45-.316-.3-.474-.729-.474-1.289zm9.166 1.585h-5.109v-.84l2.308-2.16c.49-.455.85-.846 1.08-1.175.21-.314.315-.65.315-1.007 0-.37-.136-.668-.41-.891-.265-.231-.615-.347-1.048-.347-.727 0-1.413.305-2.056.913V5.624c.601-.51 1.325-.766 2.171-.766.693 0 1.28.2 1.763.598.489.399.734.92.734 1.563 0 .496-.123.947-.367 1.353-.26.413-.672.888-1.238 1.427l-1.584 1.51h3.44v1.028zm5.576 0h-1.133v-1.92h-3.808v-.88l3.808-4.543h1.133v4.437h1.143v.987h-1.143v1.919zm-1.133-5.864l-2.497 2.958h2.497V6.473z" fill="#333"/><path d="M20.641 16.35v2.416a.186.186 0 01-.288.155l-2.892-1.915H4.367C2.507 17.006 1 15.464 1 13.561V5.543C1 3.64 2.507 2.098 4.367 2.098h13.094" stroke="#333" stroke-width=".929"/></svg>