<svg width="86" height="86" fill="none" xmlns="http://www.w3.org/2000/svg"><path d="M85.798 38.825C83.698 17.036 65.339 0 43 0 19.252 0 0 19.252 0 43c0 19.782 13.359 36.44 31.546 41.455l54.252-45.63z" fill="#455A64"/><path d="M86 43c0-1.409-.07-2.801-.202-4.175L70.506 23.533 57.588 33.611 41.902 17.924 31.896 27.93l14.45 14.45-31.95 24.924 17.15 17.15A43.04 43.04 0 0043 86c23.748 0 43-19.252 43-43z" fill="#263238"/><path d="M67.865 22.435H39.261V37.39h32.343V26.174a3.75 3.75 0 00-3.739-3.74z" fill="#FF5722"/><path d="M39.26 16.826H18.136a3.75 3.75 0 00-3.74 3.74V37.39H43V20.565a3.75 3.75 0 00-3.74-3.739z" fill="#FF7043"/><path d="M33.652 59.826L43 13.087h10.516l3.506 7.01 7.01 3.506v36.223h-30.38z" fill="#E0F7FA"/><path d="M43 13.087H21.968v46.74H43v-46.74z" fill="#fff"/><path d="M53.516 13.087v10.516h10.517L53.516 13.087z" fill="#80DEEA"/><path d="M73.474 31.782H43l-3.74 17.761L43 67.304h28.604l5.026-31.828c.32-2.032-1.1-3.694-3.156-3.694z" fill="#FFAB91"/><path d="M60.387 52.535h-3.739v3.739h3.74v-3.74zM67.865 60.013h-3.739v3.74h3.74v-3.74z" fill="#FF8A65"/><path d="M12.34 31.782c-2.057 0-3.47 1.661-3.138 3.69l5.194 31.832H43V31.782H12.34z" fill="#FFCCBC"/><path d="M39.26 35.522h-3.738v3.739h3.739v-3.74z" fill="#FFAB91"/></svg>