<svg width="58" height="58" viewBox="0 0 58 58" fill="none" xmlns="http://www.w3.org/2000/svg">
<circle cx="29" cy="29" r="29" fill="white"/>
<mask id="mask0" mask-type="alpha" maskUnits="userSpaceOnUse" x="0" y="0" width="58" height="58">
<circle cx="29" cy="29" r="29" fill="white"/>
</mask>
<g mask="url(#mask0)">
<path d="M49.4123 23.1783H36.7277V29.5605H30.1592V37.3859H49.4123L45.1175 30.2821L49.4123 23.1783Z" fill="#FF6326"/>
<path d="M21.0596 17.8837H39.2581V32.0912H21.0596V17.8837Z" fill="#FF8E00"/>
<path d="M23.7072 13.275H18.4126V15.8058H19.7946V68.5873H22.3253V15.8058H23.7072V13.275Z" fill="#FFD321"/>
<path d="M39.2585 32.0913H30.1592V37.386L39.2585 32.0913Z" fill="#FF3838"/>
<path d="M49.4123 23.1783H36.7277V29.5605H30.1592V37.3859H49.4123L45.1175 30.2821L49.4123 23.1783Z" fill="#FF3838"/>
<path d="M39.2585 32.0913H30.1592V37.386L39.2585 32.0913Z" fill="#C30047"/>
<path d="M30.1592 17.8837H39.2585V32.0912H30.1592V17.8837Z" fill="#FF6326"/>
</g>
</svg>
