<svg width="41" height="40" viewBox="0 0 41 40" fill="none" xmlns="http://www.w3.org/2000/svg">
<path d="M10.25 0C8.84062 0 7.6875 1.125 7.6875 2.5V37.5C7.6875 38.875 8.84062 40 10.25 40H35.875C37.2844 40 38.4375 38.875 38.4375 37.5V10L28.1875 0H10.25Z" fill="#DFDFE0"/>
<path d="M30.75 10H38.4375L28.1875 0V7.5C28.1875 8.875 29.3406 10 30.75 10Z" fill="#B0B7BD"/>
<path d="M38.4375 17.5L30.75 10H38.4375V17.5Z" fill="#CAD1D8"/>
<path d="M33.3125 32.5C33.3125 33.1875 32.7359 33.75 32.0312 33.75H3.84375C3.13906 33.75 2.5625 33.1875 2.5625 32.5V20C2.5625 19.3125 3.13906 18.75 3.84375 18.75H32.0312C32.7359 18.75 33.3125 19.3125 33.3125 20V32.5Z" fill="#16A753"/>
<path d="M11.5581 25.4838L13.3404 23.305C13.8734 22.625 14.9086 23.4938 14.3244 24.1438C13.7106 24.8538 13.0649 25.6238 12.4499 26.4125L14.5396 28.9513C15.1034 29.7013 13.9771 30.42 13.4236 29.68L11.5376 27.3213L9.68368 29.7313C9.16093 30.46 8.00268 29.6413 8.58693 28.9613L10.6459 26.4125C10.0001 25.6225 9.3749 24.8538 8.75093 24.1438C8.10646 23.3938 9.30443 22.625 9.77593 23.3263L11.5581 25.4838Z" fill="white"/>
<path d="M15.8042 23.6838C15.8042 23.3538 16.0912 23.0738 16.4499 23.0738C16.7779 23.0738 17.0547 23.355 17.0547 23.6838V28.6913H19.8414C20.8446 28.6913 20.8664 30 19.8414 30H16.4512C16.0925 30 15.8055 29.7513 15.8055 29.3913V23.6838H15.8042Z" fill="white"/>
<path d="M21.784 24.5838C22.0197 22.6438 25.0204 22.295 26.4349 23.355C27.1319 23.9038 26.3939 24.7738 25.7789 24.3338C25.0204 23.865 23.2997 23.645 23.0845 24.6825C22.8077 26.3225 27.2639 25.3838 27.1921 28.0425C27.1204 30.5813 23.351 30.64 21.9365 29.5013C21.5969 29.2313 21.6085 28.7925 21.793 28.5213C22.0595 28.2625 22.3554 28.1725 22.7052 28.4525C23.5444 29.0113 25.7072 29.4313 25.8597 28.0113C25.7277 26.5338 21.4662 27.4225 21.784 24.5838Z" fill="white"/>
<path d="M32.0312 33.75H7.6875V35H32.0312C32.7359 35 33.3125 34.4375 33.3125 33.75V32.5C33.3125 33.1875 32.7359 33.75 32.0312 33.75Z" fill="#CAD1D8"/>
</svg>
