<svg width="40" height="40" viewBox="0 0 40 40" fill="none" xmlns="http://www.w3.org/2000/svg">
<path d="M10 0C8.625 0 7.5 1.125 7.5 2.5V37.5C7.5 38.875 8.625 40 10 40H35C36.375 40 37.5 38.875 37.5 37.5V10L27.5 0H10Z" fill="#DFDFE0"/>
<path d="M30 10H37.5L27.5 0V7.5C27.5 8.875 28.625 10 30 10Z" fill="#B0B7BD"/>
<path d="M37.5 17.5L30 10H37.5V17.5Z" fill="#CAD1D8"/>
<path d="M32.5 32.5C32.5 33.1875 31.9375 33.75 31.25 33.75H3.75C3.0625 33.75 2.5 33.1875 2.5 32.5V20C2.5 19.3125 3.0625 18.75 3.75 18.75H31.25C31.9375 18.75 32.5 19.3125 32.5 20V32.5Z" fill="#3BBCED"/>
<path d="M11.0913 23.6837C11.0913 22.8437 12.4113 22.8437 12.4113 23.6837V27.6312C12.4113 29.2012 11.6613 30.1512 9.93252 30.1512C9.08252 30.1512 8.37377 29.92 7.75377 29.1212C7.24377 28.5112 8.20377 27.6325 8.72377 28.2712C9.14377 28.7912 9.59377 28.9112 10.0325 28.8912C10.5913 28.8712 11.0825 28.62 11.0925 27.6312V23.6837H11.0913Z" fill="white"/>
<path d="M14.1675 23.6837C14.1675 23.3537 14.4275 22.9937 14.8475 22.9937H17.1562C18.4562 22.9937 19.6262 23.8637 19.6262 25.5312C19.6262 27.1112 18.4562 27.9912 17.1562 27.9912H15.4875V29.3112C15.4875 29.7512 15.2075 30 14.8475 30C14.5175 30 14.1675 29.7512 14.1675 29.3112V23.6837ZM15.4875 24.2525V26.7425H17.1562C17.8262 26.7425 18.3562 26.1512 18.3562 25.5312C18.3562 24.8325 17.8262 24.2525 17.1562 24.2525H15.4875Z" fill="white"/>
<path d="M26.7638 29.2312C26.0538 29.8212 25.1838 30.0712 24.3051 30.0712C22.2051 30.0712 20.7163 28.8725 20.7163 26.4925C20.7163 24.475 22.2863 22.9062 24.3938 22.9062C25.1838 22.9062 26.0526 23.175 26.6726 23.785C27.2813 24.3837 26.4026 25.2737 25.8038 24.745C25.4338 24.385 24.9138 24.115 24.3938 24.115C23.1851 24.115 22.0163 25.0837 22.0163 26.4925C22.0163 27.9725 22.9951 28.8725 24.3051 28.8725C24.9138 28.8725 25.4338 28.6912 25.8038 28.4225V27.1937H24.3051C23.4151 27.1937 23.5051 25.9737 24.3051 25.9737H26.3038C26.6738 25.9737 27.0126 26.2537 27.0126 26.5637V28.6925C27.0126 28.8725 26.9338 29.04 26.7638 29.2312Z" fill="white"/>
<path d="M31.25 33.75H7.5V35H31.25C31.9375 35 32.5 34.4375 32.5 33.75V32.5C32.5 33.1875 31.9375 33.75 31.25 33.75Z" fill="#CAD1D8"/>
</svg>
