<svg width="41" height="40" viewBox="0 0 41 40" fill="none" xmlns="http://www.w3.org/2000/svg">
<path d="M10.25 0C8.84062 0 7.6875 1.125 7.6875 2.5V37.5C7.6875 38.875 8.84062 40 10.25 40H35.875C37.2844 40 38.4375 38.875 38.4375 37.5V10L28.1875 0H10.25Z" fill="#DFDFE0"/>
<path d="M30.75 10H38.4375L28.1875 0V7.5C28.1875 8.875 29.3406 10 30.75 10Z" fill="#B0B7BD"/>
<path d="M38.4375 17.5L30.75 10H38.4375V17.5Z" fill="#CAD1D8"/>
<path d="M33.3125 32.5C33.3125 33.1875 32.7359 33.75 32.0312 33.75H3.84375C3.13906 33.75 2.5625 33.1875 2.5625 32.5V20C2.5625 19.3125 3.13906 18.75 3.84375 18.75H32.0312C32.7359 18.75 33.3125 19.3125 33.3125 20V32.5Z" fill="#A066AA"/>
<path d="M7.43262 23.6837C7.43262 23.3537 7.69784 22.9925 8.12834 22.9925H10.4961C11.8273 22.9925 13.0266 23.8625 13.0266 25.5312C13.0266 27.1112 11.8273 27.99 10.4961 27.99H8.78305V29.31C8.78305 29.7512 8.49862 30 8.12834 30C7.79009 30 7.43262 29.7512 7.43262 29.31V23.6837ZM8.78305 24.2525V26.7412H10.4948C11.1803 26.7412 11.7235 26.1512 11.7235 25.5312C11.7235 24.8312 11.1803 24.2525 10.4948 24.2525H8.78305Z" fill="white"/>
<path d="M14.3323 23.7837C14.3323 23.4225 14.4143 23.0737 14.9473 23.0737C15.3151 23.0737 15.3983 23.1637 15.6738 23.4225L19.064 27.5612V23.6837C19.064 23.3537 19.36 22.9925 19.7097 22.9925C20.0787 22.9925 20.4362 23.3537 20.4362 23.6837V29.31C20.4362 29.7512 20.1595 29.9187 19.893 30C19.5355 30 19.36 29.92 19.064 29.6512L15.6738 25.4525V29.3112C15.6738 29.7525 15.3971 30.0012 15.0281 30.0012C14.6591 30.0012 14.3311 29.7525 14.3311 29.3112V23.7837H14.3323Z" fill="white"/>
<path d="M28.1425 29.2313C27.4148 29.82 26.523 30.0713 25.6223 30.0713C23.4698 30.0713 21.9438 28.8713 21.9438 26.4925C21.9438 24.4738 23.5531 22.905 25.7133 22.905C26.523 22.905 27.4135 23.175 28.049 23.785C28.6743 24.3837 27.7723 25.2737 27.1585 24.745C26.7793 24.3837 26.2463 24.115 25.7133 24.115C24.4743 24.115 23.2763 25.0838 23.2763 26.4925C23.2763 27.9725 24.2796 28.8713 25.6223 28.8713C26.2463 28.8713 26.7793 28.6913 27.1585 28.4213V27.1937H25.6223C24.7101 27.1937 24.8023 25.9725 25.6223 25.9725H27.671C28.0503 25.9725 28.3975 26.2537 28.3975 26.5637V28.6925C28.3975 28.8713 28.3168 29.04 28.1425 29.2313Z" fill="white"/>
<path d="M32.0312 33.75H7.6875V35H32.0312C32.7359 35 33.3125 34.4375 33.3125 33.75V32.5C33.3125 33.1875 32.7359 33.75 32.0312 33.75Z" fill="#CAD1D8"/>
</svg>
