<svg width="58" height="58" viewBox="0 0 58 58" fill="none" xmlns="http://www.w3.org/2000/svg">
<path d="M58 29C58 44.9939 44.9939 58 29 58C13.0061 58 0 44.9939 0 29C0 13.0061 13.0061 0 29 0C44.9939 0 58 13.0061 58 29Z" fill="white"/>
<path d="M29 46.4242C38.6231 46.4242 46.4242 38.6231 46.4242 29C46.4242 19.3768 38.6231 11.5757 29 11.5757C19.3768 11.5757 11.5757 19.3768 11.5757 29C11.5757 38.6231 19.3768 46.4242 29 46.4242Z" fill="url(#paint0_linear)"/>
<path d="M34.4363 19.8454C33.809 19.4969 33.0423 19.706 32.6938 20.3333C32.3454 20.9606 32.5544 21.7272 33.1818 22.0757C35.8303 23.6091 37.5029 26.3969 37.5029 29.4636C37.5029 34.1332 33.6697 37.9666 28.9999 37.9666C24.3301 37.9666 20.4968 34.1334 20.4968 29.4636C20.4968 26.3969 22.1695 23.609 24.818 22.0757C25.4453 21.7272 25.6544 20.9606 25.3059 20.3333C24.9574 19.706 24.1908 19.4969 23.5635 19.8454C20.0786 21.7969 17.918 25.4909 17.918 29.4636C17.918 35.5969 22.8665 40.5454 28.9998 40.5454C35.1331 40.5454 40.0816 35.5969 40.0816 29.4636C40.0818 25.4909 37.9212 21.7969 34.4363 19.8454Z" fill="white"/>
<path d="M29 25.9091C29.697 25.9091 30.3242 25.3515 30.3242 24.5849V16.7788C30.3242 16.0818 29.7666 15.4546 29 15.4546C28.2333 15.4546 27.6758 16.0122 27.6758 16.7788V24.5849C27.6757 25.2819 28.303 25.9091 29 25.9091Z" fill="white"/>
<defs>
<linearGradient id="paint0_linear" x1="29" y1="11.5757" x2="29" y2="46.4242" gradientUnits="userSpaceOnUse">
<stop stop-color="#FFE24E"/>
<stop offset="1" stop-color="#FFA91F"/>
</linearGradient>
</defs>
</svg>
