<svg width="86" height="86" fill="none" xmlns="http://www.w3.org/2000/svg"><path d="M43 86c23.748 0 43-19.252 43-43S66.748 0 43 0 0 19.252 0 43s19.252 43 43 43z" fill="#D7F1FD"/><path d="M16.335 67.476l2.21 2.21 6.628-6.629-2.21-2.21-6.628 6.63zM18.544 60.87l-2.209-2.21 4.419-4.42 2.21 2.21-4.42 4.42z" fill="#FF9100"/><path d="M31.782 65.332l-2.21-2.21-4.418 4.419 2.209 2.21 4.419-4.42z" fill="#FF641A"/><path d="M39.973 26.164l-5.982 5.981 5.525 5.524 9.942-11.505h-9.485z" fill="#575F64"/><path d="M48.353 46.508l5.525 5.523 5.98-5.981v-9.486l-11.505 9.944zM35.79 56.86l-1.813 6.231 1.94 6.594 10.52-10.375V46.048L35.79 56.86z" fill="#32393F"/><path d="M26.108 51.743L36.2 39.584h-9.484L16.336 50.22l6.622 1.815 3.15-.291z" fill="#575F64"/><path d="M53.933 25.547l3.115 3.115.089.221 3.38 7.668-26.536 26.536-4.42-4.419.266-2.474v-.045l-2.475.31-4.42-4.42L49.47 25.547h4.463z" fill="#E0F4FF"/><path d="M58.065 20.84l3.535 3.58 2.607 2.607.708 5.127-4.42 4.419L49.47 25.547l4.397-4.441 4.198-.265z" fill="#BBDCFF"/><path d="M18.545 69.685l6.629-6.628-1.105-1.105-6.628 6.629 1.104 1.104z" fill="#FF641A"/><path d="M29.827 56.194l27.31-27.31 3.38 7.666-26.536 26.537-4.42-4.419.266-2.474z" fill="#BBDCFF"/><path d="M61.6 24.42l2.607 2.607.708 5.127-4.42 4.419-5.523-5.524L61.6 24.42z" fill="#9ABADB"/><path d="M69.665 16.355l-4.75 15.799-11.048-11.048 15.798-4.75z" fill="#FF641A"/><path d="M69.665 16.355l-4.75 15.799-5.524-5.525 10.274-10.274z" fill="#F03800"/><path d="M27.352 56.46l2.21 2.209 8.86-8.86-2.21-2.21-8.86 8.86zM47.238 36.573l2.21 2.21 4.419-4.42-2.21-2.209-4.419 4.42z" fill="#575F64"/><path d="M29.562 58.668l8.86-8.86-1.104-1.105-8.86 8.86 1.104 1.105zM49.448 38.782l4.42-4.419-1.106-1.105-4.419 4.42 1.105 1.104z" fill="#32393F"/></svg>