<svg width="86" height="86" fill="none" xmlns="http://www.w3.org/2000/svg"><path d="M43 86c23.748 0 43-19.252 43-43S66.748 0 43 0 0 19.252 0 43s19.252 43 43 43z" fill="#D7F1FD"/><g clip-path="url(#clip0)"><path d="M65.905 52.245l3.049-19.464a3.624 3.624 0 00-3.003-4.151l-41.133-6.603a3.622 3.622 0 00-4.151 3.003l-1.462 9.102v18l46.7.113z" fill="#054A7B"/><path d="M65.951 28.63L54.27 26.755c-7.847 12.006-20.532 20.322-30.26 25.389l41.896.101 3.049-19.464a3.624 3.624 0 00-3.003-4.151z" fill="#126099"/><path d="M20.623 33.227h41.66c2 0 3.622 1.622 3.622 3.622v23.547c0 2-1.622 3.623-3.622 3.623h-41.66c-2 0-3.623-1.622-3.623-3.623V36.85c0-2 1.622-3.622 3.623-3.622z" fill="#1D73AC"/><path d="M62.283 33.227h-.725c-8.55 15.178-24.524 25.589-34.276 30.792h35c2.001 0 3.623-1.622 3.623-3.623V36.85c0-2-1.622-3.622-3.622-3.622z" fill="#3E8CC7"/><path d="M30.585 37.755h-9.057V45h9.057v-7.245z" fill="#FDB62F"/><path d="M24.245 40.472h-2.717v1.811h2.717v-1.811zM30.585 40.472h-2.717v1.811h2.717v-1.811z" fill="#FD7B2F"/><path d="M56.849 59.49a4.528 4.528 0 100-9.056 4.528 4.528 0 000 9.057z" fill="#FDB62F"/><path d="M51.415 59.49a4.528 4.528 0 100-9.056 4.528 4.528 0 000 9.057z" fill="#DE4C3C"/><path d="M26.057 51.34h-5.434v1.811h5.434V51.34zM35.113 51.34H29.68v1.811h5.434V51.34zM44.17 51.34h-5.434v1.811h5.434V51.34zM44.17 56.774H20.623v1.811H44.17v-1.811zM50.51 37.755h-1.812v3.623h1.811v-3.623zM54.132 37.755H52.32v3.623h1.81v-3.623zM57.754 37.755h-1.81v3.623h1.81v-3.623zM61.377 37.755h-1.811v3.623h1.811v-3.623z" fill="#87CED9"/></g><defs><clipPath id="clip0"><path fill="#fff" d="M17 17h52v52H17z"/></clipPath></defs></svg>