<svg width="86" height="86" fill="none" xmlns="http://www.w3.org/2000/svg"><path d="M43 86c23.748 0 43-19.252 43-43S66.748 0 43 0 0 19.252 0 43s19.252 43 43 43z" fill="#D7F1FD"/><path d="M55.414 36.223v17.496a4.08 4.08 0 01-4.08 4.079l-14.127.058-8.276 9.104v-9.103h-5.852A4.08 4.08 0 0119 53.776V36.281a4.08 4.08 0 014.08-4.079l28.254-.059a4.08 4.08 0 014.08 4.08z" fill="#86C5FF"/><path d="M37.207 41.247H26.448a.827.827 0 110-1.655h10.759a.827.827 0 110 1.655zM47.966 46.212H26.448a.827.827 0 110-1.655h21.518a.827.827 0 110 1.655zM47.966 51.178H26.448a.827.827 0 110-1.655h21.518a.827.827 0 110 1.655z" fill="#fff"/><path d="M62.92 23.098l-28.254-.058a4.08 4.08 0 00-4.08 4.08v5.066l20.749-.043a4.08 4.08 0 014.079 4.08v15.261l5.793 6.372v-9.103h1.714A4.08 4.08 0 0067 44.673V27.179a4.08 4.08 0 00-4.08-4.08z" fill="#FF8F28"/></svg>