<svg width="86" height="86" fill="none" xmlns="http://www.w3.org/2000/svg"><path d="M43 86c23.748 0 43-19.252 43-43S66.748 0 43 0 0 19.252 0 43s19.252 43 43 43z" fill="#334D5C"/><path d="M43 18.619c-13.465 0-24.381 10.916-24.381 24.381S29.535 67.381 43 67.381 67.381 56.465 67.381 43 56.465 18.619 43 18.619z" fill="#FF6E1D"/><path d="M41.484 44.515a2.145 2.145 0 003.654-1.38L55.693 32.58l-2.273-2.274L43 40.726l-7.01-7.01-2.273 2.274 7.145 7.146c.032.538.265 1.021.622 1.38zM43 21.834c11.67 0 21.166 9.495 21.166 21.166 0 11.67-9.495 21.166-21.166 21.166-11.671 0-21.166-9.495-21.166-21.166 0-11.671 9.495-21.166 21.166-21.166z" fill="#fff"/><path d="M43.136 40.862L43 40.726l-7.01-7.01-2.273 2.274 7.145 7.146a1.426 1.426 0 01-.006-.136L43 40.856c.046 0 .091.002.136.006z" fill="#6DA8D6"/><path d="M55.693 32.58l-2.273-2.273L43 40.725l.136.136L45.143 43c0 .046 0 .091-.005.136L55.693 32.58z" fill="#98D9D5"/><path d="M42.295 42.568L32.016 52.847a.804.804 0 101.137 1.136l10.28-10.278-1.138-1.137z" fill="#185F8D"/><path d="M43 45.143A2.146 2.146 0 0045.143 43 2.146 2.146 0 0043 40.856 2.146 2.146 0 0040.857 43c0 1.182.961 2.143 2.143 2.143z" fill="#FFCC75"/><path d="M43 29.067a.804.804 0 01-.804-.803v-3.215a.804.804 0 111.608 0v3.215c0 .444-.36.803-.804.803zM60.951 43.804h-3.215a.804.804 0 010-1.608h3.215a.804.804 0 010 1.608zM43 61.755a.804.804 0 01-.804-.804v-3.215a.804.804 0 111.608 0v3.215c0 .444-.36.804-.804.804zM28.264 43.804h-3.215a.804.804 0 010-1.608h3.215a.804.804 0 010 1.608z" fill="#274B6D"/></svg>