<svg width="86" height="86" fill="none" xmlns="http://www.w3.org/2000/svg"><path d="M43 86c23.748 0 43-19.252 43-43S66.748 0 43 0 0 19.252 0 43s19.252 43 43 43z" fill="#3C3E55"/><g clip-path="url(#clip0)"><path d="M47.421 18h4.343c8.905 0 16.19 7.285 16.19 16.19 0 6.488-3.87 12.116-9.414 14.692a2.49 2.49 0 00-.728.517l-5.901 6.026a.302.302 0 01-.518-.211v-4.03a.806.806 0 00-.806-.805h-3.166c-8.904 0-16.19-7.285-16.19-16.19 0-8.904 7.286-16.189 16.19-16.189z" fill="#88B337"/><path d="M67.954 34.283c0 3.263-.967 6.31-2.627 8.865a16.393 16.393 0 01-6.786 5.914 2.478 2.478 0 00-.728.519l-5.902 6.061a.302.302 0 01-.517-.213v-3.327l4.073-4.183c.21-.216.456-.392.728-.52a16.399 16.399 0 006.786-5.913 16.222 16.222 0 002.628-8.865c0-4.973-2.247-9.444-5.77-12.436 4.84 2.822 8.115 8.095 8.115 14.098z" fill="#80A834"/><path d="M34.706 37.64h-3.524c-7.225 0-13.137 5.912-13.137 13.137 0 5.235 3.104 9.78 7.561 11.886.272.129.519.303.729.517l4.63 4.729c.19.193.519.059.519-.212V64.72c0-.445.36-.806.805-.806h2.417c7.225 0 13.137-5.912 13.137-13.137 0-7.225-5.912-13.136-13.137-13.136z" fill="#FFC143"/><path d="M47.843 50.777c0 5.634-3.596 10.47-8.606 12.325 3.47-2.516 5.761-6.748 5.761-11.52 0-3.834-1.477-7.319-3.859-9.846-2.38-2.527-5.665-4.095-9.278-4.095h2.845c3.612 0 6.897 1.477 9.278 3.858a13.096 13.096 0 013.859 9.278z" fill="#FFB509"/><path d="M34.803 46.341H25.77a.755.755 0 110-1.51h9.034a.756.756 0 010 1.51zM40.118 50.852H25.77a.755.755 0 110-1.51h14.349a.755.755 0 110 1.51zM40.118 55.363H25.77a.755.755 0 010-1.511h14.349a.755.755 0 110 1.511z" fill="#D65245"/><path d="M45.688 45.528a8.39 8.39 0 100-16.782 8.39 8.39 0 000 16.782z" fill="#E8594A"/><path d="M54.08 37.137a8.39 8.39 0 01-13.665 6.526 8.39 8.39 0 008.427-14.303 8.392 8.392 0 015.237 7.777z" fill="#D65245"/><path d="M43.164 36.07v-.147c0-1.75 1.079-2.399 2.45-2.399 1.384 0 2.473.65 2.473 2.399v2.922c0 1.75-1.11 2.399-2.535 2.399-1.665 0-2.388-1.037-2.388-1.917 0-.43.21-.566.64-.566.376 0 .711.105.711.514 0 .492.492.775 1.079.775.702 0 1.131-.377 1.131-1.205v-1.142c-.345.409-.848.535-1.393.535-1.183 0-2.168-.514-2.168-2.169zm3.561-.23c0-.828-.419-1.205-1.11-1.205-.68 0-1.09.377-1.09 1.204v.136c0 .87.41 1.194 1.1 1.194.67 0 1.1-.303 1.1-1.1v-.23z" fill="#FFF5F5"/></g><defs><clipPath id="clip0"><path fill="#fff" d="M18 18h50v50H18z"/></clipPath></defs></svg>