<svg width="86" height="86" fill="none" xmlns="http://www.w3.org/2000/svg"><path d="M43 86c23.748 0 43-19.252 43-43S66.748 0 43 0 0 19.252 0 43s19.252 43 43 43z" fill="#3C3E55"/><g clip-path="url(#clip0)"><path d="M57.281 68H28.719a1.465 1.465 0 01-1.465-1.465V20.83a2.83 2.83 0 012.83-2.83H57.28c.809 0 1.465.656 1.465 1.465v47.07c0 .81-.656 1.465-1.465 1.465z" fill="#FFF5F5"/><path d="M58.746 19.465v47.07c0 .81-.656 1.465-1.465 1.465h-4.462a2.83 2.83 0 002.83-2.83V20.83A2.83 2.83 0 0052.82 18h4.462c.809 0 1.465.656 1.465 1.465z" fill="#EFE2DD"/><path d="M57.281 68H28.719a1.465 1.465 0 01-1.465-1.465v-4.494h31.492v4.494c0 .81-.656 1.465-1.465 1.465zM58.746 24.19H27.254v-4.725c0-.81.656-1.465 1.465-1.465H57.28c.809 0 1.465.656 1.465 1.465v4.725z" fill="#4398D1"/><path d="M58.746 62.041v4.494c0 .81-.656 1.465-1.465 1.465h-4.468a2.83 2.83 0 002.83-2.83V62.04h3.103zM58.746 19.465v4.725h-3.103v-3.36a2.83 2.83 0 00-2.83-2.83h4.468c.809 0 1.465.656 1.465 1.465zM45.22 65.327h-4.44a.732.732 0 110-1.465h4.44a.732.732 0 110 1.465zM40.931 22.037h-2.068a.732.732 0 110-1.465h2.068a.732.732 0 110 1.465zM47.137 22.037h-3.819a.732.732 0 110-1.465h3.82a.732.732 0 110 1.465z" fill="#2970A3"/><path d="M48.7 51.573H32.684a1.127 1.127 0 01-1.127-1.127V38.613c0-.623.505-1.127 1.127-1.127H48.7c.623 0 1.127.505 1.127 1.127v11.833c0 .622-.504 1.127-1.127 1.127z" fill="#FFCD6B"/><path d="M43.9 43.813a3.817 3.817 0 00-6.415 0l-5.01 7.76H48.91l-5.01-7.76z" fill="#FA0"/><path d="M40.692 37.486H32.55l6.826 7.12a1.895 1.895 0 002.633 0l6.825-7.12h-8.142z" fill="#FFE1A8"/><path d="M48.905 41.177a5.536 5.536 0 100-11.072 5.536 5.536 0 000 11.072z" fill="#E8594A"/><path d="M54.441 35.64a5.536 5.536 0 01-10.217 2.957 5.536 5.536 0 007.162-7.905 5.531 5.531 0 013.055 4.949z" fill="#D65245"/><path d="M46.842 34.566v-.131c0-1.565.965-2.146 2.193-2.146 1.237 0 2.212.58 2.212 2.146v2.615c0 1.565-.994 2.146-2.268 2.146-1.49 0-2.137-.928-2.137-1.715 0-.385.188-.506.572-.506.337 0 .637.093.637.459 0 .44.44.693.965.693.628 0 1.013-.337 1.013-1.077v-1.022c-.31.366-.76.478-1.247.478-1.059 0-1.94-.46-1.94-1.94zm3.187-.206c0-.74-.375-1.078-.994-1.078-.609 0-.974.338-.974 1.078v.122c0 .778.365 1.068.983 1.068.6 0 .985-.272.985-.984v-.206z" fill="#FFF5F5"/></g><defs><clipPath id="clip0"><path fill="#fff" d="M18 18h50v50H18z"/></clipPath></defs></svg>