<svg width="86" height="86" fill="none" xmlns="http://www.w3.org/2000/svg"><path d="M43 86c23.748 0 43-19.252 43-43S66.748 0 43 0 0 19.252 0 43s19.252 43 43 43z" fill="#3C3E55"/><g clip-path="url(#clip0)"><path d="M67.576 67.153v-10.1c0-1.106-.54-2.142-1.445-2.777l-6.373-4.46c-.427-.3-.936-.46-1.458-.46h-5.13l.084 14.5a3.54 3.54 0 002.458 3.297h11.864z" fill="#FEC9A3"/><path d="M62.492 67.153h-5.933a3.39 3.39 0 01-3.39-3.39v-3.39h5.933l3.39 6.78z" fill="#FABD91"/><path d="M40.458 23.932c-.584.001-1.161.123-1.695.358V18H23.509a5.084 5.084 0 00-5.085 5.085v15.254h6.29a4.237 4.237 0 117.759 0h6.29V32.05a4.237 4.237 0 101.695-8.118z" fill="#88B337"/><path d="M59.102 23.085A5.084 5.084 0 0054.017 18H38.763v6.29a4.237 4.237 0 11-.001 7.76v6.289h6.29a4.237 4.237 0 107.759 0h6.29V23.084z" fill="#E8594A"/><path d="M59.102 23.569c-4.844 6.739-13.59 10.567-20.34 12.627v2.143h6.29a4.237 4.237 0 107.76 0h6.29v-14.77z" fill="#D65245"/><path d="M37.068 45.119c.584 0 1.16.123 1.695.357V38.34h-6.29a4.237 4.237 0 10-7.76 0h-6.29v15.255a5.084 5.084 0 005.086 5.085h15.254v-5.443a4.237 4.237 0 11-1.695-8.117z" fill="#FDB62F"/><path d="M18.424 53.593a5.084 5.084 0 005.085 5.085h15.254v-5.442a4.219 4.219 0 01-5.917-3.73 37.065 37.065 0 01-14.422 3.208v.88z" fill="#FFA719"/><path d="M61.318 56.05L55.956 41.73l-5.89 2.218a4.242 4.242 0 11-7.263 2.736l-5.888 2.218 2.509 6.702a4.196 4.196 0 00-1.712.261 4.25 4.25 0 002.979 7.959 4.203 4.203 0 001.462-.934L44.065 68l14.28-5.379a5.106 5.106 0 002.973-6.57z" fill="#4398D1"/><path d="M58.552 48.665c-5.847 8.746-16.809 11.8-23.23 12.852a4.21 4.21 0 006.83 1.372L44.064 68l14.282-5.379a5.106 5.106 0 002.972-6.568l-2.766-7.388z" fill="#3E8FC9"/><path d="M40.458 23.932c-.584.001-1.161.123-1.695.358v-1.23c-6.346 5.842-14.943 9.068-20.34 10.64v4.639h6.29a4.237 4.237 0 117.76 0h6.29V32.05a4.237 4.237 0 101.695-8.118z" fill="#80A834"/><path d="M57.422 56.15a2.097 2.097 0 10-2.996 2.937l.03.03 2.95 2.95a5.084 5.084 0 005.086 5.086h5.084v-.848L57.422 56.151z" fill="#FEC9A3"/></g><defs><clipPath id="clip0"><path fill="#fff" d="M18 18h50v50H18z"/></clipPath></defs></svg>