<svg width="86" height="86" fill="none" xmlns="http://www.w3.org/2000/svg"><path d="M43 86c23.748 0 43-19.252 43-43S66.748 0 43 0 0 19.252 0 43s19.252 43 43 43z" fill="#3C3E55"/><g clip-path="url(#clip0)"><path d="M22.367 21.145l-.008-.079h-.707c-4.918 0-3.446 5.607-3.446 5.607h7.283l1.143-5.06-4.265-.468z" fill="#D2D2D2"/><path d="M59.752 59.328c-1.96-11.83 2.004-38.262-5.173-38.262H21.652c9.246 0 0 43.868 8.754 43.868h2.101l1.132-.48-.355-.07 26.468-5.056z" fill="#EFEDEE"/><path d="M30.406 64.934c4.918 0 3.446-5.606 3.446-5.606h32.927s1.472 5.606-3.445 5.606H30.406z" fill="#D2D2D2"/><path d="M40.83 30.03H30.407a.754.754 0 110-1.51h10.425a.754.754 0 110 1.51zM55 55.41h-5.58a.754.754 0 110-1.508H55a.754.754 0 110 1.508zM53.566 34.539h-23.16a.754.754 0 110-1.509h23.16a.754.754 0 110 1.509zM53.566 38.642h-23.16a.754.754 0 110-1.509h23.16a.754.754 0 110 1.509zM48.53 42.745H30.406a.754.754 0 110-1.509H48.53a.754.754 0 110 1.509z" fill="#3A484A"/><path d="M53.983 30.138c-4.434 4.433-7.037 9.658-7.394 14.017 4.36-.356 9.584-2.96 14.018-7.393 4.433-4.433 7.037-9.658 7.393-14.018-4.36.357-9.584 2.96-14.017 7.394z" fill="#F2C42C"/><path d="M44.068 47.431a.755.755 0 01-.534-1.288l17.592-17.592a.755.755 0 111.067 1.067L44.601 47.21a.752.752 0 01-.533.221z" fill="#E0B629"/></g><defs><clipPath id="clip0"><path fill="#fff" d="M18 18h50v50H18z"/></clipPath></defs></svg>