<svg width="19" height="19" fill="none" xmlns="http://www.w3.org/2000/svg"><path d="M0 9.5a9.5 9.5 0 1119.001.001A9.5 9.5 0 010 9.501z" fill="#fff"/><path d="M7.993 11.585c-.296-.341-.301-.891-.012-1.222l3.405-3.895c.29-.33.767-.32 1.063.021.295.342.3.891.012 1.222l-3.406 3.895c-.29.33-.767.32-1.062-.02z" fill="#0079CE"/><path d="M6.149 8.503c.297-.336.787-.327 1.09.02l1.618 1.855c.303.347.308.906.01 1.243-.296.336-.787.327-1.09-.02L6.16 9.747c-.303-.348-.308-.907-.011-1.244z" fill="#0079CE"/></svg>