<svg width="25" height="25" fill="none" xmlns="http://www.w3.org/2000/svg"><path d="M0 12.5C0 5.598 5.597 0 12.5 0 19.404 0 25 5.597 25 12.5 25 19.404 19.404 25 12.5 25 5.598 25 0 19.404 0 12.5z" fill="#27AE60"/><path d="M10.517 15.244c-.389-.45-.396-1.173-.016-1.608l4.481-5.125c.38-.434 1.009-.422 1.398.027.389.45.396 1.173.016 1.608l-4.482 5.125c-.38.434-1.008.422-1.397-.027z" fill="#fff"/><path d="M8.09 11.189c.391-.443 1.036-.431 1.435.026l2.129 2.44c.398.457.405 1.193.014 1.636-.39.442-1.036.43-1.434-.027l-2.13-2.44c-.398-.457-.404-1.193-.014-1.635z" fill="#fff"/></svg>