<svg width="55" height="55" fill="none" xmlns="http://www.w3.org/2000/svg"><path d="M8 27.5C8 16.732 16.731 8 27.5 8 38.27 8 47 16.731 47 27.5 47 38.27 38.27 47 27.5 47 16.732 47 8 38.27 8 27.5z" fill="#333"/><path d="M24.406 31.78c-.606-.701-.617-1.83-.025-2.508l6.991-7.995c.593-.678 1.573-.658 2.18.043.607.702.618 1.83.026 2.508l-6.992 7.995c-.593.677-1.573.658-2.18-.043z" fill="#fff"/><path d="M20.62 25.454c.61-.69 1.617-.672 2.239.04l3.32 3.808c.623.713.633 1.86.024 2.552-.61.69-1.617.671-2.239-.042l-3.32-3.806c-.622-.713-.632-1.861-.023-2.552z" fill="#fff"/><path d="M.5 27.501C.5 12.59 12.59.5 27.501.5 42.413.5 54.5 12.59 54.5 27.501 54.5 42.413 42.413 54.5 27.501 54.5 12.59 54.5.5 42.413.5 27.501z" stroke="#333"/></svg>