<svg width="88" height="127" fill="none" xmlns="http://www.w3.org/2000/svg"><path d="M63.4 63.9c0 .6-.8.9-1.1.4l-.1-2.1-.1 2.1c-.4.4-.8.3-1 0l-.1-1.7-.1 1.7c-.3.4-.7.3-.9.1l-.1-2.2v2c0 .3-.3.6-.6.6s-.6-.3-.6-.6v-2l-.1 1.5c-.7-.3-.8-1.1-.7-1.8.3-1.9 1.1-1.3 1.1-4.3h4v.3c0 .7.2 1.4.5 2V60.2l-.1 3.7z" fill="#FFD05B"/><path d="M63.2 58.1v1.2c0 .1-.1.2-.2.2h-4.4c-.1 0-.2-.1-.2-.2v-1.2h4.8z" fill="#fff"/><path d="M58.4 63.6l.1-1.5v1.6c-.1 0-.1 0-.1-.1zM59.8 62.2l.1 2.2c-.1-.1-.1-.1-.1-.2v-2zM60.9 62.5l.1 1.7c0-.1-.1-.1-.1-.2 0 0 0 .1-.1.2l.1-1.7zM62.3 64.3c-.1-.1-.1-.1-.1-.2 0 .1 0 .1-.1.2l.1-2.1.1 2.1z" fill="#FFD05B"/><path d="M59.9 64.3c-.1-.1-.1-.1-.1-.2v-2l.1 2.2zM61 64.3c0-.1-.1-.1-.1-.2 0 .1-.1.2-.1.2l.1-1.7.1 1.7zM62.3 64.3c-.1-.1-.1-.1-.1-.2 0 .1 0 .1-.1.2l.1-2.1.1 2.1zM58.5 62.1v1.6h-.1l.1-1.6z" fill="#F9B54C"/><path d="M24.4 63.9c0 .6.8.9 1.1.4l.1-2.1.1 2.1c.4.4.8.3 1 0l.1-1.7.1 1.7c.3.4.7.3.9.1l.1-2.2v2c.1.9 1.3.8 1.3 0v-2l.1 1.5c.7-.3.8-1.1.7-1.8-.3-1.9-1.1-1.3-1.1-4.3h-4c0 .8-.1 1.4-.5 2.3 0 .1-.1.2-.1.3l.1 3.7z" fill="#FFD05B"/><path d="M24.6 58.1v1.2c0 .1.1.2.2.2h4.4c.1 0 .2-.1.2-.2v-1.2h-4.8z" fill="#fff"/><path d="M29.4 63.6l-.1-1.5v1.6c.1 0 .1 0 .1-.1zM28 62.2l-.1 2.2c.1-.1.1-.1.1-.2v-2zM26.9 62.5l-.1 1.7c0-.1.1-.1.1-.2 0 0 0 .1.1.2l-.1-1.7zM25.6 64.3c.1-.1.1-.1.1-.2 0 .1 0 .1.1.2l-.1-2.1-.1 2.1z" fill="#FFD05B"/><path d="M27.9 64.3c.1-.1.1-.1.1-.2v-2l-.1 2.2zM26.8 64.3c0-.1.1-.1.1-.2 0 .1.1.2.1.2l-.1-1.7-.1 1.7zM25.6 64.3c.1-.1.1-.1.1-.2 0 .1 0 .1.1.2l-.1-2.1-.1 2.1zM29.3 62.1v1.6h.1l-.1-1.6z" fill="#F9B54C"/><path d="M40.6 91.4L42.1 69c0-.5.2-.9.6-1.2.3-.3.7-.5 1.2-.5.9 0 1.7.7 1.8 1.6l1.5 22.4h8.7V54.8h-24v36.5h8.7v.1z" fill="#2B3B4E"/><path d="M47.4 22.7v5c0 1.9-1.5 3.5-3.4 3.5s-3.5-1.6-3.5-3.5v-5h6.9z" fill="#FFD05B"/><path d="M63.4 58.7c0 .1-.1.2-.3.2h-4.7c-.1 0-.2-.1-.3-.2l-1.2-18.5V60c0 .8-.6 1.4-1.4 1.4H32.2c-.8 0-1.4-.6-1.4-1.4V40.2c0 .2-1.2 18.7-1.4 18.7h-5c-.1 0-.1-.1-.1-.1-.8-17.4 2.2-25.5 4.4-28.7.9-1.3 2.3-2.2 3.9-2.4 6.5-1.1 5-.8 7.8-1.3l3.4 4.8 3.4-4.8 2.4.4 5.3.9c1.6.3 3 1.1 3.9 2.5 2.4 3.1 5.4 11.2 4.6 28.5z" fill="#324A5E"/><path opacity=".1" d="M47.4 22.7V26l-3.5 5.2-3.5-6.8v-1.7h7z" fill="#000"/><path d="M55.6 12.1c-.1 1.7-1.1 3.1-2.2 3.1s-1.9-1.4-1.7-3.1c.2-1.7 1.1-2.9 2.2-2.9 1-.1 1.8 1.2 1.7 2.9zM32.3 12.1c.1 1.7 1.1 3.1 2.2 3.1s1.9-1.4 1.7-3.1c-.2-1.7-1.1-2.9-2.2-2.9-1-.1-1.8 1.2-1.7 2.9z" fill="#F9B54C"/><path d="M53.9 6v9.1c0 4.3-2.7 8-6.5 9.4-6.1 2.4-13.4-2.1-13.4-9.4V3.8h19.5c.2.7.4 1.4.4 2.2z" fill="#FFD05B"/><path d="M53.9 6H36.2c-.8 0-1.5-.2-2.2-.5-.6-.3-1.3-.7-1.8-1.2-1.1-1.1-1.8-2.6-1.8-4.3h17.4c1.7 0 3.2.7 4.3 1.8.6.6 1.1 1.3 1.4 2.1.2.6.4 1.3.4 2.1zM48.2 13.7c-.7 0-1.3-.6-1.3-1.2 0-.7.6-1.3 1.3-1.3 1.7 0 1.7 2.5 0 2.5z" fill="#324A5E"/><path d="M48 12.5c-.6 0-.6-.9 0-.9.5 0 .5.9 0 .9z" fill="#fff"/><path d="M48.6 10.6c-.6-.2-1.5-.1-2.2.4l.3-.3c.5-.5 1.3-.7 1.9-.7.3 0 .6.1.6.1.5.1.3.9-.2.8.1-.1-.2-.2-.4-.3zM39.7 13.7c-.7 0-1.3-.6-1.3-1.2 0-.7.6-1.3 1.3-1.3 1.6 0 1.7 2.5 0 2.5z" fill="#324A5E"/><path d="M39.4 12.5c-.2 0-.4-.2-.4-.4s.2-.4.4-.4c.6-.1.6.8 0 .8z" fill="#fff"/><path d="M41.4 11.2c-.7-.5-1.5-.6-2.2-.4-.4.1-.7.4-.9 0-.5-.8 1.9-1.1 3.1.4zM53.9 6v5.2c-2.1 0-2.4-5.4-2.3-7.4h1.9c.2.7.4 1.4.4 2.2zM35.1 10.5c-.2.4-.7.7-1.2.7V3.8h2.3s.2 4.5-1.1 6.7z" fill="#324A5E"/><path d="M46.8 18.5c-.1.8-.4 1.4-.9 1.9s-1.2.9-2 .9c-1.5 0-2.7-1.2-2.8-2.8h5.7z" fill="#F9B54C"/><path d="M45.9 20.5c-.5.5-1.2.9-2 .9s-1.5-.3-2-.9c1.1-1.2 2.9-1.2 4 0z" fill="#FF7058"/><path d="M41.4 91.6c0 2.2-1.8 1.8-4.7 1.8-2.9 0-5.8.4-5.8-1.8s2.3-4 5.2-4c2.9 0 5.3 1.8 5.3 4z" fill="#2B3B4E"/><path opacity=".1" d="M41.4 91.6c0 2.2-2.3 1.8-5.2 1.8-2.9 0-5.2.4-5.2-1.8s2.3-4 5.2-4c2.8 0 5.2 1.8 5.2 4z" fill="#000"/><path d="M56.9 91.6c0 2.2-1.8 1.8-4.7 1.8-2.9 0-5.8.4-5.8-1.8s2.3-4 5.2-4c2.9 0 5.3 1.8 5.3 4z" fill="#2B3B4E"/><path opacity=".1" d="M56.9 91.6c0 2.2-2.3 1.8-5.2 1.8-2.9 0-5.2.4-5.2-1.8s2.3-4 5.2-4c2.8 0 5.2 1.8 5.2 4z" fill="#000"/><path d="M81.5 100.2H55.2v22.3h26.3v-22.3z" fill="#FFD05B"/><path d="M87.8 124.7c0 .6-.2 1.1-.6 1.5-.4.4-.9.6-1.5.6H2.2c-1.2 0-2.2-1-2.2-2.2 0-.6.2-1.2.6-1.5.4-.4.9-.6 1.5-.6h83.5c1.3 0 2.2 1 2.2 2.2z" fill="#324A5E"/><path d="M32.6 100.2H6.3v22.3h26.3v-22.3z" fill="#FF7058"/><path opacity=".1" d="M32.5 100.2h-6v22.3h6v-22.3zM61.2 100.2h-6v22.3h6v-22.3z" fill="#000"/><path d="M60.2 93.5H27.7v29h32.5v-29z" fill="#60CE7F"/><path d="M50.4 26.9l-4 10.7-.4 1.1-.1.3h-2l.2-.5.2-.5.4-1.1 3.8-10.3 1 .1.3.1.6.1z" fill="#FF7058"/><path d="M50.4 26.9l-4 10.7-.4 1.1-.1.3h-1l.1-.3.2-.4.4-1.1 3.9-10.5.3.1.6.1z" fill="#F9533D"/><path d="M43.9 39h-2l-.1-.3-.4-1.2-4-10.7c1.9-.3-.1 0 1.8-.3L43 36.8l.4 1.1.1.4.4.7z" fill="#FF7058"/><path d="M42.9 39h-1l-.1-.3-.4-1.2-4-10.7c.2 0 .8-.1.9-.1l3.9 10.4.4 1.1.1.4.2.4z" fill="#F9533D"/><path d="M48.3 42c.1.2.1.4-.1.5l-.2.1.1.2c.1.2 0 .4-.2.5l-.2.1v.2c0 .2-.1.4-.3.5h-.2v.2c0 .2-.2.4-.4.4h-.2v.2c0 .2-.2.4-.5.3h-.2l-.1.2c-.1.2-.3.3-.5.2l-.2-.1-.1.2c-.1.2-.4.2-.5.1l-.2-.1-.1.1c-.2.2-.4.2-.6 0l-.1-.1-.2.1c-.2.1-.4.1-.5-.1l-.1-.2-.2.1c-.2.1-.4 0-.5-.2l-.1-.2h-.2c-.2 0-.4-.1-.5-.3v-.2h-.3c-.2 0-.4-.2-.4-.4v-.2h-.2c-.2 0-.3-.2-.3-.5v-.2l-.2-.1c-.2-.1-.3-.3-.2-.5l.1-.2-.2-.1c-.2-.1-.2-.4-.1-.5l.1-.2-.1-.1c-.2-.2-.2-.4 0-.6l.1-.1-.1-.2c-.1-.2-.1-.4.1-.5l.2-.1-.1-.2c-.1-.2 0-.4.2-.5l.2-.1v-.2c0-.2.1-.4.3-.5h.2v-.2c0-.2.2-.4.4-.4h.2v-.2c0-.2.2-.4.5-.3h.2l.1-.2c.1-.2.3-.3.5-.2l.2.1.1-.2c.1-.2.4-.2.5-.1l.2.1.1-.1c.2-.2.4-.2.6 0l.1.1.2-.1c.2-.1.4-.1.5.1l.1.2.2-.1c.2-.1.4 0 .5.2l.1.2h.2c.2 0 .4.1.5.3v.2h.2c.2 0 .4.2.4.4v.2h.2c.2 0 .4.2.3.5v.2l.2.1c.2.1.3.3.2.5l-.1.2.2.1c.2.1.2.4.1.5l-.1.2.1.1c.2.2.2.4 0 .6l-.1.1.2.2z" fill="#FFD05B"/><path d="M46 38.7c-.2-.2-.5-.4-.8-.5-.3-.1-.6-.2-.9-.2h-.8c-.3 0-.6.1-.9.2-.3.1-.6.3-.8.5-.8.6-1.3 1.6-1.3 2.7 0 1.9 1.5 3.4 3.4 3.4s3.4-1.5 3.4-3.4c0-1.1-.5-2.1-1.3-2.7zm-2.1 5.7c-1.6 0-3-1.3-3-3 0-1 .5-1.9 1.2-2.4.2-.1.4-.3.6-.4.3-.1.6-.2.9-.2h.4c.3 0 .6.1.9.2.2.1.4.2.6.4.7.5 1.2 1.4 1.2 2.4.2 1.6-1.2 3-2.8 3z" fill="#F9B54C"/><path d="M45.7 41.1l-1 .8.4 1.2v.1H45l-1-.8-1 .8v-.1l.4-1.2-1-.8V41s0-.1.1-.1h1.3l.4-1.2c0-.1.1-.1.1 0l.4 1.2H46c-.3 0-.3.1-.3.2 0-.1 0 0 0 0z" fill="#F9B54C"/><path d="M49.8 26.8l-2.6 6.3c-.1.3-.4.3-.6.2l-2.6-2-2.6 2c-.2.2-.5.1-.6-.2l-2.6-6.3 2.4-.7 3.5 5.2 3.4-5.2 2.3.7z" fill="#E7EAEF"/></svg>