<svg width="16" height="16" fill="none" xmlns="http://www.w3.org/2000/svg"><path d="M0 7.554a7.554 7.554 0 1115.108 0A7.554 7.554 0 010 7.554z" fill="#fff"/><path d="M6.02 9.86c-.31-.358-.315-.936-.012-1.284l3.579-4.093c.303-.346.805-.337 1.116.022.31.36.316.937.013 1.285l-3.58 4.093c-.303.346-.805.337-1.116-.022z" fill="#219653"/><path d="M4.083 6.622c.312-.353.827-.344 1.145.02l1.7 1.95c.319.365.324.953.012 1.306-.312.354-.827.344-1.146-.02l-1.7-1.95c-.318-.364-.323-.953-.011-1.306z" fill="#219653"/></svg>