<svg width="113" height="113" fill="none" xmlns="http://www.w3.org/2000/svg"><path d="M78.496 85.413c0 2.636-.248 3.048-.577 5.93H34.265c-.412-2.882-.577-3.294-.577-5.93 0-14.496 6.013-20.014 17.215-20.838.412 0 .824-.082 1.318-.082 1.235-.083 2.553-.083 3.871-.083s2.636 0 3.871.083c.494 0 .989.082 1.483.082.494.082.988.082 1.482.165h.083c.164 0 .33.082.412.082 8.813 1.236 15.073 5.848 15.073 20.591z" fill="#60CE7F"/><path d="M60.705 56.585v9.308c0 1.235-.494 2.47-1.318 3.212-2.883 2.883-7.825.824-7.825-3.212v-9.308h9.143z" fill="#FFD05B"/><path opacity=".1" d="M63.422 66.305c0 7.742-3.294 14.496-5.271 17.873-.165.33-.412.659-.577.906-.33.577-.906.824-1.564.824-.66 0-1.236-.33-1.566-.824-.164-.247-.329-.577-.576-.988-3.954-6.837-5.354-13.097-5.19-19.356.66-.083 1.236-.165 2.142-.247 0 .247.083.576.248.906.164.329.576 1.07.74 1.482.166.412.166.906.33 1.318 1.565 4.283 8.649 1.07 9.308-3.706.494.082.988.082 1.482.164h.083c.164 0 .329.083.411.083V66.305z" fill="#000"/><path d="M62.928 66.305c0 7.577-3.13 14.166-5.189 17.626-.165.33-.412.659-.576.906-.248.412-.66.576-1.071.576-.412 0-.824-.164-1.071-.576-.165-.247-.33-.577-.577-.906-3.953-6.837-5.271-13.014-5.106-19.191.741-.083 1.565-.165 2.388-.247.66 2.718 3.624 5.106 4.448 5.518.824-.412 3.789-2.8 4.448-5.518.824.082 1.565.164 2.389.247-.083.494-.083 1.07-.083 1.565z" fill="#fff"/><path opacity=".1" d="M60.704 56.585v9.308c0 .988-.329 1.812-.823 2.553-2.224 1.07-3.789 1.565-3.789 1.565l-4.612-7.825v-5.6h9.224z" fill="#000"/><path d="M47.361 44.89h.33l-.33.329v-.33z" fill="#324A5E"/><path d="M66.059 53.867c-.66 0-.906-1.235-.577-2.8.33-1.565 1.153-2.883 1.812-2.883 1.565.082.33 5.683-1.235 5.683zM46.126 53.867c.659 0 .906-1.235.576-2.8-.33-1.565-1.153-2.883-1.812-2.883-1.647.082-.412 5.683 1.236 5.683z" fill="#F9B54C"/><path d="M67.706 43.736c0 6.26-5.19 16.638-11.614 16.638-6.425 0-11.614-10.378-11.614-16.638 0-6.26 5.19-9.884 11.614-9.884 6.425 0 11.614 3.625 11.614 9.884z" fill="#324A5E"/><path d="M63.01 41.265c.659 1.071 1.812 2.883 2.8 4.942 1.154 2.471 1.4 5.436.412 8.154-1.812 4.86-5.683 9.39-10.13 9.39-4.448 0-8.237-4.53-10.05-9.39-2.059-5.436 1.071-9.472 3.048-12.93.247-.495.824-.578 1.318-.33 3.954 2.882 7.742 2.553 11.284-.165.412-.33.989-.165 1.318.33z" fill="#FFD05B"/><path d="M48.35 38.63l1.4 2.141s-2.965 6.178-3.212 9.143c0 .164-.247.247-.33 0-2.8-7.33.412-11.86 2.142-11.284zM65.646 49.914C65.4 46.949 62.6 40.77 62.6 40.77l1.235-2.141s1.894-.577 2.965 3.459c.989 3.624-.988 9.06-1.153 7.825z" fill="#324A5E"/><path d="M58.233 72.235l-.988 1.73H54.94l-.989-1.73a.704.704 0 010-.577l.824-1.4c.082-.165.247-.247.494-.247 2.389 0 1.73-.33 2.965 1.73a.525.525 0 010 .494z" fill="#F9533D"/><path d="M57.739 83.93c-.165.33-.412.66-.577.907-.247.412-.658.576-1.07.576-.412 0-.824-.164-1.071-.576-.165-.247-.33-.577-.577-.906l.494-9.966h2.224l.577 9.966z" fill="#FF7058"/><path opacity=".1" d="M56.092 70.012v15.485c-.412 0-.824-.165-1.07-.577-.166-.247-.33-.576-.577-.906l.494-9.966-.989-1.73a.704.704 0 010-.576l.824-1.4c.247-.412.824-.33 1.318-.33z" fill="#000"/><path d="M56.092 70.011l-2.47 2.06a.507.507 0 01-.577.082c-3.46-2.224-3.79-7.331-3.79-7.331l2.225-1.4c0 3.789 4.612 6.589 4.612 6.589z" fill="#E7EAEF"/><path d="M62.846 64.74s-.33 5.106-3.789 7.33a.507.507 0 01-.576-.082l-2.471-2.06s4.612-2.882 4.612-6.671l2.224 1.483z" fill="#E7EAEF"/><path d="M69.765 51.15c-.083 0-.165 0-.248-.083-.329-.165-.576-.577-.411-.906.659-1.648.988-3.377.988-5.19 0-7.742-6.26-14.001-14.002-14.001-7.742 0-14.002 6.26-14.002 14.002 0 4.447 1.812 5.6.576 6.095-.33.165-.823 0-.906-.412-.741-1.812-1.07-3.706-1.07-5.683 0-8.566 6.918-15.485 15.484-15.485 8.566 0 15.485 6.919 15.485 15.485 0 1.977-.33 3.871-1.07 5.683-.248.33-.495.494-.824.494z" fill="#fff"/><path d="M67.622 37.23c-.412 0-.823-.165-1.153-.577-2.471-3.13-6.26-4.86-10.378-4.86s-7.907 1.812-10.378 4.86c-.494.659-1.4.741-2.06.247-.658-.494-.74-1.4-.246-2.06a16.138 16.138 0 0112.602-6.012c4.941 0 9.554 2.142 12.602 6.013.494.659.411 1.565-.248 2.059-.164.165-.411.33-.74.33zM59.798 58.727c-.33 0-.741 0-1.153-.082-1.236-.083-2.224-1.154-2.224-2.471 0-.33.247-.495.494-.495.33 0 .494.247.494.495 0 .74.577 1.317 1.236 1.4 6.507.576 8.072-4.366 8.154-4.448.082-.247.412-.412.659-.33.247.083.412.412.33.66 0 .164-1.648 5.27-7.99 5.27z" fill="#324A5E"/><path d="M58.397 53.62c0 .247-.33 2.636-1.4 2.636-1.07 0-1.4-2.306-1.4-2.636 0-.741.659-1.4 1.4-1.4.741 0 1.4.659 1.4 1.4zM70.506 49.255v2.306a.177.177 0 01-.165.165h-.577a.177.177 0 01-.164-.165v-2.306c0-.083.082-.165.164-.165h.577c.082.082.165.082.165.165z" fill="#324A5E"/><path d="M70.258 50.408c0 1.318-.412 2.389-.989 2.389-1.235 0-1.235-4.778 0-4.778.577 0 .989 1.071.989 2.389z" fill="#324A5E"/><path d="M69.434 47.772v5.354c0 .494-.658.494-1.564.741-.33.083-.577-.164-.577-.494v-5.93c0-.33.247-.494.576-.494l1.154.329c.247.082.412.247.412.494z" fill="#fff"/><path d="M67.293 47.608c0 5.27.247 6.095-.412 6.095s-.412-.824-.412-6.096c0-.247.165-.411.412-.411.247 0 .412.164.412.412z" fill="#54C0EB"/><path opacity=".1" d="M70.505 50.408v1.153a.177.177 0 01-.165.165h-.247c-.165.576-.412.988-.659 1.07v.33c0 .494-.659.494-1.565.741-.33.083-.577-.164-.577-.576 0 .576-.823.576-.823 0v-2.8h4.036v-.083z" fill="#000"/><path d="M41.678 49.255v2.306c0 .082.082.165.165.165h.576a.177.177 0 00.165-.165v-2.306c0-.165-.494-.165-.742-.165-.082.082-.164.082-.164.165z" fill="#324A5E"/><path d="M42.83 52.797c.495 0 .99-1.071.99-2.39 0-1.317-.413-2.388-.99-2.388-1.235 0-1.235 4.778 0 4.778z" fill="#324A5E"/><path d="M42.748 53.126c0 .247.165.412.412.494l1.154.247c.329.083.576-.164.576-.494 0-7.166.494-6.671-1.73-6.095-.659.082-.411.659-.411 5.848z" fill="#fff"/><path d="M44.89 53.29c0 .248.165.413.412.413.247 0 .412-.165.412-.412 0-5.272.247-6.095-.412-6.095-.741 0-.412.74-.412 6.095z" fill="#54C0EB"/><path opacity=".1" d="M41.678 50.408v1.153c0 .082.082.165.165.165h.247c.164.576.411.988.658 1.07v.33c0 .247.165.412.412.494l1.154.247c.329.083.576-.164.576-.494v-.082c0 .247.165.412.412.412.247 0 .412-.165.412-.412v-2.8h-4.036v-.083z" fill="#000"/><path d="M107.323 60.704c2.635 0 4.777-2.142 4.777-4.695 0-2.636-2.142-4.695-4.777-4.695h-6.672c-.247-2.718-.823-5.436-1.565-7.99l6.178-2.553c2.553-1.07 3.541-3.871 2.553-6.177-.988-2.389-3.789-3.542-6.177-2.554l-6.178 2.554a46.054 46.054 0 00-4.53-6.754l4.777-4.777c1.977-1.977 1.812-4.942 0-6.672-1.812-1.812-4.86-1.812-6.672 0l-4.694 4.777c-2.06-1.73-4.366-3.212-6.754-4.53l2.553-6.178c.988-2.47-.247-5.27-2.553-6.177-2.389-.988-5.19.165-6.178 2.553l-2.553 6.178c-2.553-.741-5.19-1.236-7.99-1.565V4.695C60.868 2.142 58.727 0 56.091 0a4.693 4.693 0 00-4.695 4.695v6.754c-2.718.33-5.354.824-7.99 1.565l-2.553-6.178C39.7 4.118 36.9 3.377 34.676 4.283c-2.389.988-3.542 3.706-2.553 6.177l2.553 6.178a46.062 46.062 0 00-6.754 4.53l-4.777-4.777c-1.812-1.812-4.86-1.812-6.672 0-1.894 1.894-1.894 4.86 0 6.672l4.777 4.777c-1.73 2.059-3.212 4.365-4.53 6.754l-6.177-2.554c-2.471-.988-5.19.165-6.178 2.554-.988 2.388.165 5.189 2.554 6.177l6.177 2.553a50.897 50.897 0 00-1.647 7.99H4.777C2.142 51.314 0 53.374 0 56.009c0 2.636 2.142 4.695 4.777 4.695h6.672c.33 2.718.824 5.436 1.647 7.99L6.92 71.245c-2.389.907-3.542 3.79-2.554 6.178.989 2.389 3.707 3.542 6.178 2.553l6.177-2.553a46.046 46.046 0 004.53 6.754l-4.777 4.777c-1.894 1.895-1.894 4.86 0 6.672a4.626 4.626 0 006.672 0l4.777-4.695a48.318 48.318 0 006.754 4.53l-2.553 6.178c-.989 2.388.164 5.189 2.553 6.177 2.389.988 5.19-.165 6.177-2.553l2.554-6.178c2.636.824 5.271 1.318 7.99 1.565v6.754c0 2.636 2.059 4.695 4.694 4.695 2.718 0 4.777-2.059 4.777-4.695v-6.754c2.718-.247 5.437-.741 7.99-1.565l2.553 6.178c.989 2.388 3.789 3.541 6.178 2.553 2.388-.988 3.541-3.789 2.553-6.177l-2.636-6.343a46.054 46.054 0 006.754-4.53l4.695 4.695c2.06 1.977 4.942 1.73 6.672 0a4.626 4.626 0 000-6.672l-4.777-4.777c1.73-2.059 3.212-4.283 4.53-6.754l6.177 2.554c2.471.988 5.107-.165 6.178-2.554.988-2.388-.165-5.189-2.554-6.177l-6.177-2.554c.741-2.553 1.318-5.189 1.565-7.99h6.754v.166zM56.091 88.79c-18.12 0-32.864-14.743-32.864-32.864 0-18.12 14.744-32.864 32.864-32.864 18.12 0 32.864 14.744 32.864 32.864 0 18.203-14.743 32.864-32.864 32.864z" fill="#324A5E"/></svg>