<svg width="136" height="128" fill="none" xmlns="http://www.w3.org/2000/svg"><path d="M42.1 127.2c-6.6 0-11.9-5.4-11.9-11.9V11.9C30.2 5.3 35.6 0 42.1 0h57.5c6.6 0 11.9 5.4 11.9 11.9v103.3c0 6.6-5.4 11.9-11.9 11.9H42.1v.1z" fill="#2B3B4E"/><path d="M109.4 11.9v103.3c0 5.4-4.4 9.7-9.7 9.7H42.1c-5.4 0-9.7-4.4-9.7-9.7V11.9c0-5.4 4.4-9.7 9.7-9.7h57.5c5.4 0 9.8 4.3 9.8 9.7z" fill="#324A5E"/><path d="M105 17H36.8v94.2H105V17z" fill="#E6E9EE"/><path d="M74.9 114.9v6.3c0 .3-.2.5-.5.5l-7.2-.9c-.2 0-.3-.2-.3-.4v-4.7c0-.2.1-.4.3-.4l7.2-.9c.3 0 .5.2.5.5z" fill="#fff"/><path d="M70.5 114.9v6.4l-.4-.1V115l.4-.1z" fill="#324A5E"/><path d="M70.5 114.9v6.4l-.4-.1V115l.4-.1z" fill="#324A5E"/><path d="M74.9 117.8v.6l-8-.1v-.4l8-.1z" fill="#324A5E"/><path d="M74.9 117.8v.6l-8-.1v-.4l8-.1z" fill="#324A5E"/><path d="M95.6 115.2c-1.2-1.2-3.2-1.2-4.4 0-.6.6-.9 1.4-.9 2.2 0 .6.2 1.3.6 1.8l-1.7 1.7c-.2.2-.2.6 0 .8.1.1.2.2.4.2s.3-.1.4-.2l1.7-1.7c.5.4 1.1.6 1.8.6.8 0 1.6-.3 2.2-.9.6-.6.9-1.4.9-2.2-.1-.9-.4-1.7-1-2.3zm-.7 3.6c-.8.8-2.1.8-2.8 0-.4-.4-.6-.9-.6-1.4 0-.5.2-1 .6-1.4.4-.4.9-.6 1.4-.6.5 0 1 .2 1.4.6.7.8.7 2 0 2.8zM50.5 118.5l-4.1 2.8c-.4.3-.9 0-.9-.5v-5.6c0-.4.5-.7.9-.5l4.1 2.8c.3.4.3.8 0 1z" fill="#fff"/><path d="M84.2 9.6c0 .8-.7 1.5-1.5 1.5H59.1c-.8 0-1.5-.7-1.5-1.5s.7-1.5 1.5-1.5h23.5c.9 0 1.6.6 1.6 1.5z" fill="#2B3B4E"/><path d="M70.9 80.7c-4.5 0-8.6-1.7-11.6-4.6l-3.1 3.1c8.6 8.1 21.8 8.4 30 .5l-3.6-3.6c-3.1 2.8-7.2 4.6-11.7 4.6z" fill="#F7B34C"/><path d="M53.8 63.6c0-4.5 1.7-8.6 4.6-11.6l-3.7-3.7c-7.8 8.3-7.6 21.5.5 30l3.1-3.1c-2.7-3.1-4.5-7.1-4.5-11.6z" fill="#55BFE9"/><path d="M70.9 46.5c4.5 0 8.6 1.7 11.6 4.6l3.1-3.1c-8.6-8.1-21.7-8.4-30-.5l3.7 3.7c3-3 7.1-4.7 11.6-4.7z" fill="#F05540"/><path d="M88 63.6c0 4.5-1.7 8.6-4.6 11.6l3.7 3.7c7.8-8.3 7.6-21.5-.5-30L83.5 52c2.7 3 4.5 7.1 4.5 11.6z" fill="#60CE7F"/><path opacity=".1" d="M84.1 51.2l-.8.8c2.8 3.1 4.6 7.1 4.6 11.6s-1.7 8.6-4.6 11.6l.8.8c3-3.2 4.9-7.6 4.9-12.4 0-4.8-1.8-9.2-4.9-12.4zM70.9 80.7c-4.5 0-8.6-1.7-11.6-4.6l-.8.8c3.2 3 7.6 4.9 12.4 4.9 4.8 0 9.2-1.9 12.4-4.9l-.8-.8c-3 2.8-7.1 4.6-11.6 4.6zm0-34.2c4.5 0 8.6 1.7 11.6 4.6l.8-.8c-3.2-3-7.6-4.9-12.4-4.9-4.8 0-9.2 1.9-12.4 4.9l.8.8c3-2.9 7.1-4.6 11.6-4.6zm-13.2 4.7c-3 3.2-4.9 7.6-4.9 12.4 0 4.8 1.9 9.2 4.9 12.4l.8-.8c-2.8-3.1-4.6-7.1-4.6-11.6S55.6 55 58.5 52l-.8-.8z" fill="#000"/><path d="M135.9 23.7v22c0 1.6-1.3 2.9-2.9 2.9H93.3c-1.6 0-2.9-1.3-2.9-2.9v-22c0-1.6 1.3-2.9 2.9-2.9h39.8c1.5 0 2.8 1.3 2.8 2.9z" fill="#FF7058"/><path d="M111.7 46.1L95.3 60.3c-.6.5-1.6.1-1.6-.7V46.2h18v-.1z" fill="#FF7058"/><path d="M130.1 28.6H96.2c-.4 0-.7-.3-.7-.7 0-.4.3-.7.7-.7h33.9c.4 0 .7.3.7.7 0 .4-.3.7-.7.7zM130.1 35.4H96.2c-.4 0-.7-.3-.7-.7 0-.4.3-.7.7-.7h33.9c.4 0 .7.3.7.7 0 .4-.3.7-.7.7zM113.2 42.2H96.3c-.4 0-.7-.3-.7-.7 0-.4.3-.7.7-.7h16.9c.4 0 .7.3.7.7 0 .3-.3.7-.7.7z" fill="#fff"/><path d="M0 36.3v22c0 1.6 1.3 2.9 2.9 2.9h39.7c1.6 0 2.9-1.3 2.9-2.9v-22c0-1.6-1.3-2.9-2.9-2.9H2.9c-1.6.1-2.9 1.3-2.9 2.9z" fill="#60CE7F"/><path d="M24.3 58.8L40.7 73c.6.5 1.6.1 1.6-.7V58.9h-18v-.1z" fill="#60CE7F"/><path d="M39.7 41.3H5.8c-.4 0-.7-.3-.7-.7 0-.4.3-.7.7-.7h33.9c.4 0 .7.3.7.7 0 .4-.3.7-.7.7zM39.7 48.1H5.8c-.4 0-.7-.3-.7-.7 0-.4.3-.7.7-.7h33.9c.4 0 .7.3.7.7.1.3-.3.7-.7.7zM22.8 54.8h-17c-.4 0-.7-.3-.7-.7 0-.4.3-.7.7-.7h16.9c.4 0 .7.3.7.7 0 .4-.2.7-.6.7z" fill="#fff"/><path d="M86.5 63.7c0 8.656-7.044 15.7-15.7 15.7-8.656 0-15.7-7.044-15.7-15.7 0-8.656 7.044-15.7 15.7-15.7 8.656 0 15.7 7.044 15.7 15.7z" fill="#E7EAEF"/><path d="M76.948 58.089c0 3.76-2.746 8.357-6.149 8.357s-6.149-4.596-6.149-8.357c0-3.761 2.746-5.313 6.15-5.313 3.402 0 6.148 1.552 6.148 5.313z" fill="#324A5E"/><path d="M64.65 64.297c0-3.76 2.746-8.357 6.15-8.357 3.402 0 6.148 4.596 6.148 8.357 0 3.76-2.746 5.313-6.149 5.313s-6.149-1.552-6.149-5.313z" fill="#324A5E"/><path d="M81.784 72.177v2.746c-2.806 2.805-6.686 4.477-10.985 4.477-4.298 0-8.118-1.731-10.984-4.477v-2.746c0-1.672 3.463-2.687 7.701-2.985H68.293c.417 0 .835-.06 1.253-.06 1.253-.06 2.567 0 3.82.06H74.143c4.178.299 7.64 1.313 7.64 2.985z" fill="#FF7058"/><path d="M74.082 69.132v.776c0 1.85-1.492 3.284-3.343 3.284a3.274 3.274 0 01-3.283-3.284v-.776c.239 0 .418 0 .657-.06 1.73-.119 3.582-.119 5.313 0 .238.06.477.06.656.06z" fill="#fff"/><path d="M73.486 69.132v.776a2.63 2.63 0 01-1.075 2.15c-.418.298-1.015.537-1.612.537a2.611 2.611 0 01-2.626-2.627v-.776c.298-.06.537-.298.537-.597v-3.701h4.239v3.701c-.06.239.179.478.537.537z" fill="#FFD05B"/><path opacity=".1" d="M73.486 69.132v.776a2.63 2.63 0 01-1.075 2.15l-3.701-3.88v-3.344h4.238v3.701c-.06.299.18.538.538.597z" fill="#000"/><path d="M77.008 62.208c-.24.895-.657 1.552-1.015 1.552-.299 0-.418-.717-.239-1.552.239-.896.716-1.612 1.015-1.612.358 0 .477.776.239 1.612zM64.591 62.208c.239.895.657 1.552 1.015 1.552.298 0 .418-.717.239-1.552-.24-.896-.717-1.612-1.015-1.612-.358 0-.418.776-.239 1.612z" fill="#F9B54C"/><path d="M76.053 63.282c-.836 4.239-2.925 5.194-5.253 5.194-2.328 0-4.418-.955-5.254-5.194-1.193-6.148 1.97-7.521 5.254-8.357 2.447 5.552 6.447 2.209 5.253 8.357z" fill="#FFD05B"/></svg>