<svg width="112" height="127" fill="none" xmlns="http://www.w3.org/2000/svg"><path d="M78.1 116.97c0 5.4-4.4 9.8-9.8 9.8s-9.8-4.4-9.8-9.8 4.4-9.8 9.8-9.8 9.8 4.4 9.8 9.8z" fill="#2B3B4E"/><path d="M86.8 90.87v25c0 2-1.6 3.6-3.6 3.6H53.4c-2 0-3.6-1.6-3.6-3.6v-25h37z" fill="#324A5E"/><path d="M98.5 74.07c-5.4 5.3-8.9 12.2-9.9 19.6-.3 2.1-2 3.7-4.1 3.7H52.1c-2.1 0-3.9-1.6-4.1-3.7-1.1-7.4-4.5-14.3-9.9-19.6-8-7.8-13-18.8-13-30.8 0-24.7 20.7-44.6 45.7-43.2 22 1.2 39.9 19.4 40.7 41.4.5 12.7-4.6 24.3-13 32.6z" fill="#FFD05B"/><path d="M102.8 43.27c0 19.1-15.2 34.3-34.3 34.3-15.7 0-29-10.2-33.3-24.5-.2-.6-.4-1.3-.5-1.9-.6-2.5-.9-5.2-.9-7.9 0-18.8 15.4-34.3 34.7-34.3 19.1 0 34.3 15.3 34.3 34.3z" fill="#E7EAEF"/><path d="M68.3 71.37c-15.5 0-28.2-12.6-28.2-28s12.6-28 28.2-28 28.2 12.6 28.2 28-12.7 28-28.2 28zm0-51.5c-13 0-23.6 10.5-23.6 23.4 0 12.9 10.6 23.4 23.6 23.4 13 0 23.6-10.5 23.6-23.4 0-12.9-10.6-23.4-23.6-23.4z" fill="#BFCAD3"/><path d="M68.3 59.57c-9 0-16.3-7.3-16.3-16.3s7.3-16.3 16.3-16.3 16.3 7.3 16.3 16.3-7.3 16.3-16.3 16.3zm0-27.7c-6.4 0-11.5 5.1-11.5 11.5s5.2 11.5 11.5 11.5c6.4 0 11.5-5.1 11.5-11.5s-5.2-11.5-11.5-11.5z" fill="#BFCAD3"/><path d="M68.3 42.87c-.3 0-.5.2-.5.5 0 .6 1 .6 1 0 0-.3-.2-.5-.5-.5z" fill="#fff"/><path d="M73.5 43.27c0 2.9-2.3 5.2-5.2 5.2-2.9 0-5.3-2.3-5.3-5.2 0-2.9 2.4-5.2 5.3-5.2 2.9.1 5.2 2.4 5.2 5.2z" fill="#FF7058"/><path opacity=".1" d="M65.5 44.57c0-.7.3-1.4.8-1.9l-2.1-.8c-.4.4-.9.7-1.5.9l.4 1.4-28.3 7c.1.7.3 1.3.5 1.9l28.2-6.9.1.6c.3-.1.7-.2 1.1-.3.1-.7.4-1.4.8-1.9z" fill="#000"/><path d="M17.2 43.17l-3.2 4.5c-.2.3-.5.4-.9.4l-10.9-.1c-.3 0-.5-.3-.3-.6l3.1-4.3-3-4.4c-.2-.2 0-.6.3-.6l10.9.1c.3 0 .7.2.9.5l3.1 4.5z" fill="#FF7058"/><path d="M68.6 44.07l-4.5 2.9c-.4.3-1.1 0-1.1-.5v-2l-62-.5c-.5 0-.9-.4-1-.9 0-.6.4-1.1 1-1.1l62 .5v-2c0-.5.7-.8 1.1-.5l4.5 3c.3.4.3.9 0 1.1z" fill="#324A5E"/></svg>