<svg width="130" height="111" fill="none" xmlns="http://www.w3.org/2000/svg"><path d="M95.322 108.561c0 4.99-13.748-.204-30.755-.204-17.008 0-30.756 5.194-30.756.204s13.748-13.952 30.756-13.952c17.007-.102 30.755 8.962 30.755 13.952z" fill="#2B3B4E"/><path d="M129.132 9.471v84.73c0 3.056-2.444 5.5-5.499 5.5H5.499A5.477 5.477 0 010 94.2V9.573c0-3.055 2.444-5.5 5.5-5.5h118.133c3.055-.101 5.499 2.445 5.499 5.398z" fill="#324A5E"/><path d="M123.633 9.573H5.499V79.74h118.134V9.573z" fill="#89D6F7"/><path d="M0 85.138V94.1c0 3.055 2.444 5.499 5.5 5.499h118.133a5.476 5.476 0 005.499-5.5v-8.961H0z" fill="#6A8397"/><path d="M68.13 92.368c0 2.037-1.629 3.565-3.564 3.565-2.037 0-3.564-1.63-3.564-3.565s1.63-3.564 3.564-3.564c2.037 0 3.565 1.63 3.565 3.564z" fill="#324A5E"/><path d="M58.252 92.368a1.826 1.826 0 01-1.833 1.834 1.826 1.826 0 01-1.833-1.834c0-1.018.815-1.833 1.833-1.833 1.019 0 1.833.815 1.833 1.833zM52.549 92.368a1.825 1.825 0 01-1.833 1.834 1.826 1.826 0 01-1.833-1.834c0-1.018.815-1.833 1.833-1.833s1.833.815 1.833 1.833zM70.88 92.368c0 1.019.815 1.834 1.834 1.834a1.826 1.826 0 001.833-1.834 1.826 1.826 0 00-1.834-1.833 1.825 1.825 0 00-1.833 1.833z" fill="#3EBBA3"/><path d="M76.584 92.368c0 1.019.814 1.834 1.832 1.834a1.826 1.826 0 001.834-1.834 1.826 1.826 0 00-1.834-1.833 1.825 1.825 0 00-1.832 1.833z" fill="#F7B34C"/><path opacity=".1" d="M119.254 9.573l-2.037 20.775-4.99 49.392H17.415L13.85 43.995l-3.462-34.32h108.866v-.102z" fill="#000"/><path d="M111.413.815H18.128V79.74h93.285V.815z" fill="#fff"/><path d="M17.415 79.638h1.527V68.131h11.814v11.507h1.527V68.131h11.813v11.507h1.528V68.131h11.813v11.507h1.528V68.131h11.813v11.507h1.528V68.131h11.813v11.507h1.528V68.131H97.46v11.507h1.528V68.131h11.813v11.507h1.528V.713a.696.696 0 00-.713-.713H18.331a.696.696 0 00-.713.713V79.638h-.203zM110.7 66.706H98.886V54.892H110.7v11.813zm0-13.341H98.886V41.55H110.7v11.813zm0-13.341H98.886V28.209H110.7v11.814zM98.886 1.528H110.7V13.34H98.886V1.528zm0 13.34H110.7v11.814H98.886V14.869zm-13.34-13.34h11.813V13.34H85.544V1.528zm0 13.34h11.813v11.814H85.544V14.869zm0 13.341h11.813v11.814H85.544V28.209zm0 13.341h11.813v11.814H85.544V41.55zm0 13.342h11.813v11.813H85.544V54.892zM72.203 1.528h11.814V13.34H72.203V1.528zm0 13.34h11.814v11.814H72.203V14.869zm0 13.341h11.814v11.814H72.203V28.209zm0 13.341h11.814v11.814H72.203V41.55zm0 13.342h11.814v11.813H72.203V54.892zM58.864 1.528h11.813V13.34H58.863V1.528zm0 13.34h11.813v11.814H58.863V14.869zm0 13.341h11.813v11.814H58.863V28.209zm0 13.341h11.813v11.814H58.863V41.55zm0 13.342h11.813v11.813H58.863V54.892zM45.521 1.528h11.814V13.34H45.522V1.528zm0 13.34h11.814v11.814H45.522V14.869zm0 13.341h11.814v11.814H45.522V28.209zm0 13.341h11.814v11.814H45.522V41.55zm0 13.342h11.814v11.813H45.522V54.892zm-1.425 11.813H32.282V54.892h11.813v11.813zm0-13.341H32.282V41.55h11.813v11.813zM32.18 1.528h11.814V13.34H32.18V1.528zm0 13.34h11.814v11.814H32.18V14.869zm0 13.341h11.814v11.814H32.18V28.209zm-1.425 38.496H18.942V54.892h11.814v11.813zm0-13.341H18.942V41.55h11.814v11.813zM18.942 1.528h11.814V13.34H18.942V1.528zm0 13.34h11.814v11.814H18.942V14.869zm0 13.341h11.814v11.814H18.942V28.209z" fill="#E7EAEF"/><path d="M18.128 59.78a5.694 5.694 0 01-5.703-5.703 5.694 5.694 0 015.703-5.703 5.694 5.694 0 015.703 5.703 5.694 5.694 0 01-5.703 5.703zm0-10.388c-2.546 0-4.685 2.139-4.685 4.685s2.139 4.684 4.685 4.684 4.684-2.138 4.684-4.684a4.672 4.672 0 00-4.684-4.685z" fill="#fff"/><path d="M112.126 28.108l-.713.713-.509.509-25.46 25.46c-.204.203-.407.305-.713.305-.204 0-.407 0-.51-.102L45.829 29.33l-.814-.611-26.071 26.07c-.204.204-.408.306-.713.306-.306 0-.51-.102-.713-.305a1.1 1.1 0 01-.306-.713c0-.306.102-.51.306-.713l.713-.713 25.969-25.969c.305-.305.916-.407 1.324-.102l4.073 2.75 35.237 23.525 23.525-23.525 2.648-2.648c.203-.204.509-.305.713-.305.203 0 .509.101.712.305.102.407.102 1.12-.305 1.426z" fill="#324A5E"/><path d="M18.128 59.27a5.194 5.194 0 100-10.387 5.194 5.194 0 000 10.388z" fill="#FF7058"/><path d="M18.128 60.289a6.172 6.172 0 01-6.213-6.212 6.172 6.172 0 016.213-6.212 6.172 6.172 0 016.212 6.212 6.172 6.172 0 01-6.212 6.212zm0-10.388c-2.342 0-4.176 1.833-4.176 4.176 0 2.342 1.834 4.175 4.176 4.175s4.175-1.833 4.175-4.175c0-2.24-1.833-4.176-4.175-4.176z" fill="#324A5E"/><path d="M44.81 33.81a5.194 5.194 0 100-10.387 5.194 5.194 0 000 10.388z" fill="#89D6F7"/><path d="M44.81 34.83a6.172 6.172 0 01-6.212-6.213 6.172 6.172 0 016.212-6.212 6.172 6.172 0 016.212 6.212c0 3.36-2.75 6.212-6.212 6.212zm0-10.388c-2.343 0-4.176 1.832-4.176 4.175 0 2.342 1.834 4.175 4.176 4.175s4.175-1.833 4.175-4.175c0-2.343-1.833-4.175-4.175-4.175z" fill="#324A5E"/><path d="M84.833 59.169a5.194 5.194 0 100-10.388 5.194 5.194 0 000 10.388z" fill="#65C5B8"/><path d="M84.833 60.187a6.172 6.172 0 01-6.212-6.212 6.172 6.172 0 016.212-6.212 6.172 6.172 0 016.212 6.212c0 3.462-2.852 6.212-6.212 6.212zm0-10.387c-2.343 0-4.176 1.833-4.176 4.175 0 2.342 1.834 4.175 4.176 4.175s4.175-1.833 4.175-4.175c0-2.24-1.935-4.175-4.175-4.175z" fill="#324A5E"/><path d="M111.006 32.589a5.194 5.194 0 100-10.389 5.194 5.194 0 000 10.389z" fill="#FFCF5C"/><path d="M111.006 33.607a6.172 6.172 0 01-6.213-6.212 6.173 6.173 0 016.213-6.212 6.172 6.172 0 016.212 6.212 6.172 6.172 0 01-6.212 6.212zm0-10.388c-2.343 0-4.176 1.834-4.176 4.176s1.833 4.175 4.176 4.175c2.342 0 4.175-1.833 4.175-4.175 0-2.24-1.833-4.176-4.175-4.176z" fill="#324A5E"/></svg>