<svg width="188" height="128" fill="none" xmlns="http://www.w3.org/2000/svg"><path d="M175.8 49.95c-8 1.1-16 1.1-24 0-1.4-6.2-1.4-12.4 0-18.6 8-1.1 16-1.1 24 0 1.3 6.2 1.3 12.4 0 18.6z" fill="#F36C36"/><path d="M151.7 49.95c8 1.1 16 1.1 24 0 .7-3.1 1-6.2 1-9.3h-26.1c.1 3.1.5 6.2 1.1 9.3z" fill="#DC6231"/><path d="M168.699 40.15c.5.3.5.8 0 1.1l-6.9 4.4c-.5.3-.9.1-.9-.5v-8.7c0-.6.4-.8.9-.5l6.9 4.2z" fill="#fff"/><path d="M160.899 45.05c0 .6.4.8.9.5l6.9-4.4c.3-.2.4-.4.3-.6h-8.1v4.5z" fill="#DCE4E7"/><path d="M43.4 69.95c-8 1.1-16 1.1-24 0-1.4-6.2-1.4-12.4 0-18.6 8-1.1 16-1.1 24 0 1.4 6.2 1.4 12.4 0 18.6z" fill="#F36C36"/><path d="M19.4 69.95c8 1.1 16 1.1 24 0 .7-3.1 1-6.2 1-9.3H18.3c.1 3.1.4 6.2 1.1 9.3z" fill="#DC6231"/><path d="M36.3 60.15c.5.3.5.8 0 1.1l-6.9 4.4c-.5.3-.9.1-.9-.5v-8.7c0-.6.4-.8.9-.5l6.9 4.2z" fill="#fff"/><path d="M28.5 65.05c0 .6.4.8.9.5l6.9-4.4c.3-.2.4-.4.3-.6h-8.1v4.5z" fill="#DCE4E7"/><path d="M156.5 22.15H27.3v64h129.2v-64z" fill="#325768"/><path d="M156.4 86.45H27.3v14.1h129.1v-14.1z" fill="#fff"/><path d="M136.4 92.55H37.7v1.9h98.7v-1.9z" fill="#CDD5D8"/><path d="M69.6 92.55H37.7v1.9h31.9v-1.9z" fill="#F36C36"/><path d="M31.2 95.95c-.3 0-.5-.2-.5-.5v-3.9c0-.3.2-.5.5-.5.1 0 .2 0 .3.1l3.4 2c.2.1.3.3.3.4 0 .2-.1.3-.3.4l-3.4 2c-.1-.1-.2 0-.3 0zm0-4.5v4.1h.1l3.4-2h0l-3.5-2.1zM144.2 90.85h-.5v5.4h.5v-5.4zM142.9 91.85h-.5v4.3h.5v-4.3zM141.5 92.95h-.5v3.2h.5v-3.2zM140.2 94.05h-.5v2.1h.5v-2.1zM152.4 96.15h-4.9c-.1 0-.2-.1-.2-.2v-4.9c0-.1.1-.2.2-.2h2.4c.1 0 .2.1.2.2s-.1.2-.2.2h-2.2v4.4h4.4v-2.2c0-.1.1-.2.2-.2s.2.1.2.2v2.4c.1.2 0 .3-.1.3zM152.399 92.65c-.1 0-.2-.1-.2-.2v-1.1h-1.1c-.1 0-.2-.1-.2-.2s.1-.2.2-.2h1.3c.1 0 .2.1.2.2v1.3c0 .1-.1.2-.2.2z" fill="#596273"/><path d="M150.299 93.35c-.1 0-.1 0-.2-.1s-.1-.2 0-.3l1.9-1.9c.1-.1.2-.1.3 0 .1.1.1.2 0 .3l-1.9 1.9c0 .1-.1.1-.1.1z" fill="#596273"/><path d="M85.9 62.05c-.9 0-1.6-.7-1.6-1.8v-13.4c0-1.1.7-1.8 1.6-1.8.3 0 .7.1 1 .3l11.6 6.7c.6.4 1 .9 1 1.5s-.4 1.2-1 1.5l-11.6 6.7c-.3.2-.7.3-1 .3zm0-15.4V60.45s.1 0 .2-.1l11.6-6.7c.1-.1.2-.1.2-.1s-.1-.1-.2-.1l-11.6-6.7c-.1-.1-.1-.1-.2-.1z" fill="#fff"/><path d="M149.9 11.85c-4.9.6-9.8.6-14.8 0-.8-3.8-.8-7.6 0-11.4 4.9-.6 9.8-.6 14.8 0 .8 3.8.8 7.6 0 11.4z" fill="#F36C36"/><path d="M135.1 11.85c4.9.6 9.8.6 14.8 0 .4-1.9.6-3.8.6-5.7h-16c0 1.9.2 3.8.6 5.7z" fill="#DC6231"/><path d="M145.5 5.85c.3.2.3.5 0 .7l-4.3 2.7c-.3.2-.5 0-.5-.3v-5.4c0-.4.2-.5.5-.3l4.3 2.6z" fill="#fff"/><path d="M140.7 8.85c0 .4.2.5.5.3l4.3-2.7c.2-.1.2-.2.2-.4h-5v2.8z" fill="#DCE4E7"/><path d="M15.4 91.85c-4.9.6-9.8.6-14.8 0-.8-3.8-.8-7.6 0-11.4 4.9-.6 9.8-.6 14.8 0 .8 3.8.8 7.6 0 11.4z" fill="#F36C36"/><path d="M.6 91.85c4.9.6 9.8.6 14.8 0 .4-1.9.6-3.8.6-5.7H0c0 1.9.2 3.8.6 5.7z" fill="#DC6231"/><path d="M11 85.85c.3.2.3.5 0 .7l-4.3 2.7c-.3.2-.5 0-.5-.3v-5.4c0-.4.2-.5.5-.3l4.3 2.6z" fill="#fff"/><path d="M6.2 88.85c0 .4.2.5.5.3l4.3-2.7c.2-.1.2-.2.2-.4h-5v2.8z" fill="#DCE4E7"/><path d="M97.4 119.85c-4.9.6-9.8.6-14.8 0-.8-3.8-.8-7.6 0-11.4 4.9-.6 9.8-.6 14.8 0 .8 3.8.8 7.6 0 11.4z" fill="#F36C36"/><path d="M82.6 119.85c4.9.6 9.8.6 14.8 0 .4-1.9.6-3.8.6-5.7H82c0 1.9.2 3.8.6 5.7z" fill="#DC6231"/><path d="M93 113.85c.3.2.3.5 0 .7l-4.3 2.7c-.3.2-.5 0-.5-.3v-5.4c0-.4.2-.5.5-.3l4.3 2.6z" fill="#fff"/><path d="M88.2 116.85c0 .4.2.5.5.3l4.3-2.7c.2-.1.2-.2.2-.4h-5v2.8z" fill="#DCE4E7"/><path d="M187 16.95c-3 .4-5.9.4-8.9 0-.5-2.3-.5-4.6 0-6.9 3-.4 5.9-.4 8.9 0 .5 2.3.5 4.6 0 6.9z" fill="#F36C36"/><path d="M178.099 16.95c3 .4 5.9.4 8.9 0 .3-1.1.4-2.3.4-3.4h-9.6c-.1 1.1 0 2.2.3 3.4z" fill="#DC6231"/><path d="M184.299 13.35c.2.1.2.3 0 .4l-2.6 1.6c-.2.1-.3 0-.3-.2v-3.2c0-.2.1-.3.3-.2l2.6 1.6z" fill="#fff"/><path d="M181.5 15.15c0 .2.1.3.3.2l2.6-1.6c.1-.1.1-.1.1-.2h-3v1.6z" fill="#DCE4E7"/><path d="M13.5 36.45c-3 .4-5.9.4-8.9 0-.5-2.3-.5-4.6 0-6.9 3-.4 5.9-.4 8.9 0 .5 2.3.5 4.6 0 6.9z" fill="#F36C36"/><path d="M4.6 36.45c3 .4 5.9.4 8.9 0 .3-1.1.4-2.3.4-3.4H4.3c-.1 1.1 0 2.2.3 3.4z" fill="#DC6231"/><path d="M10.8 32.85c.2.1.2.3 0 .4l-2.6 1.6c-.2.1-.3 0-.3-.2v-3.2c0-.2.1-.3.3-.2l2.6 1.6z" fill="#fff"/><path d="M8 34.65c0 .2.1.3.3.2l2.6-1.6c.1-.1.1-.1.1-.2H8v1.6z" fill="#DCE4E7"/><path d="M120.8 127.35c-3 .4-5.9.4-8.9 0-.5-2.3-.5-4.6 0-6.9 3-.4 5.9-.4 8.9 0 .6 2.3.6 4.6 0 6.9z" fill="#F36C36"/><path d="M112.001 127.35c3 .4 5.9.4 8.9 0 .3-1.1.4-2.3.4-3.4h-9.6c-.1 1.1 0 2.2.3 3.4z" fill="#DC6231"/><path d="M118.201 123.75c.2.1.2.3 0 .4l-2.6 1.6c-.2.1-.3 0-.3-.2v-3.2c0-.2.1-.3.3-.2l2.6 1.6z" fill="#fff"/><path d="M115.301 125.55c0 .2.1.3.3.2l2.6-1.6c.1-.1.1-.1.1-.2h-3v1.6z" fill="#DCE4E7"/><path d="M107.8 8.35c-3 .4-5.9.4-8.9 0-.5-2.3-.5-4.6 0-6.9 3-.4 5.9-.4 8.9 0 .6 2.3.6 4.6 0 6.9z" fill="#F36C36"/><path d="M99 8.35c3.001.4 5.901.4 8.901 0 .3-1.1.4-2.3.4-3.4h-9.6c-.1 1.1 0 2.2.3 3.4z" fill="#DC6231"/><path d="M105.201 4.75c.2.1.2.3 0 .4l-2.6 1.6c-.2.1-.3 0-.3-.2v-3.2c0-.2.1-.3.3-.2l2.6 1.6z" fill="#fff"/><path d="M102.301 6.55c0 .2.1.3.3.2l2.6-1.6c.1-.1.1-.1.1-.2h-3v1.6z" fill="#DCE4E7"/></svg>