<svg width="149" height="141" fill="none" xmlns="http://www.w3.org/2000/svg"><ellipse cx="74.5" cy="121.632" rx="74.5" ry="19.259" fill="#5753B9"/><path d="M123.638 28.69c0 13.238-10.496 23.734-23.734 23.734-13.144 0-23.923-10.496-23.923-23.734 0-4.444 1.23-8.605 3.404-12.103.19-.378.473-.757.756-1.135C84.491 9.117 91.772 5.051 100 5.051c13.143-.095 23.639 10.401 23.639 23.64z" fill="#E7EAEF"/><path d="M99.81 48.075c-10.684 0-19.478-8.7-19.478-19.385 0-10.685 8.7-19.384 19.479-19.384 10.685 0 19.479 8.7 19.479 19.384 0 10.685-8.699 19.384-19.48 19.384zm0-35.554c-8.982 0-16.263 7.28-16.263 16.17 0 8.888 7.281 16.168 16.264 16.168s16.264-7.28 16.264-16.169c0-8.888-7.281-16.17-16.264-16.17z" fill="#FF7058"/><path d="M99.81 39.942A11.219 11.219 0 0188.558 28.69c0-6.24 5.106-11.252 11.252-11.252 6.146 0 11.252 5.011 11.252 11.252 0 6.24-5.011 11.252-11.252 11.252zm0-19.195c-4.35 0-7.943 3.593-7.943 7.943s3.593 7.943 7.943 7.943 7.943-3.593 7.943-7.943-3.499-7.943-7.943-7.943z" fill="#FF7058"/><path d="M99.812 28.312c-.19 0-.378.19-.378.379 0 .378.661.378.661 0 .095-.19-.094-.379-.283-.379z" fill="#fff"/><path d="M103.499 28.69a3.592 3.592 0 01-3.593 3.594c-1.986 0-3.688-1.608-3.688-3.593 0-1.986 1.607-3.594 3.688-3.594a3.592 3.592 0 013.593 3.593z" fill="#FF7058"/><path opacity=".1" d="M100.094 28.501c.095.284-.094.568-.378.568l-3.688.094c-.378.095-.662-.378-.472-.662l.756-1.134-16.926-10.78c.19-.378.473-.756.757-1.135l16.925 10.685.757-1.134c.19-.284.662-.284.757.094l1.512 3.404z" fill="#000"/><path d="M77.968 6.47l-2.459.377c-.189 0-.283 0-.378-.094L71.632 3.16c-.094-.095 0-.284.095-.284l2.364-.378.473-2.364c0-.095.189-.19.283-.095l3.499 3.593c.095.095.19.284.095.473l-.473 2.364z" fill="#FF7058"/><path d="M99.62 28.974l-3.593-.757c-.378 0-.567-.472-.283-.756l.945-.946L72.861 2.214a.728.728 0 01-.095-.946.742.742 0 011.04 0L97.635 25.57l.945-.946c.284-.284.757-.094.757.284l.662 3.688c.094.189-.095.378-.378.378z" fill="#84DBFF"/><path d="M125.057 42.78v59.95a2.744 2.744 0 01-2.742 2.742h-96.26a2.745 2.745 0 01-2.742-2.742V42.78c0-1.513 1.23-2.837 2.837-2.837h96.26c1.418.095 2.647 1.324 2.647 2.837z" fill="#fff"/><path d="M114.278 44.103H34.093V101.5h80.185V44.103z" fill="#2B3B4E"/><path d="M81.088 73.794l-9.928 6.809c-.852.567-1.986 0-1.986-1.04V65.85c0-1.04 1.134-1.607 1.985-1.04l9.93 6.808c.661.662.661 1.703 0 2.175z" fill="#fff"/><path d="M61.135 74.457h-7.281c.757 10.4 8.7 18.627 18.722 19.384v-7.943c-6.051-.756-10.78-5.484-11.441-11.441z" fill="#81ACFF"/><path d="M72.576 59.706v-7.943c-10.023.85-17.965 9.077-18.722 19.384h7.281c.662-5.957 5.39-10.685 11.441-11.441z" fill="#60CE7F"/><path d="M87.33 71.147h7.28c-.756-10.307-8.7-18.628-18.722-19.384v7.943c5.957.756 10.685 5.484 11.441 11.441z" fill="#FF7058"/><path d="M75.793 85.898v7.943c10.023-.851 17.965-9.078 18.722-19.384h-7.281c-.662 5.957-5.39 10.685-11.441 11.441z" fill="#fff"/><path opacity=".1" d="M87.235 74.456c-.756 5.957-5.39 10.685-11.441 11.442v3.593c7.943-.756 14.183-7.092 14.94-14.94h-3.499v-.095zm-11.441-18.25V59.8c5.957.756 10.685 5.484 11.441 11.441h3.593c-.756-8.037-7.091-14.278-15.034-15.034zm-14.657 18.25h-3.593a16.547 16.547 0 0014.94 14.94v-3.593c-5.862-.662-10.59-5.39-11.347-11.347zm-3.593-3.31h3.593c.757-5.956 5.484-10.684 11.442-11.44v-3.594c-7.943.851-14.279 7.092-15.035 15.035z" fill="#000"/><path d="M96.122 89.586v18.911c0 .378-.094.851-.189 1.229-.473 1.23-1.702 3.972-3.971 4.445h-17.21c-2.27-3.121-8.321-9.172-14.278-10.023-.19 0-.284-.095-.284-.284-.378-2.459.757-4.35 3.877-4.633 1.797-.095 2.837.283 7.565 1.702V73.889c0-1.797 1.418-3.215 3.12-3.215.851 0 1.608.378 2.175.946.567.567.945 1.418.945 2.269v14.562c.473-1.23 1.608-2.08 2.932-2.08 1.513 0 2.647 1.04 3.026 2.364.378-1.419 1.607-2.364 3.025-2.364 1.513 0 2.648 1.04 3.026 2.364.379-1.419 1.608-2.364 3.026-2.364.851 0 1.608.378 2.27.945.661.568.945 1.419.945 2.27z" fill="#FFD05B"/><path d="M95.27 113.698v4.917H72.2v-4.917c0-.473.378-.851.85-.851h21.276c.568-.094.946.378.946.851z" fill="#fff"/><path d="M96.501 128.354v-11.063a.847.847 0 00-.851-.851H71.916a.847.847 0 00-.851.851v11.063H96.5z" fill="#FF7058"/><path d="M77.872 88.451l.19 9.834.567-10.968a3.401 3.401 0 00-.757 1.134zM84.397 87.695l-.473 8.605-.472-8.605c.189.284.378.662.472 1.04.095-.378.19-.756.473-1.04zM90.543 87.6l-.567 10.591-.473-10.59c.189.284.378.662.473 1.04.094-.284.283-.662.567-1.04z" fill="#F9B54C"/></svg>