<svg width="149" height="141" fill="none" xmlns="http://www.w3.org/2000/svg"><ellipse cx="74.5" cy="121.632" rx="74.5" ry="19.259" fill="#5753B9"/><path d="M81.77 114.978c0 3.596-3.597 5.111-7.95 5.111s-7.95-1.515-7.95-5.111 3.597-7.949 7.95-7.949 7.95 4.353 7.95 7.949z" fill="#324A5E"/><path d="M88.773 93.97v19.021c0 .852-.663 1.609-1.61 1.609h-26.78a1.595 1.595 0 01-1.609-1.609V93.97h29.999z" fill="#2B3B4E"/><path d="M109.875 49.587c0 10.505-4.448 19.873-11.545 26.498-4.07 3.785-6.53 9.084-6.53 14.668v1.514a4.443 4.443 0 01-4.447 4.447H60.477a4.443 4.443 0 01-4.448-4.447v-1.514c0-5.584-2.366-10.883-6.53-14.668-7.286-6.72-11.828-16.467-11.64-27.35.38-19.304 16.278-35.013 35.583-35.297 20.062-.284 36.433 15.993 36.433 36.15z" fill="#FFD05B"/><path d="M74.103 55.454c-.19-.189-.379-.473-.568-.662.19.19.379.378.568.662z" fill="#FFD05B"/><path d="M90.192 99.837a1.05 1.05 0 01-1.041 1.041H58.585a1.05 1.05 0 01-1.041-1.041c0-.568.473-1.041 1.04-1.041h30.567c.568-.095 1.04.378 1.04 1.04zM90.19 103.717a1.05 1.05 0 01-1.04 1.041H58.582a1.05 1.05 0 01-1.041-1.041 1.05 1.05 0 011.041-1.041h30.566c.568 0 1.041.473 1.041 1.041zM90.19 107.597a1.05 1.05 0 01-1.04 1.041H58.582a1.05 1.05 0 01-1.041-1.041 1.05 1.05 0 011.041-1.041h30.566c.568 0 1.041.473 1.041 1.041zM90.19 111.572a1.05 1.05 0 01-1.04 1.041H58.582a1.05 1.05 0 01-1.041-1.041 1.05 1.05 0 011.041-1.041h30.566c.568-.095 1.041.378 1.041 1.041z" fill="#324A5E"/><path d="M74.954 1.136v8.516c0 .568-.473 1.136-1.136 1.136-.568 0-1.135-.473-1.135-1.136V1.136c0-.568.473-1.136 1.135-1.136.568.095 1.136.568 1.136 1.136zM122.177 50.628h-8.516c-.568 0-1.136-.473-1.136-1.136 0-.662.473-1.135 1.136-1.135h8.516c.568 0 1.136.473 1.136 1.136 0 .662-.473 1.135-1.136 1.135zM33.98 50.629h-8.518c-.568 0-1.135-.474-1.135-1.136 0-.663.473-1.136 1.135-1.136h8.517c.568 0 1.136.474 1.136 1.136 0 .662-.568 1.136-1.136 1.136zM108.835 16.088l-6.057 6.056c-.473.473-1.135.473-1.608 0-.473-.473-.379-1.135 0-1.608l6.056-6.057c.473-.473 1.136-.473 1.609 0 .378.473.378 1.23 0 1.609zM44.863 22.145l-6.056-6.056c-.473-.473-.473-1.136 0-1.609.473-.473 1.135-.378 1.608 0l5.962 6.151c.473.473.473 1.136 0 1.609-.473.473-1.135.379-1.514-.095zM56.313 4.448l3.313 7.854c.189.568 0 1.23-.568 1.42-.568.189-1.23 0-1.42-.568l-3.312-7.855c-.19-.567 0-1.23.568-1.42.568-.283 1.23 0 1.42.569zM118.959 32.08l-7.854 3.312c-.568.19-1.23 0-1.42-.567-.189-.568 0-1.23.568-1.42l7.855-3.312c.568-.19 1.23 0 1.419.568.284.567 0 1.135-.568 1.42zM37.386 65.864l-7.854 3.312c-.568.19-1.23 0-1.42-.568-.189-.568 0-1.23.568-1.42l7.855-3.312c.568-.189 1.23 0 1.42.568.283.568 0 1.136-.569 1.42zM93.313 5.3l-3.312 7.854c-.19.568-.852.852-1.42.568-.567-.19-.851-.852-.567-1.42l3.312-7.854c.19-.568.852-.852 1.42-.568.567.19.851.852.567 1.42zM118.107 69.082l-7.855-3.313c-.567-.189-.851-.851-.567-1.42a1.01 1.01 0 011.419-.567l7.855 3.312c.567.19.851.852.567 1.42a1.01 1.01 0 01-1.419.568zM36.534 35.298l-7.854-3.312a1.011 1.011 0 01-.568-1.42c.19-.567.852-.851 1.42-.567l7.854 3.312c.568.189.851.851.568 1.42-.19.567-.852.85-1.42.567z" fill="#F9B54C"/><path d="M93.692 49.303c1.136 0 1.798-.851 1.798-1.798a1.797 1.797 0 00-1.798-1.798h-2.65a18.074 18.074 0 00-.567-3.123l2.366-.946c.946-.379 1.42-1.514.946-2.366-.379-.946-1.42-1.325-2.366-.946l-2.366.946c-.473-.852-1.04-1.798-1.703-2.65l1.798-1.798c.662-.662.757-1.892 0-2.555a1.798 1.798 0 00-2.555 0l-1.798 1.798a26.003 26.003 0 00-2.65-1.798l.946-2.365a1.853 1.853 0 00-.946-2.366 1.853 1.853 0 00-2.366.946l-.946 2.366a18.065 18.065 0 00-3.123-.568v-2.65a1.797 1.797 0 00-1.798-1.798c-1.04 0-1.798.852-1.798 1.798v2.555c-1.04.095-2.082.284-3.123.568l-.946-2.366c-.379-.946-1.42-1.42-2.366-1.04-.946.378-1.42 1.419-.946 2.365l1.04 2.366c-.946.473-1.797 1.041-2.649 1.703l-1.798-1.798c-.757-.757-1.893-.757-2.555 0-.757.758-.757 1.893 0 2.65l1.798 1.798c-.663.852-1.23 1.704-1.703 2.65l-2.366-.946c-.947-.379-1.988 0-2.366.946-.379.946.095 1.987 1.04 2.366l2.367.946a18.075 18.075 0 00-.568 3.123h-3.028a1.797 1.797 0 00-1.798 1.798c0 1.04.851 1.798 1.798 1.798h2.65c.094 1.04.283 2.082.662 3.123l-2.366 1.04c-.946.38-1.42 1.42-1.04 2.367.378.946 1.419 1.324 2.365.946l2.366-1.041c.473.946 1.04 1.798 1.798 2.65l-1.798 1.798c-.757.757-.757 1.892 0 2.555.757.757 1.892.757 2.555 0l1.798-1.798c.852.662 1.703 1.23 2.65 1.798l-.947 2.366a1.853 1.853 0 00.947 2.365c.946.379 1.987-.094 2.365-1.04l.947-2.366c1.04.283 2.082.473 3.123.662v2.555c0 1.041.851 1.798 1.797 1.798 1.041 0 1.799-.852 1.799-1.798v-2.65a18.067 18.067 0 003.122-.568l.947 2.366c.378.947 1.42 1.325 2.365 1.041.947-.378 1.42-1.514.947-2.365l-.947-2.366a11.92 11.92 0 002.65-1.798l1.798 1.798c.663.662 1.893.757 2.65 0a1.798 1.798 0 000-2.555l-1.798-1.798a26.036 26.036 0 001.798-2.65l2.366 1.04a1.853 1.853 0 002.365-.945c.38-.947-.094-1.988-1.04-2.366l-2.366-1.041c.284-1.041.473-2.082.568-3.123h2.65v.19zm-21.86-14.762v5.867a7.25 7.25 0 00-5.205 5.204H60.76c.947-5.772 5.394-10.22 11.072-11.072zm0 26.023c-5.678-.851-10.22-5.394-11.072-11.072h5.867a7.249 7.249 0 005.205 5.205v5.867zm3.028-9.274a3.4 3.4 0 01-1.04.19 3.4 3.4 0 01-1.041-.19 4.002 4.002 0 01-2.745-2.744 3.403 3.403 0 01-.19-1.04c0-.38.096-.758.19-1.042a4.002 4.002 0 012.744-2.744 3.4 3.4 0 011.041-.19c.379 0 .663.095 1.041.19a4.003 4.003 0 012.745 2.744c.094.284.189.663.189 1.041 0 .379-.095.757-.19 1.041a4.003 4.003 0 01-2.744 2.744zm.947 9.274v-5.867a7.25 7.25 0 005.204-5.205h5.868a13.468 13.468 0 01-11.072 11.072zm5.204-15.046a7.25 7.25 0 00-5.204-5.205v-5.867c5.678.852 10.22 5.394 11.072 11.072H81.01z" fill="#324A5E"/><path d="M76.657 73.718h-5.773v22.996h5.773V73.718z" fill="#fff"/><path d="M76.751 77.125v4.164c-.851.379-1.892.568-2.933.568a7.712 7.712 0 01-2.934-.568v-4.164h5.867z" fill="#E7EAEF"/><path d="M82.24 72.488c0 4.637-3.784 8.422-8.421 8.422-4.638 0-8.423-3.785-8.423-8.422 0-3.407 1.987-6.435 5.11-7.76h.284c.095.095.19.19.19.284v4.732l2.838 1.42 2.84-1.42v-4.732c0-.094.094-.19.189-.284.094-.094.189-.094.284 0 3.123 1.42 5.11 4.448 5.11 7.76z" fill="#fff"/><path d="M74.479 84.601v9.558a.647.647 0 01-.663.662.647.647 0 01-.662-.662V84.6c0-.379.284-.662.662-.662.379 0 .663.284.663.662z" fill="#E7EAEF"/><path opacity=".5" d="M74.384 84.317c-.095-.094-.19-.094-.284-.094a.647.647 0 00-.662.662v9.558c0 .094 0 .19.094.378-.189-.094-.378-.378-.378-.662V84.6c0-.379.284-.662.662-.662.284 0 .473.094.568.378z" fill="#ADB3BA"/></svg>