<svg width="149" height="141" fill="none" xmlns="http://www.w3.org/2000/svg"><ellipse cx="74.5" cy="121.633" rx="74.5" ry="19.259" fill="#5753B9"/><path d="M109.318 116.382V45.283L92.296 28.26H44.815v88.121h64.503z" fill="#fff"/><path d="M92.296 45.283h17.022L92.296 28.26v17.022z" fill="#DE3F18"/><path d="M109.318 45.283H92.296l17.022 17.021V45.283z" fill="#D1ECFB"/><path d="M76.74 48.46H57.031v1.628h19.71V48.46z" fill="#FD6120"/><path d="M97.104 56.359h-40.07v1.629h40.07v-1.63zM97.1 61.409H57.03v1.628H97.1V61.41zM97.1 66.458H57.03v1.629H97.1v-1.63zM97.1 71.589H57.03v1.629H97.1v-1.629zM97.1 76.639H57.03v1.629H97.1v-1.63zM97.1 81.688H57.03v1.629H97.1v-1.63zM97.1 86.737H57.03v1.63H97.1v-1.63z" fill="#A6DAE9"/><path d="M81.302 105.469h-.081c-.407-.081-.57-.57-.733-.977-.326-1.222-.163-2.525.489-3.584a3.088 3.088 0 00-.489-1.058c-.081-.163 0-.408.163-.57.163-.082.407 0 .57.162.163.245.244.489.326.733.733-.733 1.629-1.14 2.687-1.14 1.303 0 2.525 1.14 3.177 2.281 0 .081.081.081.081.162 1.222-.814 2.85-1.466 3.665-1.303 1.14.163 1.303 1.222 1.303 1.955.326-.407.407-.733.489-.977.326-.896.57-.815 2.525-.408l.407.082c.244 0 .326.244.326.489 0 .244-.245.325-.49.325l-.406-.081c-.815-.163-1.466-.244-1.63-.244.082 0 0 .081 0 .162a3.639 3.639 0 01-.732 1.304c-.326.407-.57.733-.977.57-.326-.163-.326-.489-.326-.978 0-.896-.082-1.384-.57-1.466-.815-.081-2.2.57-3.258 1.222.326.733.407 1.466.081 1.873-.162.163-.488.489-1.221.245-.978-.245-.896-.978-.896-1.141.081-.407.407-.814.896-1.221 0-.082-.082-.082-.082-.163-.57-.896-1.547-1.873-2.524-1.873-.978 0-1.792.407-2.362 1.221.488 1.792.326 3.584-.082 4.154 0 .244-.163.244-.326.244zm.082-3.339a3.152 3.152 0 000 2.118v.081c0-.407.081-1.303 0-2.199zm5.945.489c-.244.244-.488.488-.488.651 0 0 0 .163.325.245.245.081.326 0 .326 0s0-.408-.163-.896z" fill="#FD6120"/><path d="M60.695 104.573a3.997 3.997 0 01-3.99-3.99c0-2.2 1.79-3.991 3.99-3.991a3.997 3.997 0 013.99 3.991 3.997 3.997 0 01-3.99 3.99zm0-6.515a2.538 2.538 0 00-2.525 2.525 2.537 2.537 0 002.525 2.524 2.537 2.537 0 002.524-2.524 2.537 2.537 0 00-2.524-2.525z" fill="#1B5E8F"/><path d="M61.754 104.654h-.244l-.896-.244-.896.244c-.326.082-.57 0-.815-.244l-.57-.733-.814-.326c-.326-.081-.489-.407-.489-.651v-.896l-.488-.733a.74.74 0 010-.815l.488-.733v-.895c0-.326.245-.57.489-.652l.814-.326.57-.733c.163-.244.49-.325.815-.244l.896.244.896-.244c.325-.081.57 0 .814.244l.57.733.896.326c.326.082.489.407.489.652v.895l.488.733a.74.74 0 010 .815l-.488.733v.896c0 .326-.245.57-.489.651l-.814.326-.57.733c-.163.163-.408.244-.652.244zm-1.059-1.791h.245l.57.163.407-.489c.081-.082.163-.163.326-.244l.57-.245v-.651c0-.163.081-.245.163-.408l.325-.488-.325-.489a.622.622 0 01-.163-.407v-.652l-.57-.244a1.123 1.123 0 01-.326-.244l-.407-.489-.57.163h-.408l-.57-.163-.407.489a1.124 1.124 0 01-.326.244l-.57.244v.652c0 .163-.081.244-.163.407l-.326.489.326.488a.625.625 0 01.163.408v.651l.57.245c.163.081.245.162.326.244l.407.489.57-.163h.163z" fill="#1B5E8F"/><path d="M63.136 106.609c-.244 0-.489-.081-.57-.326l-1.222-1.629c-.244-.325-.163-.814.163-1.058.326-.245.815-.163 1.059.163l1.221 1.628c.245.326.163.815-.162 1.059-.163.082-.326.163-.489.163zM58.17 106.611a.624.624 0 01-.408-.163c-.326-.245-.407-.733-.163-1.059l1.222-1.629c.244-.326.733-.407 1.059-.163.325.244.407.733.162 1.059l-1.221 1.629c-.163.163-.407.326-.652.326z" fill="#1B5E8F"/><path d="M89.2 119.396c1.71 1.466 1.954 4.968.733 8.633l.488.163v-.082l3.34-7.737c-.245-.244-.326-.57-.245-.896.163-.407.652-.57 1.059-.407.407.163.57.652.407 1.059a.895.895 0 01-.814.488l-3.34 7.738v.081l.49.163c1.791-3.502 4.56-5.701 6.759-5.457.163-1.303.57-2.769.977-4.235a38.587 38.587 0 011.629-4.072c-1.14-.326-2.443-.733-3.746-1.303s-2.444-1.222-3.502-1.873a33.624 33.624 0 01-1.792 3.99 29.947 29.947 0 01-2.443 3.747z" fill="#103754"/><path d="M115.017 79.977c2.932-6.84-3.257-9.529-6.189-2.687l-15.393 34.45c2.362 1.059 4.724 2.036 7.167 3.095 4.805-11.565 9.61-23.211 14.415-34.858z" fill="#DE3F18"/><path d="M100.737 114.919l-7.404-3.19-.452 1.048 7.405 3.189.451-1.047zM112.656 89.18l10.995-25.491c.815-1.955.082-4.235-1.71-4.968l-2.199-.977c-1.792-.733-3.909.244-4.805 2.199l-10.995 25.41 8.714 3.828z" fill="#FD6120"/><path d="M104.105 78.267l-1.466 3.339c1.221.081 2.443-.57 2.85-1.466.407-.896-.163-1.71-1.384-1.873z" fill="#103754"/><path d="M104.185 80.792c-.081 0-.163 0-.326-.082-.407-.162-.57-.57-.407-.977l7.574-17.51c.652-1.63 2.525-2.362 4.154-1.63l8.714 3.747c.407.163.57.57.407.978-.162.407-.57.57-.977.407l-8.714-3.746c-.896-.408-1.873 0-2.199.895l-7.574 17.51c-.163.245-.408.408-.652.408z" fill="#103754"/><path d="M58.17 10.588c-3.502.57-7.086 1.058-10.587 1.629-4.561.814-7.82 3.909-7.33 7.004.488 3.094.977 6.27 1.466 9.366.488 3.013 2.361 5.13 9.203 7.167 4.072 1.221 7.9 1.954 11.483 2.199L58.17 10.588z" fill="#2C5871"/><path d="M58.089 10.588c3.502-.57 7.085-1.06 10.588-1.63 4.56-.65 8.632 1.385 9.04 4.48.488 3.095.977 6.271 1.466 9.366.488 3.013-.652 5.62-6.597 9.61-3.502 2.362-6.923 4.317-10.344 5.62L58.09 10.588z" fill="#0E303F"/><path d="M60.94 28.75l-37.383-8.145-.081-1.547L93.842 8.145l.245 1.466L60.939 28.75z" fill="#0E303F"/><path d="M60.695 27.283L23.313 19.14 56.46 0l37.383 8.144-33.148 19.14z" fill="#2C5871"/><path d="M82.93 24.922c-.326 0-.57-.244-.652-.57l-1.303-8.226-23.374-5.05c-.326-.08-.57-.407-.489-.814.081-.326.407-.57.814-.489l23.782 5.213c.244.081.488.244.488.57l1.385 8.633c.081.326-.163.733-.57.733h-.082z" fill="#F4DA80"/><path d="M81.056 16.533h-.163l-22.315-4.805c-.326-.082-.57-.407-.489-.733.081-.326.407-.57.733-.489l22.315 4.805c.326.082.57.408.489.733 0 .245-.326.489-.57.489z" fill="#D8C171"/><path d="M59.278 13.064c2.09-.325 3.603-1.741 3.382-3.163-.22-1.422-2.093-2.312-4.182-1.987-2.09.324-3.604 1.74-3.382 3.163.22 1.422 2.093 2.312 4.182 1.987z" fill="#0E303F"/><path d="M61.916 9.529c.163 1.059-1.466 2.199-3.584 2.525-2.117.325-3.99-.245-4.153-1.385-.163-1.059 1.384-2.199 3.583-2.524 2.118-.326 3.99.244 4.154 1.384z" fill="#2C5871"/><path d="M82.604 24.433a2.118 2.118 0 100-4.235 2.118 2.118 0 000 4.235z" fill="#F4DA80"/><path d="M84.396 26.225c.082.651-.325 1.221-.977 1.303-.651.081-1.222-.326-1.303-.977l-.652-4.072c-.081-.652.326-1.222.978-1.304.651-.081 1.221.326 1.303.978l.651 4.072z" fill="#F4DA80"/><path d="M88.223 33.88c-.977-.651-1.466-2.361-2.769-7.085-.325-1.14-1.384-1.873-2.443-1.71-1.059.163-1.792 1.221-1.792 2.362.245 4.805.326 6.597-.488 7.574-.163 1.14 1.71 2.117 4.072 1.791 2.443-.325 3.909-1.873 3.42-2.931z" fill="#F4DA80"/><path d="M82.684 28.18c0-.815.326-1.548.815-2.037l-.245-1.71c-.651-.326-1.222-.896-1.384-1.71-.163-.978.325-1.955 1.221-2.444-.244-.081-.488-.081-.814 0-1.14.163-1.955 1.222-1.792 2.443.082.733.57 1.222 1.222 1.548l.244 1.547c-.407.489-.733 1.059-.733 1.792.244 4.805.326 6.597-.489 7.574-.081.652.49 1.222 1.385 1.548.896-1.14.814-3.177.57-8.552z" fill="#D8C171"/></svg>