<svg width="149" height="141" fill="none" xmlns="http://www.w3.org/2000/svg"><ellipse cx="74.5" cy="121.632" rx="74.5" ry="19.259" fill="#5753B9"/><path d="M66.16 89.626c.85 7.186-1.325 15.034-1.23 17.115h26.76c-.567-1.23.567-10.59 0-11.63a31.985 31.985 0 01-3.31-10.686c-.661-5.2.946-6.619 3.31-10.685 3.31-5.673 5.106-11.725 4.917-18.25-.378-11.441-11.252-17.587-22.316-17.493-13.143.095-20.14 14.751-18.722 22.978.189.662 0 1.229-.378 1.796-1.135 1.608-2.364 3.026-3.499 4.54-.567.756-1.23 1.512-1.797 2.363-.472.756-.283 1.702.568 2.08 3.31 1.608 3.688 0 2.742 3.783-.378 1.323-.378 1.323.85 1.89-.094.663-.566 1.42.096 1.986 1.89 1.419-2.08 5.012 2.08 6.903 3.877 1.702 9.361-2.08 9.928 3.31z" fill="#FFD05B"/><path d="M92.729 116.575l-4.35-13.144-2.08-6.335c15.035-5.2 25.909-19.857 25.909-37.161 0-4.35-.662-8.605-1.986-12.577l7.565-2.647 13.332-4.633c10.307 31.393-6.902 65.623-38.39 76.497z" fill="#FF7058"/><path d="M92.73 116.575c-31.489 10.969-65.34-5.484-75.647-36.783l13.238-4.633 7.565-2.648c6.713 20.425 28.462 31.582 48.319 24.585l2.08 6.336 4.444 13.143z" fill="#81ACFF"/><path d="M35.995 60.03c0 4.349.662 8.604 1.985 12.575l-7.564 2.648-13.238 4.633C6.87 48.588 24.08 14.452 55.568 3.484l4.35 13.143 2.08 6.335C46.774 28.163 35.995 42.725 35.995 60.03z" fill="#2B3B4E"/><path d="M131.121 40.172l-13.332 4.633-7.565 2.648c-5.106-15.508-19.384-26.665-36.121-26.665-4.255 0-8.416.756-12.198 2.08l-2.08-6.335-4.35-13.144c31.488-10.969 65.34 5.579 75.646 36.783z" fill="#60CE7F"/><path opacity=".1" d="M117.787 44.805c-7.848-24.017-33.852-36.594-57.964-28.273-24.112 8.416-37.256 34.609-29.407 58.626 7.943 23.923 33.851 36.594 57.964 28.273 24.112-8.416 37.35-34.608 29.407-58.626zm-31.488 52.29c-19.857 6.998-41.605-4.065-48.319-24.584-1.323-3.972-1.985-8.132-1.985-12.577 0-17.21 10.874-31.866 25.909-37.16 3.876-1.325 7.942-2.081 12.197-2.081 16.832 0 31.015 11.158 36.122 26.665 1.323 3.972 1.985 8.132 1.985 12.576 0 17.305-10.874 31.961-25.909 37.162z" fill="#000"/><path d="M100.2 57.854H72.116a.646.646 0 01-.662-.662c0-.378.284-.662.662-.662h27.516V16.627c0-.378.284-.662.662-.662.378 0 .662.284.662.662v40.565c-.189.379-.473.662-.756.662z" fill="#fff"/><path d="M100.198 20.22c1.933 0 3.499-1.609 3.499-3.593 0-1.985-1.566-3.593-3.499-3.593-1.932 0-3.498 1.608-3.498 3.593 0 1.984 1.566 3.593 3.498 3.593zM126.771 54.64c1.932 0 3.498-1.61 3.498-3.594 0-1.984-1.566-3.593-3.498-3.593-1.933 0-3.499 1.609-3.499 3.593 0 1.985 1.566 3.593 3.499 3.593zM124.596 73.835c1.933 0 3.499-1.61 3.499-3.594 0-1.984-1.566-3.593-3.499-3.593-1.932 0-3.498 1.609-3.498 3.593 0 1.985 1.566 3.594 3.498 3.594z" fill="#fff"/><path d="M119.867 64.284H72.021a.646.646 0 01-.662-.662c0-.378.284-.662.662-.662h47.468l6.335-11.158c.189-.283.568-.378.851-.189.284.19.378.568.189.851L120.434 64c-.094.19-.378.284-.567.284zM124.596 70.903h-52.48a.646.646 0 01-.662-.662c0-.378.284-.661.662-.661h52.48c.378 0 .661.283.661.662-.094.378-.378.661-.661.661z" fill="#fff"/></svg>