<svg width="72" height="72" fill="none" xmlns="http://www.w3.org/2000/svg"><circle cx="36" cy="36" r="36" fill="#6FCF97"/><mask id="a" maskUnits="userSpaceOnUse" x="0" y="0" width="72" height="72"><circle cx="36" cy="36" r="36" fill="#6FCF97"/></mask><g clip-path="url(#clip0)" mask="url(#a)"><path d="M21.355 40.618l-1.514-.757a1.046 1.046 0 01-.578-.935v-3.937c0-.397.224-.759.578-.936l1.514-.757v7.322z" fill="#707487"/><path d="M45.414 54.217v-7.322H26.586v7.322L36 62.585l9.414-8.368z" fill="#E6AF78"/><path d="M59.971 57.642l-12.944-3.046a2.079 2.079 0 01-.543-.218L36 60.493l-10.075-6.411c-.26.245-.585.428-.952.515l-12.944 3.045a4.184 4.184 0 00-3.226 4.073v8.193c0 1.155.936 2.092 2.092 2.092h50.21a2.092 2.092 0 002.092-2.092v-8.193a4.184 4.184 0 00-3.226-4.073z" fill="#B4E1FA"/><path d="M26.586 46.895v7.725c11.86 4.273 18.828-6.42 18.828-6.42v-1.305H26.586z" fill="#D29B6E"/><path d="M22.401 22.836l.912 20.054a6.276 6.276 0 002.504 4.736l4.325 3.244a6.277 6.277 0 003.766 1.255h4.184c1.358 0 2.68-.44 3.766-1.255l4.325-3.244a6.277 6.277 0 002.504-4.736l.912-20.054H22.4z" fill="#F0C087"/><path d="M32.862 27.02c4.184 0 10.46-1.046 11.949-4.184h-22.41l.912 20.054a6.276 6.276 0 002.504 4.736l4.325 3.244a6.277 6.277 0 003.766 1.255H36c-2.092 0-6.276-4.184-6.276-9.414V30.158c0-1.046 1.046-3.138 3.138-3.138z" fill="#E6AF78"/><path d="M16.482 65.211l-6.778-6.089a4.177 4.177 0 00-.901 2.593v8.193c0 1.155.937 2.092 2.092 2.092h7.322v-2.898c0-1.484-.63-2.9-1.735-3.89zM55.518 65.211l6.778-6.089c.568.72.901 1.624.901 2.593v8.193A2.092 2.092 0 0161.105 72h-7.322v-2.898c0-1.484.63-2.9 1.735-3.891z" fill="#A0D2F0"/><path d="M38.615 72h-5.23l.654-9.415h3.922L38.615 72z" fill="#5B5D6E"/><path d="M38.615 60.493h-5.23v1.969c0 .646.523 1.17 1.17 1.17h2.89a1.17 1.17 0 001.17-1.17v-1.969z" fill="#515262"/><path d="M26.439 51.888L36 60.493s-2.678 1.352-5.982 4.077a1.342 1.342 0 01-2.078-.47l-4.492-9.883 1.42-2.131a1.046 1.046 0 011.57-.198zM45.561 51.888l-9.56 8.605s2.677 1.352 5.981 4.076a1.342 1.342 0 002.078-.47l4.492-9.882-1.42-2.132a1.046 1.046 0 00-1.57-.197z" fill="#A0D2F0"/><path d="M42.342 15.906l.98 6.93c4.477.895 5.122 7.92 5.215 9.927.017.364.133.715.33 1.022l1.708 2.65s-.584-4.381 2.092-7.323c0 0 .92-17.39-10.325-13.206z" fill="#785550"/><path d="M23.404 14.031l1.547 1.057c-6.995 5.165-5.688 14.024-5.688 14.024 2.092 2.092 2.092 7.322 2.092 7.322l2.092-2.092s-.807-6.043 3.138-8.368c3.662-2.158 6.865-1.046 10.134-1.046 8.76 0 11.212-3.302 10.787-7.323-.22-2.08-3.4-6.414-11.506-6.276-3.271.056-9.414 1.046-12.596 2.702z" fill="#694B4B"/><path d="M22.794 24.012s-1.112-4.38 2.157-8.924c-6.995 5.165-5.688 14.024-5.688 14.024 2.092 2.092 2.092 7.322 2.092 7.322l2.092-2.092s-.807-6.043 3.138-8.368c3.662-2.157 6.865-1.046 10.134-1.046 1.425 0 2.666-.096 3.772-.259-6.746.226-10.724-4.884-17.697-.657z" fill="#5A4146"/><path d="M22.924 41.664h-1.569a1.046 1.046 0 01-1.046-1.046v-7.322c0-.578.469-1.046 1.046-1.046h1.57c.288 0 .523.234.523.523v8.368a.523.523 0 01-.524.523z" fill="#5B5D6E"/><path d="M40.184 47.68v-1.57c7.08 0 8.63-3.964 8.63-5.492h1.57c0 1.964-1.833 7.061-10.2 7.061z" fill="#464655"/><path d="M40.184 47.94h-1.046a1.046 1.046 0 110-2.091h1.046a1.046 1.046 0 110 2.092z" fill="#5B5D6E"/><path d="M50.645 40.618l1.514-.757c.354-.177.578-.539.578-.935v-3.937c0-.397-.224-.759-.578-.936l-1.514-.757v7.322z" fill="#707487"/><path d="M49.076 41.664h1.569c.577 0 1.046-.468 1.046-1.046v-7.322c0-.578-.469-1.046-1.046-1.046h-1.57a.523.523 0 00-.522.523v8.368c0 .29.234.523.523.523z" fill="#5B5D6E"/><path d="M49.599 69.908h-7.323c-.577 0-1.046.468-1.046 1.046V72h9.415v-1.046c0-.578-.469-1.046-1.046-1.046z" fill="#A0D2F0"/></g><defs><clipPath id="clip0"><path fill="#fff" d="M5.663 11.326h60.674V72H5.663z"/></clipPath></defs></svg>