<svg width="72" height="72" fill="none" xmlns="http://www.w3.org/2000/svg"><g clip-path="url(#clip0)"><path d="M66.49 8.257h-7.643c-.585 0-1.06.473-1.06 1.056V12.7a2.085 2.085 0 01-4.17 0V9.313c0-.583-.473-1.056-1.058-1.056H15.064c-.586 0-1.06.473-1.06 1.056V12.7a2.085 2.085 0 01-4.17 0V9.313c0-.583-.474-1.056-1.06-1.056H1.06C.474 8.257 0 8.73 0 9.313v51.069c0 .583.474 1.056 1.06 1.056h35.484a1.054 1.054 0 00.958-1.509 16.767 16.767 0 01-1.628-7.246c0-9.35 7.628-16.958 17.004-16.958 4.91 0 9.58 2.118 12.814 5.812a1.061 1.061 0 001.857-.695V9.313c0-.583-.474-1.056-1.06-1.056z" fill="#B4E1FA"/><path d="M18.462 26.804h-6.826c-.585 0-1.059.473-1.059 1.057v6.808c0 .583.474 1.056 1.06 1.056h6.825c.585 0 1.06-.473 1.06-1.056V27.86c0-.584-.475-1.057-1.06-1.057zm12.508 0h-6.826c-.585 0-1.06.473-1.06 1.057v6.807c0 .584.475 1.057 1.06 1.057h6.826c.585 0 1.06-.473 1.06-1.057v-6.807c0-.584-.475-1.057-1.06-1.057zm12.508 0h-6.826c-.585 0-1.06.473-1.06 1.057v6.807c0 .584.475 1.057 1.06 1.057h6.826c.585 0 1.06-.473 1.06-1.057v-6.807c0-.584-.475-1.057-1.06-1.057zm12.508 0H49.16c-.585 0-1.06.473-1.06 1.057v6.807c0 .584.474 1.057 1.06 1.057h6.826c.585 0 1.06-.473 1.06-1.057v-6.807c0-.584-.475-1.057-1.06-1.057zM18.462 41.419h-6.826c-.585 0-1.059.473-1.059 1.056v6.808c0 .584.474 1.057 1.06 1.057h6.825c.585 0 1.06-.473 1.06-1.057v-6.808c0-.583-.475-1.056-1.06-1.056zm12.508 0h-6.826c-.585 0-1.06.473-1.06 1.056v6.808c0 .584.475 1.057 1.06 1.057h6.826c.585 0 1.06-.473 1.06-1.057v-6.808c0-.583-.475-1.056-1.06-1.056z" fill="#55B9F0"/><path d="M67.55 15.836H0v8.435h67.55v-8.435z" fill="#6DCBFF"/><path d="M66.526 8.257h-7.679c-.585 0-1.06.473-1.06 1.056V12.7a2.085 2.085 0 01-4.17 0V9.313c0-.583-.473-1.056-1.058-1.056H15.064c-.586 0-1.06.473-1.06 1.056V12.7a2.085 2.085 0 01-4.17 0V9.313c0-.583-.474-1.056-1.06-1.056H1.097c-.585 0-1.06.473-1.06 1.056V20.75c0 .583.475 1.056 1.06 1.056h65.43c.585 0 1.06-.473 1.06-1.056V9.313c0-.583-.475-1.056-1.06-1.056z" fill="#FF7474"/><path d="M.036 17.932v2.818c0 .583.475 1.056 1.06 1.056h65.43c.585 0 1.06-.473 1.06-1.056v-2.818H.035z" fill="#EB5757"/><path d="M11.919.246a4.203 4.203 0 00-4.204 4.192V12.7a4.203 4.203 0 004.204 4.193 4.203 4.203 0 004.204-4.193V4.438A4.203 4.203 0 0011.919.246z" fill="#F7CB4F"/><path d="M11.919.246c-.708 0-1.375.176-1.96.485A4.195 4.195 0 0112.2 4.438V12.7c0 1.606-.91 3.003-2.243 3.707a4.203 4.203 0 006.164-3.707V4.438A4.203 4.203 0 0011.92.246z" fill="#F4B008"/><path d="M55.703.246a4.203 4.203 0 00-4.204 4.192V12.7a4.203 4.203 0 004.204 4.193 4.203 4.203 0 004.204-4.193V4.438A4.203 4.203 0 0055.703.246z" fill="#F7CB4F"/><path d="M55.703.246c-.708 0-1.374.176-1.96.485a4.195 4.195 0 012.244 3.708V12.7c0 1.607-.91 3.004-2.244 3.708a4.203 4.203 0 006.163-3.707V4.438A4.203 4.203 0 0055.704.246z" fill="#F4B008"/><path d="M52.877 33.612c-10.544 0-19.122 8.555-19.122 19.071 0 10.516 8.578 19.071 19.122 19.071C63.422 71.754 72 63.2 72 52.683c0-10.516-8.578-19.071-19.123-19.071z" fill="#FF7474"/><path d="M52.878 33.612c-.68 0-1.35.036-2.01.105 9.603 1.005 17.113 9.127 17.113 18.966s-7.51 17.961-17.113 18.966c.66.069 1.33.105 2.01.105C63.422 71.754 72 63.2 72 52.683c0-10.516-8.578-19.071-19.122-19.071z" fill="#EB5757"/><path d="M52.877 38.05c-8.09 0-14.67 6.565-14.67 14.633 0 8.068 6.58 14.632 14.67 14.632S67.55 60.751 67.55 52.683s-6.582-14.632-14.672-14.632z" fill="#EFE7E4"/><path d="M52.878 38.05c-.659 0-1.307.045-1.943.13 7.175.95 12.73 7.092 12.73 14.503 0 7.412-5.555 13.553-12.73 14.504.636.084 1.284.128 1.943.128 8.09 0 14.671-6.564 14.671-14.632s-6.582-14.632-14.671-14.632z" fill="#D8D1D0"/><path d="M52.843 51.622c-.585 0-1.06-.473-1.06-1.056v-8.09c0-.584.475-1.057 1.06-1.057.585 0 1.06.473 1.06 1.057v8.09c0 .583-.475 1.056-1.06 1.056zm-5.286 8.098a1.057 1.057 0 01-.78-1.77l3.955-4.294a1.061 1.061 0 011.497-.063c.43.395.46 1.063.063 1.493l-3.954 4.293a1.058 1.058 0 01-.78.342z" fill="#546F7A"/><path d="M52.843 49.509a3.199 3.199 0 00-3.2 3.191c0 1.76 1.436 3.19 3.2 3.19 1.764 0 3.2-1.43 3.2-3.19a3.199 3.199 0 00-3.2-3.191z" fill="#F7CB4F"/></g><defs><clipPath id="clip0"><path fill="#fff" d="M0 0h72v72H0z"/></clipPath></defs></svg>