<svg width="21" height="22" fill="none" xmlns="http://www.w3.org/2000/svg"><path d="M0 11.447c0-5.8 4.701-10.5 10.5-10.5 5.8 0 10.5 4.7 10.5 10.5 0 5.799-4.7 10.5-10.5 10.5-5.799 0-10.5-4.701-10.5-10.5z" fill="#fff"/><path d="M8.369 14.653c-.432-.499-.44-1.302-.018-1.785l4.975-5.69c.422-.482 1.12-.468 1.552.03.432.5.44 1.303.018 1.786l-4.976 5.69c-.422.482-1.12.468-1.551-.03z" fill="#219653"/><path d="M5.675 10.151c.434-.49 1.15-.478 1.593.03L9.63 12.89c.443.507.45 1.324.016 1.816-.434.49-1.15.478-1.593-.03l-2.363-2.709c-.442-.507-.45-1.324-.016-1.816z" fill="#219653"/></svg>