<svg width="453" height="344" fill="none" xmlns="http://www.w3.org/2000/svg"><g filter="url(#filter0_d)"><rect x="12" y="10" width="429.083" height="320.082" rx="5.767" fill="#fff"/></g><path d="M418.61 31.97l6.956-6.957m0 6.957l-6.957-6.957" stroke="#4F4F4F" stroke-width=".577" stroke-linecap="round" stroke-linejoin="round"/><rect x="67.366" y="259.722" width="318.352" height="31.143" rx="1.73" fill="#FEDC2D"/><path d="M211.169 274.947c-.062.656-.304 1.169-.727 1.538-.422.366-.984.549-1.685.549a2.43 2.43 0 01-1.297-.346 2.309 2.309 0 01-.862-.993c-.202-.428-.308-.925-.317-1.491v-.575c0-.58.103-1.091.309-1.533.205-.442.5-.783.883-1.022.385-.24.83-.359 1.334-.359.679 0 1.225.184 1.639.553.414.369.655.89.723 1.563h-1.065c-.05-.442-.18-.76-.388-.955-.206-.197-.509-.295-.909-.295-.464 0-.822.17-1.072.511-.248.338-.375.835-.381 1.491v.545c0 .664.119 1.171.355 1.52.24.35.589.524 1.048.524.419 0 .735-.094.946-.283.211-.188.345-.502.401-.942h1.065zm.667-.325c0-.448.089-.85.266-1.208.178-.361.427-.637.748-.828.321-.194.69-.291 1.107-.291.616 0 1.116.198 1.499.595.386.397.594.924.625 1.58l.005.241c0 .45-.088.853-.262 1.208a1.9 1.9 0 01-.744.823 2.105 2.105 0 01-1.115.292c-.645 0-1.162-.214-1.55-.642-.386-.431-.579-1.004-.579-1.719v-.051zm1.027.089c0 .47.097.839.291 1.106.194.265.465.397.811.397a.934.934 0 00.807-.405c.194-.27.291-.666.291-1.187 0-.462-.1-.828-.3-1.098a.944.944 0 00-.806-.406.94.94 0 00-.799.402c-.197.264-.295.661-.295 1.191zm5.639-.828l.87-1.504h1.14l-1.398 2.251 1.445 2.319h-1.132l-.913-1.562-.908 1.562h-1.14l1.444-2.319-1.394-2.251h1.132l.854 1.504zm6.712.828c0 .707-.161 1.271-.482 1.694-.321.419-.752.629-1.292.629-.502 0-.903-.165-1.204-.494v2.167h-1.027v-6.328h.947l.042.465c.301-.366.711-.549 1.229-.549.558 0 .994.208 1.309.625.319.414.478.99.478 1.727v.064zm-1.022-.089c0-.456-.092-.818-.275-1.086-.18-.267-.439-.401-.777-.401-.42 0-.721.173-.904.52v2.027c.186.355.49.532.912.532a.88.88 0 00.765-.392c.186-.265.279-.665.279-1.2zm4.625 2.327a1.551 1.551 0 01-.118-.426 1.598 1.598 0 01-1.2.511c-.459 0-.834-.131-1.124-.393a1.257 1.257 0 01-.435-.971c0-.488.18-.861.541-1.12.363-.262.881-.393 1.554-.393h.63v-.3c0-.236-.066-.425-.199-.566-.132-.143-.333-.215-.604-.215a.896.896 0 00-.574.177.537.537 0 00-.224.444h-1.027c0-.251.083-.484.25-.701.166-.22.391-.392.675-.516.288-.123.607-.185.959-.185.535 0 .962.135 1.28.405.318.268.482.645.49 1.132v2.061c0 .412.058.74.173.985v.071h-1.047zm-1.128-.739c.203 0 .393-.049.57-.148a.984.984 0 00.406-.397v-.861h-.554c-.38 0-.666.066-.857.198a.643.643 0 00-.287.562c0 .197.064.355.194.473.132.116.308.173.528.173zm6.949.739h-1.027v-1.845h-1.778v1.845h-1.027v-4.57h1.027v1.905h1.778v-1.905h1.027v4.57zm3.949-4.57h1.022v4.57h-1.022V273.9l-1.791 3.049h-1.022v-4.57h1.022v3.05l1.791-3.05zm5.711.815h-1.483v3.755h-1.026v-3.755h-1.466v-.815h3.975v.815zm1.791.638h1.005c.375 0 .702.065.98.194.279.13.49.312.634.545.146.234.22.506.22.816 0 .47-.167.847-.499 1.132-.332.284-.774.428-1.326.43h-2.04v-4.57h1.026v1.453zm0 .824v1.474h1.001c.251 0 .448-.062.591-.186.147-.127.22-.305.22-.536 0-.231-.072-.413-.215-.545-.141-.135-.333-.204-.575-.207h-1.022zM142.134 52.852h-1.56v-2.016h-4.945v2.01h-1.6l-.09-3.367h.62c.334-.278.591-.685.771-1.222.184-.541.308-1.21.372-2.005l.236-3.616h5.373v6.843h.958l-.135 3.373zm-5.638-3.373h3.126v-5.474h-2.078l-.141 2.157c-.113 1.445-.415 2.55-.907 3.317zm6.302-1.746c0-.605.117-1.143.349-1.616.233-.474.567-.84 1.003-1.099.439-.259.948-.388 1.526-.388.823 0 1.493.251 2.011.754.522.504.813 1.187.873 2.05l.011.417c0 .935-.261 1.686-.783 2.253-.522.563-1.222.845-2.1.845-.879 0-1.581-.282-2.107-.845-.522-.563-.783-1.33-.783-2.298v-.073zm1.628.118c0 .578.109 1.022.327 1.33.217.303.529.456.935.456.394 0 .702-.15.923-.451.222-.304.332-.788.332-1.453 0-.567-.11-1.006-.332-1.318-.221-.312-.533-.468-.935-.468-.398 0-.706.156-.923.468-.218.308-.327.787-.327 1.436zm8.172-2.77c.781 0 1.404.258 1.87.776.466.519.698 1.223.698 2.112v.08c0 .878-.259 1.582-.777 2.111-.518.53-1.215.795-2.089.795-.879 0-1.579-.286-2.101-.857-.518-.574-.777-1.353-.777-2.337v-.27c.007-1.37.238-2.443.692-3.216.458-.777 1.146-1.267 2.062-1.47.48-.105.79-.209.929-.31a.514.514 0 00.208-.434h1.318c0 .59-.159 1.033-.478 1.33-.316.296-.879.525-1.69.687-.481.097-.86.287-1.138.569-.278.281-.465.677-.563 1.188a2.547 2.547 0 011.836-.755zm-.31 1.317c-.386 0-.691.13-.912.389-.218.259-.327.68-.327 1.261 0 .518.107.915.321 1.189.214.27.524.405.93.405.394 0 .698-.133.912-.4.214-.266.323-.659.327-1.177v-.135c0-.5-.111-.879-.333-1.138-.217-.263-.523-.394-.918-.394zm7.384 4.438a1.79 1.79 0 01-.163-.546c-.395.44-.907.659-1.538.659-.597 0-1.093-.173-1.487-.518a1.671 1.671 0 01-.585-1.307c0-.646.238-1.141.715-1.487.48-.345 1.173-.52 2.078-.524h.749v-.349c0-.281-.073-.507-.22-.676-.142-.169-.369-.253-.681-.253-.274 0-.49.066-.648.197a.673.673 0 00-.231.54h-1.627c0-.352.109-.679.326-.98.218-.3.526-.534.924-.703.398-.173.845-.26 1.34-.26.751 0 1.347.19 1.786.57.443.375.664.904.664 1.588v2.641c.004.578.085 1.016.243 1.312v.096h-1.645zm-1.346-1.132c.24 0 .462-.052.665-.158.202-.108.352-.253.45-.433v-1.048h-.608c-.815 0-1.249.282-1.301.845l-.006.096c0 .203.072.37.214.501.143.131.338.197.586.197zm4.106 1.132v-6.094h2.545c.83 0 1.467.147 1.91.44.443.292.664.713.664 1.261 0 .282-.094.535-.281.76-.184.222-.455.393-.811.513.435.083.777.246 1.025.49.251.24.377.537.377.89 0 .567-.214.999-.642 1.295-.424.297-1.042.445-1.853.445h-2.934zm1.627-2.529v1.228h1.313c.574 0 .861-.2.861-.602 0-.41-.274-.618-.822-.626h-1.352zm0-1.092h1.009c.57-.008.856-.192.856-.552 0-.222-.079-.38-.237-.473-.154-.094-.39-.141-.71-.141h-.918v1.166zm10.099-2.473v6.094h-1.628V46.06h-1.436l-.102 1.881c-.063 1.003-.26 1.733-.591 2.191-.33.458-.822.693-1.475.704h-.552l-.017-1.323.202-.017c.293-.023.507-.196.642-.518.136-.323.22-.873.254-1.65l.113-2.586h4.59zm4.06 6.207c-.893 0-1.622-.274-2.185-.822-.559-.549-.839-1.279-.839-2.191v-.158c0-.612.118-1.158.355-1.639a2.59 2.59 0 011.002-1.115 2.824 2.824 0 011.487-.394c.834 0 1.489.262 1.966.788.48.526.721 1.271.721 2.236v.665h-3.881c.053.398.21.717.473.957.267.24.603.36 1.008.36.627 0 1.117-.227 1.47-.68l.8.895a2.463 2.463 0 01-.991.81 3.282 3.282 0 01-1.386.288zm-.185-5.002a1.03 1.03 0 00-.789.327c-.199.218-.327.53-.383.935h2.264v-.13c-.007-.36-.105-.638-.293-.833-.187-.199-.454-.299-.799-.299zm8.904 4.89h-1.633v-2.344h-2.022v2.343h-1.628v-6.094h1.628v2.445h2.022v-2.445h1.633v6.094zm4.934-6.095h1.627v6.094h-1.627v-3.762l-2.039 3.762h-1.634v-6.094h1.634V48.5l2.039-3.757zm5.677 6.207c-.894 0-1.622-.274-2.186-.822-.559-.549-.839-1.279-.839-2.191v-.158c0-.612.119-1.158.355-1.639a2.591 2.591 0 011.003-1.115 2.819 2.819 0 011.487-.394c.833 0 1.488.262 1.965.788.481.526.721 1.271.721 2.236v.665h-3.88c.052.398.21.717.473.957.266.24.602.36 1.008.36.627 0 1.117-.227 1.47-.68l.799.895a2.463 2.463 0 01-.991.81 3.277 3.277 0 01-1.385.288zm-.186-5.002a1.03 1.03 0 00-.789.327c-.199.218-.326.53-.383.935h2.264v-.13c-.007-.36-.105-.638-.292-.833-.188-.199-.455-.299-.8-.299zm11.777 4.89h-1.634v-2.344h-2.022v2.343h-1.627v-6.094h1.627v2.445h2.022v-2.445h1.634v6.094zm1.008-3.104c0-.605.116-1.143.349-1.616.233-.474.567-.84 1.002-1.099.44-.259.948-.388 1.527-.388.822 0 1.492.251 2.01.754.522.504.813 1.187.873 2.05l.012.417c0 .935-.261 1.686-.783 2.253-.522.563-1.222.845-2.101.845s-1.581-.282-2.106-.845c-.522-.563-.783-1.33-.783-2.298v-.073zm1.627.118c0 .578.109 1.022.327 1.33.218.303.529.456.935.456.394 0 .702-.15.924-.451.221-.304.332-.788.332-1.453 0-.567-.111-1.006-.332-1.318-.222-.312-.534-.468-.935-.468-.398 0-.706.156-.924.468-.218.308-.327.787-.327 1.436zm5.255 2.985v-6.094h2.546c.83 0 1.466.147 1.909.44.443.292.665.713.665 1.261 0 .282-.094.535-.282.76-.184.222-.454.393-.811.513.436.083.777.246 1.025.49.252.24.377.537.377.89 0 .567-.214.999-.642 1.295-.424.297-1.042.445-1.853.445h-2.934zm1.628-2.529v1.228h1.312c.575 0 .862-.2.862-.602 0-.41-.274-.618-.823-.626h-1.351zm0-1.092h1.008c.571-.008.856-.192.856-.552 0-.222-.079-.38-.237-.473-.154-.094-.39-.141-.709-.141h-.918v1.166zm4.545.518c0-.605.116-1.143.349-1.616.233-.474.567-.84 1.003-1.099.439-.259.948-.388 1.526-.388.822 0 1.492.251 2.011.754.521.504.812 1.187.872 2.05l.012.417c0 .935-.261 1.686-.783 2.253-.522.563-1.222.845-2.101.845-.878 0-1.581-.282-2.106-.845-.522-.563-.783-1.33-.783-2.298v-.073zm1.628.118c0 .578.108 1.022.326 1.33.218.303.53.456.935.456.394 0 .702-.15.924-.451.221-.304.332-.788.332-1.453 0-.567-.111-1.006-.332-1.318-.222-.312-.533-.468-.935-.468-.398 0-.706.156-.924.468-.218.308-.326.787-.326 1.436zm9.298-1.79h-2.523v4.775h-1.628v-6.094h4.151v1.318zm.315 1.672c0-.605.117-1.143.35-1.616a2.56 2.56 0 011.002-1.099c.439-.259.948-.388 1.526-.388.823 0 1.493.251 2.011.754.522.504.813 1.187.873 2.05l.011.417c0 .935-.261 1.686-.782 2.253-.522.563-1.223.845-2.101.845-.879 0-1.581-.282-2.107-.845-.522-.563-.783-1.33-.783-2.298v-.073zm1.628.118c0 .578.109 1.022.327 1.33.218.303.529.456.935.456.394 0 .702-.15.923-.451.222-.304.333-.788.333-1.453 0-.567-.111-1.006-.333-1.318-.221-.312-.533-.468-.935-.468-.398 0-.705.156-.923.468-.218.308-.327.787-.327 1.436zm13.32 2.985h-1.633V46.06h-2.039v4.776h-1.628v-6.094h5.3v6.094zm.991-3.103c0-.605.117-1.143.349-1.616.233-.474.567-.84 1.003-1.099.439-.259.948-.388 1.526-.388.823 0 1.493.251 2.011.754.522.504.813 1.187.873 2.05l.011.417c0 .935-.261 1.686-.783 2.253-.522.563-1.222.845-2.1.845-.879 0-1.581-.282-2.107-.845-.522-.563-.783-1.33-.783-2.298v-.073zm1.628.118c0 .578.109 1.022.327 1.33.217.303.529.456.935.456.394 0 .702-.15.923-.451.222-.304.332-.788.332-1.453 0-.567-.11-1.006-.332-1.318-.221-.312-.533-.468-.935-.468-.398 0-.706.156-.923.468-.218.308-.327.787-.327 1.436zm10.357-3.109v6.094h-1.627V46.06h-1.437l-.101 1.881c-.064 1.003-.261 1.733-.591 2.191-.331.458-.823.693-1.476.704h-.552l-.017-1.323.203-.017c.293-.023.507-.196.642-.518.135-.323.22-.873.254-1.65l.112-2.586h4.59zm2.997 1.786h1.165c.526 0 .988.088 1.386.264.398.177.702.43.912.76.214.327.321.708.321 1.144 0 .642-.238 1.16-.715 1.554-.473.39-1.119.586-1.937.586h-2.766v-6.094h1.634v1.786zm0 1.306v1.701h1.154c.323 0 .571-.075.744-.225.172-.15.259-.355.259-.614 0-.263-.085-.471-.254-.625-.169-.158-.418-.237-.749-.237h-1.154zm7.901-1.295c0-.214-.071-.38-.214-.496-.139-.12-.338-.18-.597-.18-.266 0-.484.056-.653.169a.527.527 0 00-.248.468h-1.627c0-.553.229-1.001.687-1.347.458-.345 1.044-.518 1.757-.518.785 0 1.4.154 1.847.462.451.308.676.745.676 1.312 0 .27-.083.52-.248.75a1.67 1.67 0 01-.687.54c.695.244 1.042.715 1.042 1.414 0 .56-.24 1.006-.721 1.34-.477.33-1.113.496-1.909.496-.74 0-1.348-.173-1.825-.518-.477-.346-.715-.811-.715-1.397h1.628c0 .206.091.373.275.501.184.128.425.192.721.192.289 0 .515-.068.676-.203a.656.656 0 00.242-.53c0-.266-.077-.456-.231-.568-.153-.117-.384-.175-.692-.175h-.884v-1.059h.94c.507-.015.76-.233.76-.653zm2.473 1.194c0-.605.116-1.143.349-1.616.233-.474.567-.84 1.003-1.099.439-.259.948-.388 1.526-.388.822 0 1.492.251 2.011.754.521.504.812 1.187.873 2.05l.011.417c0 .935-.261 1.686-.783 2.253-.522.563-1.222.845-2.101.845-.878 0-1.581-.282-2.106-.845-.522-.563-.783-1.33-.783-2.298v-.073zm1.628.118c0 .578.108 1.022.326 1.33.218.303.53.456.935.456.394 0 .702-.15.924-.451.221-.304.332-.788.332-1.453 0-.567-.111-1.006-.332-1.318-.222-.312-.533-.468-.935-.468-.398 0-.706.156-.924.468-.218.308-.326.787-.326 1.436zm5.254 2.985v-6.094h2.546c.83 0 1.466.147 1.909.44.443.292.665.713.665 1.261 0 .282-.094.535-.282.76-.184.222-.454.393-.811.513.436.083.777.246 1.025.49.252.24.378.537.378.89 0 .567-.214.999-.642 1.295-.425.297-1.042.445-1.853.445h-2.935zm1.628-2.529v1.228h1.312c.575 0 .862-.2.862-.602 0-.41-.274-.618-.822-.626h-1.352zm0-1.092h1.008c.571-.008.856-.192.856-.552 0-.222-.079-.38-.236-.473-.154-.094-.391-.141-.71-.141h-.918v1.166zm8.33 3.621a1.817 1.817 0 01-.164-.546c-.394.44-.906.659-1.537.659-.597 0-1.093-.173-1.487-.518a1.672 1.672 0 01-.586-1.307c0-.646.239-1.141.716-1.487.48-.345 1.173-.52 2.078-.524h.749v-.349c0-.281-.073-.507-.22-.676-.142-.169-.37-.253-.681-.253-.274 0-.49.066-.648.197a.673.673 0 00-.231.54h-1.628c0-.352.109-.679.327-.98.218-.3.526-.534.924-.703.398-.173.845-.26 1.34-.26.751 0 1.346.19 1.786.57.443.375.664.904.664 1.588v2.641c.004.578.085 1.016.242 1.312v.096h-1.644zm-1.346-1.132c.24 0 .462-.052.664-.158.203-.108.353-.253.451-.433v-1.048h-.608c-.815 0-1.249.282-1.301.845l-.006.096c0 .203.071.37.214.501.143.131.338.197.586.197zm8.966-3.655h-1.954v4.787h-1.634V46.05h-1.92v-1.307h5.508v1.307zm3.267 4.9c-.894 0-1.622-.274-2.186-.822-.559-.549-.839-1.279-.839-2.191v-.158c0-.612.118-1.158.355-1.639a2.591 2.591 0 011.003-1.115 2.818 2.818 0 011.486-.394c.834 0 1.489.262 1.966.788.481.526.721 1.271.721 2.236v.665h-3.881c.053.398.211.717.474.957.266.24.602.36 1.008.36.627 0 1.117-.227 1.47-.68l.799.895a2.463 2.463 0 01-.991.81 3.277 3.277 0 01-1.385.288zm-.186-5.002a1.03 1.03 0 00-.789.327c-.199.218-.326.53-.383.935h2.264v-.13c-.007-.36-.105-.638-.292-.833-.188-.199-.455-.299-.8-.299zm8.921-1.205v6.094h-1.628V46.06h-1.436l-.101 1.881c-.064 1.003-.261 1.733-.592 2.191-.33.458-.822.693-1.475.704h-.552l-.017-1.323.203-.017c.293-.023.507-.196.642-.518.135-.323.219-.873.253-1.65l.113-2.586h4.59zm6.336 0v6.094h-1.622V48.73h-1.031l-1.171 2.106h-1.65l1.329-2.382a2.039 2.039 0 01-.845-.687 1.722 1.722 0 01-.293-.986c0-.59.227-1.072.682-1.447.458-.38 1.07-.577 1.836-.592h2.765zm-2.737 2.85h1.115V46.05h-1.059c-.289 0-.524.077-.704.23a.693.693 0 00-.27.553c0 .218.086.398.259.54.173.143.392.216.659.22z" fill="#000"/><rect x="233.751" y="97.374" width="151.679" height="27.683" rx="2.595" stroke="#E0E0E0" stroke-width=".577"/><path d="M249.271 107.473h.131c.465.002.889.111 1.272.325.383.214.68.51.891.887.214.374.321.794.321 1.259 0 .467-.107.891-.321 1.271-.214.38-.51.677-.887.891-.377.212-.797.32-1.259.326h-.148v.828h-.785v-.828h-.118c-.471 0-.899-.107-1.285-.321a2.299 2.299 0 01-.895-.887 2.565 2.565 0 01-.317-1.272c0-.47.106-.894.317-1.271.214-.378.512-.673.895-.887a2.604 2.604 0 011.285-.321h.118v-.871h.785v.871zm-.903.637c-.53 0-.949.164-1.259.49-.307.324-.461.775-.461 1.352 0 .58.154 1.032.461 1.356.307.321.729.482 1.267.482h.11v-3.68h-.118zm.903 0v3.68h.119c.538 0 .957-.165 1.259-.495.304-.332.456-.782.456-1.351 0-.564-.152-1.01-.456-1.339-.302-.33-.727-.495-1.276-.495h-.102zm6.472.326h.781v4.57h-.781v-3.333l-2.108 3.333h-.782v-4.57h.782v3.337l2.108-3.337zm5.782 0v4.57h-.785v-3.924h-1.555l-.093 1.711c-.05.785-.183 1.347-.397 1.685-.211.338-.547.514-1.009.528h-.313v-.688l.224-.017c.254-.028.435-.175.545-.44.11-.264.18-.754.211-1.47l.085-1.955h3.087zm4.212 0h.781v4.57h-.781v-3.333l-2.108 3.333h-.781v-4.57h.781v3.337l2.108-3.337zm5.774 4.57h-.781v-3.924h-2.104v3.924h-.786v-4.57h3.671v4.57zm4.993 0h-.781v-3.924h-2.104v3.924h-.786v-4.57h3.671v4.57zm1.048-2.327c0-.448.087-.851.261-1.208.178-.358.423-.634.735-.828a2.01 2.01 0 011.078-.292c.622 0 1.125.216 1.508.646.385.431.578 1.004.578 1.72v.055c0 .445-.086.844-.257 1.199a1.927 1.927 0 01-.731.824 2.017 2.017 0 01-1.09.296c-.62 0-1.122-.216-1.508-.647-.383-.431-.574-1.001-.574-1.71v-.055zm.785.093c0 .506.117.913.351 1.22.236.307.552.461.946.461.397 0 .712-.155.946-.465.234-.312.351-.749.351-1.309 0-.502-.12-.907-.359-1.217a1.13 1.13 0 00-.946-.469c-.386 0-.697.154-.934.461-.236.307-.355.746-.355 1.318zm4.427 2.234v-4.57h1.783c.608 0 1.074.107 1.398.321.326.211.49.522.49.933a.952.952 0 01-.19.575 1.183 1.183 0 01-.562.388c.276.065.497.192.663.38a.979.979 0 01.253.676c0 .42-.154.741-.464.963-.307.223-.742.334-1.305.334h-2.066zm.781-2.006v1.377h1.293c.327 0 .57-.061.731-.182a.6.6 0 00.245-.511c0-.456-.335-.684-1.006-.684h-1.263zm0-.625h1.01c.732 0 1.098-.215 1.098-.643 0-.428-.346-.649-1.039-.663h-1.069v1.306z" fill="#BDBDBD"/><path d="M237.346 82.556h.071c.449 0 .855.1 1.218.3.365.197.649.478.851.843.203.365.304.78.304 1.246 0 .689-.221 1.251-.662 1.687-.439.437-1.033.655-1.782.655v.733h-1.14v-.733h-.075a2.58 2.58 0 01-1.23-.292 2.115 2.115 0 01-.851-.828c-.2-.355-.3-.76-.3-1.214 0-.46.1-.871.3-1.234.2-.363.479-.645.84-.848.36-.205.762-.31 1.206-.315h.11v-.75h1.14v.75zm-1.215.981c-.391 0-.7.124-.926.371-.223.247-.335.595-.335 1.045 0 .42.112.752.335.993.223.24.537.36.942.36h.059v-2.769h-.075zm1.215 0v2.768h.079c.386 0 .689-.12.91-.363.224-.244.335-.576.335-.997 0-.439-.109-.783-.327-1.033-.218-.25-.531-.375-.938-.375h-.059zm5.618 4.247a1.262 1.262 0 01-.115-.383c-.276.308-.634.461-1.076.461-.418 0-.765-.12-1.041-.362a1.17 1.17 0 01-.41-.915c0-.452.167-.799.501-1.04.336-.243.821-.365 1.455-.367h.524v-.245c0-.197-.051-.355-.154-.473-.1-.118-.259-.177-.477-.177-.192 0-.343.046-.453.138a.47.47 0 00-.162.378h-1.139c0-.247.076-.476.229-.686.152-.21.368-.374.646-.493.279-.12.591-.181.938-.181.526 0 .943.133 1.25.398.31.263.465.634.465 1.112v1.849c.003.405.06.71.17.918v.068h-1.151zm-.943-.793a.996.996 0 00.466-.11.746.746 0 00.315-.304v-.733h-.426c-.57 0-.874.197-.91.591l-.004.067c0 .142.05.26.149.351.1.092.237.138.41.138zm5.398-.552l1.115-2.921h1.428v4.266h-1.14v-2.618l-1.021 2.618h-.765l-1.001-2.575v2.575h-1.139v-4.266h1.415l1.108 2.921zm6.107-2.921h1.139v4.266h-1.139V85.15l-1.428 2.634h-1.143v-4.266h1.143v2.63l1.428-2.63zm5.72 0v4.266h-1.139V84.44h-1.006l-.071 1.317c-.044.702-.182 1.213-.414 1.534-.231.32-.575.485-1.032.493h-.387l-.012-.927.142-.012c.205-.016.355-.136.45-.362.094-.227.153-.612.177-1.156l.079-1.81h3.213zm3.45 0h1.139v4.266h-1.139V85.15l-1.427 2.634h-1.144v-4.266h1.144v2.63l1.427-2.63zm5.566 0v4.266h-1.135v-1.475h-.721l-.82 1.475h-1.156l.931-1.668a1.432 1.432 0 01-.592-.481 1.209 1.209 0 01-.205-.69c0-.413.159-.75.477-1.013.321-.266.75-.404 1.286-.414h1.935zm-1.916 1.995h.781v-1.08h-.741a.732.732 0 00-.493.161.485.485 0 00-.189.387c0 .152.06.278.181.378.121.1.275.151.461.154z" fill="#333"/><rect x="233.751" y="153.893" width="151.679" height="27.683" rx="2.595" stroke="#E0E0E0" stroke-width=".577"/><path d="M250.961 169.525h-.815v-2.843h-3.101v2.843h-.811v-6.15h.811v2.644h3.101v-2.644h.815v6.15zm3.696-2.488h-1.444v2.488h-.816v-6.15h2.036c.693 0 1.225.158 1.597.473.375.315.562.774.562 1.377 0 .383-.104.717-.313 1.001a1.835 1.835 0 01-.862.638l1.445 2.61v.051h-.87l-1.335-2.488zm-1.444-.663h1.246c.402 0 .722-.104.958-.313.24-.208.36-.487.36-.836 0-.38-.115-.672-.343-.874-.225-.203-.552-.306-.98-.309h-1.241v2.332zm6.023.857h-2.061v-.637h2.061v.637zm.727 1.656l.27-.333c.304-.395.477-.986.519-1.774l.072-1.825h2.944v3.932h.588v1.981h-.782v-1.343h-3.189v1.343h-.781l.004-1.981h.355zm.925 0h2.099v-3.21h-1.407l-.046 1.09c-.048.909-.263 1.616-.646 2.12zm7.29-3.932h.782v4.57h-.782v-3.333l-2.107 3.333h-.782v-4.57h.782v3.337l2.107-3.337zm5.897 2.336c0 .695-.159 1.256-.477 1.681-.318.425-.749.638-1.293.638-.554 0-.991-.176-1.309-.528v2.2h-.782v-6.327h.714l.038.507c.318-.395.761-.592 1.327-.592.549 0 .982.207 1.301.621.321.414.481.99.481 1.728v.072zm-.781-.089c0-.515-.11-.922-.33-1.221a1.062 1.062 0 00-.904-.448c-.473 0-.828.21-1.064.63v2.184c.234.416.591.625 1.073.625.374 0 .671-.148.891-.444.222-.298.334-.74.334-1.326zm3.675 2.408c-.62 0-1.124-.203-1.513-.609-.388-.408-.583-.953-.583-1.634v-.144c0-.453.086-.857.258-1.212.175-.358.417-.637.727-.837a1.83 1.83 0 011.013-.304c.595 0 1.056.196 1.386.587.329.392.494.952.494 1.682v.325h-3.096c.011.45.142.815.393 1.094.253.276.574.414.963.414.276 0 .51-.057.701-.169.192-.113.359-.262.503-.448l.477.372c-.383.588-.957.883-1.723.883zm-.098-4.098c-.315 0-.58.116-.794.347-.214.228-.346.549-.397.963h2.29v-.059c-.023-.397-.13-.704-.321-.921-.192-.22-.451-.33-.778-.33zm4.212 2.066h-.57v1.947h-.786v-4.57h.786v1.934h.511l1.537-1.934h.946l-1.807 2.196 1.96 2.374h-.993l-1.584-1.947zm6.644-1.99h-1.533v3.937h-.781v-3.937h-1.504v-.633h3.818v.633zm.376 1.61c0-.448.088-.851.262-1.208.178-.358.423-.634.735-.828a2.008 2.008 0 011.077-.292c.623 0 1.125.216 1.508.647.386.43.579 1.003.579 1.719v.055c0 .445-.086.844-.258 1.199a1.925 1.925 0 01-.73.824 2.017 2.017 0 01-1.09.296c-.62 0-1.122-.216-1.508-.647-.383-.431-.575-1.001-.575-1.71v-.055zm.786.093c0 .507.117.913.351 1.22.236.307.551.461.946.461.397 0 .712-.155.946-.465.234-.312.351-.749.351-1.309 0-.502-.12-.907-.36-1.217a1.127 1.127 0 00-.946-.469 1.12 1.12 0 00-.933.461c-.237.307-.355.746-.355 1.318zm8.216 0c0 .695-.159 1.256-.478 1.681-.318.425-.749.638-1.292.638-.555 0-.991-.176-1.31-.528v2.2h-.781v-6.327h.714l.038.507c.318-.395.76-.592 1.326-.592.549 0 .983.207 1.301.621.321.414.482.99.482 1.728v.072zm-.782-.089c0-.515-.11-.922-.329-1.221a1.063 1.063 0 00-.904-.448c-.473 0-.828.21-1.065.63v2.184c.234.416.592.625 1.073.625.375 0 .672-.148.892-.444.222-.298.333-.74.333-1.326z" fill="#BDBDBD"/><path d="M239.297 145.714h-1.092v-1.411h-3.461v1.407h-1.12l-.063-2.357h.434c.234-.195.414-.48.54-.856.129-.378.215-.846.26-1.403l.166-2.531h3.761v4.79h.67l-.095 2.361zm-3.946-2.361h2.188v-3.832h-1.455l-.098 1.509c-.079 1.012-.291 1.786-.635 2.323zm4.411-1.223c0-.423.082-.8.245-1.131.163-.331.397-.587.702-.769a2.064 2.064 0 011.068-.272c.576 0 1.045.176 1.407.528.366.353.57.831.612 1.435l.007.292c0 .655-.182 1.18-.548 1.577-.365.394-.855.592-1.47.592s-1.107-.198-1.475-.592c-.365-.394-.548-.93-.548-1.608v-.052zm1.14.083c0 .405.076.715.228.931.153.213.371.319.655.319a.757.757 0 00.646-.315c.156-.213.233-.552.233-1.018 0-.396-.077-.704-.233-.922a.756.756 0 00-.654-.327.744.744 0 00-.647.327c-.152.215-.228.551-.228 1.005zm7.25-2.176v4.266h-1.139v-3.343h-1.006l-.071 1.316c-.044.702-.182 1.213-.414 1.534-.231.321-.575.485-1.033.493h-.386l-.012-.927.142-.012c.205-.015.355-.136.45-.362.094-.226.153-.611.177-1.155l.079-1.81h3.213zm4.983 2.685h-.516v1.581h-1.14v-1.581h-.508l-.848 1.581h-1.376l1.345-2.232-1.329-2.034h1.411l.888 1.593h.417v-1.593h1.14v1.593h.426l.891-1.593h1.411l-1.321 2.007 1.356 2.259h-1.399l-.848-1.581zm6.493 1.581h-1.143v-1.64h-1.415v1.64h-1.14v-4.266h1.14v1.711h1.415v-1.711h1.143v4.266zm.706-2.173c0-.423.082-.8.245-1.131.163-.331.396-.587.701-.769a2.07 2.07 0 011.069-.272c.575 0 1.045.176 1.407.528.366.353.569.831.611 1.435l.008.292c0 .655-.182 1.18-.548 1.577-.365.394-.855.592-1.47.592s-1.107-.198-1.475-.592c-.365-.394-.548-.93-.548-1.608v-.052zm1.14.083c0 .405.076.715.228.931.153.213.371.319.655.319a.757.757 0 00.646-.315c.155-.213.233-.552.233-1.018 0-.396-.078-.704-.233-.922a.756.756 0 00-.654-.327.744.744 0 00-.647.327c-.152.215-.228.551-.228 1.005zm5.377 1.25c.21 0 .381-.058.513-.173a.614.614 0 00.205-.462h1.068a1.47 1.47 0 01-.237.797 1.578 1.578 0 01-.638.559 1.989 1.989 0 01-.891.198c-.61 0-1.091-.194-1.443-.58-.352-.389-.528-.925-.528-1.608v-.075c0-.657.174-1.182.524-1.573.349-.392.829-.588 1.439-.588.533 0 .961.153 1.281.457.323.303.488.706.493 1.211h-1.068a.772.772 0 00-.205-.536.681.681 0 00-.521-.209c-.265 0-.466.097-.603.291-.134.192-.201.505-.201.939v.118c0 .439.067.754.201.946.134.192.338.288.611.288zm5.977-2.511h-1.368v3.351h-1.144v-3.351h-1.344v-.915h3.856v.915zm1.794.335h.816c.368 0 .691.062.97.185.278.124.491.301.638.532.15.229.225.496.225.801 0 .449-.167.812-.501 1.088-.331.273-.783.41-1.356.41h-1.936v-4.266h1.144v1.25zm0 .914v1.191h.808c.226 0 .399-.053.52-.158a.539.539 0 00.182-.429c0-.184-.06-.33-.178-.438-.118-.11-.293-.166-.524-.166h-.808z" fill="#333"/><rect x="67.654" y="153.893" width="151.102" height="27.683" rx="2.595" stroke="#E0E0E0" stroke-width=".577"/><path d="M80.521 169.525h-.781v-4.57h.781v4.57zm-.845-5.783c0-.126.038-.233.114-.321.08-.087.194-.131.347-.131.152 0 .267.044.346.131a.464.464 0 01.118.321c0 .127-.04.233-.118.317-.079.085-.194.127-.346.127-.153 0-.268-.042-.347-.127a.455.455 0 01-.114-.317zm3.054 1.213l.026.574c.349-.439.805-.659 1.368-.659.966 0 1.453.545 1.462 1.635v3.02h-.782v-3.024c-.002-.33-.078-.573-.228-.731-.146-.158-.376-.237-.688-.237a1.13 1.13 0 00-.668.203 1.38 1.38 0 00-.447.532v3.257h-.782v-4.57h.74zm4.635 4.57v-3.966h-.723v-.604h.723v-.469c0-.49.13-.869.392-1.136.262-.268.632-.402 1.111-.402.18 0 .36.024.537.072l-.043.634a2.192 2.192 0 00-.422-.038c-.253 0-.45.074-.587.224-.138.146-.207.357-.207.633v.482h.976v.604h-.976v3.966h-.781zm2.631-2.327c0-.448.088-.851.262-1.208.178-.358.423-.634.735-.828a2.006 2.006 0 011.077-.292c.623 0 1.125.216 1.508.647.386.43.579 1.003.579 1.719v.055c0 .445-.086.844-.258 1.199a1.925 1.925 0 01-.73.824 2.014 2.014 0 01-1.09.296c-.62 0-1.122-.216-1.508-.647-.383-.431-.575-1.001-.575-1.71v-.055zm.786.093c0 .507.117.913.35 1.22.237.307.553.461.947.461.397 0 .712-.155.946-.465.234-.312.35-.749.35-1.309 0-.502-.12-.907-.359-1.217a1.129 1.129 0 00-.946-.469c-.385 0-.697.154-.933.461-.237.307-.355.746-.355 1.318zm11.321.114c-.034.681-.203 1.219-.507 1.613-.304.395-.711.592-1.221.592-.526 0-.864-.237-1.014-.71a1.62 1.62 0 01-.523.536 1.163 1.163 0 01-.604.174c-.4 0-.703-.164-.909-.49-.205-.327-.281-.779-.228-1.356a3.72 3.72 0 01.317-1.242c.172-.366.391-.653.659-.862.27-.208.553-.312.849-.312.228 0 .432.031.612.092.18.06.383.178.609.355l-.22 2.34c-.053.651.127.976.541.976.318 0 .576-.158.773-.473.197-.315.304-.726.321-1.233.053-1.096-.151-1.931-.613-2.505-.459-.575-1.158-.862-2.099-.862-.566 0-1.069.141-1.508.422-.44.279-.786.683-1.04 1.213-.252.529-.395 1.14-.426 1.833-.034.698.051 1.305.254 1.821.203.512.51.904.925 1.174.417.273.92.41 1.508.41.253 0 .507-.031.76-.093.256-.062.469-.143.638-.241l.156.486c-.174.11-.407.2-.697.27-.287.07-.578.106-.874.106-.704 0-1.31-.159-1.817-.478-.506-.315-.886-.771-1.14-1.368-.25-.594-.359-1.29-.325-2.087.034-.774.207-1.47.52-2.087.312-.619.736-1.096 1.27-1.432a3.32 3.32 0 011.813-.506c.701 0 1.302.157 1.804.473.501.315.874.77 1.119 1.364.245.594.351 1.29.317 2.087zm-4.334.359c-.04.4-.003.707.11.921a.577.577 0 00.545.321c.169 0 .33-.072.485-.216.158-.143.288-.349.389-.617l.004-.038.194-2.124a1.083 1.083 0 00-.506-.123c-.33 0-.603.168-.82.503-.214.335-.348.793-.401 1.373zm6.307-2.809l.021.507c.335-.395.787-.592 1.356-.592.639 0 1.074.245 1.305.735.152-.219.349-.397.591-.532.245-.135.534-.203.866-.203 1.003 0 1.512.531 1.529 1.593v3.062h-.781v-3.016c0-.326-.075-.57-.224-.731-.149-.163-.4-.245-.752-.245-.29 0-.531.088-.722.262-.192.172-.303.404-.334.697v3.033h-.786v-2.995c0-.664-.325-.997-.975-.997-.513 0-.863.219-1.052.655v3.337h-.782v-4.57h.74zm8.963 4.655c-.619 0-1.123-.203-1.512-.609-.388-.408-.583-.953-.583-1.634v-.144c0-.453.086-.857.258-1.212.175-.358.417-.637.726-.837a1.836 1.836 0 011.014-.304c.594 0 1.056.196 1.386.587.329.392.494.952.494 1.682v.325h-3.096c.011.45.142.815.393 1.094.253.276.574.414.963.414.276 0 .509-.057.701-.169.191-.113.359-.262.502-.448l.478.372c-.383.588-.958.883-1.724.883zm-.097-4.098c-.315 0-.58.116-.794.347-.214.228-.346.549-.397.963h2.289v-.059c-.022-.397-.129-.704-.321-.921-.191-.22-.45-.33-.777-.33zm6.873 1.779c0 .698-.16 1.26-.481 1.685-.322.422-.752.634-1.293.634-.577 0-1.024-.205-1.339-.613l-.038.528h-.718v-6.488h.781v2.42c.316-.391.751-.587 1.305-.587.555 0 .99.21 1.306.63.318.419.477.994.477 1.723v.068zm-.781-.089c0-.532-.103-.943-.309-1.234-.205-.29-.501-.435-.887-.435-.515 0-.885.24-1.111.719v1.976c.24.479.613.718 1.12.718.374 0 .666-.145.874-.435.208-.29.313-.726.313-1.309zm1.778-.004c0-.448.087-.851.262-1.208.177-.358.422-.634.735-.828a2.006 2.006 0 011.077-.292c.623 0 1.125.216 1.508.647.386.43.579 1.003.579 1.719v.055c0 .445-.086.844-.258 1.199a1.92 1.92 0 01-.731.824 2.01 2.01 0 01-1.089.296c-.62 0-1.123-.216-1.508-.647-.383-.431-.575-1.001-.575-1.71v-.055zm.786.093c0 .507.117.913.35 1.22.237.307.552.461.947.461.397 0 .712-.155.946-.465.234-.312.35-.749.35-1.309 0-.502-.119-.907-.359-1.217a1.128 1.128 0 00-.946-.469 1.12 1.12 0 00-.933.461c-.237.307-.355.746-.355 1.318zm5.631-3.443v1.107h.853v.604h-.853v2.834c0 .183.038.321.114.414.076.09.205.135.388.135.091 0 .214-.017.372-.05v.633a2.274 2.274 0 01-.6.085c-.349 0-.612-.106-.79-.317-.177-.211-.266-.511-.266-.9v-2.834h-.832v-.604h.832v-1.107h.782zm5.935 5.677h-4.03v-.562l2.129-2.365c.315-.358.532-.648.651-.87.121-.226.181-.458.181-.697 0-.321-.097-.585-.291-.79-.195-.206-.454-.309-.777-.309-.389 0-.692.112-.909.334-.214.22-.321.527-.321.921h-.781c0-.566.181-1.024.545-1.373.366-.349.854-.524 1.466-.524.571 0 1.023.151 1.355.452.333.299.499.697.499 1.196 0 .605-.386 1.326-1.158 2.163l-1.647 1.786h3.088v.638zm4.342-2.065h.854v.637h-.854v1.428h-.785v-1.428h-2.801v-.46l2.754-4.262h.832v4.085zm-2.699 0h1.914v-3.016l-.093.169-1.821 2.847zm6.18-.229h-2.061v-.637h2.061v.637zm1.762-1.723a1.662 1.662 0 011.352-.638c.966 0 1.453.545 1.461 1.635v3.02h-.781v-3.024c-.003-.33-.079-.573-.228-.731-.147-.158-.376-.237-.689-.237-.253 0-.476.068-.667.203a1.376 1.376 0 00-.448.532v3.257h-.781v-6.488h.781v2.471zm6.408.148a2.302 2.302 0 00-.384-.03c-.513 0-.86.219-1.043.655v3.244h-.782v-4.57h.76l.013.528c.256-.409.62-.613 1.09-.613.152 0 .267.02.346.059v.727zm.431 3.459c0-.135.04-.247.119-.338.081-.09.202-.135.363-.135.16 0 .282.045.363.135a.475.475 0 01.127.338.45.45 0 01-.127.326c-.081.087-.203.131-.363.131-.161 0-.282-.044-.363-.131a.47.47 0 01-.119-.326zm4.689-3.459a2.302 2.302 0 00-.384-.03c-.513 0-.86.219-1.043.655v3.244h-.782v-4.57h.76l.013.528c.256-.409.62-.613 1.09-.613.152 0 .267.02.346.059v.727zm3.76 3.417c-.304.358-.75.537-1.339.537-.487 0-.859-.141-1.115-.423-.254-.284-.382-.704-.385-1.259v-2.973h.782v2.952c0 .693.282 1.039.845 1.039.597 0 .994-.222 1.191-.667v-3.324h.781v4.57h-.743l-.017-.452z" fill="#BDBDBD"/><path d="M72.05 141.815h-2.272v1.538h2.665v.95h-3.847v-5.74h3.84v.958h-2.658v1.368h2.271v.926zm3.228.489h-2.22v-.919h2.22v.919zm1.983-2.267l.035.477c.303-.371.711-.556 1.227-.556.549 0 .926.217 1.131.651.3-.434.727-.651 1.281-.651.463 0 .807.136 1.033.406.226.268.34.673.34 1.214v2.725h-1.144v-2.721c0-.241-.047-.417-.142-.528-.095-.113-.261-.169-.5-.169-.342 0-.579.163-.71.488l.004 2.93h-1.14v-2.717c0-.247-.048-.425-.145-.536-.098-.11-.263-.165-.497-.165-.324 0-.557.134-.702.402v3.016h-1.14v-4.266h1.069zm8.398 4.266a1.269 1.269 0 01-.115-.383c-.276.308-.635.462-1.076.462-.418 0-.765-.121-1.041-.363a1.17 1.17 0 01-.41-.915c0-.452.167-.799.5-1.041.337-.241.822-.364 1.456-.366h.524v-.245a.698.698 0 00-.154-.473c-.1-.118-.259-.177-.477-.177-.192 0-.343.046-.453.138a.47.47 0 00-.162.378h-1.14c0-.247.077-.475.23-.686.152-.21.367-.374.646-.492.279-.121.591-.182.938-.182.526 0 .942.133 1.25.398.31.263.465.634.465 1.112v1.849c.003.405.06.711.17.919v.067h-1.151zm-.943-.793a.99.99 0 00.465-.11.744.744 0 00.316-.304v-.733h-.426c-.57 0-.874.197-.91.591l-.005.067c0 .142.05.259.15.351.1.092.237.138.41.138zm4.002.793h-1.144v-4.266h1.144v4.266zm-1.21-5.37c0-.171.056-.311.169-.422.116-.11.272-.165.47-.165.194 0 .349.055.464.165a.559.559 0 01.174.422c0 .174-.06.316-.178.426a.641.641 0 01-.46.165.656.656 0 01-.466-.165.561.561 0 01-.174-.426zm3.355 5.37h-1.144v-6.056h1.144v6.056zM67.878 210.049v-5.74h2.01c.697 0 1.226.134 1.586.402.36.266.54.656.54 1.171 0 .281-.072.53-.217.745a1.25 1.25 0 01-.603.469c.294.074.525.223.694.446.17.223.256.497.256.82 0 .552-.176.97-.528 1.254-.353.284-.855.428-1.506.433h-2.232zm1.183-2.499v1.549h1.013c.279 0 .496-.066.65-.197.158-.134.237-.318.237-.552 0-.526-.272-.792-.816-.8h-1.084zm0-.836h.875c.597-.011.895-.248.895-.714 0-.26-.076-.446-.228-.559-.15-.116-.388-.174-.714-.174h-.828v1.447zm6.371 3.335a1.26 1.26 0 01-.114-.382c-.276.307-.635.461-1.077.461-.418 0-.764-.121-1.04-.363a1.166 1.166 0 01-.41-.914c0-.452.166-.799.5-1.041.337-.242.822-.364 1.455-.367h.524v-.244c0-.197-.05-.355-.153-.473-.1-.118-.26-.178-.477-.178-.192 0-.343.046-.454.138a.473.473 0 00-.162.379h-1.139c0-.247.076-.476.229-.686.152-.21.368-.375.646-.493.279-.121.592-.181.939-.181.525 0 .942.132 1.25.398.31.263.465.633.465 1.112v1.849c.002.404.059.711.17.918v.067h-1.152zm-.942-.792a.99.99 0 00.465-.111.748.748 0 00.315-.303v-.733h-.425c-.57 0-.874.197-.911.591l-.004.067c0 .142.05.259.15.351.1.092.236.138.41.138zm4.47-.781h-.457v1.573h-1.14v-4.265h1.14v1.604h.406l.93-1.604h1.44l-1.396 2.03 1.526 2.235H79.89l-.93-1.573zm5.35 1.573a1.26 1.26 0 01-.114-.382c-.276.307-.635.461-1.076.461-.418 0-.765-.121-1.041-.363a1.166 1.166 0 01-.41-.914c0-.452.167-.799.5-1.041.337-.242.822-.364 1.455-.367h.525v-.244c0-.197-.052-.355-.154-.473-.1-.118-.259-.178-.477-.178-.192 0-.343.046-.453.138a.473.473 0 00-.162.379h-1.14c0-.247.077-.476.23-.686.152-.21.367-.375.646-.493.278-.121.591-.181.938-.181.526 0 .942.132 1.25.398.31.263.465.633.465 1.112v1.849c.003.404.06.711.17.918v.067H84.31zm-.942-.792a.991.991 0 00.465-.111.749.749 0 00.316-.303v-.733h-.426c-.57 0-.874.197-.91.591l-.005.067c0 .142.05.259.15.351.1.092.237.138.41.138zm6.497.792h-1.143v-1.64h-1.415v1.64h-1.14v-4.265h1.14v1.711h1.415v-1.711h1.143v4.265zm2.657-.839c.21 0 .382-.058.513-.174a.608.608 0 00.205-.461h1.069a1.471 1.471 0 01-.237.796 1.578 1.578 0 01-.639.56 2.002 2.002 0 01-.89.197c-.61 0-1.092-.193-1.444-.579-.352-.389-.528-.926-.528-1.609v-.075c0-.657.175-1.181.524-1.573.35-.391.83-.587 1.44-.587.533 0 .96.152 1.28.457.324.302.488.706.493 1.21H93.24a.771.771 0 00-.205-.536.683.683 0 00-.52-.209c-.266 0-.467.098-.603.292-.135.192-.202.505-.202.938v.119c0 .439.067.754.202.946.133.192.337.288.61.288zm5.007-3.426h1.14v4.265h-1.14v-2.633l-1.427 2.633H94.96v-4.265h1.143v2.629l1.427-2.629zm4.582 0h1.139v4.265h-1.139v-2.633l-1.428 2.633H99.54v-4.265h1.143v2.629l1.428-2.629zM183.693 208.137c-.045.618-.274 1.104-.686 1.459-.41.355-.952.532-1.625.532-.736 0-1.315-.247-1.738-.741-.421-.497-.631-1.177-.631-2.042v-.351c0-.552.097-1.038.292-1.459a2.18 2.18 0 01.831-.966 2.339 2.339 0 011.262-.339c.662 0 1.196.178 1.601.532.404.355.638.853.701 1.495h-1.182c-.029-.371-.133-.639-.312-.805-.176-.168-.445-.252-.808-.252-.394 0-.69.142-.887.426-.194.281-.294.719-.3 1.313v.433c0 .621.094 1.074.28 1.361.19.286.487.429.891.429.366 0 .638-.083.816-.248.182-.168.286-.427.312-.777h1.183zm.524-.26c0-.423.081-.8.244-1.131.163-.332.397-.588.702-.769a2.06 2.06 0 011.069-.272c.575 0 1.044.176 1.407.528.365.352.569.831.611 1.435l.008.292c0 .654-.183 1.18-.548 1.577-.365.394-.856.591-1.471.591-.615 0-1.106-.197-1.474-.591-.365-.394-.548-.931-.548-1.609v-.051zm1.139.083c0 .405.077.715.229.93.152.213.371.32.654.32a.76.76 0 00.647-.316c.155-.213.233-.552.233-1.017 0-.397-.078-.704-.233-.923a.756.756 0 00-.654-.327.743.743 0 00-.647.327c-.152.216-.229.551-.229 1.006zm5.721-1.94c.546 0 .983.181 1.309.544.326.363.489.856.489 1.479v.055c0 .615-.182 1.108-.545 1.478-.362.371-.85.556-1.462.556-.615 0-1.105-.2-1.471-.599-.362-.402-.544-.948-.544-1.636v-.19c.006-.959.167-1.709.485-2.251.321-.544.802-.887 1.443-1.029.337-.073.553-.145.651-.216a.36.36 0 00.145-.304h.923c0 .413-.112.723-.335.93-.221.208-.615.368-1.183.481-.336.069-.602.201-.796.399-.195.197-.326.474-.394.831a1.783 1.783 0 011.285-.528zm-.217.923c-.271 0-.484.09-.639.272-.152.181-.228.475-.228.883 0 .363.075.64.224.832.15.189.367.284.651.284.276 0 .489-.094.639-.28.149-.187.226-.462.228-.824v-.095c0-.35-.077-.615-.232-.796-.153-.184-.367-.276-.643-.276zm4.66 3.185c-.626 0-1.135-.192-1.53-.575-.391-.384-.587-.895-.587-1.534v-.11c0-.429.083-.811.248-1.148.166-.339.4-.599.702-.78a1.975 1.975 0 011.041-.276c.583 0 1.042.184 1.376.552.336.368.504.889.504 1.565v.465h-2.716c.037.279.147.502.331.67.187.168.422.253.706.253.439 0 .782-.159 1.029-.477l.56.626a1.727 1.727 0 01-.694.568 2.297 2.297 0 01-.97.201zm-.13-3.501a.718.718 0 00-.552.229c-.139.152-.229.371-.268.654h1.585v-.09c-.006-.253-.074-.447-.205-.584-.132-.139-.318-.209-.56-.209zm4.309 2.583c.21 0 .381-.058.512-.174a.605.605 0 00.205-.461h1.069a1.475 1.475 0 01-.237.796 1.58 1.58 0 01-.638.56 2.002 2.002 0 01-.891.197c-.61 0-1.091-.193-1.443-.579-.352-.389-.529-.926-.529-1.609v-.075c0-.657.175-1.181.525-1.573.349-.391.829-.587 1.439-.587.533 0 .96.152 1.281.457.323.302.488.706.493 1.21h-1.069a.767.767 0 00-.205-.536.68.68 0 00-.52-.209c-.265 0-.466.098-.603.292-.134.192-.201.505-.201.938v.119c0 .439.067.754.201.946.134.192.338.288.611.288zm4.4.918c-.626 0-1.136-.192-1.53-.575-.392-.384-.587-.895-.587-1.534v-.11c0-.429.082-.811.248-1.148.166-.339.4-.599.702-.78a1.975 1.975 0 011.041-.276c.583 0 1.042.184 1.375.552.337.368.505.889.505 1.565v.465h-2.716c.037.279.147.502.331.67.187.168.422.253.706.253.439 0 .782-.159 1.029-.477l.559.626c-.17.242-.402.431-.693.568a2.297 2.297 0 01-.97.201zm-.13-3.501a.718.718 0 00-.552.229c-.14.152-.229.371-.268.654h1.584v-.09c-.005-.253-.073-.447-.205-.584-.131-.139-.318-.209-.559-.209zm2.594 2.504c.257-.274.432-.544.524-.812.092-.269.143-.648.154-1.14l.031-1.395h3.139v3.347h.615v2.2h-1.14v-1.282h-2.527v1.282h-1.163v-2.2h.367zm1.344 0h1.368v-2.405h-.887l-.008.512c-.023.784-.181 1.414-.473 1.893zm3.521-1.254c0-.423.081-.8.244-1.131.163-.332.397-.588.702-.769a2.057 2.057 0 011.068-.272c.576 0 1.045.176 1.408.528.365.352.569.831.611 1.435l.008.292c0 .654-.183 1.18-.548 1.577-.366.394-.856.591-1.471.591-.615 0-1.106-.197-1.474-.591-.366-.394-.548-.931-.548-1.609v-.051zm1.139.083c0 .405.076.715.229.93.152.213.37.32.654.32a.76.76 0 00.647-.316c.155-.213.232-.552.232-1.017 0-.397-.077-.704-.232-.923a.757.757 0 00-.655-.327.742.742 0 00-.646.327c-.153.216-.229.551-.229 1.006zm3.678 2.089v-4.265h1.782c.581 0 1.027.102 1.337.307.31.205.465.499.465.883a.81.81 0 01-.197.532c-.129.156-.318.275-.568.359.305.058.544.172.718.343a.827.827 0 01.264.623c0 .397-.15.699-.449.907-.297.207-.73.311-1.298.311h-2.054zm1.14-1.77v.86h.918c.403 0 .604-.141.604-.422 0-.287-.192-.433-.576-.438h-.946zm0-.765h.705c.4-.005.6-.134.6-.386 0-.155-.055-.266-.166-.331-.108-.066-.273-.099-.497-.099h-.642v.816zm5.831 2.535a1.259 1.259 0 01-.115-.382c-.276.307-.634.461-1.076.461-.418 0-.765-.121-1.041-.363a1.167 1.167 0 01-.41-.914c0-.452.167-.799.501-1.041.336-.242.821-.364 1.455-.367h.524v-.244c0-.197-.051-.355-.154-.473-.1-.118-.259-.178-.477-.178-.192 0-.343.046-.453.138a.472.472 0 00-.162.379h-1.139c0-.247.076-.476.229-.686.152-.21.367-.375.646-.493.279-.121.591-.181.938-.181.526 0 .943.132 1.25.398.31.263.465.633.465 1.112v1.849c.003.404.06.711.17.918v.067h-1.151zm-.943-.792a.992.992 0 00.466-.111.745.745 0 00.315-.303v-.733h-.426c-.57 0-.874.197-.91.591l-.004.067c0 .142.05.259.149.351.1.092.237.138.41.138zm6.498.792h-1.144v-1.64h-1.415v1.64h-1.139v-4.265h1.139v1.711h1.415v-1.711h1.144v4.265zm3.453-4.265h1.14v4.265h-1.14v-2.633l-1.427 2.633h-1.143v-4.265h1.143v2.629l1.427-2.629zm5.567 0v4.265h-1.135v-1.474h-.722l-.82 1.474h-1.155l.93-1.667a1.43 1.43 0 01-.591-.481 1.205 1.205 0 01-.205-.69c0-.413.159-.751.477-1.013.321-.266.749-.404 1.285-.414h1.936zm-1.916 1.994h.781v-1.08h-.742a.73.73 0 00-.492.162.483.483 0 00-.19.386c0 .153.061.279.182.379a.71.71 0 00.461.153zM292.581 208.867h-2.073l-.395 1.182h-1.257l2.137-5.74h1.096l2.148 5.74h-1.257l-.399-1.182zm-1.754-.958h1.435l-.721-2.149-.714 2.149zm7.38 2.14h-1.143v-1.64h-1.415v1.64h-1.14v-4.265h1.14v1.711h1.415v-1.711h1.143v4.265zm2.555-1.573h-.457v1.573h-1.14v-4.265h1.14v1.604h.406l.93-1.604h1.439l-1.396 2.03 1.526 2.235h-1.518l-.93-1.573zm4.778 1.652c-.625 0-1.135-.192-1.529-.575-.392-.384-.588-.895-.588-1.534v-.11c0-.429.083-.811.248-1.148.166-.339.4-.599.702-.78a1.975 1.975 0 011.041-.276c.584 0 1.042.184 1.376.552.336.368.505.889.505 1.565v.465h-2.717c.037.279.147.502.331.67.187.168.422.253.706.253.439 0 .782-.159 1.029-.477l.56.626a1.727 1.727 0 01-.694.568 2.297 2.297 0 01-.97.201zm-.13-3.501a.718.718 0 00-.552.229c-.139.152-.229.371-.268.654h1.585v-.09c-.005-.253-.074-.447-.205-.584-.131-.139-.318-.209-.56-.209zm6.028.071h-1.368v3.351h-1.143v-3.351h-1.345v-.914h3.856v.914zm1.794.335h.816c.368 0 .691.062.97.186.278.123.491.301.639.532.149.229.224.495.224.8 0 .45-.167.812-.5 1.088-.332.274-.784.41-1.357.41h-1.935v-4.265h1.143v1.249zm4.463 3.016h-1.14v-4.265h1.14v4.265zm-4.463-2.101v1.191h.808c.226 0 .4-.053.521-.158a.542.542 0 00.181-.43.558.558 0 00-.178-.437c-.118-.111-.293-.166-.524-.166h-.808z" fill="#333"/><rect x="67.077" y="97.374" width="152.255" height="27.683" rx="2.595" stroke="#E0E0E0" stroke-width=".577"/><path d="M82.543 111.401h-2.577l-.578 1.605h-.837l2.349-6.15h.71l2.352 6.15h-.832l-.587-1.605zm-2.332-.667h2.091l-1.047-2.877-1.044 2.877zm8.28-2.298v4.57h-.786v-3.924H86.15l-.093 1.711c-.05.785-.183 1.347-.397 1.685-.21.338-.547.514-1.01.528h-.312v-.688l.224-.017c.254-.028.435-.175.545-.44.11-.264.18-.754.211-1.47l.085-1.955h3.088zm3.15 4.655c-.619 0-1.123-.203-1.512-.609-.388-.408-.582-.953-.582-1.634v-.144c0-.453.085-.857.257-1.212.175-.358.417-.637.727-.837.312-.202.65-.304 1.014-.304.594 0 1.056.196 1.385.587.33.392.494.952.494 1.682v.325h-3.096c.011.45.142.815.393 1.094.253.276.574.414.963.414.276 0 .51-.057.701-.169.192-.113.36-.262.503-.448l.477.372c-.383.588-.957.883-1.723.883zm-.096-4.098c-.316 0-.58.116-.794.347-.215.228-.347.549-.398.963h2.29v-.059c-.023-.397-.13-.704-.321-.921-.192-.22-.45-.33-.777-.33zm4.211 2.066h-.57v1.947H94.4v-4.57h.786v1.934h.51l1.538-1.934h.947l-1.808 2.196 1.96 2.374h-.993l-1.584-1.947zm5.014 1.394c.279 0 .522-.085.731-.254a.89.89 0 00.346-.633h.739a1.413 1.413 0 01-.27.747 1.769 1.769 0 01-.667.566 1.906 1.906 0 01-.879.212c-.622 0-1.118-.207-1.487-.621-.366-.417-.55-.986-.55-1.707v-.131c0-.445.083-.84.246-1.187.163-.346.397-.615.701-.807.307-.191.669-.287 1.086-.287.512 0 .937.154 1.275.461.341.307.523.705.545 1.195h-.739a1.063 1.063 0 00-.338-.727 1.035 1.035 0 00-.743-.287c-.397 0-.706.144-.925.431-.217.285-.326.697-.326 1.238v.148c0 .526.109.932.326 1.216.216.285.526.427.929.427zm5.517.553c-.046-.09-.082-.251-.11-.481-.364.377-.797.566-1.301.566-.451 0-.821-.127-1.111-.381a1.246 1.246 0 01-.431-.971c0-.476.18-.845.541-1.107.363-.265.873-.397 1.529-.397h.76v-.359c0-.273-.082-.49-.245-.65-.163-.164-.404-.245-.722-.245-.279 0-.513.07-.701.211-.189.141-.283.311-.283.511h-.786c0-.228.08-.448.241-.659.163-.214.383-.383.659-.507.278-.124.584-.186.916-.186.527 0 .939.133 1.238.397.298.262.453.624.465 1.086v2.103c0 .42.053.754.16 1.002v.067h-.819zm-1.297-.595c.245 0 .477-.064.697-.191a1.15 1.15 0 00.477-.494v-.938h-.612c-.958 0-1.437.281-1.437.841 0 .245.082.437.245.575.164.138.374.207.63.207zm6.915.595h-.782v-1.951h-2.099v1.951h-.786v-4.57h.786v1.981h2.099v-1.981h.782v4.57zm1.22-.638l.271-.333c.304-.395.477-.986.519-1.775l.072-1.824h2.944v3.932h.587v1.981h-.781v-1.343h-3.189v1.343h-.782l.004-1.981h.355zm.925 0h2.1v-3.21h-1.407l-.046 1.09c-.048.909-.264 1.616-.647 2.12zm8.195-1.596c0 .695-.159 1.256-.477 1.681-.318.425-.749.638-1.293.638-.555 0-.991-.176-1.309-.528v2.2h-.782v-6.327h.714l.038.507c.318-.395.76-.592 1.326-.592.55 0 .983.207 1.302.621.321.414.481.99.481 1.728v.072zm-.781-.089c0-.515-.11-.922-.33-1.221a1.063 1.063 0 00-.904-.448c-.473 0-.828.21-1.064.63v2.184c.233.416.591.625 1.073.625.374 0 .671-.148.891-.444.222-.298.334-.74.334-1.326z" fill="#BDBDBD"/><path d="M70.744 82.043h1.186v5.74h-1.186v-3.812l-2.299 3.813h-1.182v-5.74h1.182v3.82l2.299-3.82zm4.735 4.396l1.115-2.921h1.428v4.266h-1.14v-2.618l-1.02 2.618h-.766l-1.001-2.575v2.575h-1.14v-4.266h1.416l1.108 2.921zm7.092-2.921v4.266h-1.135v-1.475h-.722l-.82 1.475H78.74l.93-1.668a1.425 1.425 0 01-.59-.481 1.204 1.204 0 01-.206-.69c0-.413.16-.75.477-1.013.32-.266.75-.404 1.285-.414h1.936zm-1.916 1.995h.78v-1.08h-.74a.732.732 0 00-.493.161.485.485 0 00-.19.387c0 .152.061.278.182.378.12.1.275.151.461.154z" fill="#333"/><rect x="67.654" y="219.639" width="96.313" height="17.878" rx="2.595" stroke="#CDCEDE" stroke-width=".577"/><path d="M80.136 230.658h-.816v-5.483h-3.032v5.483h-.811v-6.15h4.659v6.15zm5.216-2.235c0 .696-.159 1.256-.477 1.682-.318.425-.749.637-1.293.637-.554 0-.99-.176-1.309-.528v2.201h-.781v-6.327h.713l.038.506c.319-.394.76-.591 1.327-.591.549 0 .983.207 1.3.621.322.414.482.99.482 1.728v.071zm-.781-.088c0-.516-.11-.923-.33-1.221a1.06 1.06 0 00-.903-.448c-.474 0-.828.21-1.065.63v2.183c.234.417.591.626 1.073.626.374 0 .671-.148.891-.444.223-.298.334-.741.334-1.326zm1.571-.004c0-.448.088-.851.262-1.209.178-.357.422-.633.735-.827a2.006 2.006 0 011.077-.292c.623 0 1.125.215 1.508.646.386.431.579 1.004.579 1.72v.054c0 .445-.086.845-.258 1.2a1.925 1.925 0 01-.73.824 2.014 2.014 0 01-1.09.295c-.62 0-1.122-.215-1.508-.646-.383-.431-.575-1.001-.575-1.711v-.054zm.786.092c0 .507.117.914.35 1.221.237.307.552.461.947.461.397 0 .712-.155.946-.465.234-.313.35-.749.35-1.309 0-.502-.12-.907-.359-1.217a1.126 1.126 0 00-.946-.469c-.385 0-.697.154-.933.461-.237.306-.355.746-.355 1.317zm6.188 1.682c.279 0 .522-.085.73-.254a.891.891 0 00.347-.633h.74a1.417 1.417 0 01-.27.747 1.774 1.774 0 01-.668.566 1.904 1.904 0 01-.879.211c-.622 0-1.118-.207-1.487-.62-.366-.417-.549-.986-.549-1.707v-.131c0-.445.082-.841.245-1.187.163-.346.397-.615.701-.807.307-.191.67-.287 1.086-.287.513 0 .938.154 1.276.46.34.307.522.706.544 1.196h-.739a1.066 1.066 0 00-.338-.727 1.035 1.035 0 00-.743-.287c-.397 0-.706.144-.925.431-.217.284-.325.697-.325 1.238v.147c0 .527.108.933.325 1.217.217.284.526.427.93.427zm5.327-.482l1.554-3.535h.976v4.57h-.782v-3.324l-1.478 3.324h-.54l-1.509-3.396v3.396h-.781v-4.57h1.014l1.546 3.535zm3.582-1.292c0-.448.087-.851.262-1.209.177-.357.422-.633.735-.827a2.004 2.004 0 011.077-.292c.622 0 1.125.215 1.508.646.386.431.578 1.004.578 1.72v.054c0 .445-.085.845-.257 1.2a1.927 1.927 0 01-.731.824 2.014 2.014 0 01-1.09.295c-.619 0-1.122-.215-1.508-.646-.383-.431-.574-1.001-.574-1.711v-.054zm.785.092c0 .507.117.914.351 1.221.237.307.552.461.946.461.397 0 .713-.155.946-.465.234-.313.351-.749.351-1.309 0-.502-.12-.907-.359-1.217a1.127 1.127 0 00-.946-.469c-.386 0-.697.154-.934.461-.236.306-.355.746-.355 1.317zm7.659-1.702h-1.534v3.937h-.781v-3.937h-1.504v-.633h3.819v.633zm4.621 1.702c0 .696-.159 1.256-.478 1.682-.318.425-.749.637-1.292.637-.555 0-.991-.176-1.31-.528v2.201h-.781v-6.327h.714l.038.506c.318-.394.76-.591 1.326-.591.549 0 .983.207 1.301.621.321.414.482.99.482 1.728v.071zm-.782-.088c0-.516-.11-.923-.329-1.221a1.06 1.06 0 00-.904-.448c-.473 0-.828.21-1.065.63v2.183c.234.417.592.626 1.073.626.375 0 .672-.148.892-.444.222-.298.333-.741.333-1.326z" fill="#4F4F4F"/><path d="M155.604 227.425l-2.595 2.307-2.595-2.307" stroke="#4F4F4F" stroke-width=".865" stroke-linecap="round" stroke-linejoin="round"/><rect x="289.116" y="219.639" width="96.15" height="17.878" rx="2.595" stroke="#CDCEDE" stroke-width=".577"/><path d="M301.97 230.658h-.815v-5.483h-3.033v5.483h-.811v-6.15h4.659v6.15zm5.217-2.235c0 .696-.159 1.256-.478 1.682-.318.425-.749.637-1.292.637-.555 0-.991-.176-1.31-.528v2.201h-.781v-6.327h.714l.038.506c.318-.394.76-.591 1.326-.591.549 0 .983.207 1.301.621.321.414.482.99.482 1.728v.071zm-.782-.088c0-.516-.109-.923-.329-1.221a1.06 1.06 0 00-.904-.448c-.473 0-.828.21-1.065.63v2.183c.234.417.592.626 1.073.626.375 0 .672-.148.892-.444.222-.298.333-.741.333-1.326zm1.572-.004c0-.448.087-.851.262-1.209.177-.357.422-.633.735-.827a2.004 2.004 0 011.077-.292c.622 0 1.125.215 1.508.646.386.431.578 1.004.578 1.72v.054c0 .445-.085.845-.257 1.2a1.927 1.927 0 01-.731.824 2.014 2.014 0 01-1.09.295c-.619 0-1.122-.215-1.508-.646-.383-.431-.574-1.001-.574-1.711v-.054zm.785.092c0 .507.117.914.351 1.221.237.307.552.461.946.461.397 0 .713-.155.946-.465.234-.313.351-.749.351-1.309 0-.502-.12-.907-.359-1.217a1.127 1.127 0 00-.946-.469c-.386 0-.697.154-.934.461-.236.306-.355.746-.355 1.317zm6.189 1.682c.278 0 .522-.085.73-.254a.892.892 0 00.347-.633h.739a1.416 1.416 0 01-.27.747 1.781 1.781 0 01-.668.566 1.904 1.904 0 01-.878.211c-.623 0-1.118-.207-1.487-.62-.366-.417-.549-.986-.549-1.707v-.131c0-.445.081-.841.245-1.187.163-.346.397-.615.701-.807a2.013 2.013 0 011.085-.287c.513 0 .938.154 1.276.46.341.307.522.706.545 1.196h-.739a1.067 1.067 0 00-.338-.727 1.036 1.036 0 00-.744-.287c-.397 0-.705.144-.925.431-.216.284-.325.697-.325 1.238v.147c0 .527.109.933.325 1.217.217.284.527.427.93.427zm5.326-.482l1.555-3.535h.975v4.57h-.781v-3.324l-1.478 3.324h-.541l-1.508-3.396v3.396h-.782v-4.57h1.014l1.546 3.535zm3.582-1.292c0-.448.087-.851.262-1.209.177-.357.422-.633.735-.827a2.004 2.004 0 011.077-.292c.623 0 1.125.215 1.508.646.386.431.579 1.004.579 1.72v.054c0 .445-.086.845-.258 1.2a1.92 1.92 0 01-.731.824 2.01 2.01 0 01-1.089.295c-.62 0-1.123-.215-1.508-.646-.383-.431-.575-1.001-.575-1.711v-.054zm.786.092c0 .507.117.914.35 1.221.237.307.552.461.947.461.397 0 .712-.155.946-.465.234-.313.35-.749.35-1.309 0-.502-.119-.907-.359-1.217a1.126 1.126 0 00-.946-.469 1.12 1.12 0 00-.933.461c-.237.306-.355.746-.355 1.317zm7.658-1.702h-1.533v3.937h-.782v-3.937h-1.503v-.633h3.818v.633zm4.621 1.702c0 .696-.159 1.256-.477 1.682-.318.425-.749.637-1.293.637-.554 0-.991-.176-1.309-.528v2.201h-.782v-6.327h.714l.038.506c.319-.394.761-.591 1.327-.591.549 0 .982.207 1.301.621.321.414.481.99.481 1.728v.071zm-.781-.088c0-.516-.11-.923-.33-1.221a1.06 1.06 0 00-.904-.448c-.473 0-.828.21-1.064.63v2.183c.234.417.591.626 1.073.626.374 0 .671-.148.891-.444.223-.298.334-.741.334-1.326z" fill="#4F4F4F"/><path d="M377.644 227.425l-3.172 2.307-3.172-2.307" stroke="#4F4F4F" stroke-width=".865" stroke-linecap="round" stroke-linejoin="round"/><rect x="178.962" y="219.639" width="95.943" height="17.878" rx="2.595" stroke="#CDCEDE" stroke-width=".577"/><path d="M187.323 228.25v2.408h-.811v-6.15h2.268c.673 0 1.2.172 1.58.515.383.344.574.798.574 1.364 0 .597-.187 1.058-.561 1.382-.372.321-.906.481-1.601.481h-1.449zm0-.663h1.457c.434 0 .766-.101.997-.304.231-.206.346-.501.346-.887 0-.366-.115-.659-.346-.879-.231-.219-.548-.333-.95-.342h-1.504v2.412zm6.361 3.155c-.619 0-1.123-.202-1.512-.608-.389-.408-.583-.953-.583-1.635v-.143c0-.454.086-.858.258-1.212.174-.358.416-.637.726-.837a1.828 1.828 0 011.014-.304c.594 0 1.056.196 1.386.587.329.392.494.952.494 1.681v.326h-3.097c.012.45.143.815.393 1.094.254.276.575.414.963.414.276 0 .51-.057.702-.169.191-.113.359-.262.502-.448l.478.372c-.383.588-.958.882-1.724.882zm-.097-4.097c-.315 0-.58.116-.794.346-.214.229-.346.55-.397.964h2.289v-.06c-.022-.397-.129-.704-.321-.92-.191-.22-.45-.33-.777-.33zm2.75 3.375l.27-.334c.304-.394.478-.985.52-1.774l.072-1.824h2.944v3.932h.587v1.981h-.782v-1.343h-3.189v1.343h-.781l.004-1.981h.355zm.925 0h2.099v-3.21h-1.406l-.047 1.09c-.048.909-.263 1.616-.646 2.12zm7.156.638c-.046-.09-.082-.251-.11-.482a1.742 1.742 0 01-1.301.566c-.451 0-.821-.126-1.111-.38a1.246 1.246 0 01-.431-.971c0-.476.18-.845.541-1.107.363-.265.873-.397 1.529-.397h.76v-.359c0-.273-.082-.49-.245-.651-.163-.163-.404-.245-.722-.245-.279 0-.513.071-.701.212-.189.14-.284.311-.284.511h-.785c0-.228.08-.448.241-.659.163-.214.383-.383.659-.507.278-.124.584-.186.916-.186.527 0 .939.132 1.238.397.298.262.453.624.464 1.086v2.103c0 .42.054.754.161 1.001v.068h-.819zm-1.297-.596c.245 0 .477-.063.697-.19a1.15 1.15 0 00.477-.494v-.938h-.612c-.958 0-1.437.281-1.437.841 0 .245.082.436.245.574.164.138.373.207.63.207zm4.604-1.351h-.57v1.947h-.786v-4.57h.786v1.934h.511l1.537-1.934h.947l-1.808 2.196 1.96 2.374h-.993l-1.584-1.947zm6.644-1.99h-1.533v3.937h-.781v-3.937h-1.504v-.633h3.818v.633zm3.718-.633h.781v4.57h-.781v-3.333l-2.108 3.333h-.782v-4.57h.782v3.337l2.108-3.337zm5.896 2.335c0 .696-.159 1.256-.477 1.682-.318.425-.749.637-1.293.637-.554 0-.991-.176-1.309-.528v2.201h-.781v-6.327h.713l.038.506c.319-.394.761-.591 1.327-.591.549 0 .983.207 1.301.621.321.414.481.99.481 1.728v.071zm-.781-.088c0-.516-.11-.923-.33-1.221a1.06 1.06 0 00-.904-.448c-.473 0-.827.21-1.064.63v2.183c.234.417.591.626 1.073.626.374 0 .672-.148.891-.444.223-.298.334-.741.334-1.326zm1.571-.004c0-.448.088-.851.262-1.209.178-.357.423-.633.735-.827a2.008 2.008 0 011.077-.292c.623 0 1.125.215 1.508.646.386.431.579 1.004.579 1.72v.054c0 .445-.086.845-.258 1.2a1.925 1.925 0 01-.73.824 2.016 2.016 0 01-1.09.295c-.62 0-1.122-.215-1.508-.646-.383-.431-.575-1.001-.575-1.711v-.054zm.786.092c0 .507.117.914.351 1.221.236.307.551.461.946.461.397 0 .712-.155.946-.465.234-.313.35-.749.35-1.309 0-.502-.119-.907-.359-1.217a1.124 1.124 0 00-.946-.469 1.12 1.12 0 00-.933.461c-.237.306-.355.746-.355 1.317zm4.427 2.235v-4.57h1.782c.609 0 1.075.107 1.398.321.327.211.49.522.49.933a.945.945 0 01-.19.575c-.126.169-.314.298-.561.388.276.065.497.192.663.38a.979.979 0 01.253.676c0 .42-.155.741-.464.963-.307.223-.742.334-1.306.334h-2.065zm.781-2.006v1.377h1.293c.326 0 .57-.061.731-.182a.6.6 0 00.245-.511c0-.456-.336-.684-1.006-.684h-1.263zm0-.626h1.01c.732 0 1.098-.214 1.098-.642 0-.428-.346-.649-1.039-.663h-1.069v1.305zm6.911 2.632c-.045-.09-.082-.251-.11-.482a1.74 1.74 0 01-1.301.566c-.451 0-.821-.126-1.111-.38a1.246 1.246 0 01-.431-.971c0-.476.18-.845.541-1.107.363-.265.873-.397 1.529-.397h.76v-.359c0-.273-.081-.49-.245-.651-.163-.163-.404-.245-.722-.245-.279 0-.513.071-.701.212-.189.14-.283.311-.283.511h-.786c0-.228.08-.448.241-.659.163-.214.383-.383.659-.507.279-.124.584-.186.916-.186.527 0 .94.132 1.238.397.299.262.453.624.465 1.086v2.103c0 .42.053.754.16 1.001v.068h-.819zm-1.297-.596c.245 0 .477-.063.697-.19.22-.126.379-.291.477-.494v-.938h-.612c-.958 0-1.436.281-1.436.841 0 .245.081.436.245.574.163.138.373.207.629.207zm6.915.596h-.782v-1.952h-2.099v1.952h-.786v-4.57h.786v1.981h2.099v-1.981h.782v4.57zm4.215-4.57h.782v4.57h-.782v-3.333l-2.107 3.333h-.782v-4.57h.782v3.337l2.107-3.337zm3.933 4.654c-.62 0-1.124-.202-1.512-.608-.389-.408-.583-.953-.583-1.635v-.143c0-.454.086-.858.257-1.212.175-.358.417-.637.727-.837a1.828 1.828 0 011.014-.304c.594 0 1.056.196 1.385.587.33.392.495.952.495 1.681v.326h-3.097c.012.45.142.815.393 1.094.254.276.575.414.963.414.276 0 .51-.057.701-.169.192-.113.359-.262.503-.448l.477.372c-.383.588-.957.882-1.723.882zm-.097-4.097c-.316 0-.58.116-.794.346-.214.229-.347.55-.397.964h2.289v-.06c-.022-.397-.129-.704-.321-.92-.191-.22-.451-.33-.777-.33z" fill="#4F4F4F"/><path d="M266.336 227.425l-2.595 2.307-2.596-2.307" stroke="#4F4F4F" stroke-width=".865" stroke-linecap="round" stroke-linejoin="round"/><defs><filter id="filter0_d" x=".466" y=".772" width="452.152" height="343.151" filterUnits="userSpaceOnUse" color-interpolation-filters="sRGB"><feFlood flood-opacity="0" result="BackgroundImageFix"/><feColorMatrix in="SourceAlpha" values="0 0 0 0 0 0 0 0 0 0 0 0 0 0 0 0 0 0 127 0"/><feOffset dy="2.307"/><feGaussianBlur stdDeviation="5.767"/><feColorMatrix values="0 0 0 0 0.220981 0 0 0 0 0.219028 0 0 0 0 0.316667 0 0 0 0.17 0"/><feBlend in2="BackgroundImageFix" result="effect1_dropShadow"/><feBlend in="SourceGraphic" in2="effect1_dropShadow" result="shape"/></filter></defs></svg>