<svg width="53" height="54" fill="none" xmlns="http://www.w3.org/2000/svg"><g clip-path="url(#clip0)"><path d="M30.403 47.58c0-3.487-2.785-6.314-6.22-6.314-3.435 0-6.22 2.827-6.22 6.314 0 3.488 2.785 6.315 6.22 6.315 3.435 0 6.22-2.828 6.22-6.315z" fill="#F1E7A0"/><path d="M24.183 41.266c-.629 0-1.236.095-1.808.271 2.553.787 4.412 3.194 4.412 6.043s-1.858 5.257-4.412 6.043a6.125 6.125 0 001.808.272c3.435 0 6.22-2.828 6.22-6.315 0-3.487-2.785-6.314-6.22-6.314z" fill="#C1B665"/><path d="M24.91 10.726c-1.998.408-3.942-.906-4.344-2.934-.401-2.028.893-4.002 2.89-4.41 1.997-.407 3.942.906 4.344 2.935.4 2.027-.893 4.002-2.89 4.41z" fill="#FEF5B5"/><path d="M27.8 6.317c-.402-2.029-2.346-3.342-4.344-2.935a3.72 3.72 0 00-.538.154 3.727 3.727 0 012.352 2.78c.364 1.84-.667 3.635-2.352 4.257a3.621 3.621 0 001.992.153c1.997-.407 3.29-2.382 2.89-4.41z" fill="#C1B665"/><path d="M39.588 46.523H8.778c-2.758 0-4.992-2.269-4.992-5.067 0-1.55.69-3.016 1.878-3.989l.99-.81a9.933 9.933 0 003.62-7.687v-5.326c0-7.857 6.275-14.227 14.015-14.227s14.014 6.37 14.014 14.227v5.425a9.936 9.936 0 003.498 7.584l.964.816a5.156 5.156 0 011.815 3.936v.05c0 2.8-2.235 5.068-4.992 5.068z" fill="#FEF5B5"/><path d="M42.765 37.469l-.964-.816a9.937 9.937 0 01-3.498-7.585v-5.424c0-7.857-6.274-14.228-14.014-14.228-1.371 0-2.696.201-3.948.574 5.817 1.731 10.065 7.189 10.065 13.654v5.424a9.937 9.937 0 003.498 7.585l.964.816a5.157 5.157 0 011.816 3.936v.05c0 2.8-2.235 5.068-4.992 5.068h7.897c2.756 0 4.991-2.269 4.991-5.067v-.051c0-1.52-.665-2.962-1.815-3.936z" fill="#F1E7A0"/><path d="M49.378 12.105c0-6.743-5.385-12.21-12.028-12.21-6.643 0-12.028 5.467-12.028 12.21 0 6.744 5.386 12.211 12.028 12.211 6.643 0 12.028-5.467 12.028-12.21z" fill="#FF6363"/><path d="M40.578.34a12.252 12.252 0 015.068 9.96c0 6.744-5.385 12.211-12.028 12.211-1.118 0-2.2-.155-3.227-.445a11.85 11.85 0 006.96 2.25c6.642 0 12.027-5.467 12.027-12.21 0-5.61-3.725-10.334-8.8-11.766z" fill="#D94C4C"/><path d="M37.35 17.809a.846.846 0 01-.84-.853V8.734l-.313.29a.83.83 0 01-1.186-.055.861.861 0 01.055-1.205l1.718-1.59a.83.83 0 01.905-.15c.305.136.5.441.5.78v10.152c0 .471-.375.853-.839.853z" fill="#E3FAFF"/></g><defs><clipPath id="clip0"><path fill="#fff" d="M0 0h53v54H0z"/></clipPath></defs></svg>