<svg width="72" height="72" fill="none" xmlns="http://www.w3.org/2000/svg"><path d="M58.455 24.99h-44.91v-8.893a5.304 5.304 0 015.304-5.304h34.302a5.304 5.304 0 015.304 5.303v8.894z" fill="#1D73AC"/><path d="M31.654 41.874h8.692V56.36h-8.692V41.874z" fill="#E8916F"/><path d="M20.354 28.622v-11.62c0-8.15 6.606-14.757 14.756-14.757h1.78c8.15 0 14.756 6.607 14.756 14.756v11.62c0 8.636-7 15.637-15.636 15.637h-.02c-8.636 0-15.636-7-15.636-15.636z" fill="#EBAD88"/><path d="M36.89 2.245h-1.78c-.433 0-.86.02-1.283.057 7.548.65 13.473 6.982 13.473 14.7v11.62c0 7.901-5.861 14.432-13.473 15.486.707.098 1.429.15 2.163.15h.02c8.636 0 15.636-7 15.636-15.636v-11.62c0-8.15-6.607-14.757-14.756-14.757z" fill="#E8916F"/><path d="M27.598 50.27h16.805c7.36 0 13.328 5.967 13.328 13.328v7.558a.844.844 0 01-.844.844H15.114a.844.844 0 01-.844-.844v-7.558c0-7.361 5.967-13.328 13.328-13.328z" fill="#1D73AC"/><path d="M44.402 50.27h-4.346c7.361 0 13.328 5.967 13.328 13.328V72h3.503a.844.844 0 00.843-.844v-7.558c0-7.361-5.967-13.328-13.328-13.328z" fill="#125F93"/><path d="M31.494 47.731l-2.815 2.346a.29.29 0 00-.03.416l4.025 4.463a.29.29 0 00.462-.042L36 50.27l-4.169-2.563a.29.29 0 00-.337.024zM40.506 47.731l2.815 2.346a.29.29 0 01.03.416l-4.025 4.463a.29.29 0 01-.462-.042L36 50.27l4.169-2.563a.29.29 0 01.337.024z" fill="#FFF7E6"/><path d="M53.709 21.85c-2.052.371-2.063 4.16-2.063 4.16s-1.497.618-2.043-.271c-.545-.89-1.004-6.644-1.213-9.15-.207-2.508-1.886-5.906-5.848-4.37-3.962 1.538-9.122 1.538-13.085 0-3.962-1.536-5.64 1.862-5.848 4.37-.208 2.506-.668 8.26-1.212 9.15-.547.89-2.043.27-2.043.27s-.012-3.787-2.063-4.158c0 0-1.77-4.575-.788-9.669C18.704 5.95 22.166 0 36 0s17.296 5.95 18.497 12.182c.982 5.094-.788 9.669-.788 9.669z" fill="#7D4D3D"/><path d="M54.497 12.182C53.296 5.95 49.834 0 36 0c-.755 0-1.478.019-2.173.053 12.03.599 15.188 6.237 16.324 12.13.982 5.093-.788 9.668-.788 9.668-.169.03-.323.086-.465.158.204 1.765.445 3.304.705 3.73.546.89 2.043.27 2.043.27s.011-3.787 2.063-4.158c0 0 1.77-4.575.788-9.669z" fill="#704537"/><path d="M18.741 34.704h-3.83a3.248 3.248 0 01-3.24-3.239v-8.154a3.248 3.248 0 013.24-3.24h3.83c.89 0 1.62.73 1.62 1.62v11.393c0 .891-.73 1.62-1.62 1.62z" fill="#4F4F4F"/><path d="M18.742 20.072H14.91c-.103 0-.205.005-.305.015a1.624 1.624 0 011.411 1.605v11.392c0 .82-.618 1.502-1.411 1.605.1.01.202.015.305.015h3.832c.89 0 1.619-.73 1.619-1.62V21.691c0-.89-.729-1.619-1.62-1.619z" fill="#828282"/><path d="M53.259 34.704h3.83a3.248 3.248 0 003.24-3.239v-8.154a3.248 3.248 0 00-3.24-3.24h-3.83c-.89 0-1.62.73-1.62 1.62v11.393c0 .891.73 1.62 1.62 1.62z" fill="#4F4F4F"/><path d="M57.09 20.072H53.26c-.07 0-.14.006-.208.015a3.25 3.25 0 012.933 3.224v8.153a3.25 3.25 0 01-2.933 3.225c.068.008.137.015.208.015h3.831a3.248 3.248 0 003.238-3.24v-8.153a3.248 3.248 0 00-3.238-3.239z" fill="#828282"/><path d="M36 64.394a2.318 2.318 0 100-4.635 2.318 2.318 0 000 4.635z" fill="#FFF7E6"/><path d="M55.992 32.887c-.583 0-1.055.472-1.055 1.054v1.854a3.07 3.07 0 01-3.066 3.067H37.328a1.055 1.055 0 100 2.11h14.543a5.182 5.182 0 005.176-5.177v-1.854c0-.582-.472-1.054-1.055-1.054z" fill="#4F4F4F"/></svg>