<svg width="62" height="62" fill="none" xmlns="http://www.w3.org/2000/svg"><g clip-path="url(#clip0)"><path d="M54.196 55.586l-3.325 4.982A3.2 3.2 0 0148.2 62H5.024a3.18 3.18 0 01-2.213-.887l7.034-6.254v-.33l.523-.012H53.33l.866 1.07z" fill="#6C96AA"/><path d="M53.33 54.517H10.368l-.523.011-.546-42.77-7.483 7.484V7.482L9.3 0 53.33 54.517z" fill="#802F34"/><path d="M9.845 54.528v.331L2.81 61.113a3.219 3.219 0 01-.995-2.32V19.242L9.3 11.758l.546 42.77z" fill="#ADCAD8"/><path d="M58.023 55.586H19.989c-8.69-3.944-10.37-21.892-10.658-31-.107-3.228-.032-5.344-.032-5.344v-7.484h43.828v7.484s-.802 23.217 6.606 32.934a2.128 2.128 0 01-1.71 3.41z" fill="#fff"/><path d="M19.989 55.586h-8.552A2.145 2.145 0 019.3 53.448V24.586h.032c.289 9.108 1.967 27.056 10.658 31z" fill="#D7E8F0"/><path d="M49.92 0H9.3v11.758h43.827v-8.55A3.207 3.207 0 0049.92 0z" fill="#E64C3C"/><path d="M52.186.94L41.368 11.759h-6.413L46.713 0h3.207c.85 0 1.666.338 2.266.94z" fill="#E64C3C"/><path d="M46.713 0L34.955 11.758H28.54L40.299 0h6.414z" fill="#C03A2B"/><path d="M40.3 0L28.54 11.758h-6.413L33.886 0h6.413z" fill="#E64C3C"/><path d="M33.886 0l-11.76 11.758h-6.413L27.472 0h6.413z" fill="#C03A2B"/><path d="M27.472 0l-11.76 11.758H9.3L21.06 0h6.413z" fill="#E64C3C"/><path d="M21.058 0L9.3 11.758V5.345L14.644 0h6.414z" fill="#C03A2B"/><path d="M14.644 0L9.299 5.345V0h5.345z" fill="#E64C3C"/><path d="M53.127 3.207v3.207l-5.345 5.344h-6.414L52.186.941c.602.6.941 1.416.94 2.266z" fill="#C03A2B"/><path d="M53.127 6.414v5.344h-5.345l5.345-5.344z" fill="#E64C3C"/><path d="M40.043 48.103H33.65c-2.565-6.606-3.517-15.446-3.859-21.999l-5.526 2.758v-6.414l5.366-5.345h6.392s-.598 19.114 4.02 31z" fill="#C03A2B"/></g><defs><clipPath id="clip0"><path fill="#fff" d="M0 0h62v62H0z"/></clipPath></defs></svg>