<svg width="54" height="54" fill="none" xmlns="http://www.w3.org/2000/svg"><path d="M10.125 54V40.5h-6.75A3.375 3.375 0 010 37.125V6.75a3.375 3.375 0 013.375-3.375h47.25A3.375 3.375 0 0154 6.75v30.375a3.375 3.375 0 01-3.375 3.375H30.866L10.125 54z" fill="#1D73AC"/><path d="M8.438 13.5h8.437a1.688 1.688 0 010 3.375H8.437a1.688 1.688 0 010-3.375zM8.438 20.25h8.437a1.688 1.688 0 010 3.375H8.437a1.688 1.688 0 010-3.375zM8.438 27h15.187a1.688 1.688 0 010 3.375H8.437a1.688 1.688 0 010-3.375z" fill="#fff"/><path d="M28.688 31.597v-7.972h-3.375a3.375 3.375 0 01-3.375-3.375V3.375A3.375 3.375 0 0125.313 0h25.312A3.375 3.375 0 0154 3.375V20.25a3.375 3.375 0 01-3.375 3.375h-7.988l-13.95 7.972z" fill="#FFC32C"/><path d="M30.375 6.75h15.188a1.688 1.688 0 010 3.375H30.374a1.688 1.688 0 010-3.375zM43.875 16.875H40.5V13.5h3.375v3.375zm-6.75 0h-6.75a1.688 1.688 0 010-3.375h6.75v3.375z" fill="#fff"/></svg>