<svg width="64" height="64" fill="none" xmlns="http://www.w3.org/2000/svg"><g clip-path="url(#clip0)"><path d="M62 64H2a1.875 1.875 0 01-1.875-1.875v-39c0-1.035.84-1.875 1.875-1.875h60c1.035 0 1.875.84 1.875 1.875v39C63.875 63.16 63.035 64 62 64z" fill="#FEF5B5"/><path d="M63.875 62.125v-39c0-1.035-.84-1.875-1.875-1.875H32V64h30c1.035 0 1.875-.84 1.875-1.875z" fill="#EDE28F"/><path d="M37.337 44.273c0-1.035-.84-1.875-1.875-1.875h-6.924c-1.035 0-1.875.84-1.875 1.875L.483 63.223c.34.47.892.777 1.517.777h60a1.87 1.87 0 001.517-.777l-26.18-18.95z" fill="#EDE28F"/><path d="M63.517 63.223l-26.18-18.95c0-1.035-.84-1.875-1.875-1.875H32V64h30a1.87 1.87 0 001.517-.777z" fill="#D9CC73"/><path d="M37.337 44.273l25.8-19.657a1.875 1.875 0 00-.053-3.021l-30-21.25a1.875 1.875 0 00-2.168 0l-30 21.25a1.875 1.875 0 00-.052 3.021l25.8 19.657h10.673z" fill="#D9CC73"/><path d="M37.337 44.273l25.8-19.657a1.875 1.875 0 00-.053-3.021l-30-21.25A1.873 1.873 0 0032 0v44.273h5.337z" fill="#C9BA58"/><path d="M37.337 44.273l16.538-12.6V9.375c0-1.036-.84-1.875-1.875-1.875H12c-1.036 0-1.875.84-1.875 1.875v22.298l16.538 12.6h10.674z" fill="#FFFBF4"/><rect x="16" y="15" width="32" height="2" rx="1" fill="#E3E4EE"/><rect x="16" y="20" width="32" height="2" rx="1" fill="#E3E4EE"/><rect x="16" y="25" width="32" height="2" rx="1" fill="#E3E4EE"/></g><defs><clipPath id="clip0"><path fill="#fff" d="M0 0h64v64H0z"/></clipPath></defs></svg>