<svg width="81" height="81" fill="none" xmlns="http://www.w3.org/2000/svg"><path d="M65.659 29.509h-2.755V11.905h2.755c1.08 0 1.956.876 1.956 1.956v13.691c0 1.08-.876 1.957-1.956 1.957zM15.105 19.055h3.465v-7.15h-3.465c-.688 0-1.247.558-1.247 1.246v4.657c0 .689.559 1.247 1.247 1.247zM15.105 27.244h3.465v-7.15h-3.465c-.688 0-1.247.558-1.247 1.247v4.657c0 .688.559 1.246 1.247 1.246z" fill="#2A2F4F"/><rect x="15" y="2" width="51" height="79" rx="8" fill="#3D4159"/><path d="M60.314 70.716h-39.63a3.418 3.418 0 01-3.418-3.418v-50.44a3.419 3.419 0 013.418-3.418h39.63a3.419 3.419 0 013.419 3.418v50.44a3.418 3.418 0 01-3.419 3.418z" fill="#fff"/><path d="M58.91 62.182a5.727 5.727 0 11-11.455 0 5.727 5.727 0 0111.454 0z" fill="#F74F4F"/><path d="M33.545 62.182a5.727 5.727 0 11-11.454 0 5.727 5.727 0 0111.454 0z" fill="#3FB777"/><path d="M47.112 8.648H33.887a1.24 1.24 0 010-2.48h13.225a1.24 1.24 0 010 2.48zM42.979 76.356a2.48 2.48 0 11-4.96 0 2.48 2.48 0 014.96 0z" fill="#2A2F4F"/><path d="M29.26 39.301a3.81 3.81 0 11-7.621.001 3.81 3.81 0 017.62 0z" fill="#D3A489"/><path d="M29.26 39.301a3.81 3.81 0 01-3.2 3.762 14.173 14.173 0 01-.506-3.762c0-1.301.176-2.563.506-3.76a3.81 3.81 0 013.2 3.76z" fill="#BF8E75"/><path d="M26.811 39.301a1.362 1.362 0 11-2.724 0 1.362 1.362 0 012.724 0z" fill="#BF8E75"/><path d="M51.74 39.301a3.81 3.81 0 107.62.001 3.81 3.81 0 00-7.62 0z" fill="#D3A489"/><path d="M51.74 39.301a3.81 3.81 0 003.2 3.762c.329-1.199.505-2.46.505-3.762 0-1.301-.176-2.563-.506-3.76a3.81 3.81 0 00-3.2 3.76z" fill="#BF8E75"/><path d="M56.912 39.301a1.362 1.362 0 11-2.725 0 1.362 1.362 0 012.725 0z" fill="#BF8E75"/><path d="M54.677 37.276c0 7.055-5.154 12.908-11.902 13.995-.74.12-1.5.183-2.276.183-7.83 0-14.177-6.348-14.177-14.178 0-3.705 1.287-9.267 3.614-11.792 2.59-2.812 6.438-2.385 10.563-2.385.776 0 1.535.061 2.276.183 6.748 1.086 11.902 6.94 11.902 13.994z" fill="#BF8E75"/><path d="M54.677 37.276c0 7.055-5.154 12.908-11.902 13.995-6.748-1.087-11.902-6.94-11.902-13.995 0-4.344 1.954-8.233 5.032-10.833a14.102 14.102 0 016.87-3.161c6.29 1.012 11.198 6.17 11.832 12.58.047.465.07.938.07 1.414z" fill="#D3A489"/><path d="M39.67 19.049a8.592 8.592 0 017.962 8.143l.04.82h2.47l1.331 8.848 3.223-.997-.432-8.67a8.594 8.594 0 00-8.615-8.167l-5.979.023z" fill="#2A2F4F"/><path d="M53.99 15.626a8.758 8.758 0 01-12.384 12.385L53.99 15.626z" fill="#3D4159"/><path d="M41.605 28.011H30.858l-1.332 8.85-3.222-.998.432-8.671a8.594 8.594 0 018.615-8.166l15.523.058 2.052 3.694" fill="#3D4159"/><path d="M41.33 19.049a8.592 8.592 0 00-7.962 8.143l-.04.82h-2.472l-1.33 8.848-3.223-.997.433-8.67a8.594 8.594 0 018.614-8.167l5.98.023z" fill="#2A2F4F"/></svg>