<svg width="113" height="113" viewBox="0 0 113 113" fill="none" xmlns="http://www.w3.org/2000/svg">
<path d="M78.4956 85.4135C78.4956 88.0492 78.2484 88.461 77.919 91.3438H34.265C33.8532 88.461 33.6885 88.0492 33.6885 85.4135C33.6885 70.9171 39.7012 65.3986 50.903 64.5749C51.3148 64.5749 51.7266 64.4925 52.2208 64.4925C53.4563 64.4102 54.7742 64.4102 56.092 64.4102C57.4099 64.4102 58.7277 64.4102 59.9632 64.4925C60.4574 64.4925 60.9516 64.5749 61.4458 64.5749C61.94 64.6573 62.4342 64.6572 62.9284 64.7396H63.0108C63.1755 64.7396 63.3402 64.822 63.4226 64.822C72.2358 66.0575 78.4956 70.67 78.4956 85.4135Z" fill="#60CE7F"/>
<path d="M60.7051 56.5854V65.8927C60.7051 67.1282 60.2109 68.3637 59.3873 69.105C56.5045 71.9878 51.5625 69.9287 51.5625 65.8927V56.5854H60.7051Z" fill="#FFD05B"/>
<g opacity="0.1">
<g opacity="0.1">
<path opacity="0.1" d="M63.4224 66.3046C63.4224 74.047 60.1277 80.801 58.151 84.178C57.9862 84.5074 57.7391 84.8369 57.5744 85.084C57.2449 85.6606 56.6684 85.9077 56.0095 85.9077C55.3505 85.9077 54.774 85.5782 54.4445 85.084C54.2798 84.8369 54.115 84.5074 53.8679 84.0956C49.9144 77.2592 48.5141 70.9994 48.6789 64.7396C49.3378 64.6572 49.9143 64.5749 50.8204 64.4925C50.8204 64.7396 50.9028 65.0691 51.0675 65.3986C51.2322 65.728 51.644 66.4693 51.8088 66.8811C51.9735 67.293 51.9735 67.7872 52.1383 68.199C53.7032 72.482 60.7867 69.2697 61.4456 64.4925C61.9398 64.5749 62.434 64.5749 62.9282 64.6572H63.0106C63.1753 64.6572 63.34 64.7396 63.4224 64.7396V64.822C63.4224 65.3162 63.4224 65.8104 63.4224 66.3046Z" fill="black"/>
</g>
</g>
<path d="M62.9281 66.3046C62.9281 73.8822 59.7982 80.4715 57.7391 83.9309C57.5744 84.2603 57.3272 84.5898 57.1625 84.8369C56.9154 85.2487 56.5036 85.4135 56.0918 85.4135C55.6799 85.4135 55.2681 85.2487 55.021 84.8369C54.8563 84.5898 54.6915 84.2603 54.4445 83.9309C50.4909 77.0945 49.173 70.9171 49.3378 64.7396C50.079 64.6572 50.9027 64.5749 51.7264 64.4925C52.3853 67.2106 55.3505 69.5992 56.1741 70.011C56.9978 69.5992 59.963 67.2106 60.6219 64.4925C61.4456 64.5749 62.1869 64.6572 63.0105 64.7396C62.9282 65.2338 62.9281 65.8104 62.9281 66.3046Z" fill="white"/>
<g opacity="0.1">
<g opacity="0.1">
<path opacity="0.1" d="M60.7044 56.5854V65.8927C60.7044 66.8811 60.375 67.7048 59.8808 68.4461C57.6569 69.5168 56.092 70.011 56.092 70.011L51.4795 62.1863V56.5854H60.7044Z" fill="black"/>
</g>
</g>
<path d="M47.3613 44.8894H47.6908L47.3613 45.2189V44.8894Z" fill="#324A5E"/>
<path d="M66.0587 53.8673C65.3998 53.8673 65.1528 52.6318 65.4822 51.0669C65.8117 49.5019 66.6353 48.1841 67.2942 48.1841C68.8592 48.2664 67.6237 53.8673 66.0587 53.8673Z" fill="#F9B54C"/>
<path d="M46.1257 53.8673C46.7846 53.8673 47.0317 52.6318 46.7022 51.0669C46.3728 49.5019 45.5491 48.1841 44.8902 48.1841C43.2429 48.2664 44.4784 53.8673 46.1257 53.8673Z" fill="#F9B54C"/>
<path d="M67.7057 43.7363C67.7057 49.9961 62.5166 60.3742 56.0921 60.3742C49.6675 60.3742 44.4785 49.9961 44.4785 43.7363C44.4785 37.4765 49.6675 33.8524 56.0921 33.8524C62.5166 33.8524 67.7057 37.4765 67.7057 43.7363Z" fill="#324A5E"/>
<path d="M63.0101 41.2653C63.669 42.3361 64.8221 44.1481 65.8105 46.2073C66.9636 48.6783 67.2107 51.6434 66.2223 54.3615C64.4102 59.2211 60.5391 63.7512 56.0913 63.7512C51.6435 63.7512 47.8547 59.2211 46.0426 54.3615C43.9835 48.9254 47.1134 44.8894 49.0902 41.4301C49.3373 40.9359 49.9138 40.8535 50.408 41.1006C54.3616 43.9834 58.1504 43.6539 61.6922 40.9359C62.104 40.6064 62.6806 40.7711 63.0101 41.2653Z" fill="#FFD05B"/>
<path d="M48.3498 38.6296L49.75 40.7711C49.75 40.7711 46.7849 46.9486 46.5378 49.9137C46.5378 50.0785 46.2906 50.1608 46.2083 49.9137C43.4078 42.5832 46.6201 38.0531 48.3498 38.6296Z" fill="#324A5E"/>
<path d="M65.6461 49.9138C65.399 46.9486 62.5986 40.7711 62.5986 40.7711L63.8341 38.6296C63.8341 38.6296 65.7285 38.0531 66.7993 42.089C67.7877 45.7131 65.8109 51.1492 65.6461 49.9138Z" fill="#324A5E"/>
<path d="M58.2334 72.2349L57.2451 73.9646H54.9388L53.9504 72.2349C53.8681 72.0702 53.8681 71.8231 53.9504 71.6583L54.7741 70.2581C54.8565 70.0934 55.0212 70.011 55.2683 70.011C57.6569 70.011 56.9979 69.6816 58.2334 71.7407C58.3158 71.9055 58.3158 72.0702 58.2334 72.2349Z" fill="#F9533D"/>
<path d="M57.739 83.9309C57.5742 84.2603 57.3271 84.5898 57.1624 84.8369C56.9153 85.2487 56.5035 85.4135 56.0917 85.4135C55.6798 85.4135 55.268 85.2487 55.0209 84.8369C54.8562 84.5898 54.6914 84.2603 54.4443 83.9309L54.9385 73.9646H57.1624L57.739 83.9309Z" fill="#FF7058"/>
<g opacity="0.1">
<g opacity="0.1">
<g opacity="0.1">
<path opacity="0.1" d="M56.0919 70.0119V85.4967C55.6801 85.4967 55.2683 85.332 55.0212 84.9202C54.8565 84.6731 54.6917 84.3436 54.4446 84.0141L54.9388 74.0479L53.9504 72.3182C53.8681 72.1535 53.8681 71.9064 53.9504 71.7416L54.7741 70.3414C55.0212 69.9296 55.5977 70.0119 56.0919 70.0119Z" fill="black"/>
</g>
</g>
</g>
<path d="M56.0922 70.011L53.6212 72.0702C53.4565 72.2349 53.2094 72.2349 53.0447 72.1525C49.5853 69.9287 49.2559 64.822 49.2559 64.822L51.4797 63.4218C51.4797 67.2106 56.0922 70.011 56.0922 70.011Z" fill="#E7EAEF"/>
<path d="M62.8461 64.7396C62.8461 64.7396 62.5166 69.8463 59.0573 72.0702C58.8925 72.1526 58.6455 72.1526 58.4807 71.9878L56.0098 69.9287C56.0098 69.9287 60.6222 67.0459 60.6222 63.257L62.8461 64.7396Z" fill="#E7EAEF"/>
<path d="M69.7646 51.1492C69.6822 51.1492 69.5999 51.1492 69.5175 51.0669C69.1881 50.9021 68.941 50.4903 69.1057 50.1608C69.7646 48.5135 70.0941 46.7838 70.0941 44.9718C70.0941 37.2294 63.8343 30.9696 56.0919 30.9696C48.3495 30.9696 42.0897 37.2294 42.0897 44.9718C42.0897 49.4195 43.9017 50.5727 42.6663 51.0669C42.3368 51.2316 41.8426 51.0669 41.7602 50.655C41.0189 48.843 40.6895 46.9486 40.6895 44.9718C40.6895 36.4057 47.6082 29.487 56.1742 29.487C64.7403 29.487 71.6591 36.4057 71.6591 44.9718C71.6591 46.9486 71.3296 48.843 70.5883 50.655C70.3412 50.9845 70.0941 51.1492 69.7646 51.1492Z" fill="white"/>
<path d="M67.6221 37.2294C67.2103 37.2294 66.7985 37.0647 66.469 36.6528C63.998 33.5229 60.2092 31.7932 56.0909 31.7932C51.9726 31.7932 48.1838 33.6053 45.7128 36.6528C45.2186 37.3118 44.3126 37.3941 43.6537 36.8999C42.9948 36.4057 42.9124 35.4997 43.4065 34.8408C46.4541 31.052 51.0666 28.8281 56.0086 28.8281C60.9505 28.8281 65.563 30.9696 68.6105 34.8408C69.1047 35.4997 69.0224 36.4057 68.3635 36.8999C68.1987 37.0647 67.9516 37.2294 67.6221 37.2294Z" fill="#324A5E"/>
<path d="M59.7979 58.7269C59.4684 58.7269 59.0566 58.7269 58.6447 58.6446C57.4092 58.5622 56.4209 57.4914 56.4209 56.1736C56.4209 55.8441 56.668 55.6794 56.9151 55.6794C57.2445 55.6794 57.4092 55.9265 57.4092 56.1736C57.4092 56.9149 57.9858 57.4914 58.6447 57.5738C65.1516 58.1504 66.7166 53.2084 66.799 53.126C66.8813 52.8789 67.2108 52.7142 67.4579 52.7966C67.705 52.8789 67.8697 53.2084 67.7874 53.4555C67.7874 53.6202 66.1401 58.7269 59.7979 58.7269Z" fill="#324A5E"/>
<path d="M58.3971 53.6202C58.3971 53.8673 58.0676 56.2559 56.9969 56.2559C55.9261 56.2559 55.5967 53.9497 55.5967 53.6202C55.5967 52.8789 56.2556 52.22 56.9969 52.22C57.7382 52.22 58.3971 52.8789 58.3971 53.6202Z" fill="#324A5E"/>
<path d="M70.5056 49.2548V51.561C70.5056 51.6434 70.4232 51.7258 70.3409 51.7258H69.7643C69.6819 51.7258 69.5996 51.6434 69.5996 51.561V49.2548C69.5996 49.1724 69.6819 49.0901 69.7643 49.0901H70.3409C70.4232 49.1724 70.5056 49.1724 70.5056 49.2548Z" fill="#324A5E"/>
<path d="M70.2578 50.4079C70.2578 51.7258 69.846 52.7965 69.2694 52.7965C68.0339 52.7965 68.0339 48.0193 69.2694 48.0193C69.846 48.0193 70.2578 49.0901 70.2578 50.4079Z" fill="#324A5E"/>
<path d="M69.4345 47.7722V53.126C69.4345 53.6202 68.7756 53.6202 67.8695 53.8673C67.5401 53.9497 67.293 53.7026 67.293 53.3731V47.4427C67.293 47.1133 67.5401 46.9485 67.8695 46.9485L69.0227 47.278C69.2698 47.3604 69.4345 47.5251 69.4345 47.7722Z" fill="white"/>
<path d="M67.2929 47.6075C67.2929 52.8789 67.54 53.7025 66.881 53.7025C66.2221 53.7025 66.4692 52.8789 66.4692 47.6075C66.4692 47.3604 66.6339 47.1956 66.881 47.1956C67.1281 47.1956 67.2929 47.3604 67.2929 47.6075Z" fill="#54C0EB"/>
<g opacity="0.1">
<g opacity="0.1">
<g opacity="0.1">
<g opacity="0.1">
<path opacity="0.1" d="M70.5047 50.4079V51.561C70.5047 51.6434 70.4223 51.7258 70.34 51.7258H70.0929C69.9281 52.3023 69.6811 52.7142 69.434 52.7965V53.126C69.434 53.6202 68.775 53.6202 67.869 53.8673C67.5395 53.9497 67.2924 53.7026 67.2924 53.2907C67.2924 53.8673 66.4688 53.8673 66.4688 53.2907V50.4903H70.5047V50.4079Z" fill="black"/>
</g>
</g>
</g>
</g>
<path d="M41.6777 49.2548V51.561C41.6777 51.6434 41.7601 51.7258 41.8425 51.7258H42.419C42.5014 51.7258 42.5837 51.6434 42.5837 51.561V49.2548C42.5837 49.0901 42.0896 49.0901 41.8425 49.0901C41.7601 49.1724 41.6777 49.1724 41.6777 49.2548Z" fill="#324A5E"/>
<path d="M42.8309 52.7965C43.3251 52.7965 43.8193 51.7258 43.8193 50.4079C43.8193 49.0901 43.4075 48.0193 42.8309 48.0193C41.5954 48.0193 41.5954 52.7965 42.8309 52.7965Z" fill="#324A5E"/>
<path d="M42.7485 53.126C42.7485 53.3731 42.9132 53.5378 43.1603 53.6202L44.3135 53.8673C44.6429 53.9497 44.8901 53.7026 44.8901 53.3731C44.8901 46.2073 45.3842 46.7015 43.1603 47.278C42.5014 47.3604 42.7485 47.9369 42.7485 53.126Z" fill="white"/>
<path d="M44.8903 53.2907C44.8903 53.5378 45.0551 53.7025 45.3022 53.7025C45.5493 53.7025 45.714 53.5378 45.714 53.2907C45.714 48.0193 45.9611 47.1956 45.3022 47.1956C44.5609 47.1956 44.8903 47.9369 44.8903 53.2907Z" fill="#54C0EB"/>
<g opacity="0.1">
<g opacity="0.1">
<g opacity="0.1">
<g opacity="0.1">
<path opacity="0.1" d="M41.6777 50.4079V51.561C41.6777 51.6434 41.7601 51.7258 41.8425 51.7258H42.0896C42.2543 52.3023 42.5014 52.7142 42.7485 52.7965V53.126C42.7485 53.3731 42.9132 53.5378 43.1603 53.6202L44.3135 53.8673C44.6429 53.9497 44.89 53.7026 44.89 53.3731V53.2907C44.89 53.5378 45.0548 53.7026 45.3019 53.7026C45.549 53.7026 45.7137 53.5378 45.7137 53.2907V50.4903H41.6777V50.4079Z" fill="black"/>
</g>
</g>
</g>
</g>
<path d="M107.323 60.7037C109.958 60.7037 112.1 58.5622 112.1 56.0088C112.1 53.3731 109.958 51.314 107.323 51.314H100.651C100.404 48.5959 99.8275 45.8778 99.0862 43.3245L105.264 40.7711C107.817 39.7004 108.805 36.8999 107.817 34.5937C106.829 32.2051 104.028 31.052 101.64 32.0404L95.4621 34.5937C94.1442 32.2051 92.6616 29.9812 90.9319 27.8397L95.7092 23.0625C97.6859 21.0857 97.5212 18.1205 95.7092 16.3908C93.8971 14.5788 90.8496 14.5788 89.0375 16.3908L84.3427 21.168C82.2835 19.4384 79.9773 17.9558 77.5886 16.6379L80.142 10.4605C81.1304 7.9895 79.8949 5.18906 77.5886 4.28304C75.2 3.29465 72.3996 4.44777 71.4112 6.83639L68.8579 13.0138C66.3045 12.2725 63.6688 11.7783 60.8684 11.4489V4.69487C60.8684 2.14152 58.7269 0 56.0912 0C53.4555 0 51.3963 2.14152 51.3963 4.69487V11.4489C48.6782 11.7783 46.0425 12.2725 43.4068 13.0138L40.8535 6.83639C39.7003 4.11831 36.8999 3.37701 34.676 4.28304C32.2874 5.27143 31.1343 7.9895 32.1227 10.4605L34.676 16.6379C32.2874 17.9558 30.0635 19.4384 27.922 21.168L23.1448 16.3908C21.3328 14.5788 18.2852 14.5788 16.4732 16.3908C14.5788 18.2853 14.5788 21.2504 16.4732 23.0625L21.2504 27.8397C19.5207 29.8988 18.0381 32.2051 16.7203 34.5937L10.5428 32.0404C8.07185 31.052 5.35377 32.2051 4.36538 34.5937C3.37699 36.9823 4.5301 39.7827 6.91871 40.7711L13.0961 43.3245C12.3549 45.8778 11.7783 48.5959 11.4488 51.314H4.77721C2.1415 51.314 0 53.3731 0 56.0088C0 58.6445 2.1415 60.7037 4.77721 60.7037H11.4488C11.7783 63.4218 12.2725 66.1398 13.0961 68.6932L6.91871 71.2465C4.5301 72.1525 3.37699 75.0353 4.36538 77.424C5.35377 79.8126 8.07185 80.9657 10.5428 79.9773L16.7203 77.424C18.0381 79.8126 19.5207 82.0365 21.2504 84.178L16.4732 88.9552C14.5788 90.8496 14.5788 93.8148 16.4732 95.6268C18.2852 97.5212 21.3328 97.5212 23.1448 95.6268L27.922 90.932C29.9812 92.5793 32.2874 94.1442 34.676 95.4621L32.1227 101.64C31.1343 104.028 32.2874 106.829 34.676 107.817C37.0646 108.805 39.8651 107.652 40.8535 105.264L43.4068 99.0862C46.0425 99.9099 48.6782 100.404 51.3963 100.651V107.405C51.3963 110.041 53.4555 112.1 56.0912 112.1C58.8092 112.1 60.8684 110.041 60.8684 107.405V100.651C63.5865 100.404 66.3045 99.9099 68.8579 99.0862L71.4112 105.264C72.3996 107.652 75.2 108.805 77.5886 107.817C79.9773 106.829 81.1304 104.028 80.142 101.64L77.5063 95.2974C79.8949 93.9795 82.1188 92.4969 84.2603 90.7672L88.9552 95.4621C91.0143 97.4389 93.8971 97.1918 95.6268 95.4621C97.5212 93.6501 97.5212 90.6025 95.6268 88.7905L90.8496 84.0132C92.5793 81.9541 94.0619 79.7302 95.3797 77.2592L101.557 79.8126C104.028 80.801 106.664 79.6479 107.735 77.2592C108.723 74.8706 107.57 72.0702 105.181 71.0818L99.0038 68.5284C99.7451 65.9751 100.322 63.3394 100.569 60.5389H107.323V60.7037ZM56.0912 88.7905C37.9707 88.7905 23.2271 74.047 23.2271 55.9265C23.2271 37.806 37.9707 23.0625 56.0912 23.0625C74.2117 23.0625 88.9552 37.806 88.9552 55.9265C88.9552 74.1293 74.2117 88.7905 56.0912 88.7905Z" fill="#324A5E"/>
</svg>
