<svg width="188" height="128" viewBox="0 0 188 128" fill="none" xmlns="http://www.w3.org/2000/svg">
<path d="M175.8 49.95C167.8 51.05 159.8 51.05 151.8 49.95C150.4 43.75 150.4 37.55 151.8 31.35C159.8 30.25 167.8 30.25 175.8 31.35C177.1 37.55 177.1 43.75 175.8 49.95Z" fill="#F36C36"/>
<path d="M151.7 49.95C159.7 51.05 167.7 51.05 175.7 49.95C176.4 46.85 176.7 43.75 176.7 40.65H150.6C150.7 43.75 151.1 46.85 151.7 49.95Z" fill="#DC6231"/>
<path d="M168.699 40.15C169.199 40.45 169.199 40.95 168.699 41.25L161.799 45.65C161.299 45.95 160.899 45.75 160.899 45.15V36.45C160.899 35.85 161.299 35.65 161.799 35.95L168.699 40.15Z" fill="white"/>
<path d="M160.899 45.05C160.899 45.65 161.299 45.85 161.799 45.55L168.699 41.15C168.999 40.95 169.099 40.75 168.999 40.55H160.899V45.05Z" fill="#DCE4E7"/>
<path d="M43.3996 69.95C35.3996 71.05 27.3996 71.05 19.3996 69.95C17.9996 63.75 17.9996 57.55 19.3996 51.35C27.3996 50.25 35.3996 50.25 43.3996 51.35C44.7996 57.55 44.7996 63.75 43.3996 69.95Z" fill="#F36C36"/>
<path d="M19.3998 69.95C27.3998 71.05 35.3998 71.05 43.3998 69.95C44.0998 66.85 44.3998 63.75 44.3998 60.65H18.2998C18.3998 63.75 18.6998 66.85 19.3998 69.95Z" fill="#DC6231"/>
<path d="M36.3 60.15C36.8 60.45 36.8 60.95 36.3 61.25L29.4 65.65C28.9 65.95 28.5 65.75 28.5 65.15V56.45C28.5 55.85 28.9 55.65 29.4 55.95L36.3 60.15Z" fill="white"/>
<path d="M28.5 65.05C28.5 65.65 28.9 65.85 29.4 65.55L36.3 61.15C36.6 60.95 36.7 60.75 36.6 60.55H28.5V65.05Z" fill="#DCE4E7"/>
<path d="M156.5 22.15H27.2998V86.15H156.5V22.15Z" fill="#325768"/>
<path d="M156.4 86.45H27.2998V100.55H156.4V86.45Z" fill="white"/>
<path d="M136.4 92.55H37.7002V94.45H136.4V92.55Z" fill="#CDD5D8"/>
<path d="M69.6002 92.55H37.7002V94.45H69.6002V92.55Z" fill="#F36C36"/>
<path d="M31.2002 95.95C30.9002 95.95 30.7002 95.75 30.7002 95.45V91.55C30.7002 91.25 30.9002 91.05 31.2002 91.05C31.3002 91.05 31.4002 91.05 31.5002 91.15L34.9002 93.15C35.1002 93.25 35.2002 93.45 35.2002 93.55C35.2002 93.75 35.1002 93.85 34.9002 93.95L31.5002 95.95C31.4002 95.85 31.3002 95.95 31.2002 95.95ZM31.2002 91.45V95.45V95.55C31.2002 95.55 31.2002 95.55 31.3002 95.55L34.7002 93.55C34.7002 93.55 34.7002 93.55 34.8002 93.55C34.8002 93.55 34.8002 93.55 34.7002 93.55L31.2002 91.45Z" fill="#596273"/>
<path d="M144.2 90.85H143.7V96.25H144.2V90.85Z" fill="#596273"/>
<path d="M142.9 91.85H142.4V96.15H142.9V91.85Z" fill="#596273"/>
<path d="M141.5 92.95H141V96.15H141.5V92.95Z" fill="#596273"/>
<path d="M140.2 94.05H139.7V96.15H140.2V94.05Z" fill="#596273"/>
<path d="M152.4 96.15H147.5C147.4 96.15 147.3 96.05 147.3 95.95V91.05C147.3 90.95 147.4 90.85 147.5 90.85H149.9C150 90.85 150.1 90.95 150.1 91.05C150.1 91.15 150 91.25 149.9 91.25H147.7V95.65H152.1V93.45C152.1 93.35 152.2 93.25 152.3 93.25C152.4 93.25 152.5 93.35 152.5 93.45V95.85C152.6 96.05 152.5 96.15 152.4 96.15Z" fill="#596273"/>
<path d="M152.399 92.65C152.299 92.65 152.199 92.55 152.199 92.45V91.35H151.099C150.999 91.35 150.899 91.25 150.899 91.15C150.899 91.05 150.999 90.95 151.099 90.95H152.399C152.499 90.95 152.599 91.05 152.599 91.15V92.45C152.599 92.55 152.499 92.65 152.399 92.65Z" fill="#596273"/>
<path d="M150.299 93.35C150.199 93.35 150.199 93.35 150.099 93.25C149.999 93.15 149.999 93.05 150.099 92.95L151.999 91.05C152.099 90.95 152.199 90.95 152.299 91.05C152.399 91.15 152.399 91.25 152.299 91.35L150.399 93.25C150.399 93.35 150.299 93.35 150.299 93.35Z" fill="#596273"/>
<path d="M85.8998 62.05C84.9998 62.05 84.2998 61.35 84.2998 60.25V46.85C84.2998 45.75 84.9998 45.05 85.8998 45.05C86.1998 45.05 86.5998 45.15 86.8998 45.35L98.4998 52.05C99.0998 52.45 99.4998 52.95 99.4998 53.55C99.4998 54.15 99.0998 54.75 98.4998 55.05L86.8998 61.75C86.5998 61.95 86.1998 62.05 85.8998 62.05ZM85.8998 46.65C85.8998 46.65 85.8998 46.75 85.8998 46.85V60.25C85.8998 60.35 85.8998 60.45 85.8998 60.45C85.8998 60.45 85.9998 60.45 86.0998 60.35L97.6998 53.65C97.7998 53.55 97.8998 53.55 97.8998 53.55C97.8998 53.55 97.7998 53.45 97.6998 53.45L86.0998 46.75C85.9998 46.65 85.9998 46.65 85.8998 46.65Z" fill="white"/>
<path d="M149.9 11.85C145 12.45 140.1 12.45 135.1 11.85C134.3 8.05002 134.3 4.25 135.1 0.45C140 -0.15 144.9 -0.15 149.9 0.45C150.7 4.25 150.7 8.05002 149.9 11.85Z" fill="#F36C36"/>
<path d="M135.1 11.85C140 12.45 144.9 12.45 149.9 11.85C150.3 9.95004 150.5 8.05002 150.5 6.15002H134.5C134.5 8.05002 134.7 9.95004 135.1 11.85Z" fill="#DC6231"/>
<path d="M145.5 5.85005C145.8 6.05005 145.8 6.35006 145.5 6.55006L141.2 9.25001C140.9 9.45001 140.7 9.25002 140.7 8.95002V3.55006C140.7 3.15006 140.9 3.05001 141.2 3.25001L145.5 5.85005Z" fill="white"/>
<path d="M140.7 8.85004C140.7 9.25004 140.9 9.35002 141.2 9.15002L145.5 6.45001C145.7 6.35001 145.7 6.25005 145.7 6.05005H140.7V8.85004Z" fill="#DCE4E7"/>
<path d="M15.4 91.85C10.5 92.45 5.6 92.45 0.6 91.85C-0.2 88.05 -0.2 84.25 0.6 80.45C5.5 79.85 10.4 79.85 15.4 80.45C16.2 84.25 16.2 88.05 15.4 91.85Z" fill="#F36C36"/>
<path d="M0.600037 91.85C5.50004 92.45 10.4 92.45 15.4 91.85C15.8 89.95 16 88.05 16 86.15H0C0 88.05 0.200037 89.95 0.600037 91.85Z" fill="#DC6231"/>
<path d="M11.0002 85.85C11.3002 86.05 11.3002 86.3501 11.0002 86.5501L6.7002 89.25C6.4002 89.45 6.2002 89.25 6.2002 88.95V83.5501C6.2002 83.1501 6.4002 83.05 6.7002 83.25L11.0002 85.85Z" fill="white"/>
<path d="M6.2002 88.85C6.2002 89.25 6.4002 89.35 6.7002 89.15L11.0002 86.45C11.2002 86.35 11.2002 86.25 11.2002 86.05H6.2002V88.85Z" fill="#DCE4E7"/>
<path d="M97.4 119.85C92.5 120.45 87.6 120.45 82.6 119.85C81.8 116.05 81.8 112.25 82.6 108.45C87.5 107.85 92.4 107.85 97.4 108.45C98.2 112.25 98.2 116.05 97.4 119.85Z" fill="#F36C36"/>
<path d="M82.6 119.85C87.5 120.45 92.4 120.45 97.4 119.85C97.8 117.95 98 116.05 98 114.15H82C82 116.05 82.2 117.95 82.6 119.85Z" fill="#DC6231"/>
<path d="M93.0002 113.85C93.3002 114.05 93.3002 114.35 93.0002 114.55L88.7002 117.25C88.4002 117.45 88.2002 117.25 88.2002 116.95V111.55C88.2002 111.15 88.4002 111.05 88.7002 111.25L93.0002 113.85Z" fill="white"/>
<path d="M88.2002 116.85C88.2002 117.25 88.4002 117.35 88.7002 117.15L93.0002 114.45C93.2002 114.35 93.2002 114.25 93.2002 114.05H88.2002V116.85Z" fill="#DCE4E7"/>
<path d="M187 16.95C184 17.35 181.1 17.35 178.1 16.95C177.6 14.65 177.6 12.3501 178.1 10.0501C181.1 9.65006 184 9.65006 187 10.0501C187.5 12.3501 187.5 14.65 187 16.95Z" fill="#F36C36"/>
<path d="M178.099 16.95C181.099 17.35 183.999 17.35 186.999 16.95C187.299 15.85 187.399 14.65 187.399 13.55H177.799C177.699 14.65 177.799 15.75 178.099 16.95Z" fill="#DC6231"/>
<path d="M184.299 13.35C184.499 13.45 184.499 13.65 184.299 13.75L181.699 15.35C181.499 15.45 181.399 15.35 181.399 15.15V11.95C181.399 11.75 181.499 11.65 181.699 11.75L184.299 13.35Z" fill="white"/>
<path d="M181.5 15.15C181.5 15.35 181.6 15.45 181.8 15.35L184.4 13.75C184.5 13.65 184.5 13.65 184.5 13.55H181.5V15.15Z" fill="#DCE4E7"/>
<path d="M13.4996 36.45C10.4996 36.85 7.59961 36.85 4.59961 36.45C4.09961 34.15 4.09961 31.8501 4.59961 29.5501C7.59961 29.1501 10.4996 29.1501 13.4996 29.5501C13.9996 31.8501 13.9996 34.15 13.4996 36.45Z" fill="#F36C36"/>
<path d="M4.59921 36.45C7.59921 36.85 10.4992 36.85 13.4992 36.45C13.7992 35.35 13.8992 34.15 13.8992 33.05H4.29922C4.19922 34.15 4.29921 35.25 4.59921 36.45Z" fill="#DC6231"/>
<path d="M10.7994 32.85C10.9994 32.95 10.9994 33.15 10.7994 33.25L8.1994 34.85C7.9994 34.95 7.89941 34.85 7.89941 34.65V31.45C7.89941 31.25 7.9994 31.15 8.1994 31.25L10.7994 32.85Z" fill="white"/>
<path d="M8 34.65C8 34.85 8.10005 34.95 8.30005 34.85L10.9 33.25C11 33.15 11 33.15 11 33.05H8V34.65Z" fill="#DCE4E7"/>
<path d="M120.8 127.35C117.8 127.75 114.9 127.75 111.9 127.35C111.4 125.05 111.4 122.75 111.9 120.45C114.9 120.05 117.8 120.05 120.8 120.45C121.4 122.75 121.4 125.05 120.8 127.35Z" fill="#F36C36"/>
<path d="M112.001 127.35C115.001 127.75 117.901 127.75 120.901 127.35C121.201 126.25 121.301 125.05 121.301 123.95H111.701C111.601 125.05 111.701 126.15 112.001 127.35Z" fill="#DC6231"/>
<path d="M118.201 123.75C118.401 123.85 118.401 124.05 118.201 124.15L115.601 125.75C115.401 125.85 115.301 125.75 115.301 125.55V122.35C115.301 122.15 115.401 122.05 115.601 122.15L118.201 123.75Z" fill="white"/>
<path d="M115.301 125.55C115.301 125.75 115.401 125.85 115.601 125.75L118.201 124.15C118.301 124.05 118.301 124.05 118.301 123.95H115.301V125.55Z" fill="#DCE4E7"/>
<path d="M107.8 8.35005C104.8 8.75005 101.9 8.75005 98.9004 8.35005C98.4004 6.05005 98.4004 3.75002 98.9004 1.45002C101.9 1.05002 104.8 1.05002 107.8 1.45002C108.4 3.75002 108.4 6.05005 107.8 8.35005Z" fill="#F36C36"/>
<path d="M99.0006 8.35004C102.001 8.75004 104.901 8.75004 107.901 8.35004C108.201 7.25004 108.301 6.05001 108.301 4.95001H98.7006C98.6006 6.05001 98.7006 7.15004 99.0006 8.35004Z" fill="#DC6231"/>
<path d="M105.201 4.74998C105.401 4.84998 105.401 5.05001 105.201 5.15001L102.601 6.74998C102.401 6.84998 102.301 6.75003 102.301 6.55003V3.35002C102.301 3.15002 102.401 3.05001 102.601 3.15001L105.201 4.74998Z" fill="white"/>
<path d="M102.301 6.55005C102.301 6.75005 102.401 6.85 102.601 6.75L105.201 5.15002C105.301 5.05002 105.301 5.05001 105.301 4.95001H102.301V6.55005Z" fill="#DCE4E7"/>
</svg>
