<svg width="16" height="16" viewBox="0 0 16 16" fill="none" xmlns="http://www.w3.org/2000/svg">
<path d="M0 7.55387C0 3.38218 3.38218 0 7.55387 0C11.7256 0 15.1071 3.38218 15.1071 7.55387C15.1071 11.7256 11.7256 15.1071 7.55387 15.1071C3.38218 15.1071 0 11.7256 0 7.55387Z" fill="white"/>
<path d="M6.02038 9.86064C5.7101 9.50171 5.7045 8.92388 6.00788 8.57647L9.58689 4.48348C9.89032 4.13658 10.3923 4.14647 10.703 4.50535C11.0138 4.86474 11.0193 5.44207 10.716 5.78952L7.13646 9.88256C6.83307 10.2294 6.33113 10.2195 6.02038 9.86064Z" fill="#219653"/>
<path d="M4.08256 6.62215C4.39485 6.26881 4.91018 6.2779 5.22841 6.64288L6.92865 8.59218C7.24689 8.95716 7.25206 9.54467 6.94027 9.89848C6.62798 10.2518 6.1126 10.2422 5.79437 9.87724L4.09418 7.92849C3.77595 7.56352 3.77072 6.97549 4.08256 6.62215Z" fill="#219653"/>
</svg>
