<svg width="130" height="111" viewBox="0 0 130 111" fill="none" xmlns="http://www.w3.org/2000/svg">
<path d="M95.322 108.561C95.322 113.551 81.5738 108.357 64.5666 108.357C47.5594 108.357 33.811 113.551 33.811 108.561C33.811 103.571 47.5594 94.6089 64.5666 94.6089C81.5738 94.507 95.322 103.571 95.322 108.561Z" fill="#2B3B4E"/>
<path d="M129.132 9.47105V94.2015C129.132 97.2567 126.688 99.7009 123.633 99.7009H5.49936C2.44417 99.7009 0 97.2567 0 94.2015V9.57293C0 6.51774 2.44417 4.07357 5.49936 4.07357H123.633C126.688 3.97173 129.132 6.51771 129.132 9.47105Z" fill="#324A5E"/>
<path d="M123.633 9.57294H5.49902V79.7403H123.633V9.57294Z" fill="#89D6F7"/>
<path d="M0 85.1378V94.0997C0 97.1549 2.44417 99.599 5.49936 99.599H123.633C126.688 99.599 129.132 97.1549 129.132 94.0997V85.1378H0Z" fill="#6A8397"/>
<path d="M68.1307 92.3684C68.1307 94.4052 66.5013 95.9328 64.5663 95.9328C62.5295 95.9328 61.002 94.3033 61.002 92.3684C61.002 90.4334 62.6314 88.804 64.5663 88.804C66.6031 88.804 68.1307 90.4334 68.1307 92.3684Z" fill="#324A5E"/>
<path d="M58.2523 92.3684C58.2523 93.3868 57.4375 94.2015 56.4191 94.2015C55.4007 94.2015 54.5859 93.3868 54.5859 92.3684C54.5859 91.35 55.4007 90.5353 56.4191 90.5353C57.4375 90.5353 58.2523 91.35 58.2523 92.3684Z" fill="#3EBBA3"/>
<path d="M52.549 92.3684C52.549 93.3868 51.7344 94.2015 50.716 94.2015C49.6976 94.2015 48.8828 93.3868 48.8828 92.3684C48.8828 91.35 49.6976 90.5353 50.716 90.5353C51.7344 90.5353 52.549 91.35 52.549 92.3684Z" fill="#3EBBA3"/>
<path d="M70.8804 92.3684C70.8804 93.3868 71.6951 94.2015 72.7135 94.2015C73.7319 94.2015 74.5467 93.3868 74.5467 92.3684C74.5467 91.35 73.7319 90.5353 72.7135 90.5353C71.6951 90.5353 70.8804 91.35 70.8804 92.3684Z" fill="#3EBBA3"/>
<path d="M76.5835 92.3684C76.5835 93.3868 77.3981 94.2015 78.4165 94.2015C79.4349 94.2015 80.2497 93.3868 80.2497 92.3684C80.2497 91.35 79.4349 90.5353 78.4165 90.5353C77.3981 90.5353 76.5835 91.35 76.5835 92.3684Z" fill="#F7B34C"/>
<g opacity="0.1">
<path opacity="0.1" d="M119.254 9.57294L117.217 30.3482L112.227 79.7403H17.4146L13.8503 43.9947L10.3877 9.67475H119.254V9.57294Z" fill="black"/>
</g>
<path d="M111.413 0.814697H18.1279V79.7403H111.413V0.814697Z" fill="white"/>
<path d="M17.4146 79.6385H18.9421V68.1306H30.7555V79.6385H32.2831V68.1306H44.0965V79.6385H45.6241V68.1306H57.4375V79.6385H58.965V68.1306H70.7784V79.6385H72.306V68.1306H84.1193V79.6385H85.6469V68.1306H97.4604V79.6385H98.988V68.1306H110.801V79.6385H112.329V27.3948V0.712889C112.329 0.305531 112.023 0 111.616 0H18.3311C17.9237 0 17.6182 0.305531 17.6182 0.712889V40.7358V79.6385H17.4146ZM110.7 66.7048H98.8861V54.8915H110.7V66.7048ZM110.7 53.3639H98.8861V41.5505H110.7V53.3639ZM110.7 40.0229H98.8861V28.2095H110.7V40.0229ZM98.8861 1.52759H110.7V13.3409H98.8861V1.52759ZM98.8861 14.8685H110.7V26.682H98.8861V14.8685ZM85.5451 1.52759H97.3585V13.3409H85.5451V1.52759ZM85.5451 14.8685H97.3585V26.682H85.5451V14.8685ZM85.5451 28.2095H97.3585V40.0229H85.5451V28.2095ZM85.5451 41.5505H97.3585V53.3639H85.5451V41.5505ZM85.5451 54.8915H97.3585V66.7048H85.5451V54.8915ZM72.2042 1.52759H84.0175V13.3409H72.2042V1.52759ZM72.2042 14.8685H84.0175V26.682H72.2042V14.8685ZM72.2042 28.2095H84.0175V40.0229H72.2042V28.2095ZM72.2042 41.5505H84.0175V53.3639H72.2042V41.5505ZM72.2042 54.8915H84.0175V66.7048H72.2042V54.8915ZM58.8632 1.52759H70.6766V13.3409H58.8632V1.52759ZM58.8632 14.8685H70.6766V26.682H58.8632V14.8685ZM58.8632 28.2095H70.6766V40.0229H58.8632V28.2095ZM58.8632 41.5505H70.6766V53.3639H58.8632V41.5505ZM58.8632 54.8915H70.6766V66.7048H58.8632V54.8915ZM45.5223 1.52759H57.3356V13.3409H45.5223V1.52759ZM45.5223 14.8685H57.3356V26.682H45.5223V14.8685ZM45.5223 28.2095H57.3356V40.0229H45.5223V28.2095ZM45.5223 41.5505H57.3356V53.3639H45.5223V41.5505ZM45.5223 54.8915H57.3356V66.7048H45.5223V54.8915ZM44.0965 66.7048H32.2831V54.8915H44.0965V66.7048ZM44.0965 53.3639H32.2831V41.5505H44.0965V53.3639ZM32.1813 1.52759H43.9946V13.3409H32.1813V1.52759ZM32.1813 14.8685H43.9946V26.682H32.1813V14.8685ZM32.1813 28.2095H43.9946V40.0229H32.1813V28.2095ZM30.7555 66.7048H18.9421V54.8915H30.7555V66.7048ZM30.7555 53.3639H18.9421V41.5505H30.7555V53.3639ZM18.9421 1.52759H30.7555V13.3409H18.9421V1.52759ZM18.9421 14.8685H30.7555V26.682H18.9421V14.8685ZM18.9421 28.2095H30.7555V40.0229H18.9421V28.2095Z" fill="#E7EAEF"/>
<path d="M18.1279 59.7798C14.9708 59.7798 12.4248 57.2338 12.4248 54.0768C12.4248 50.9197 14.9708 48.3738 18.1279 48.3738C21.2849 48.3738 23.8308 50.9197 23.8308 54.0768C23.8308 57.2338 21.2849 59.7798 18.1279 59.7798ZM18.1279 49.3922C15.5819 49.3922 13.4432 51.5308 13.4432 54.0768C13.4432 56.6228 15.5819 58.7614 18.1279 58.7614C20.6738 58.7614 22.8124 56.6228 22.8124 54.0768C22.8124 51.5308 20.7757 49.3922 18.1279 49.3922Z" fill="white"/>
<path d="M112.126 28.1077L111.413 28.8206L110.904 29.3298L85.4439 54.7896C85.2402 54.9933 85.0366 55.0951 84.731 55.0951C84.5274 55.0951 84.3237 55.0952 84.2218 54.9933L45.8283 29.3298L45.0137 28.7188L18.9427 54.7896C18.739 54.9933 18.5353 55.0951 18.2298 55.0951C17.9243 55.0951 17.7206 54.9933 17.5169 54.7896C17.3133 54.586 17.2114 54.2804 17.2114 54.0768C17.2114 53.7712 17.3133 53.5676 17.5169 53.3639L18.2298 52.651L44.1989 26.682C44.5044 26.3765 45.1155 26.2746 45.5228 26.5801L49.5964 29.3298L84.8329 52.8547L108.358 29.3298L111.006 26.682C111.209 26.4783 111.515 26.3765 111.719 26.3765C111.922 26.3765 112.228 26.4783 112.431 26.682C112.533 27.0893 112.533 27.8022 112.126 28.1077Z" fill="#324A5E"/>
<path d="M18.1279 59.2706C20.9964 59.2706 23.3217 56.9452 23.3217 54.0767C23.3217 51.2083 20.9964 48.8829 18.1279 48.8829C15.2595 48.8829 12.9341 51.2083 12.9341 54.0767C12.9341 56.9452 15.2595 59.2706 18.1279 59.2706Z" fill="#FF7058"/>
<path d="M18.1278 60.289C14.6652 60.289 11.9155 57.5393 11.9155 54.0767C11.9155 50.6142 14.6652 47.8646 18.1278 47.8646C21.5903 47.8646 24.34 50.6142 24.34 54.0767C24.34 57.5393 21.5903 60.289 18.1278 60.289ZM18.1278 49.9014C15.7855 49.9014 13.9523 51.7344 13.9523 54.0767C13.9523 56.4191 15.7855 58.2522 18.1278 58.2522C20.4701 58.2522 22.3032 56.4191 22.3032 54.0767C22.3032 51.8363 20.4701 49.9014 18.1278 49.9014Z" fill="#324A5E"/>
<path d="M44.81 33.8107C47.6785 33.8107 50.0038 31.4853 50.0038 28.6169C50.0038 25.7484 47.6785 23.4231 44.81 23.4231C41.9415 23.4231 39.6162 25.7484 39.6162 28.6169C39.6162 31.4853 41.9415 33.8107 44.81 33.8107Z" fill="#89D6F7"/>
<path d="M44.8098 34.8291C41.3473 34.8291 38.5977 32.0794 38.5977 28.6168C38.5977 25.1543 41.3473 22.4047 44.8098 22.4047C48.2724 22.4047 51.022 25.1543 51.022 28.6168C51.022 31.9775 48.2724 34.8291 44.8098 34.8291ZM44.8098 24.4415C42.4675 24.4415 40.6344 26.2745 40.6344 28.6168C40.6344 30.9592 42.4675 32.7923 44.8098 32.7923C47.1521 32.7923 48.9852 30.9592 48.9852 28.6168C48.9852 26.2745 47.1521 24.4415 44.8098 24.4415Z" fill="#324A5E"/>
<path d="M84.8329 59.1687C87.7014 59.1687 90.0267 56.8434 90.0267 53.9749C90.0267 51.1065 87.7014 48.7811 84.8329 48.7811C81.9645 48.7811 79.6392 51.1065 79.6392 53.9749C79.6392 56.8434 81.9645 59.1687 84.8329 59.1687Z" fill="#65C5B8"/>
<path d="M84.8328 60.1871C81.3702 60.1871 78.6206 57.4375 78.6206 53.9749C78.6206 50.5124 81.3702 47.7628 84.8328 47.7628C88.2953 47.7628 91.045 50.5124 91.045 53.9749C91.045 57.4375 88.1935 60.1871 84.8328 60.1871ZM84.8328 49.7995C82.4905 49.7995 80.6574 51.6326 80.6574 53.9749C80.6574 56.3172 82.4905 58.1503 84.8328 58.1503C87.1751 58.1503 89.0082 56.3172 89.0082 53.9749C89.0082 51.7345 87.0733 49.7995 84.8328 49.7995Z" fill="#324A5E"/>
<path d="M111.006 32.5886C113.874 32.5886 116.2 30.2633 116.2 27.3948C116.2 24.5264 113.874 22.201 111.006 22.201C108.137 22.201 105.812 24.5264 105.812 27.3948C105.812 30.2633 108.137 32.5886 111.006 32.5886Z" fill="#FFCF5C"/>
<path d="M111.006 33.607C107.543 33.607 104.793 30.8574 104.793 27.3949C104.793 23.9323 107.543 21.1826 111.006 21.1826C114.468 21.1826 117.218 23.9323 117.218 27.3949C117.218 30.8574 114.468 33.607 111.006 33.607ZM111.006 23.2194C108.663 23.2194 106.83 25.0526 106.83 27.3949C106.83 29.7372 108.663 31.5703 111.006 31.5703C113.348 31.5703 115.181 29.7372 115.181 27.3949C115.181 25.1544 113.348 23.2194 111.006 23.2194Z" fill="#324A5E"/>
</svg>
