<svg width="136" height="128" viewBox="0 0 136 128" fill="none" xmlns="http://www.w3.org/2000/svg">
<path d="M42.1002 127.2C35.5002 127.2 30.2002 121.8 30.2002 115.3V11.9C30.2002 5.30002 35.6002 0 42.1002 0H99.6002C106.2 0 111.5 5.40002 111.5 11.9V115.2C111.5 121.8 106.1 127.1 99.6002 127.1H42.1002V127.2Z" fill="#2B3B4E"/>
<path d="M109.4 11.9V115.2C109.4 120.6 105 124.9 99.7004 124.9H42.1004C36.7004 124.9 32.4004 120.5 32.4004 115.2V11.9C32.4004 6.50002 36.8004 2.20001 42.1004 2.20001H99.6004C105 2.20001 109.4 6.50002 109.4 11.9Z" fill="#324A5E"/>
<path d="M105 17H36.7998V111.2H105V17Z" fill="#E6E9EE"/>
<path d="M74.9004 114.9V121.2C74.9004 121.5 74.7004 121.7 74.4004 121.7L67.2004 120.8C67.0004 120.8 66.9004 120.6 66.9004 120.4V115.7C66.9004 115.5 67.0004 115.3 67.2004 115.3L74.4004 114.4C74.7004 114.4 74.9004 114.6 74.9004 114.9Z" fill="white"/>
<path d="M70.5006 114.9V121.3L70.1006 121.2V115L70.5006 114.9Z" fill="#324A5E"/>
<path d="M70.5006 114.9V121.3L70.1006 121.2V115L70.5006 114.9Z" fill="#324A5E"/>
<path d="M74.9004 117.8V118.4L66.9004 118.3V117.9L74.9004 117.8Z" fill="#324A5E"/>
<path d="M74.9004 117.8V118.4L66.9004 118.3V117.9L74.9004 117.8Z" fill="#324A5E"/>
<path d="M95.5998 115.2C94.3998 114 92.3998 114 91.1998 115.2C90.5998 115.8 90.2998 116.6 90.2998 117.4C90.2998 118 90.4998 118.7 90.8998 119.2L89.1998 120.9C88.9998 121.1 88.9998 121.5 89.1998 121.7C89.2998 121.8 89.3998 121.9 89.5998 121.9C89.7998 121.9 89.8998 121.8 89.9998 121.7L91.6998 120C92.1998 120.4 92.7998 120.6 93.4998 120.6C94.2998 120.6 95.0998 120.3 95.6998 119.7C96.2998 119.1 96.5998 118.3 96.5998 117.5C96.4998 116.6 96.1998 115.8 95.5998 115.2ZM94.8998 118.8C94.0998 119.6 92.7998 119.6 92.0998 118.8C91.6998 118.4 91.4998 117.9 91.4998 117.4C91.4998 116.9 91.6998 116.4 92.0998 116C92.4998 115.6 92.9998 115.4 93.4998 115.4C93.9998 115.4 94.4998 115.6 94.8998 116C95.5998 116.8 95.5998 118 94.8998 118.8Z" fill="white"/>
<path d="M50.5 118.5L46.4 121.3C46 121.6 45.5 121.3 45.5 120.8V115.2C45.5 114.8 46 114.5 46.4 114.7L50.5 117.5C50.8 117.9 50.8 118.3 50.5 118.5Z" fill="white"/>
<path d="M84.2006 9.59998C84.2006 10.4 83.5006 11.1 82.7006 11.1H59.1006C58.3006 11.1 57.6006 10.4 57.6006 9.59998C57.6006 8.79998 58.3006 8.09998 59.1006 8.09998H82.6006C83.5006 8.09998 84.2006 8.69998 84.2006 9.59998Z" fill="#2B3B4E"/>
<path d="M70.9002 80.7C66.4002 80.7 62.3002 79 59.3002 76.1L56.2002 79.2C64.8002 87.3 78.0002 87.6 86.2002 79.7L82.6002 76.1C79.5002 78.9 75.4002 80.7 70.9002 80.7Z" fill="#F7B34C"/>
<path d="M53.7998 63.6C53.7998 59.1 55.4998 55 58.3998 52L54.6998 48.3C46.8998 56.6 47.0998 69.8 55.1998 78.3L58.2998 75.2C55.5998 72.1 53.7998 68.1 53.7998 63.6Z" fill="#55BFE9"/>
<path d="M70.8996 46.5C75.3996 46.5 79.4996 48.2 82.4996 51.1L85.5996 48C76.9996 39.9 63.8996 39.6 55.5996 47.5L59.2996 51.2C62.2996 48.2 66.3996 46.5 70.8996 46.5Z" fill="#F05540"/>
<path d="M87.9994 63.6C87.9994 68.1 86.2994 72.2 83.3994 75.2L87.0994 78.9C94.8994 70.6 94.6994 57.4 86.5994 48.9L83.4994 52C86.1994 55 87.9994 59.1 87.9994 63.6Z" fill="#60CE7F"/>
<g opacity="0.1">
<g opacity="0.1">
<path opacity="0.1" d="M84.0998 51.2L83.2998 52C86.0998 55.1 87.8998 59.1 87.8998 63.6C87.8998 68.1 86.1998 72.2 83.2998 75.2L84.0998 76C87.0998 72.8 88.9998 68.4 88.9998 63.6C88.9998 58.8 87.1998 54.4 84.0998 51.2ZM70.8998 80.7C66.3998 80.7 62.2998 79 59.2998 76.1L58.4998 76.9C61.6998 79.9 66.0998 81.8 70.8998 81.8C75.6998 81.8 80.0998 79.9 83.2998 76.9L82.4998 76.1C79.4998 78.9 75.3998 80.7 70.8998 80.7ZM70.8998 46.5C75.3998 46.5 79.4998 48.2 82.4998 51.1L83.2998 50.3C80.0998 47.3 75.6998 45.4 70.8998 45.4C66.0998 45.4 61.6998 47.3 58.4998 50.3L59.2998 51.1C62.2998 48.2 66.3998 46.5 70.8998 46.5ZM57.6998 51.2C54.6998 54.4 52.7998 58.8 52.7998 63.6C52.7998 68.4 54.6998 72.8 57.6998 76L58.4998 75.2C55.6998 72.1 53.8998 68.1 53.8998 63.6C53.8998 59.1 55.5998 55 58.4998 52L57.6998 51.2Z" fill="black"/>
</g>
</g>
<path d="M135.9 23.7V45.7C135.9 47.3 134.6 48.6 133 48.6H93.3004C91.7004 48.6 90.4004 47.3 90.4004 45.7V23.7C90.4004 22.1 91.7004 20.8 93.3004 20.8H133.1C134.6 20.8 135.9 22.1 135.9 23.7Z" fill="#FF7058"/>
<path d="M111.7 46.1L95.3002 60.3C94.7002 60.8 93.7002 60.4 93.7002 59.6V46.2H111.7V46.1Z" fill="#FF7058"/>
<path d="M130.1 28.6H96.2C95.8 28.6 95.5 28.3 95.5 27.9C95.5 27.5 95.8 27.2 96.2 27.2H130.1C130.5 27.2 130.8 27.5 130.8 27.9C130.8 28.3 130.5 28.6 130.1 28.6Z" fill="white"/>
<path d="M130.1 35.4H96.2C95.8 35.4 95.5 35.1 95.5 34.7C95.5 34.3 95.8 34 96.2 34H130.1C130.5 34 130.8 34.3 130.8 34.7C130.8 35.1 130.5 35.4 130.1 35.4Z" fill="white"/>
<path d="M113.2 42.2H96.2996C95.8996 42.2 95.5996 41.9 95.5996 41.5C95.5996 41.1 95.8996 40.8 96.2996 40.8H113.2C113.6 40.8 113.9 41.1 113.9 41.5C113.9 41.8 113.6 42.2 113.2 42.2Z" fill="white"/>
<path d="M0 36.3V58.3C0 59.9 1.3 61.2 2.9 61.2H42.6C44.2 61.2 45.5 59.9 45.5 58.3V36.3C45.5 34.7 44.2 33.4 42.6 33.4H2.9C1.3 33.5 0 34.7 0 36.3Z" fill="#60CE7F"/>
<path d="M24.2998 58.8L40.6998 73C41.2998 73.5 42.2998 73.1 42.2998 72.3V58.9H24.2998V58.8Z" fill="#60CE7F"/>
<path d="M39.6996 41.3H5.79961C5.39961 41.3 5.09961 41 5.09961 40.6C5.09961 40.2 5.39961 39.9 5.79961 39.9H39.6996C40.0996 39.9 40.3996 40.2 40.3996 40.6C40.3996 41 40.0996 41.3 39.6996 41.3Z" fill="white"/>
<path d="M39.6996 48.1H5.79961C5.39961 48.1 5.09961 47.8 5.09961 47.4C5.09961 47 5.39961 46.7 5.79961 46.7H39.6996C40.0996 46.7 40.3996 47 40.3996 47.4C40.4996 47.7 40.0996 48.1 39.6996 48.1Z" fill="white"/>
<path d="M22.7996 54.8H5.79961C5.39961 54.8 5.09961 54.5 5.09961 54.1C5.09961 53.7 5.39961 53.4 5.79961 53.4H22.6996C23.0996 53.4 23.3996 53.7 23.3996 54.1C23.3996 54.5 23.1996 54.8 22.7996 54.8Z" fill="white"/>
<path d="M86.4996 63.7C86.4996 72.3559 79.4555 79.4 70.7996 79.4C62.1437 79.4 55.0996 72.3559 55.0996 63.7C55.0996 55.0441 62.1437 48 70.7996 48C79.4555 48 86.4996 55.0441 86.4996 63.7Z" fill="#E7EAEF"/>
<path d="M76.9477 58.0886C76.9477 61.8495 74.2017 66.446 70.7991 66.446C67.3964 66.446 64.6504 61.8495 64.6504 58.0886C64.6504 54.3278 67.3964 52.7757 70.7991 52.7757C74.2017 52.7757 76.9477 54.3278 76.9477 58.0886Z" fill="#324A5E"/>
<path d="M64.6504 64.297C64.6504 60.5362 67.3964 55.9396 70.7991 55.9396C74.2017 55.9396 76.9477 60.5362 76.9477 64.297C76.9477 68.0578 74.2017 69.6099 70.7991 69.6099C67.3964 69.6099 64.6504 68.0578 64.6504 64.297Z" fill="#324A5E"/>
<path d="M81.7835 72.1768V74.9228C78.9778 77.7285 75.0976 79.4 70.7995 79.4C66.5014 79.4 62.6808 77.6688 59.8154 74.9228V72.1768C59.8154 70.5054 63.2778 69.4905 67.5162 69.192C67.6356 69.192 67.755 69.192 67.8744 69.192C67.9938 69.192 68.1132 69.192 68.2326 69.192H68.2922C68.7101 69.192 69.128 69.1323 69.5459 69.1323C70.7995 69.0726 72.1128 69.1323 73.3664 69.192H73.4261C73.5455 69.192 73.6649 69.192 73.7843 69.192C73.9037 69.192 74.023 69.192 74.0827 69.192H74.1424C78.3212 69.4905 81.7835 70.5054 81.7835 72.1768Z" fill="#FF7058"/>
<path d="M74.0823 69.1323V69.9084C74.0823 71.7589 72.5899 73.1916 70.7393 73.1916C68.8888 73.1916 67.4561 71.6992 67.4561 69.9084V69.1323C67.6948 69.1323 67.8739 69.1323 68.1127 69.0726C69.8439 68.9532 71.6945 68.9532 73.4256 69.0726C73.6644 69.1323 73.9032 69.1323 74.0823 69.1323Z" fill="white"/>
<path d="M73.4858 69.1324V69.9084C73.4858 70.8039 73.0679 71.5799 72.4113 72.0575C71.9934 72.356 71.3964 72.5947 70.7995 72.5947C69.3071 72.5947 68.1729 71.4008 68.1729 69.9681V69.1921C68.4713 69.1324 68.7101 68.8936 68.7101 68.5951V64.894H72.9485V68.5951C72.8888 68.8339 73.1276 69.0727 73.4858 69.1324Z" fill="#FFD05B"/>
<g opacity="0.1">
<g opacity="0.1">
<path opacity="0.1" d="M73.4856 69.1323V69.9084C73.4856 70.8038 73.0678 71.5799 72.4111 72.0575L68.71 68.1772V64.8342H72.9484V68.5354C72.8887 68.8339 73.1275 69.0726 73.4856 69.1323Z" fill="black"/>
</g>
</g>
<path d="M77.0077 62.2076C76.7689 63.1031 76.351 63.7597 75.9929 63.7597C75.6944 63.7597 75.575 63.0434 75.7541 62.2076C75.9928 61.3122 76.4704 60.5958 76.7689 60.5958C77.1271 60.5958 77.2465 61.3719 77.0077 62.2076Z" fill="#F9B54C"/>
<path d="M64.591 62.2076C64.8297 63.1031 65.2476 63.7597 65.6058 63.7597C65.9043 63.7597 66.0237 63.0434 65.8446 62.2076C65.6058 61.3122 65.1282 60.5958 64.8297 60.5958C64.4716 60.5958 64.4119 61.3719 64.591 62.2076Z" fill="#F9B54C"/>
<path d="M76.053 63.2822C75.2173 67.5206 73.1279 68.4757 70.7998 68.4757C68.4716 68.4757 66.3823 67.5206 65.5465 63.2822C64.3526 57.1335 67.5165 55.7605 70.7998 54.9247C73.2473 60.4765 77.2469 57.1335 76.053 63.2822Z" fill="#FFD05B"/>
</svg>
