<svg width="112" height="127" viewBox="0 0 112 127" fill="none" xmlns="http://www.w3.org/2000/svg">
<path d="M78.1 116.97C78.1 122.37 73.6999 126.77 68.2999 126.77C62.8999 126.77 58.5 122.37 58.5 116.97C58.5 111.57 62.8999 107.17 68.2999 107.17C73.6999 107.17 78.1 111.57 78.1 116.97Z" fill="#2B3B4E"/>
<path d="M86.7998 90.8696V115.87C86.7998 117.87 85.1998 119.47 83.1998 119.47H53.3999C51.3999 119.47 49.7998 117.87 49.7998 115.87V90.8696H86.7998Z" fill="#324A5E"/>
<path d="M98.5001 74.0696C93.1001 79.3696 89.6001 86.2696 88.6001 93.6696C88.3001 95.7696 86.6001 97.3696 84.5001 97.3696H52.1001C50.0001 97.3696 48.2001 95.7696 48.0001 93.6696C46.9001 86.2696 43.5001 79.3696 38.1001 74.0696C30.1001 66.2696 25.1001 55.2696 25.1001 43.2696C25.1001 18.5696 45.8 -1.33039 70.8 0.0696112C92.8 1.26961 110.7 19.4696 111.5 41.4696C112 54.1696 106.9 65.7696 98.5001 74.0696Z" fill="#FFD05B"/>
<path d="M102.8 43.2696C102.8 62.3696 87.5998 77.5696 68.4998 77.5696C52.7998 77.5696 39.4998 67.3696 35.1998 53.0696C34.9998 52.4696 34.7998 51.7696 34.6998 51.1696C34.0998 48.6696 33.7998 45.9696 33.7998 43.2696C33.7998 24.4696 49.1998 8.9696 68.4998 8.9696C87.5998 8.9696 102.8 24.2696 102.8 43.2696Z" fill="#E7EAEF"/>
<path d="M68.3 71.3696C52.8 71.3696 40.1001 58.7696 40.1001 43.3696C40.1001 27.9696 52.7 15.3696 68.3 15.3696C83.9 15.3696 96.5001 27.9696 96.5001 43.3696C96.5001 58.7696 83.8 71.3696 68.3 71.3696ZM68.3 19.8696C55.3 19.8696 44.7001 30.3696 44.7001 43.2696C44.7001 56.1696 55.3 66.6696 68.3 66.6696C81.3 66.6696 91.9001 56.1696 91.9001 43.2696C91.9001 30.3696 81.3 19.8696 68.3 19.8696Z" fill="#BFCAD3"/>
<path d="M68.2999 59.5696C59.2999 59.5696 52 52.2696 52 43.2696C52 34.2696 59.2999 26.9696 68.2999 26.9696C77.2999 26.9696 84.6 34.2696 84.6 43.2696C84.6 52.2696 77.2999 59.5696 68.2999 59.5696ZM68.2999 31.8696C61.8999 31.8696 56.7999 36.9696 56.7999 43.3696C56.7999 49.7696 61.9999 54.8696 68.2999 54.8696C74.6999 54.8696 79.7999 49.7696 79.7999 43.3696C79.7999 36.9696 74.5999 31.8696 68.2999 31.8696Z" fill="#BFCAD3"/>
<path d="M68.2998 42.8696C67.9998 42.8696 67.7998 43.0696 67.7998 43.3696C67.7998 43.9696 68.7998 43.9696 68.7998 43.3696C68.7998 43.0696 68.5998 42.8696 68.2998 42.8696Z" fill="white"/>
<path d="M73.5 43.2696C73.5 46.1696 71.1999 48.4696 68.2999 48.4696C65.3999 48.4696 63 46.1696 63 43.2696C63 40.3696 65.3999 38.0696 68.2999 38.0696C71.1999 38.1696 73.5 40.4696 73.5 43.2696Z" fill="#FF7058"/>
<g opacity="0.1">
<g opacity="0.1">
<path opacity="0.1" d="M65.4998 44.5696C65.4998 43.8696 65.7997 43.1696 66.2997 42.6696L64.1998 41.8696C63.7998 42.2696 63.2998 42.5696 62.6998 42.7696L63.0998 44.1696L34.7998 51.1696C34.8998 51.8696 35.0998 52.4696 35.2998 53.0696L63.4998 46.1696L63.5998 46.7696C63.8998 46.6696 64.2998 46.5696 64.6998 46.4696C64.7998 45.7696 65.0998 45.0696 65.4998 44.5696Z" fill="black"/>
</g>
</g>
<path d="M17.1998 43.1696L13.9999 47.6696C13.7999 47.9696 13.4999 48.0696 13.0999 48.0696L2.19983 47.9696C1.89983 47.9696 1.69984 47.6696 1.89984 47.3696L4.99988 43.0696L1.99988 38.6696C1.79988 38.4696 1.99987 38.0696 2.29987 38.0696L13.1998 38.1696C13.4998 38.1696 13.8999 38.3696 14.0999 38.6696L17.1998 43.1696Z" fill="#FF7058"/>
<path d="M68.6 44.0696L64.1 46.9696C63.7 47.2696 63 46.9696 63 46.4696V44.4696L1 43.9696C0.5 43.9696 0.1 43.5696 0 43.0696C0 42.4696 0.4 41.9696 1 41.9696L63 42.4696V40.4696C63 39.9696 63.7 39.6696 64.1 39.9696L68.6 42.9696C68.9 43.3696 68.9 43.8696 68.6 44.0696Z" fill="#324A5E"/>
</svg>
