<svg width="88" height="127" viewBox="0 0 88 127" fill="none" xmlns="http://www.w3.org/2000/svg">
<path d="M63.4 63.9C63.4 64.5 62.6001 64.8 62.3001 64.3L62.2 62.2L62.1 64.3C61.7 64.7 61.3 64.6 61.1 64.3L61 62.6L60.9 64.3C60.6 64.7 60.2 64.6 60 64.4L59.9 62.2V64.2C59.9 64.5 59.6001 64.8 59.3001 64.8C59.0001 64.8 58.7 64.5 58.7 64.2V62.2L58.6 63.7C57.9 63.4 57.8 62.6 57.9 61.9C58.2 60 59 60.6 59 57.6H63V57.9C63 58.6 63.2 59.3 63.5 59.9C63.5 59.9 63.5 59.9 63.5 60C63.5 60.1 63.5 60.2 63.5 60.2L63.4 63.9Z" fill="#FFD05B"/>
<path d="M63.2004 58.1V59.3C63.2004 59.4 63.1004 59.5 63.0004 59.5H58.6004C58.5004 59.5 58.4004 59.4 58.4004 59.3V58.1H63.2004Z" fill="white"/>
<path d="M58.4004 63.6L58.5004 62.1V63.7C58.4004 63.7 58.4004 63.7 58.4004 63.6Z" fill="#FFD05B"/>
<path d="M59.8008 62.2L59.9008 64.3999C59.8008 64.2999 59.8008 64.3 59.8008 64.2V62.2Z" fill="#FFD05B"/>
<path d="M60.9008 62.5L61.0007 64.2C61.0007 64.1 60.9008 64.1 60.9008 64C60.9008 64 60.9008 64.1 60.8008 64.2L60.9008 62.5Z" fill="#FFD05B"/>
<path d="M62.3006 64.2999C62.2006 64.1999 62.2006 64.2 62.2006 64.1C62.2006 64.2 62.2006 64.1999 62.1006 64.2999L62.2006 62.2L62.3006 64.2999Z" fill="#FFD05B"/>
<path d="M59.9008 64.3C59.8008 64.2 59.8008 64.2 59.8008 64.1V62.1L59.9008 64.3Z" fill="#F9B54C"/>
<path d="M61.0007 64.3C61.0007 64.2 60.9008 64.2 60.9008 64.1C60.9008 64.2 60.8008 64.3 60.8008 64.3L60.9008 62.6L61.0007 64.3Z" fill="#F9B54C"/>
<path d="M62.3006 64.2999C62.2006 64.1999 62.2006 64.2 62.2006 64.1C62.2006 64.2 62.2006 64.1999 62.1006 64.2999L62.2006 62.2L62.3006 64.2999Z" fill="#F9B54C"/>
<path d="M58.5004 62.1V63.7H58.4004L58.5004 62.1Z" fill="#F9B54C"/>
<path d="M24.3998 63.9C24.3998 64.5 25.1998 64.8 25.4998 64.3L25.5998 62.2L25.6998 64.3C26.0998 64.7 26.4998 64.6 26.6998 64.3L26.7998 62.6L26.8998 64.3C27.1998 64.7 27.5998 64.6 27.7998 64.4L27.8998 62.2V64.2C27.9998 65.1 29.1998 65 29.1998 64.2V62.2L29.2998 63.7C29.9998 63.4 30.0998 62.6 29.9998 61.9C29.6998 60 28.8998 60.6 28.8998 57.6H24.8998C24.8998 58.4 24.7998 59 24.3998 59.9C24.3998 60 24.2998 60.1 24.2998 60.2L24.3998 63.9Z" fill="#FFD05B"/>
<path d="M24.5996 58.1V59.3C24.5996 59.4 24.6996 59.5 24.7996 59.5H29.1996C29.2996 59.5 29.3996 59.4 29.3996 59.3V58.1H24.5996Z" fill="white"/>
<path d="M29.3998 63.6L29.2998 62.1V63.7C29.3998 63.7 29.3998 63.7 29.3998 63.6Z" fill="#FFD05B"/>
<path d="M27.9994 62.2L27.8994 64.3999C27.9994 64.2999 27.9994 64.3 27.9994 64.2V62.2Z" fill="#FFD05B"/>
<path d="M26.8998 62.5L26.7998 64.2C26.7998 64.1 26.8998 64.1 26.8998 64C26.8998 64 26.8998 64.1 26.9998 64.2L26.8998 62.5Z" fill="#FFD05B"/>
<path d="M25.5996 64.2999C25.6996 64.1999 25.6996 64.2 25.6996 64.1C25.6996 64.2 25.6996 64.1999 25.7996 64.2999L25.6996 62.2L25.5996 64.2999Z" fill="#FFD05B"/>
<path d="M27.8994 64.3C27.9994 64.2 27.9994 64.2 27.9994 64.1V62.1L27.8994 64.3Z" fill="#F9B54C"/>
<path d="M26.7998 64.3C26.7998 64.2 26.8998 64.2 26.8998 64.1C26.8998 64.2 26.9998 64.3 26.9998 64.3L26.8998 62.6L26.7998 64.3Z" fill="#F9B54C"/>
<path d="M25.5996 64.2999C25.6996 64.1999 25.6996 64.2 25.6996 64.1C25.6996 64.2 25.6996 64.1999 25.7996 64.2999L25.6996 62.2L25.5996 64.2999Z" fill="#F9B54C"/>
<path d="M29.2998 62.1V63.7H29.3998L29.2998 62.1Z" fill="#F9B54C"/>
<path d="M40.6004 91.4L42.1004 69C42.1004 68.5 42.3004 68.1 42.7004 67.8C43.0004 67.5 43.4004 67.3 43.9004 67.3C44.8004 67.3 45.6004 68 45.7004 68.9L47.2004 91.3H55.9004V54.8H31.9004V91.3H40.6004V91.4Z" fill="#2B3B4E"/>
<path d="M47.4 22.7V27.7C47.4 29.6 45.9 31.2 44 31.2C42.1 31.2 40.5 29.6 40.5 27.7V22.7H47.4Z" fill="#FFD05B"/>
<path d="M63.4002 58.7C63.4002 58.8 63.3002 58.9 63.1002 58.9H58.4002C58.3002 58.9 58.2002 58.8 58.1002 58.7L56.9002 40.2V60C56.9002 60.8 56.3002 61.4 55.5002 61.4H32.2002C31.4002 61.4 30.8002 60.8 30.8002 60V40.2C30.8002 40.4 29.6002 58.9 29.4002 58.9H24.4002C24.3002 58.9 24.3002 58.8 24.3002 58.8C23.5002 41.4 26.5002 33.3 28.7002 30.1C29.6002 28.8 31.0002 27.9 32.6002 27.7C39.1002 26.6 37.6002 26.9 40.4002 26.4L43.8002 31.2L47.2002 26.4L49.6002 26.8L54.9002 27.7C56.5002 28 57.9002 28.8 58.8002 30.2C61.2002 33.3 64.2002 41.4 63.4002 58.7Z" fill="#324A5E"/>
<g opacity="0.1">
<path opacity="0.1" d="M47.4004 22.7V26L43.9004 31.2L40.4004 24.4V22.7H47.4004Z" fill="black"/>
</g>
<path d="M55.6007 12.1C55.5007 13.8 54.5007 15.2 53.4007 15.2C52.3007 15.2 51.5007 13.8 51.7007 12.1C51.9007 10.4 52.8007 9.19998 53.9007 9.19998C54.9007 9.09998 55.7007 10.4 55.6007 12.1Z" fill="#F9B54C"/>
<path d="M32.3005 12.1C32.4005 13.8 33.4004 15.2 34.5004 15.2C35.6004 15.2 36.4004 13.8 36.2004 12.1C36.0004 10.4 35.1004 9.19998 34.0004 9.19998C33.0004 9.09998 32.2005 10.4 32.3005 12.1Z" fill="#F9B54C"/>
<path d="M53.9 5.99999V15.1C53.9 19.4 51.2 23.1 47.4 24.5C41.3 26.9 34 22.4 34 15.1V3.79999H53.5C53.7 4.49999 53.9 5.19999 53.9 5.99999Z" fill="#FFD05B"/>
<path d="M53.9004 6H36.5004C36.4004 6 36.3004 6 36.2004 6C35.4004 6 34.7004 5.8 34.0004 5.5C33.4004 5.2 32.7004 4.8 32.2004 4.3C31.1004 3.2 30.4004 1.7 30.4004 0H47.8004C49.5004 0 51.0004 0.699999 52.1004 1.8C52.7004 2.4 53.2004 3.1 53.5004 3.9C53.7004 4.5 53.9004 5.2 53.9004 6Z" fill="#324A5E"/>
<path d="M48.2004 13.7C47.5004 13.7 46.9004 13.1 46.9004 12.5C46.9004 11.8 47.5004 11.2 48.2004 11.2C49.9004 11.2 49.9004 13.7 48.2004 13.7Z" fill="#324A5E"/>
<path d="M48.0008 12.5C47.4008 12.5 47.4008 11.6 48.0008 11.6C48.5008 11.6 48.5008 12.5 48.0008 12.5Z" fill="white"/>
<path d="M48.6004 10.6C48.0004 10.4 47.1004 10.5 46.4004 11C46.4004 11 46.5004 10.9 46.7004 10.7C47.2004 10.2 48.0004 10 48.6004 10C48.9004 10 49.2004 10.1 49.2004 10.1C49.7004 10.2 49.5004 11 49.0004 10.9C49.1004 10.8 48.8004 10.7 48.6004 10.6Z" fill="#324A5E"/>
<path d="M39.7004 13.7C39.0004 13.7 38.4004 13.1 38.4004 12.5C38.4004 11.8 39.0004 11.2 39.7004 11.2C41.3004 11.2 41.4004 13.7 39.7004 13.7Z" fill="#324A5E"/>
<path d="M39.4 12.5C39.2 12.5 39 12.3 39 12.1C39 11.9 39.2 11.7 39.4 11.7C40 11.6 40 12.5 39.4 12.5Z" fill="white"/>
<path d="M41.4 11.2C40.7 10.7 39.8999 10.6 39.1999 10.8C38.7999 10.9 38.5 11.2 38.3 10.8C37.8 9.99999 40.2 9.7 41.4 11.2Z" fill="#324A5E"/>
<path d="M53.8996 5.99999V11.2C51.7996 11.2 51.4997 5.79999 51.5997 3.79999H53.4996C53.6996 4.49999 53.8996 5.19999 53.8996 5.99999Z" fill="#324A5E"/>
<path d="M35.1004 10.5C34.9004 10.9 34.4004 11.2 33.9004 11.2V3.79999H36.2004C36.2004 3.79999 36.4004 8.29999 35.1004 10.5Z" fill="#324A5E"/>
<path d="M46.7996 18.5C46.6996 19.3 46.3996 19.9 45.8996 20.4C45.3996 20.9 44.6996 21.3 43.8996 21.3C42.3996 21.3 41.1996 20.1 41.0996 18.5H46.7996Z" fill="#F9B54C"/>
<path d="M45.9004 20.5C45.4004 21 44.7004 21.4 43.9004 21.4C43.1004 21.4 42.4004 21.1 41.9004 20.5C43.0004 19.3 44.8004 19.3 45.9004 20.5Z" fill="#FF7058"/>
<path d="M41.4004 91.6C41.4004 93.8 39.6004 93.4 36.7004 93.4C33.8004 93.4 30.9004 93.8 30.9004 91.6C30.9004 89.4 33.2004 87.6 36.1004 87.6C39.0004 87.6 41.4004 89.4 41.4004 91.6Z" fill="#2B3B4E"/>
<g opacity="0.1">
<path opacity="0.1" d="M41.4 91.6C41.4 93.8 39.1 93.4 36.2 93.4C33.3 93.4 31 93.8 31 91.6C31 89.4 33.3 87.6 36.2 87.6C39 87.6 41.4 89.4 41.4 91.6Z" fill="black"/>
</g>
<path d="M56.9004 91.6C56.9004 93.8 55.1004 93.4 52.2004 93.4C49.3004 93.4 46.4004 93.8 46.4004 91.6C46.4004 89.4 48.7004 87.6 51.6004 87.6C54.5004 87.6 56.9004 89.4 56.9004 91.6Z" fill="#2B3B4E"/>
<g opacity="0.1">
<path opacity="0.1" d="M56.9 91.6C56.9 93.8 54.6 93.4 51.7 93.4C48.8 93.4 46.5 93.8 46.5 91.6C46.5 89.4 48.8 87.6 51.7 87.6C54.5 87.6 56.9 89.4 56.9 91.6Z" fill="black"/>
</g>
<path d="M81.5002 100.2H55.2002V122.5H81.5002V100.2Z" fill="#FFD05B"/>
<path d="M87.8 124.7C87.8 125.3 87.6 125.8 87.2 126.2C86.8 126.6 86.3 126.8 85.7 126.8H2.20001C1.00001 126.8 0 125.8 0 124.6C0 124 0.200037 123.4 0.600037 123.1C1.00004 122.7 1.50004 122.5 2.10004 122.5H85.6C86.9 122.5 87.8 123.5 87.8 124.7Z" fill="#324A5E"/>
<path d="M32.5998 100.2H6.2998V122.5H32.5998V100.2Z" fill="#FF7058"/>
<g opacity="0.1">
<path opacity="0.1" d="M32.5 100.2H26.5V122.5H32.5V100.2Z" fill="black"/>
</g>
<g opacity="0.1">
<path opacity="0.1" d="M61.2002 100.2H55.2002V122.5H61.2002V100.2Z" fill="black"/>
</g>
<path d="M60.2002 93.5H27.7002V122.5H60.2002V93.5Z" fill="#60CE7F"/>
<path d="M50.4004 26.9L46.4004 37.6L46.0004 38.7L45.9004 39H43.9004L44.1004 38.5L44.3004 38L44.7004 36.9L48.5004 26.6L49.5004 26.7L49.8004 26.8L50.4004 26.9Z" fill="#FF7058"/>
<path d="M50.4004 26.8999L46.4004 37.6L46.0004 38.7L45.9004 39H44.9004L45.0004 38.7L45.2004 38.2999L45.6004 37.2L49.5004 26.7L49.8004 26.7999L50.4004 26.8999Z" fill="#F9533D"/>
<path d="M43.9004 39H41.9004L41.8004 38.7L41.4004 37.5L37.4004 26.8C39.3004 26.5 37.3004 26.8 39.2004 26.5L43.0004 36.8L43.4004 37.9L43.5004 38.3L43.9004 39Z" fill="#FF7058"/>
<path d="M42.9004 39H41.9004L41.8004 38.7L41.4004 37.5L37.4004 26.8C37.6004 26.8 38.2004 26.7 38.3004 26.7L42.2004 37.1L42.6004 38.2L42.7004 38.6L42.9004 39Z" fill="#F9533D"/>
<path d="M48.3 42C48.4 42.2 48.4 42.4 48.2 42.5L48 42.6L48.1 42.8C48.2 43 48.1 43.2 47.9 43.3L47.7 43.4V43.6C47.7 43.8 47.6 44 47.4 44.1H47.2V44.3C47.2 44.5 47 44.7 46.8 44.7H46.6V44.9C46.6 45.1 46.4 45.3 46.1 45.2H45.9L45.8 45.4C45.7 45.6 45.5 45.7 45.3 45.6L45.1 45.5L45 45.7C44.9 45.9 44.6 45.9 44.5 45.8L44.3 45.7L44.2 45.8C44 46 43.8 46 43.6 45.8L43.5 45.7L43.3 45.8C43.1 45.9 42.9 45.9 42.8 45.7L42.7 45.5L42.5 45.6C42.3 45.7 42.1 45.6 42 45.4L41.9 45.2H41.7C41.5 45.2 41.3 45.1 41.2 44.9V44.7H40.9C40.7 44.7 40.5 44.5 40.5 44.3V44.1H40.3C40.1 44.1 40 43.9 40 43.6V43.4L39.8 43.3C39.6 43.2 39.5 43 39.6 42.8L39.7 42.6L39.5 42.5C39.3 42.4 39.3 42.1 39.4 42L39.5 41.8L39.4 41.7C39.2 41.5 39.2 41.3 39.4 41.1L39.5 41L39.4 40.8C39.3 40.6 39.3 40.4 39.5 40.3L39.7 40.2L39.6 40C39.5 39.8 39.6 39.6 39.8 39.5L40 39.4V39.2C40 39 40.1 38.8 40.3 38.7H40.5V38.5C40.5 38.3 40.7 38.1 40.9 38.1H41.1V37.9C41.1 37.7 41.3 37.5 41.6 37.6H41.8L41.9 37.4C42 37.2 42.2 37.1 42.4 37.2L42.6 37.3L42.7 37.1C42.8 36.9 43.1 36.9 43.2 37L43.4 37.1L43.5 37C43.7 36.8 43.9 36.8 44.1 37L44.2 37.1L44.4 37C44.6 36.9 44.8 36.9 44.9 37.1L45 37.3L45.2 37.2C45.4 37.1 45.6 37.2 45.7 37.4L45.8 37.6H46C46.2 37.6 46.4 37.7 46.5 37.9V38.1H46.7C46.9 38.1 47.1 38.3 47.1 38.5V38.7H47.3C47.5 38.7 47.7 38.9 47.6 39.2V39.4L47.8 39.5C48 39.6 48.1 39.8 48 40L47.9 40.2L48.1 40.3C48.3 40.4 48.3 40.7 48.2 40.8L48.1 41L48.2 41.1C48.4 41.3 48.4 41.5 48.2 41.7L48.1 41.8L48.3 42Z" fill="#FFD05B"/>
<path d="M46 38.7C45.8 38.5 45.5 38.3 45.2 38.2C44.9 38.1 44.6 38 44.3 38C44.2 38 44.1 38 43.9 38C43.8 38 43.7 38 43.5 38C43.2 38 42.9 38.1 42.6 38.2C42.3 38.3 42 38.5 41.8 38.7C41 39.3 40.5 40.3 40.5 41.4C40.5 43.3 42 44.8 43.9 44.8C45.8 44.8 47.3 43.3 47.3 41.4C47.3 40.3 46.8 39.3 46 38.7ZM43.9 44.4C42.3 44.4 40.9 43.1 40.9 41.4C40.9 40.4 41.4 39.5 42.1 39C42.3 38.9 42.5 38.7 42.7 38.6C43 38.5 43.3 38.4 43.6 38.4C43.7 38.4 43.7 38.4 43.8 38.4C43.9 38.4 43.9 38.4 44 38.4C44.3 38.4 44.6 38.5 44.9 38.6C45.1 38.7 45.3 38.8 45.5 39C46.2 39.5 46.7 40.4 46.7 41.4C46.9 43 45.5 44.4 43.9 44.4Z" fill="#F9B54C"/>
<path d="M45.7004 41.1L44.7004 41.9L45.1004 43.1V43.2H45.0004L44.0004 42.4L43.0004 43.2V43.1L43.4004 41.9L42.4004 41.1V41C42.4004 41 42.4004 40.9 42.5004 40.9H43.8004L44.2004 39.7C44.2004 39.6 44.3004 39.6 44.3004 39.7L44.7004 40.9H46.0004C45.7004 40.9 45.7004 41 45.7004 41.1C45.7004 41 45.7004 41.1 45.7004 41.1Z" fill="#F9B54C"/>
<path d="M49.8002 26.8L47.2002 33.1C47.1002 33.4 46.8002 33.4 46.6002 33.3L44.0002 31.3L41.4002 33.3C41.2002 33.5 40.9002 33.4 40.8002 33.1L38.2002 26.8L40.6002 26.1L44.1002 31.3L47.5002 26.1L49.8002 26.8Z" fill="#E7EAEF"/>
</svg>
