<svg width="50" height="51" viewBox="0 0 50 51" fill="none" xmlns="http://www.w3.org/2000/svg">
<circle cx="25" cy="25.2614" r="25" fill="#E0E0E0"/>
<path d="M33.5965 30.4985L30.8167 27.7121C30.263 27.1593 29.346 27.1761 28.7731 27.7506L27.3726 29.154C27.2841 29.1051 27.1925 29.054 27.0962 28.9999C26.2118 28.5087 25.0014 27.8356 23.7277 26.558C22.4502 25.2778 21.7779 24.0627 21.2864 23.1757C21.2345 23.0818 21.1848 22.9912 21.1357 22.9051L22.0756 21.9645L22.5378 21.5008C23.1116 20.9254 23.1274 20.0067 22.575 19.4524L19.7952 16.6656C19.2428 16.1121 18.3255 16.1289 17.7516 16.7042L16.9682 17.4939L16.9896 17.5152C16.7269 17.8512 16.5074 18.2387 16.344 18.6565C16.1934 19.0543 16.0997 19.4338 16.0568 19.8142C15.6897 22.864 17.0803 25.6514 20.8541 29.4338C26.0706 34.6618 30.2744 34.2668 30.4558 34.2476C30.8508 34.2002 31.2293 34.1056 31.614 33.9559C32.0273 33.7941 32.4136 33.5744 32.7486 33.3117L32.7658 33.3269L33.5594 32.5479C34.1321 31.9727 34.1486 31.0537 33.5965 30.4985Z" fill="white"/>
</svg>
