<svg width="50" height="51" viewBox="0 0 50 51" fill="none" xmlns="http://www.w3.org/2000/svg">
<circle cx="25" cy="25.2612" r="25" fill="#E0E0E0"/>
<path d="M18.5357 22.9601C18.7381 23.0964 19.3482 23.5013 20.366 24.1746C21.3839 24.8479 22.1636 25.3663 22.7053 25.7299C22.7648 25.7697 22.8913 25.8563 23.0847 25.9899C23.2781 26.1235 23.4389 26.2315 23.5668 26.3138C23.6948 26.3961 23.8495 26.4885 24.0312 26.5907C24.2127 26.6929 24.3839 26.7697 24.5446 26.8206C24.7053 26.8719 24.8541 26.8973 24.991 26.8973H25.009C25.1459 26.8973 25.2947 26.8719 25.4555 26.8206C25.6161 26.7697 25.7874 26.6928 25.9688 26.5907C26.1504 26.4884 26.3051 26.3961 26.4331 26.3138C26.5611 26.2315 26.7217 26.1235 26.9152 25.9899C27.1086 25.8562 27.2352 25.7697 27.2947 25.7299C27.8422 25.3663 29.2352 24.443 31.4732 22.9599C31.9077 22.6703 32.2708 22.3208 32.5624 21.9117C32.8542 21.5027 33 21.0737 33 20.6249C33 20.2499 32.8585 19.9288 32.5758 19.6618C32.293 19.3947 31.9581 19.2612 31.5714 19.2612H18.4285C17.9702 19.2612 17.6175 19.4089 17.3705 19.7043C17.1235 19.9998 17 20.3691 17 20.8123C17 21.1702 17.1637 21.5581 17.4911 21.9757C17.8184 22.3933 18.1667 22.7215 18.5357 22.9601Z" fill="white"/>
<path d="M32.107 23.8719C30.1548 25.1332 28.6725 26.1134 27.6607 26.8124C27.3215 27.0509 27.0462 27.2371 26.8349 27.3706C26.6235 27.5041 26.3424 27.6404 25.9911 27.7796C25.64 27.9189 25.3127 27.9884 25.0091 27.9884H24.991C24.6875 27.9884 24.36 27.9189 24.0089 27.7796C23.6578 27.6404 23.3765 27.5041 23.1652 27.3706C22.9539 27.2371 22.6786 27.0509 22.3394 26.8124C21.5357 26.2499 20.0566 25.2696 17.9019 23.8719C17.5625 23.6562 17.2619 23.4089 17 23.1305V29.8974C17 30.2726 17.1398 30.5935 17.4196 30.8606C17.6994 31.1277 18.0357 31.2612 18.4286 31.2612H31.5715C31.9643 31.2612 32.3006 31.1277 32.5804 30.8606C32.8602 30.5934 33 30.2727 33 29.8974V23.1305C32.744 23.4031 32.4465 23.6504 32.107 23.8719Z" fill="white"/>
</svg>
