<svg width="50" height="51" viewBox="0 0 50 51" fill="none" xmlns="http://www.w3.org/2000/svg">
<circle cx="25" cy="25.2614" r="25" fill="#E0E0E0"/>
<path d="M25.2774 14.2659C20.8096 14.1154 17.1406 17.6922 17.1406 22.126C17.1406 27.1578 21.9694 30.8095 24.676 36.0612C24.8134 36.3278 25.1972 36.3282 25.3351 36.0616C27.7836 31.3361 31.9683 28.1674 32.7438 23.615C33.5468 18.9041 30.0534 14.427 25.2774 14.2659ZM25.0052 26.2455C22.7301 26.2455 20.8857 24.401 20.8857 22.126C20.8857 19.8509 22.7301 18.0065 25.0052 18.0065C27.2803 18.0065 29.1247 19.8509 29.1247 22.126C29.1247 24.401 27.2803 26.2455 25.0052 26.2455Z" fill="white"/>
</svg>
