<svg width="47" height="39" viewBox="0 0 47 39" fill="none" xmlns="http://www.w3.org/2000/svg">
<path d="M46.2986 5.37594C44.6085 6.12058 42.8076 6.61416 40.9301 6.85382C42.8616 5.69548 44.3358 3.87524 45.0289 1.68125C43.228 2.7597 41.2397 3.52146 39.1207 3.94657C37.4107 2.11777 34.9736 0.985107 32.3149 0.985107C27.1566 0.985107 23.0038 5.19049 23.0038 10.3459C23.0038 11.0877 23.0663 11.801 23.2197 12.48C15.4736 12.1006 8.61956 8.37163 4.01513 2.69123C3.21127 4.09207 2.73975 5.69548 2.73975 7.42157C2.73975 10.6626 4.40144 13.5356 6.87834 15.199C5.3814 15.1704 3.91287 14.7339 2.66874 14.0463C2.66874 14.0749 2.66874 14.112 2.66874 14.149C2.66874 18.6968 5.89837 22.4742 10.1335 23.3444C9.37513 23.5527 8.54854 23.6525 7.69072 23.6525C7.09422 23.6525 6.49203 23.6183 5.92678 23.4928C7.13398 27.1989 10.5596 29.9235 14.6329 30.012C11.4629 32.5027 7.43792 34.0034 3.08061 34.0034C2.31652 34.0034 1.58368 33.9691 0.85083 33.875C4.97806 36.5483 9.86937 38.0747 15.1442 38.0747C32.2893 38.0747 41.6629 23.8094 41.6629 11.4444C41.6629 11.0307 41.6487 10.6312 41.6288 10.2347C43.478 8.91657 45.0317 7.27036 46.2986 5.37594Z" fill="#03A9F4"/>
</svg>
