<svg width="43" height="25" viewBox="0 0 43 25" fill="none" xmlns="http://www.w3.org/2000/svg">
<path d="M21.077 24.7047H23.6054C23.6054 24.7047 24.3698 24.6205 24.7585 24.202C25.1182 23.8176 25.105 23.0964 25.105 23.0964C25.105 23.0964 25.0548 19.719 26.6311 19.2215C28.1835 18.7319 30.1777 22.4856 32.2909 23.9308C33.8883 25.0233 35.1023 24.7837 35.1023 24.7837L40.7542 24.7047C40.7542 24.7047 43.7111 24.5231 42.3093 22.2092C42.1956 22.0197 41.4921 20.4982 38.1068 17.3709C34.5628 14.0962 35.0388 14.628 39.3075 8.9657C41.9073 5.51727 42.9467 3.41137 42.6214 2.51109C42.312 1.65293 40.3998 1.87932 40.3998 1.87932L34.0417 1.91617C34.0417 1.91617 33.571 1.85299 33.2192 2.06095C32.878 2.26628 32.6585 2.74011 32.6585 2.74011C32.6585 2.74011 31.6509 5.40935 30.3073 7.67846C27.4747 12.4668 26.3401 12.7195 25.8773 12.422C24.8009 11.7297 25.0706 9.63696 25.0706 8.15229C25.0706 3.5114 25.7768 1.57659 23.6927 1.07644C22.9998 0.910598 22.492 0.800038 20.7226 0.781611C18.4534 0.757919 16.5306 0.789508 15.4436 1.31862C14.7189 1.67136 14.1609 2.45844 14.5021 2.50319C14.9226 2.55847 15.8747 2.75853 16.3799 3.44295C17.0331 4.3248 17.0093 6.30962 17.0093 6.30962C17.0093 6.30962 17.3849 11.7718 16.1339 12.451C15.2744 12.9169 14.0974 11.9666 11.5717 7.62055C10.2784 5.39618 9.29978 2.9349 9.29978 2.9349C9.29978 2.9349 9.112 2.47687 8.77612 2.23206C8.36882 1.9346 7.79755 1.83983 7.79755 1.83983L1.75157 1.87668C1.75157 1.87668 0.844409 1.90301 0.511166 2.29523C0.21495 2.64534 0.487363 3.36661 0.487363 3.36661C0.487363 3.36661 5.22153 14.3884 10.5799 19.9454C15.4965 25.0391 21.077 24.7047 21.077 24.7047Z" fill="#1E88E5"/>
</svg>
