<svg width="86" height="86" viewBox="0 0 86 86" fill="none" xmlns="http://www.w3.org/2000/svg">
<path d="M43 86C66.7482 86 86 66.7482 86 43C86 19.2518 66.7482 0 43 0C19.2518 0 0 19.2518 0 43C0 66.7482 19.2518 86 43 86Z" fill="#3C3E55"/>
<g clip-path="url(#clip0)">
<path d="M57.281 68H28.7187C27.9098 68 27.2539 67.3441 27.2539 66.5351V20.83C27.2539 19.267 28.5209 18 30.0839 18H57.281C58.09 18 58.7459 18.6559 58.7459 19.4648V66.5351C58.7459 67.3441 58.09 68 57.281 68Z" fill="#FFF5F5"/>
<path d="M58.7457 19.4648V66.5351C58.7457 67.3441 58.0898 68 57.2809 68H52.8193C54.3824 68 55.6498 66.7326 55.6498 65.1695V20.8305C55.6498 19.2674 54.3824 18 52.8193 18H57.2809C58.0898 18 58.7457 18.6559 58.7457 19.4648Z" fill="#EFE2DD"/>
<path d="M57.281 68H28.7187C27.9098 68 27.2539 67.3441 27.2539 66.5351V62.041H58.7459V66.5351C58.7459 67.3441 58.09 68 57.281 68Z" fill="#4398D1"/>
<path d="M58.7459 24.1902H27.2539V19.4648C27.2539 18.6559 27.9098 18 28.7187 18H57.281C58.09 18 58.7459 18.6559 58.7459 19.4648V24.1902Z" fill="#4398D1"/>
<path d="M58.7459 62.041V66.5351C58.7459 67.3441 58.09 68 57.2811 68H52.8135C54.3766 68 55.643 66.7326 55.643 65.1695V62.041H58.7459Z" fill="#2970A3"/>
<path d="M58.7459 19.4648V24.1902H55.643V20.8305C55.643 19.2674 54.3766 18 52.8135 18H57.2811C58.09 18 58.7459 18.6559 58.7459 19.4648Z" fill="#2970A3"/>
<path d="M45.2202 65.3267H40.7803C40.3758 65.3267 40.0479 64.9989 40.0479 64.5943C40.0479 64.1897 40.3758 63.8619 40.7803 63.8619H45.2202C45.6247 63.8619 45.9526 64.1897 45.9526 64.5943C45.9526 64.9989 45.6248 65.3267 45.2202 65.3267Z" fill="#2970A3"/>
<path d="M40.9314 22.0372H38.8628C38.4583 22.0372 38.1304 21.7094 38.1304 21.3048C38.1304 20.9002 38.4583 20.5724 38.8628 20.5724H40.9314C41.3359 20.5724 41.6639 20.9002 41.6639 21.3048C41.6639 21.7094 41.3359 22.0372 40.9314 22.0372Z" fill="#2970A3"/>
<path d="M47.1373 22.0372H43.3184C42.9139 22.0372 42.5859 21.7094 42.5859 21.3048C42.5859 20.9002 42.9139 20.5724 43.3184 20.5724H47.1373C47.5418 20.5724 47.8697 20.9002 47.8697 21.3048C47.8697 21.7094 47.5418 22.0372 47.1373 22.0372Z" fill="#2970A3"/>
<path d="M48.6994 51.5726H32.6852C32.0627 51.5726 31.5581 51.068 31.5581 50.4456V38.613C31.5581 37.9905 32.0627 37.4859 32.6852 37.4859H48.6993C49.3218 37.4859 49.8264 37.9905 49.8264 38.613V50.4457C49.8264 51.068 49.3218 51.5726 48.6994 51.5726Z" fill="#FFCD6B"/>
<path d="M43.8995 43.8131C43.1964 42.7241 41.9887 42.0664 40.6925 42.0664C39.3962 42.0664 38.1886 42.7241 37.4854 43.8131L32.4751 51.5727H40.6925H48.9099L43.8995 43.8131Z" fill="#FFAA00"/>
<path d="M40.6924 37.4859H32.5503L39.3762 44.6054C40.1105 45.3142 41.2742 45.3142 42.0086 44.6054L48.8345 37.4859H40.6924Z" fill="#FFE1A8"/>
<path d="M48.9048 41.1773C51.9623 41.1773 54.4409 38.6987 54.4409 35.6412C54.4409 32.5837 51.9623 30.1051 48.9048 30.1051C45.8473 30.1051 43.3687 32.5837 43.3687 35.6412C43.3687 38.6987 45.8473 41.1773 48.9048 41.1773Z" fill="#E8594A"/>
<path d="M54.4413 35.6405C54.4413 38.698 51.9626 41.1767 48.9051 41.1767C46.9344 41.1767 45.2047 40.1471 44.2241 38.5972C44.9704 38.9718 45.8135 39.1829 46.7042 39.1829C49.7617 39.1829 52.2404 36.7042 52.2404 33.6467C52.2404 32.5598 51.9271 31.5466 51.3865 30.6927C53.1978 31.6011 54.4413 33.4751 54.4413 35.6405Z" fill="#D65245"/>
<path d="M46.8423 34.5662V34.435C46.8423 32.87 47.8075 32.289 49.0352 32.289C50.2722 32.289 51.2468 32.8699 51.2468 34.435V37.0496C51.2468 38.6145 50.2534 39.1957 48.9789 39.1957C47.4889 39.1957 46.8423 38.2679 46.8423 37.4806C46.8423 37.0964 47.0297 36.9746 47.414 36.9746C47.7514 36.9746 48.0513 37.0682 48.0513 37.4338C48.0513 37.8742 48.4917 38.1272 49.0165 38.1272C49.6444 38.1272 50.0286 37.7899 50.0286 37.0496V36.0281C49.7193 36.3935 49.2695 36.506 48.7822 36.506C47.7231 36.506 46.8423 36.0469 46.8423 34.5662ZM50.0285 34.36C50.0285 33.6197 49.6536 33.2823 49.0352 33.2823C48.4261 33.2823 48.0605 33.6197 48.0605 34.36V34.4818C48.0605 35.2597 48.4261 35.5501 49.0445 35.5501C49.6443 35.5501 50.0285 35.2784 50.0285 34.5661V34.36Z" fill="#FFF5F5"/>
</g>
<defs>
<clipPath id="clip0">
<rect x="18" y="18" width="50" height="50" fill="white"/>
</clipPath>
</defs>
</svg>
