<svg width="86" height="86" viewBox="0 0 86 86" fill="none" xmlns="http://www.w3.org/2000/svg">
<path d="M43 86C66.7482 86 86 66.7482 86 43C86 19.2518 66.7482 0 43 0C19.2518 0 0 19.2518 0 43C0 66.7482 19.2518 86 43 86Z" fill="#3C3E55"/>
<g clip-path="url(#clip0)">
<path d="M22.3675 21.1447L22.3589 21.066H21.6521C16.7342 21.066 18.2065 26.6725 18.2065 26.6725H25.4893L26.6323 21.6135L22.3675 21.1447Z" fill="#D2D2D2"/>
<path d="M59.7517 59.3276C57.7911 47.4984 61.7561 21.0661 54.5792 21.0661H21.6521C30.8978 21.0661 21.6521 64.9339 30.406 64.9339H32.5072L33.639 64.4534L33.2839 64.3841L59.7517 59.3276Z" fill="#EFEDEE"/>
<path d="M30.4062 64.934C35.3241 64.934 33.8519 59.3276 33.8519 59.3276H66.7791C66.7791 59.3276 68.2514 64.934 63.3335 64.934H30.4062Z" fill="#D2D2D2"/>
<path d="M40.8307 30.0291H30.4061C29.9893 30.0291 29.6516 29.6913 29.6516 29.2746C29.6516 28.8579 29.9893 28.5201 30.4061 28.5201H40.8307C41.2475 28.5201 41.5852 28.8579 41.5852 29.2746C41.5852 29.6913 41.2475 30.0291 40.8307 30.0291Z" fill="#3A484A"/>
<path d="M55.0004 55.4105H49.4195C49.0027 55.4105 48.665 55.0727 48.665 54.656C48.665 54.2393 49.0027 53.9015 49.4195 53.9015H55.0004C55.4172 53.9015 55.7549 54.2393 55.7549 54.656C55.7549 55.0726 55.4172 55.4105 55.0004 55.4105Z" fill="#3A484A"/>
<path d="M53.5661 34.539H30.4061C29.9893 34.539 29.6516 34.2013 29.6516 33.7846C29.6516 33.3679 29.9893 33.0301 30.4061 33.0301H53.5661C53.9829 33.0301 54.3206 33.3679 54.3206 33.7846C54.3206 34.2013 53.9829 34.539 53.5661 34.539Z" fill="#3A484A"/>
<path d="M53.5661 38.642H30.4061C29.9893 38.642 29.6516 38.3042 29.6516 37.8875C29.6516 37.4708 29.9893 37.133 30.4061 37.133H53.5661C53.9829 37.133 54.3206 37.4708 54.3206 37.8875C54.3206 38.3042 53.9829 38.642 53.5661 38.642Z" fill="#3A484A"/>
<path d="M48.5297 42.745H30.4061C29.9893 42.745 29.6516 42.4072 29.6516 41.9905C29.6516 41.5738 29.9893 41.236 30.4061 41.236H48.5296C48.9464 41.236 49.2841 41.5738 49.2841 41.9905C49.2841 42.4072 48.9464 42.745 48.5297 42.745Z" fill="#3A484A"/>
<path d="M53.9826 30.1379C49.5493 34.5712 46.9457 39.796 46.5891 44.1553C50.9485 43.7989 56.1734 41.1952 60.6066 36.7619C65.0398 32.3286 67.6436 27.1038 68 22.7444C63.6408 23.101 58.4158 25.7046 53.9826 30.1379Z" fill="#F2C42C"/>
<path d="M44.0678 47.4312C43.8747 47.4312 43.6816 47.3576 43.5342 47.2102C43.2396 46.9156 43.2396 46.4378 43.5342 46.1432L61.1263 28.5512C61.421 28.2565 61.8987 28.2565 62.1934 28.5512C62.488 28.8458 62.488 29.3236 62.1934 29.6182L44.6014 47.2101C44.454 47.3576 44.2609 47.4312 44.0678 47.4312Z" fill="#E0B629"/>
</g>
<defs>
<clipPath id="clip0">
<rect x="18" y="18" width="50.0001" height="50.0001" fill="white"/>
</clipPath>
</defs>
</svg>
