<svg width="86" height="86" viewBox="0 0 86 86" fill="none" xmlns="http://www.w3.org/2000/svg">
<path d="M43 86C66.7482 86 86 66.7482 86 43C86 19.2518 66.7482 0 43 0C19.2518 0 0 19.2518 0 43C0 66.7482 19.2518 86 43 86Z" fill="#3C3E55"/>
<g clip-path="url(#clip0)">
<path d="M67.5763 67.1525V57.0534C67.5763 55.9474 67.0364 54.911 66.1305 54.2762L59.7584 49.8152C59.3312 49.5161 58.822 49.3559 58.2999 49.3559H53.1694L53.2542 63.8559C53.2855 65.3669 54.2729 66.6907 55.7118 67.1525H67.5763Z" fill="#FEC9A3"/>
<path d="M62.4915 67.1525H56.5593C54.6872 67.1525 53.1694 65.6347 53.1694 63.7627V60.3728H59.1017L62.4915 67.1525Z" fill="#FABD91"/>
<path d="M40.4577 23.9322C39.8738 23.9331 39.2967 24.0551 38.7628 24.2898V18H23.5086C20.7001 18 18.4238 20.2763 18.4238 23.0848V38.339H24.7137C23.7729 36.1966 24.7467 33.6966 26.8899 32.7559C29.0323 31.8152 31.5323 32.789 32.4729 34.9322C32.9501 36.0178 32.9501 37.2543 32.4729 38.3398H38.7628V32.05C40.9052 32.9907 43.4052 32.017 44.3458 29.8737C45.2864 27.7305 44.3128 25.2313 42.1695 24.2907C41.6306 24.0525 41.0475 23.9313 40.4577 23.9322Z" fill="#88B337"/>
<path d="M59.1015 23.0848C59.1015 20.2763 56.8253 18 54.0169 18H38.7626V24.2898C40.905 23.3491 43.405 24.3228 44.3456 26.4661C45.2863 28.6085 44.3126 31.1085 42.1693 32.0491C41.0838 32.5263 39.8473 32.5263 38.7617 32.0491V38.339H45.0516C44.1108 40.4813 45.0846 42.9813 47.2278 43.922C49.3702 44.8627 51.8702 43.8889 52.8108 41.7457C53.288 40.6601 53.288 39.4236 52.8108 38.3381H59.1015V23.0848Z" fill="#E8594A"/>
<path d="M59.1017 23.5686C54.2576 30.3076 45.5127 34.1355 38.7627 36.1958V38.339H45.0525C44.1118 40.4814 45.0855 42.9814 47.2288 43.922C49.3712 44.8628 51.8712 43.889 52.8118 41.7458C53.289 40.6602 53.289 39.4237 52.8118 38.3382H59.1017V23.5686Z" fill="#D65245"/>
<path d="M37.0679 45.1186C37.6517 45.1195 38.2289 45.2415 38.7628 45.4763V38.339H32.4729C33.4137 36.1966 32.4399 33.6966 30.2967 32.756C28.1534 31.8152 25.6543 32.789 24.7137 34.9322C24.2365 36.0178 24.2365 37.2543 24.7137 38.3398H18.4238V53.594C18.4238 56.4025 20.7001 58.6788 23.5086 58.6788H38.7628V53.2364C36.6204 54.1771 34.1204 53.2034 33.1798 51.0601C32.2391 48.9178 33.2128 46.4178 35.356 45.4771C35.895 45.239 36.478 45.1178 37.0679 45.1186Z" fill="#FDB62F"/>
<path d="M18.4239 53.5932C18.4239 56.4017 20.7002 58.678 23.5087 58.678H38.7629V53.2356C36.6307 54.1746 34.1408 53.2077 33.2018 51.0755C32.9841 50.5805 32.8629 50.0475 32.8459 49.5068C28.3026 51.5331 23.3976 52.6238 18.4238 52.7144V53.5932H18.4239Z" fill="#FFA719"/>
<path d="M61.3178 56.0509L55.9559 41.7288L50.0669 43.9466C51.7084 45.6186 51.683 48.3051 50.011 49.9457C48.3389 51.5864 45.6525 51.5618 44.0119 49.8897C43.1763 49.0381 42.7372 47.8745 42.8034 46.683L36.9152 48.9008L39.4237 55.6033C38.8415 55.5703 38.2584 55.6592 37.7119 55.8643C35.5237 56.7134 34.439 59.1754 35.2881 61.3634C36.1229 63.5134 38.5204 64.6058 40.6907 63.8227C41.2373 63.6168 41.7356 63.2981 42.1525 62.8888L44.0645 68L58.3458 62.6212C60.978 61.6246 62.3076 58.6855 61.3178 56.0509Z" fill="#4398D1"/>
<path d="M58.5524 48.6652C52.705 57.411 41.7432 60.4652 35.3228 61.5169C36.2236 63.6601 38.6914 64.6669 40.8346 63.766C41.3253 63.56 41.7728 63.2618 42.1523 62.8888L44.0644 68L58.3457 62.6212C60.977 61.6246 62.3058 58.6873 61.3178 56.0534L58.5524 48.6652Z" fill="#3E8FC9"/>
<path d="M40.4577 23.9322C39.8738 23.9331 39.2967 24.0551 38.7628 24.2898V23.0602C32.4171 28.9016 23.8196 32.1279 18.4238 33.7V38.3389H24.7137C23.7729 36.1966 24.7467 33.6966 26.8899 32.7559C29.0323 31.8152 31.5323 32.789 32.4729 34.9322C32.9501 36.0178 32.9501 37.2543 32.4729 38.3398H38.7628V32.05C40.9052 32.9907 43.4052 32.017 44.3458 29.8737C45.2864 27.7305 44.3128 25.2313 42.1695 24.2907C41.6306 24.0525 41.0475 23.9313 40.4577 23.9322Z" fill="#80A834"/>
<path d="M57.422 56.1509C56.611 55.3237 55.2831 55.3101 54.4559 56.1212C53.6288 56.9322 53.6152 58.2601 54.4262 59.0873C54.4364 59.0974 54.4458 59.1076 54.4559 59.117L57.4068 62.0678C57.4068 64.8763 59.6831 67.1526 62.4916 67.1526H67.5763V66.3052L57.422 56.1509Z" fill="#FEC9A3"/>
</g>
<defs>
<clipPath id="clip0">
<rect x="18" y="18" width="50" height="50" fill="white"/>
</clipPath>
</defs>
</svg>
