<svg width="86" height="86" viewBox="0 0 86 86" fill="none" xmlns="http://www.w3.org/2000/svg">
<path d="M43 86C66.7482 86 86 66.7482 86 43C86 19.2518 66.7482 0 43 0C19.2518 0 0 19.2518 0 43C0 66.7482 19.2518 86 43 86Z" fill="#3C3E55"/>
<g clip-path="url(#clip0)">
<path d="M47.4211 18H51.7645C60.6686 18 67.9539 25.2852 67.9539 34.1893C67.9539 40.6778 64.0849 46.3058 58.5404 48.8824C58.2682 49.0089 58.0218 49.1846 57.8118 49.399L51.9108 55.4249C51.7214 55.6183 51.3928 55.4842 51.3928 55.2135V51.1845C51.3928 50.7394 51.032 50.3787 50.587 50.3787H47.4212C38.5171 50.3787 31.2319 43.0935 31.2319 34.1894C31.2318 25.2852 38.517 18 47.4211 18Z" fill="#88B337"/>
<path d="M67.9543 34.2827C67.9543 37.5461 66.9874 40.593 65.3265 43.1483C63.6666 45.7026 61.3137 47.7654 58.5408 49.0617C58.2688 49.1887 58.0221 49.3649 57.8126 49.5805L51.9112 55.642C51.7219 55.8364 51.3936 55.7014 51.3936 55.4295V52.1025L55.4668 47.9185C55.6763 47.703 55.923 47.5267 56.195 47.3998C58.9669 46.1035 61.3208 44.0407 62.9807 41.4864C64.6416 38.9311 65.6085 35.8842 65.6085 32.6208C65.6085 27.6481 63.3624 23.1771 59.8391 20.1846C64.6798 23.0068 67.9543 28.2797 67.9543 34.2827Z" fill="#80A834"/>
<path d="M34.7062 37.6409H31.1818C23.9568 37.6409 18.0454 43.5523 18.0454 50.7773C18.0454 56.012 21.1487 60.5564 25.6062 62.6634C25.8776 62.7916 26.1249 62.9656 26.3349 63.1801L30.9655 67.9087C31.155 68.1021 31.4836 67.9679 31.4836 67.6972V64.7196C31.4836 64.2746 31.8443 63.9138 32.2893 63.9138H34.7062C41.9312 63.9138 47.8427 58.0024 47.8427 50.7774C47.8427 43.5522 41.9312 37.6409 34.7062 37.6409Z" fill="#FFC143"/>
<path d="M47.8426 50.777C47.8426 56.4114 44.2468 61.2471 39.2368 63.1024C42.7077 60.5864 44.9981 56.354 44.9981 51.5818C44.9981 47.7483 43.5205 44.2633 41.1394 41.7362C38.7584 39.2091 35.4738 37.6408 31.8608 37.6408H34.7062C38.3182 37.6408 41.6027 39.1184 43.9838 41.4995C46.3649 43.8805 47.8426 47.1651 47.8426 50.777Z" fill="#FFB509"/>
<path d="M34.8035 46.3412H25.77C25.3528 46.3412 25.0146 46.003 25.0146 45.5858C25.0146 45.1686 25.3528 44.8303 25.77 44.8303H34.8035C35.2207 44.8303 35.559 45.1685 35.559 45.5858C35.5589 46.003 35.2207 46.3412 34.8035 46.3412Z" fill="#D65245"/>
<path d="M40.1185 50.852H25.77C25.3528 50.852 25.0146 50.5138 25.0146 50.0966C25.0146 49.6795 25.3528 49.3412 25.77 49.3412H40.1186C40.5358 49.3412 40.874 49.6794 40.874 50.0966C40.874 50.5139 40.5357 50.852 40.1185 50.852Z" fill="#D65245"/>
<path d="M40.1185 55.363H25.77C25.3528 55.363 25.0146 55.0248 25.0146 54.6075C25.0146 54.1902 25.3528 53.852 25.77 53.852H40.1186C40.5358 53.852 40.874 54.1902 40.874 54.6075C40.874 55.0248 40.5357 55.363 40.1185 55.363Z" fill="#D65245"/>
<path d="M45.6882 45.5281C50.3223 45.5281 54.079 41.7714 54.079 37.1373C54.079 32.5032 50.3223 28.7465 45.6882 28.7465C41.0541 28.7465 37.2974 32.5032 37.2974 37.1373C37.2974 41.7714 41.0541 45.5281 45.6882 45.5281Z" fill="#E8594A"/>
<path d="M54.0792 37.1372C54.0792 41.7715 50.3227 45.528 45.6884 45.528C43.6901 45.528 41.8556 44.83 40.4146 43.663C41.3882 44.0582 42.4526 44.2761 43.568 44.2761C48.2022 44.2761 51.9588 40.5197 51.9588 35.8853C51.9588 33.2493 50.7433 30.8965 48.8418 29.3597C51.913 30.6057 54.0792 33.6182 54.0792 37.1372Z" fill="#D65245"/>
<path d="M43.1641 36.0695V35.9229C43.1641 34.1738 44.2429 33.5244 45.6149 33.5244C46.9976 33.5244 48.0869 34.1738 48.0869 35.9229V38.8452C48.0869 40.5943 46.9766 41.2437 45.5521 41.2437C43.8868 41.2437 43.1642 40.2068 43.1642 39.327C43.1642 38.8975 43.3736 38.7614 43.8031 38.7614C44.1802 38.7614 44.5152 38.8662 44.5152 39.2747C44.5152 39.767 45.0075 40.0497 45.594 40.0497C46.2959 40.0497 46.7253 39.6726 46.7253 38.8452V37.7035C46.3797 38.112 45.8769 38.2377 45.3322 38.2377C44.1486 38.2377 43.1641 37.7244 43.1641 36.0695ZM46.7252 35.8391C46.7252 35.0117 46.3062 34.6347 45.6148 34.6347C44.9341 34.6347 44.5256 35.0117 44.5256 35.8391V35.9754C44.5256 36.8447 44.9341 37.1694 45.6254 37.1694C46.2957 37.1694 46.7252 36.8657 46.7252 36.0696V35.8391Z" fill="#FFF5F5"/>
</g>
<defs>
<clipPath id="clip0">
<rect x="18" y="18" width="50" height="50" fill="white"/>
</clipPath>
</defs>
</svg>
