<svg width="86" height="86" viewBox="0 0 86 86" fill="none" xmlns="http://www.w3.org/2000/svg">
<path d="M43 86C66.7482 86 86 66.7482 86 43C86 19.2518 66.7482 0 43 0C19.2518 0 0 19.2518 0 43C0 66.7482 19.2518 86 43 86Z" fill="#D7F1FD"/>
<path d="M16.3349 67.4764L18.5444 69.6859L25.173 63.0573L22.9635 60.8478L16.3349 67.4764Z" fill="#FF9100"/>
<path d="M18.5445 60.8698L16.3352 58.6605L20.7538 54.2402L22.9631 56.4497L18.5445 60.8698Z" fill="#FF9100"/>
<path d="M31.7816 65.3316L29.5724 63.1223L25.1538 67.5409L27.363 69.7502L31.7816 65.3316Z" fill="#FF641A"/>
<path d="M39.9734 26.1643L33.9908 32.1453L39.5157 37.6687L49.4576 26.1643H39.9734Z" fill="#575F64"/>
<path d="M48.353 46.5075L53.8779 52.0308L59.8589 46.0498V36.5641L48.353 46.5075Z" fill="#32393F"/>
<path d="M35.7892 56.8604L33.9772 63.0912L35.9172 69.6849L46.4374 59.3104V46.0482L35.7892 56.8604Z" fill="#32393F"/>
<path d="M26.108 51.7435L36.2002 39.5829H26.716L16.3352 50.2197L22.958 52.0354L26.108 51.7435Z" fill="#575F64"/>
<path d="M53.933 25.547L57.0485 28.6623L57.1368 28.8834L60.5176 36.5505L33.9807 63.0873L29.5616 58.6683L29.8266 56.1936V56.1494L27.352 56.4588L22.9329 52.0395L49.4697 25.547H53.933Z" fill="#E0F4FF"/>
<path d="M58.0649 20.8406L61.6001 24.4202L64.2075 27.0274L64.9145 32.1536L60.4954 36.5727L49.4697 25.5471L53.8666 21.1058L58.0649 20.8406Z" fill="#BBDCFF"/>
<path d="M18.5454 69.6854L25.174 63.0568L24.0691 61.952L17.4406 68.5805L18.5454 69.6854Z" fill="#FF641A"/>
<path d="M29.8266 56.1936L57.1368 28.8834L60.5175 36.5505L33.9806 63.0874L29.5615 58.6683L29.8266 56.1936Z" fill="#BBDCFF"/>
<path d="M61.6001 24.4202L64.2075 27.0274L64.9145 32.1536L60.4954 36.5727L54.9716 31.0489L61.6001 24.4202Z" fill="#9ABADB"/>
<path d="M69.665 16.3552L64.9145 32.1535L53.8667 21.1057L69.665 16.3552Z" fill="#FF641A"/>
<path d="M69.6649 16.3552L64.9144 32.1535L59.3906 26.6295L69.6649 16.3552Z" fill="#F03800"/>
<path d="M27.3519 56.4593L29.5614 58.6688L38.4217 49.8085L36.2122 47.599L27.3519 56.4593Z" fill="#575F64"/>
<path d="M47.238 36.5733L49.4475 38.7828L53.8666 34.3637L51.6571 32.1542L47.238 36.5733Z" fill="#575F64"/>
<path d="M29.5621 58.6684L38.4224 49.8081L37.3176 48.7033L28.4573 57.5636L29.5621 58.6684Z" fill="#32393F"/>
<path d="M49.4481 38.7821L53.8672 34.363L52.7624 33.2582L48.3433 37.6773L49.4481 38.7821Z" fill="#32393F"/>
</svg>
