<svg width="86" height="86" viewBox="0 0 86 86" fill="none" xmlns="http://www.w3.org/2000/svg">
<path d="M43 86C66.7482 86 86 66.7482 86 43C86 19.2518 66.7482 0 43 0C19.2518 0 0 19.2518 0 43C0 66.7482 19.2518 86 43 86Z" fill="#D7F1FD"/>
<g clip-path="url(#clip0)">
<path d="M65.9053 52.2454L68.9537 32.7811C69.2707 30.8059 67.9267 28.9474 65.9514 28.6295L24.8176 22.0274C22.8424 21.7104 20.984 23.0544 20.667 25.0296L19.2053 34.1323V52.1322L65.9053 52.2454Z" fill="#054A7B"/>
<path d="M65.9514 28.6295L54.2685 26.7549C46.4219 38.7611 33.7373 47.0768 24.0096 52.1439L65.9052 52.2454L68.9536 32.7811C69.2706 30.8058 67.9266 28.9474 65.9514 28.6295Z" fill="#126099"/>
<path d="M20.6226 33.2267H62.2827C64.2832 33.2267 65.9053 34.8487 65.9053 36.8493V60.3963C65.9053 62.3969 64.2832 64.019 62.2827 64.019H20.6226C18.6221 64.0189 17 62.3969 17 60.3963V36.8493C17 34.8487 18.6221 33.2267 20.6226 33.2267Z" fill="#1D73AC"/>
<path d="M62.2827 33.2267H61.5581C53.0087 48.4046 37.034 58.8159 27.2819 64.0189H62.2827C64.2832 64.0189 65.9053 62.3968 65.9053 60.3962V36.8493C65.9053 34.8487 64.2832 33.2267 62.2827 33.2267Z" fill="#3E8CC7"/>
<path d="M30.5848 37.755H21.5283V45.0003H30.5848V37.755Z" fill="#FDB62F"/>
<path d="M24.2453 40.472H21.5283V42.2833H24.2453V40.472Z" fill="#FD7B2F"/>
<path d="M30.5849 40.472H27.8679V42.2833H30.5849V40.472Z" fill="#FD7B2F"/>
<path d="M56.8488 59.4906C59.3497 59.4906 61.3771 57.4632 61.3771 54.9623C61.3771 52.4615 59.3497 50.4341 56.8488 50.4341C54.3479 50.4341 52.3206 52.4615 52.3206 54.9623C52.3206 57.4632 54.3479 59.4906 56.8488 59.4906Z" fill="#FDB62F"/>
<path d="M51.4147 59.4906C53.9156 59.4906 55.943 57.4632 55.943 54.9623C55.943 52.4615 53.9156 50.4341 51.4147 50.4341C48.9138 50.4341 46.8865 52.4615 46.8865 54.9623C46.8865 57.4632 48.9138 59.4906 51.4147 59.4906Z" fill="#DE4C3C"/>
<path d="M26.0566 51.3397H20.6227V53.151H26.0566V51.3397Z" fill="#87CED9"/>
<path d="M35.1131 51.3397H29.6792V53.151H35.1131V51.3397Z" fill="#87CED9"/>
<path d="M44.1696 51.3397H38.7357V53.151H44.1696V51.3397Z" fill="#87CED9"/>
<path d="M44.1697 56.7738H20.6227V58.5851H44.1697V56.7738Z" fill="#87CED9"/>
<path d="M50.5093 37.755H48.698V41.3776H50.5093V37.755Z" fill="#87CED9"/>
<path d="M54.1318 37.755H52.3206V41.3776H54.1318V37.755Z" fill="#87CED9"/>
<path d="M57.7544 37.755H55.9431V41.3776H57.7544V37.755Z" fill="#87CED9"/>
<path d="M61.3771 37.755H59.5658V41.3776H61.3771V37.755Z" fill="#87CED9"/>
</g>
<defs>
<clipPath id="clip0">
<rect x="17" y="17" width="52" height="52" fill="white"/>
</clipPath>
</defs>
</svg>
