<svg width="86" height="86" viewBox="0 0 86 86" fill="none" xmlns="http://www.w3.org/2000/svg">
<path d="M43 86C66.7482 86 86 66.7482 86 43C86 19.2518 66.7482 0 43 0C19.2518 0 0 19.2518 0 43C0 66.7482 19.2518 86 43 86Z" fill="#D7F1FD"/>
<path d="M55.4138 36.2226V53.7186C55.4138 55.9713 53.5873 57.7978 51.3346 57.7978L37.2069 57.8565L28.931 66.96V57.8565H23.0792C20.8265 57.8565 19 56.0301 19 53.7774V36.2814C19 34.0287 20.8265 32.2022 23.0792 32.2022L51.3338 32.1434C53.5873 32.1434 55.4138 33.9699 55.4138 36.2226Z" fill="#86C5FF"/>
<path d="M37.2069 41.2468H26.4483C25.9907 41.2468 25.6207 40.8761 25.6207 40.4193C25.6207 39.9624 25.9907 39.5917 26.4483 39.5917H37.2069C37.6646 39.5917 38.0345 39.9624 38.0345 40.4193C38.0345 40.8761 37.6646 41.2468 37.2069 41.2468Z" fill="white"/>
<path d="M47.9656 46.2124H26.4483C25.9907 46.2124 25.6207 45.8416 25.6207 45.3848C25.6207 44.9279 25.9907 44.5572 26.4483 44.5572H47.9656C48.4232 44.5572 48.7931 44.9279 48.7931 45.3848C48.7931 45.8416 48.4232 46.2124 47.9656 46.2124Z" fill="white"/>
<path d="M47.9656 51.1779H26.4483C25.9907 51.1779 25.6207 50.8071 25.6207 50.3503C25.6207 49.8935 25.9907 49.5227 26.4483 49.5227H47.9656C48.4232 49.5227 48.7931 49.8935 48.7931 50.3503C48.7931 50.8071 48.4232 51.1779 47.9656 51.1779Z" fill="white"/>
<path d="M62.9208 23.0979L34.6662 23.04C32.4127 23.04 30.5862 24.8665 30.5862 27.1192V32.1856L51.3346 32.1426C53.5873 32.1426 55.4138 33.9691 55.4138 36.2226V51.4841L61.2069 57.8565V48.7531H62.9208C65.1735 48.7531 67 46.9266 67 44.6739V27.1779C67 24.9244 65.1735 23.0979 62.9208 23.0979Z" fill="#FF8F28"/>
</svg>
