<svg width="86" height="86" viewBox="0 0 86 86" fill="none" xmlns="http://www.w3.org/2000/svg">
<path d="M43 86C66.7482 86 86 66.7482 86 43C86 19.2518 66.7482 0 43 0C19.2518 0 0 19.2518 0 43C0 66.7482 19.2518 86 43 86Z" fill="#D7F1FD"/>
<path d="M57.9562 61.1724C55.1586 63.9699 51.6951 66.0094 47.8918 67.0988C44.0885 68.1882 40.0704 68.2917 36.216 67.3995C32.3617 66.5073 28.7978 64.6488 25.86 61.999C22.9222 59.3492 20.7071 55.9953 19.4234 52.253C18.1397 48.5108 17.8295 44.5034 18.5221 40.6082C19.2147 36.713 20.8873 33.0582 23.3824 29.9879C25.8775 26.9176 29.1129 24.5328 32.7841 23.0582C36.4553 21.5835 40.4414 21.0675 44.3671 21.5587L41.4729 44.6892L57.9562 61.1724Z" fill="#FF641A"/>
<path d="M63.2052 60.2993C66.7967 56.6213 69.0717 51.8592 69.6761 46.7542C70.2805 41.6491 69.1805 36.4875 66.5472 32.0725L46.527 44.0134L63.2052 60.2993Z" fill="white"/>
<path d="M64.538 28.8277C62.7474 26.0038 60.3702 23.5981 57.5678 21.7741C54.7654 19.95 51.6034 18.7501 48.2963 18.256L44.8513 41.3108L64.538 28.8277Z" fill="#3A9BF5"/>
</svg>
