<svg width="453" height="344" viewBox="0 0 453 344" fill="none" xmlns="http://www.w3.org/2000/svg">
<g filter="url(#filter0_d)">
<rect x="12" y="10" width="429.083" height="320.082" rx="5.76725" fill="white"/>
</g>
<path d="M418.61 31.9699L425.566 25.013M425.566 31.9698L418.609 25.0129" stroke="#4F4F4F" stroke-width="0.576725" stroke-linecap="round" stroke-linejoin="round"/>
<rect x="67.3657" y="259.722" width="318.352" height="31.1431" rx="1.73017" fill="#FEDC2D"/>
<path d="M211.169 274.947C211.107 275.603 210.865 276.116 210.442 276.485C210.02 276.851 209.458 277.034 208.757 277.034C208.267 277.034 207.835 276.918 207.46 276.688C207.088 276.454 206.801 276.123 206.598 275.695C206.396 275.267 206.29 274.77 206.281 274.204V273.629C206.281 273.049 206.384 272.538 206.59 272.096C206.795 271.654 207.09 271.313 207.473 271.074C207.858 270.834 208.303 270.715 208.807 270.715C209.486 270.715 210.032 270.899 210.446 271.268C210.86 271.637 211.101 272.158 211.169 272.831H210.104C210.054 272.389 209.924 272.071 209.716 271.876C209.51 271.679 209.207 271.581 208.807 271.581C208.343 271.581 207.985 271.751 207.735 272.092C207.487 272.43 207.36 272.927 207.354 273.583V274.128C207.354 274.792 207.473 275.299 207.709 275.648C207.949 275.998 208.298 276.172 208.757 276.172C209.176 276.172 209.492 276.078 209.703 275.889C209.914 275.701 210.048 275.387 210.104 274.947H211.169ZM211.836 274.622C211.836 274.174 211.925 273.772 212.102 273.414C212.28 273.053 212.529 272.777 212.85 272.586C213.171 272.392 213.54 272.295 213.957 272.295C214.573 272.295 215.073 272.493 215.456 272.89C215.842 273.287 216.05 273.814 216.081 274.47L216.086 274.711C216.086 275.161 215.998 275.564 215.824 275.919C215.652 276.274 215.404 276.548 215.08 276.742C214.759 276.937 214.387 277.034 213.965 277.034C213.32 277.034 212.803 276.82 212.415 276.392C212.029 275.961 211.836 275.388 211.836 274.673V274.622ZM212.863 274.711C212.863 275.181 212.96 275.55 213.154 275.817C213.348 276.082 213.619 276.214 213.965 276.214C214.311 276.214 214.58 276.079 214.772 275.809C214.966 275.539 215.063 275.143 215.063 274.622C215.063 274.16 214.963 273.794 214.763 273.524C214.566 273.253 214.297 273.118 213.957 273.118C213.621 273.118 213.355 273.252 213.158 273.52C212.961 273.784 212.863 274.181 212.863 274.711ZM218.502 273.883L219.372 272.379H220.512L219.114 274.63L220.559 276.949H219.427L218.514 275.387L217.606 276.949H216.466L217.91 274.63L216.516 272.379H217.648L218.502 273.883ZM225.214 274.711C225.214 275.418 225.053 275.982 224.732 276.405C224.411 276.824 223.98 277.034 223.44 277.034C222.938 277.034 222.537 276.869 222.236 276.54V278.707H221.209V272.379H222.156L222.198 272.844C222.499 272.478 222.909 272.295 223.427 272.295C223.985 272.295 224.421 272.503 224.736 272.92C225.055 273.334 225.214 273.91 225.214 274.647V274.711ZM224.192 274.622C224.192 274.166 224.1 273.804 223.917 273.536C223.737 273.269 223.478 273.135 223.14 273.135C222.72 273.135 222.419 273.308 222.236 273.655V275.682C222.422 276.037 222.726 276.214 223.148 276.214C223.475 276.214 223.73 276.084 223.913 275.822C224.099 275.557 224.192 275.157 224.192 274.622ZM228.817 276.949C228.772 276.862 228.732 276.72 228.699 276.523C228.372 276.864 227.972 277.034 227.499 277.034C227.04 277.034 226.665 276.903 226.375 276.641C226.085 276.379 225.94 276.055 225.94 275.67C225.94 275.182 226.12 274.809 226.481 274.55C226.844 274.288 227.362 274.157 228.035 274.157H228.665V273.857C228.665 273.621 228.599 273.432 228.466 273.291C228.334 273.148 228.133 273.076 227.862 273.076C227.628 273.076 227.437 273.135 227.288 273.253C227.138 273.369 227.064 273.517 227.064 273.697H226.037C226.037 273.446 226.12 273.213 226.287 272.996C226.453 272.776 226.678 272.604 226.962 272.48C227.25 272.357 227.569 272.295 227.921 272.295C228.456 272.295 228.883 272.43 229.201 272.7C229.519 272.968 229.683 273.345 229.691 273.832V275.893C229.691 276.305 229.749 276.633 229.864 276.878V276.949H228.817ZM227.689 276.21C227.892 276.21 228.082 276.161 228.259 276.062C228.439 275.964 228.575 275.831 228.665 275.665V274.804H228.111C227.731 274.804 227.445 274.87 227.254 275.002C227.062 275.135 226.967 275.322 226.967 275.564C226.967 275.761 227.031 275.919 227.161 276.037C227.293 276.153 227.469 276.21 227.689 276.21ZM234.638 276.949H233.611V275.104H231.833V276.949H230.806V272.379H231.833V274.284H233.611V272.379H234.638V276.949ZM238.587 272.379H239.609V276.949H238.587V273.9L236.796 276.949H235.774V272.379H236.796V275.429L238.587 272.379ZM244.298 273.194H242.815V276.949H241.789V273.194H240.323V272.379H244.298V273.194ZM246.089 273.832H247.094C247.469 273.832 247.796 273.897 248.074 274.026C248.353 274.156 248.564 274.338 248.708 274.571C248.854 274.805 248.928 275.077 248.928 275.387C248.928 275.857 248.761 276.234 248.429 276.519C248.097 276.803 247.655 276.947 247.103 276.949H245.063V272.379H246.089V273.832ZM246.089 274.656V276.13H247.09C247.341 276.13 247.538 276.068 247.681 275.944C247.828 275.817 247.901 275.639 247.901 275.408C247.901 275.177 247.829 274.995 247.686 274.863C247.545 274.728 247.353 274.659 247.111 274.656H246.089Z" fill="black"/>
<path d="M142.134 52.8525H140.574V50.8362H135.629V52.8468H134.029L133.939 49.4789H134.559C134.893 49.201 135.15 48.7936 135.33 48.2567C135.514 47.716 135.638 47.0477 135.702 46.2517L135.938 42.6359H141.311V49.4789H142.269L142.134 52.8525ZM136.496 49.4789H139.622V44.0045H137.544L137.403 46.1616C137.29 47.6071 136.988 48.7129 136.496 49.4789ZM142.798 47.7329C142.798 47.1284 142.915 46.5896 143.147 46.1165C143.38 45.6434 143.714 45.2773 144.15 45.0182C144.589 44.7592 145.098 44.6296 145.676 44.6296C146.499 44.6296 147.169 44.8812 147.687 45.3843C148.209 45.8875 148.5 46.5708 148.56 47.4344L148.571 47.8512C148.571 48.7861 148.31 49.537 147.788 50.104C147.266 50.6672 146.566 50.9488 145.688 50.9488C144.809 50.9488 144.107 50.6672 143.581 50.104C143.059 49.5408 142.798 48.7748 142.798 47.8061V47.7329ZM144.426 47.8512C144.426 48.4294 144.535 48.8725 144.753 49.1804C144.97 49.4845 145.282 49.6365 145.688 49.6365C146.082 49.6365 146.39 49.4864 146.611 49.186C146.833 48.8818 146.943 48.3975 146.943 47.7329C146.943 47.1659 146.833 46.7266 146.611 46.415C146.39 46.1034 146.078 45.9475 145.676 45.9475C145.278 45.9475 144.97 46.1034 144.753 46.415C144.535 46.7229 144.426 47.2016 144.426 47.8512ZM152.598 45.0802C153.379 45.0802 154.002 45.3393 154.468 45.8574C154.934 46.3756 155.166 47.0796 155.166 47.9695V48.0483C155.166 48.9269 154.907 49.6309 154.389 50.1603C153.871 50.6897 153.174 50.9545 152.3 50.9545C151.421 50.9545 150.721 50.6691 150.199 50.0984C149.681 49.5239 149.422 48.7448 149.422 47.7611V47.4907C149.429 46.1203 149.66 45.0483 150.114 44.2748C150.572 43.4976 151.26 43.0076 152.176 42.8048C152.656 42.6997 152.966 42.5964 153.105 42.4951C153.244 42.3899 153.313 42.2454 153.313 42.0614H154.631C154.631 42.6509 154.472 43.0939 154.153 43.3906C153.837 43.6872 153.274 43.9162 152.463 44.0777C151.982 44.1753 151.603 44.3649 151.325 44.6465C151.047 44.9281 150.86 45.3243 150.762 45.8349C151.28 45.3318 151.892 45.0802 152.598 45.0802ZM152.288 46.3981C151.902 46.3981 151.597 46.5276 151.376 46.7867C151.158 47.0458 151.049 47.4663 151.049 48.0483C151.049 48.5665 151.156 48.9626 151.37 49.2367C151.584 49.507 151.894 49.6422 152.3 49.6422C152.694 49.6422 152.998 49.5089 153.212 49.2423C153.426 48.9757 153.535 48.5833 153.539 48.0652V47.93C153.539 47.4307 153.428 47.0514 153.206 46.7923C152.989 46.5295 152.683 46.3981 152.288 46.3981ZM159.672 50.8362C159.597 50.6897 159.542 50.5076 159.509 50.2899C159.114 50.7292 158.602 50.9488 157.971 50.9488C157.374 50.9488 156.878 50.7761 156.484 50.4307C156.094 50.0852 155.899 49.6497 155.899 49.124C155.899 48.4782 156.137 47.9826 156.614 47.6372C157.094 47.2917 157.787 47.1171 158.692 47.1134H159.441V46.7642C159.441 46.4826 159.368 46.2573 159.221 46.0883C159.079 45.9194 158.852 45.8349 158.54 45.8349C158.266 45.8349 158.05 45.9006 157.892 46.032C157.738 46.1634 157.661 46.3437 157.661 46.5727H156.034C156.034 46.2198 156.143 45.8931 156.36 45.5927C156.578 45.2923 156.886 45.0577 157.284 44.8887C157.682 44.716 158.129 44.6296 158.624 44.6296C159.375 44.6296 159.971 44.8192 160.41 45.1985C160.853 45.5739 161.074 46.1034 161.074 46.7867V49.4282C161.078 50.0064 161.159 50.4438 161.317 50.7404V50.8362H159.672ZM158.326 49.7041C158.566 49.7041 158.788 49.6516 158.991 49.5464C159.193 49.4375 159.343 49.293 159.441 49.1128V48.0652H158.833C158.018 48.0652 157.584 48.3468 157.532 48.91L157.526 49.0058C157.526 49.2085 157.598 49.3756 157.74 49.507C157.883 49.6384 158.078 49.7041 158.326 49.7041ZM162.432 50.8362V44.7423H164.977C165.807 44.7423 166.444 44.8887 166.887 45.1816C167.33 45.4744 167.551 45.895 167.551 46.4432C167.551 46.7248 167.457 46.9782 167.27 47.2035C167.086 47.425 166.815 47.5959 166.459 47.716C166.894 47.7986 167.236 47.9619 167.484 48.206C167.735 48.4463 167.861 48.7429 167.861 49.0959C167.861 49.6628 167.647 50.0946 167.219 50.3912C166.795 50.6879 166.177 50.8362 165.366 50.8362H162.432ZM164.059 48.3074V49.5352H165.372C165.946 49.5352 166.233 49.3343 166.233 48.9325C166.233 48.5233 165.959 48.3149 165.411 48.3074H164.059ZM164.059 47.2148H165.068C165.638 47.2072 165.924 47.0233 165.924 46.6628C165.924 46.4413 165.845 46.2836 165.687 46.1897C165.533 46.0958 165.297 46.0489 164.977 46.0489H164.059V47.2148ZM174.158 44.7423V50.8362H172.53V46.0602H171.094L170.992 47.9413C170.929 48.9438 170.732 49.6741 170.401 50.1322C170.071 50.5902 169.579 50.8249 168.926 50.8362H168.374L168.357 49.5126L168.559 49.4957C168.852 49.4732 169.066 49.3005 169.201 48.9776C169.337 48.6547 169.421 48.1046 169.455 47.3274L169.568 44.7423H174.158ZM178.218 50.9488C177.325 50.9488 176.596 50.6747 176.033 50.1265C175.474 49.5784 175.194 48.8481 175.194 47.9357V47.778C175.194 47.1659 175.312 46.6196 175.549 46.139C175.785 45.6547 176.12 45.283 176.551 45.0239C176.987 44.761 177.483 44.6296 178.038 44.6296C178.872 44.6296 179.527 44.8925 180.004 45.4181C180.484 45.9438 180.725 46.6891 180.725 47.6541V48.3186H176.844C176.897 48.7166 177.054 49.0358 177.317 49.2761C177.584 49.5164 177.92 49.6365 178.325 49.6365C178.952 49.6365 179.442 49.4094 179.795 48.9551L180.595 49.8506C180.351 50.196 180.021 50.4663 179.604 50.6616C179.187 50.8531 178.725 50.9488 178.218 50.9488ZM178.033 45.9475C177.71 45.9475 177.447 46.0564 177.244 46.2742C177.045 46.492 176.917 46.8036 176.861 47.2091H179.125V47.0796C179.118 46.7191 179.02 46.4413 178.832 46.246C178.645 46.047 178.378 45.9475 178.033 45.9475ZM186.937 50.8362H185.304V48.4932H183.282V50.8362H181.654V44.7423H183.282V47.1866H185.304V44.7423H186.937V50.8362ZM191.871 44.7423H193.498V50.8362H191.871V47.074L189.832 50.8362H188.198V44.7423H189.832V48.4989L191.871 44.7423ZM197.548 50.9488C196.654 50.9488 195.926 50.6747 195.362 50.1265C194.803 49.5784 194.523 48.8481 194.523 47.9357V47.778C194.523 47.1659 194.642 46.6196 194.878 46.139C195.115 45.6547 195.449 45.283 195.881 45.0239C196.316 44.761 196.812 44.6296 197.368 44.6296C198.201 44.6296 198.856 44.8925 199.333 45.4181C199.814 45.9438 200.054 46.6891 200.054 47.6541V48.3186H196.174C196.226 48.7166 196.384 49.0358 196.647 49.2761C196.913 49.5164 197.249 49.6365 197.655 49.6365C198.282 49.6365 198.772 49.4094 199.125 48.9551L199.924 49.8506C199.68 50.196 199.35 50.4663 198.933 50.6616C198.516 50.8531 198.055 50.9488 197.548 50.9488ZM197.362 45.9475C197.039 45.9475 196.776 46.0564 196.573 46.2742C196.374 46.492 196.247 46.8036 196.19 47.2091H198.454V47.0796C198.447 46.7191 198.349 46.4413 198.162 46.246C197.974 46.047 197.707 45.9475 197.362 45.9475ZM209.139 50.8362H207.505V48.4932H205.483V50.8362H203.856V44.7423H205.483V47.1866H207.505V44.7423H209.139V50.8362ZM210.147 47.7329C210.147 47.1284 210.263 46.5896 210.496 46.1165C210.729 45.6434 211.063 45.2773 211.498 45.0182C211.938 44.7592 212.446 44.6296 213.025 44.6296C213.847 44.6296 214.517 44.8812 215.035 45.3843C215.557 45.8875 215.848 46.5708 215.908 47.4344L215.92 47.8512C215.92 48.7861 215.659 49.537 215.137 50.104C214.615 50.6672 213.915 50.9488 213.036 50.9488C212.157 50.9488 211.455 50.6672 210.93 50.104C210.408 49.5408 210.147 48.7748 210.147 47.8061V47.7329ZM211.774 47.8512C211.774 48.4294 211.883 48.8725 212.101 49.1804C212.319 49.4845 212.63 49.6365 213.036 49.6365C213.43 49.6365 213.738 49.4864 213.96 49.186C214.181 48.8818 214.292 48.3975 214.292 47.7329C214.292 47.1659 214.181 46.7266 213.96 46.415C213.738 46.1034 213.426 45.9475 213.025 45.9475C212.627 45.9475 212.319 46.1034 212.101 46.415C211.883 46.7229 211.774 47.2016 211.774 47.8512ZM217.029 50.8362V44.7423H219.575C220.405 44.7423 221.041 44.8887 221.484 45.1816C221.927 45.4744 222.149 45.895 222.149 46.4432C222.149 46.7248 222.055 46.9782 221.867 47.2035C221.683 47.425 221.413 47.5959 221.056 47.716C221.492 47.7986 221.833 47.9619 222.081 48.206C222.333 48.4463 222.458 48.7429 222.458 49.0959C222.458 49.6628 222.244 50.0946 221.816 50.3912C221.392 50.6879 220.774 50.8362 219.963 50.8362H217.029ZM218.657 48.3074V49.5352H219.969C220.544 49.5352 220.831 49.3343 220.831 48.9325C220.831 48.5233 220.557 48.3149 220.008 48.3074H218.657ZM218.657 47.2148H219.665C220.236 47.2072 220.521 47.0233 220.521 46.6628C220.521 46.4413 220.442 46.2836 220.284 46.1897C220.13 46.0958 219.894 46.0489 219.575 46.0489H218.657V47.2148ZM223.202 47.7329C223.202 47.1284 223.318 46.5896 223.551 46.1165C223.784 45.6434 224.118 45.2773 224.554 45.0182C224.993 44.7592 225.502 44.6296 226.08 44.6296C226.902 44.6296 227.572 44.8812 228.091 45.3843C228.612 45.8875 228.903 46.5708 228.963 47.4344L228.975 47.8512C228.975 48.7861 228.714 49.537 228.192 50.104C227.67 50.6672 226.97 50.9488 226.091 50.9488C225.213 50.9488 224.51 50.6672 223.985 50.104C223.463 49.5408 223.202 48.7748 223.202 47.8061V47.7329ZM224.83 47.8512C224.83 48.4294 224.938 48.8725 225.156 49.1804C225.374 49.4845 225.686 49.6365 226.091 49.6365C226.485 49.6365 226.793 49.4864 227.015 49.186C227.236 48.8818 227.347 48.3975 227.347 47.7329C227.347 47.1659 227.236 46.7266 227.015 46.415C226.793 46.1034 226.482 45.9475 226.08 45.9475C225.682 45.9475 225.374 46.1034 225.156 46.415C224.938 46.7229 224.83 47.2016 224.83 47.8512ZM234.128 46.0602H231.605V50.8362H229.977V44.7423H234.128V46.0602ZM234.443 47.7329C234.443 47.1284 234.56 46.5896 234.793 46.1165C235.025 45.6434 235.36 45.2773 235.795 45.0182C236.234 44.7592 236.743 44.6296 237.321 44.6296C238.144 44.6296 238.814 44.8812 239.332 45.3843C239.854 45.8875 240.145 46.5708 240.205 47.4344L240.216 47.8512C240.216 48.7861 239.955 49.537 239.434 50.104C238.912 50.6672 238.211 50.9488 237.333 50.9488C236.454 50.9488 235.752 50.6672 235.226 50.104C234.704 49.5408 234.443 48.7748 234.443 47.8061V47.7329ZM236.071 47.8512C236.071 48.4294 236.18 48.8725 236.398 49.1804C236.616 49.4845 236.927 49.6365 237.333 49.6365C237.727 49.6365 238.035 49.4864 238.256 49.186C238.478 48.8818 238.589 48.3975 238.589 47.7329C238.589 47.1659 238.478 46.7266 238.256 46.415C238.035 46.1034 237.723 45.9475 237.321 45.9475C236.923 45.9475 236.616 46.1034 236.398 46.415C236.18 46.7229 236.071 47.2016 236.071 47.8512ZM249.391 50.8362H247.758V46.0602H245.719V50.8362H244.091V44.7423H249.391V50.8362ZM250.382 47.7329C250.382 47.1284 250.499 46.5896 250.731 46.1165C250.964 45.6434 251.298 45.2773 251.734 45.0182C252.173 44.7592 252.682 44.6296 253.26 44.6296C254.083 44.6296 254.753 44.8812 255.271 45.3843C255.793 45.8875 256.084 46.5708 256.144 47.4344L256.155 47.8512C256.155 48.7861 255.894 49.537 255.372 50.104C254.85 50.6672 254.15 50.9488 253.272 50.9488C252.393 50.9488 251.691 50.6672 251.165 50.104C250.643 49.5408 250.382 48.7748 250.382 47.8061V47.7329ZM252.01 47.8512C252.01 48.4294 252.119 48.8725 252.337 49.1804C252.554 49.4845 252.866 49.6365 253.272 49.6365C253.666 49.6365 253.974 49.4864 254.195 49.186C254.417 48.8818 254.527 48.3975 254.527 47.7329C254.527 47.1659 254.417 46.7266 254.195 46.415C253.974 46.1034 253.662 45.9475 253.26 45.9475C252.862 45.9475 252.554 46.1034 252.337 46.415C252.119 46.7229 252.01 47.2016 252.01 47.8512ZM262.367 44.7423V50.8362H260.74V46.0602H259.303L259.202 47.9413C259.138 48.9438 258.941 49.6741 258.611 50.1322C258.28 50.5902 257.788 50.8249 257.135 50.8362H256.583L256.566 49.5126L256.769 49.4957C257.062 49.4732 257.276 49.3005 257.411 48.9776C257.546 48.6547 257.631 48.1046 257.665 47.3274L257.777 44.7423H262.367ZM265.364 46.5276H266.529C267.055 46.5276 267.517 46.6159 267.915 46.7923C268.313 46.9688 268.617 47.2223 268.827 47.5527C269.041 47.8793 269.148 48.2604 269.148 48.696C269.148 49.338 268.91 49.8562 268.433 50.2504C267.96 50.6409 267.314 50.8362 266.496 50.8362H263.73V44.7423H265.364V46.5276ZM265.364 47.8343V49.5352H266.518C266.841 49.5352 267.089 49.4601 267.262 49.3099C267.434 49.1597 267.521 48.9551 267.521 48.696C267.521 48.4332 267.436 48.2248 267.267 48.0708C267.098 47.9131 266.849 47.8343 266.518 47.8343H265.364ZM273.265 46.5389C273.265 46.3249 273.194 46.1597 273.051 46.0433C272.912 45.9231 272.713 45.8631 272.454 45.8631C272.188 45.8631 271.97 45.9194 271.801 46.032C271.636 46.1409 271.553 46.2967 271.553 46.4995H269.926C269.926 45.9475 270.155 45.4988 270.613 45.1534C271.071 44.808 271.657 44.6353 272.37 44.6353C273.155 44.6353 273.77 44.7892 274.217 45.0971C274.668 45.405 274.893 45.8424 274.893 46.4094C274.893 46.6797 274.81 46.9294 274.645 47.1584C274.484 47.3837 274.255 47.5639 273.958 47.6991C274.653 47.9432 275 48.4144 275 49.1128C275 49.6722 274.76 50.119 274.279 50.4532C273.802 50.7836 273.166 50.9488 272.37 50.9488C271.63 50.9488 271.022 50.7761 270.545 50.4307C270.068 50.0852 269.83 49.6197 269.83 49.0339H271.458C271.458 49.2404 271.549 49.4075 271.733 49.5352C271.917 49.6628 272.158 49.7267 272.454 49.7267C272.743 49.7267 272.969 49.6591 273.13 49.5239C273.292 49.3887 273.372 49.2123 273.372 48.9945C273.372 48.7279 273.295 48.5383 273.141 48.4257C272.988 48.3093 272.757 48.2511 272.449 48.2511H271.565V47.1922H272.505C273.012 47.1772 273.265 46.9594 273.265 46.5389ZM275.738 47.7329C275.738 47.1284 275.854 46.5896 276.087 46.1165C276.32 45.6434 276.654 45.2773 277.09 45.0182C277.529 44.7592 278.038 44.6296 278.616 44.6296C279.438 44.6296 280.108 44.8812 280.627 45.3843C281.148 45.8875 281.439 46.5708 281.5 47.4344L281.511 47.8512C281.511 48.7861 281.25 49.537 280.728 50.104C280.206 50.6672 279.506 50.9488 278.627 50.9488C277.749 50.9488 277.046 50.6672 276.521 50.104C275.999 49.5408 275.738 48.7748 275.738 47.8061V47.7329ZM277.366 47.8512C277.366 48.4294 277.474 48.8725 277.692 49.1804C277.91 49.4845 278.222 49.6365 278.627 49.6365C279.021 49.6365 279.329 49.4864 279.551 49.186C279.772 48.8818 279.883 48.3975 279.883 47.7329C279.883 47.1659 279.772 46.7266 279.551 46.415C279.329 46.1034 279.018 45.9475 278.616 45.9475C278.218 45.9475 277.91 46.1034 277.692 46.415C277.474 46.7229 277.366 47.2016 277.366 47.8512ZM282.62 50.8362V44.7423H285.166C285.996 44.7423 286.632 44.8887 287.075 45.1816C287.518 45.4744 287.74 45.895 287.74 46.4432C287.74 46.7248 287.646 46.9782 287.458 47.2035C287.274 47.425 287.004 47.5959 286.647 47.716C287.083 47.7986 287.424 47.9619 287.672 48.206C287.924 48.4463 288.05 48.7429 288.05 49.0959C288.05 49.6628 287.836 50.0946 287.408 50.3912C286.983 50.6879 286.366 50.8362 285.555 50.8362H282.62ZM284.248 48.3074V49.5352H285.56C286.135 49.5352 286.422 49.3343 286.422 48.9325C286.422 48.5233 286.148 48.3149 285.6 48.3074H284.248ZM284.248 47.2148H285.256C285.827 47.2072 286.112 47.0233 286.112 46.6628C286.112 46.4413 286.033 46.2836 285.876 46.1897C285.722 46.0958 285.485 46.0489 285.166 46.0489H284.248V47.2148ZM292.578 50.8362C292.503 50.6897 292.448 50.5076 292.414 50.2899C292.02 50.7292 291.508 50.9488 290.877 50.9488C290.28 50.9488 289.784 50.7761 289.39 50.4307C289 50.0852 288.804 49.6497 288.804 49.124C288.804 48.4782 289.043 47.9826 289.52 47.6372C290 47.2917 290.693 47.1171 291.598 47.1134H292.347V46.7642C292.347 46.4826 292.274 46.2573 292.127 46.0883C291.985 45.9194 291.757 45.8349 291.446 45.8349C291.172 45.8349 290.956 45.9006 290.798 46.032C290.644 46.1634 290.567 46.3437 290.567 46.5727H288.939C288.939 46.2198 289.048 45.8931 289.266 45.5927C289.484 45.2923 289.792 45.0577 290.19 44.8887C290.588 44.716 291.035 44.6296 291.53 44.6296C292.281 44.6296 292.876 44.8192 293.316 45.1985C293.759 45.5739 293.98 46.1034 293.98 46.7867V49.4282C293.984 50.0064 294.065 50.4438 294.222 50.7404V50.8362H292.578ZM291.232 49.7041C291.472 49.7041 291.694 49.6516 291.896 49.5464C292.099 49.4375 292.249 49.293 292.347 49.1128V48.0652H291.739C290.924 48.0652 290.49 48.3468 290.438 48.91L290.432 49.0058C290.432 49.2085 290.503 49.3756 290.646 49.507C290.789 49.6384 290.984 49.7041 291.232 49.7041ZM300.198 46.0489H298.244V50.8362H296.61V46.0489H294.69V44.7423H300.198V46.0489ZM303.465 50.9488C302.571 50.9488 301.843 50.6747 301.279 50.1265C300.72 49.5784 300.44 48.8481 300.44 47.9357V47.778C300.44 47.1659 300.558 46.6196 300.795 46.139C301.032 45.6547 301.366 45.283 301.798 45.0239C302.233 44.761 302.729 44.6296 303.284 44.6296C304.118 44.6296 304.773 44.8925 305.25 45.4181C305.731 45.9438 305.971 46.6891 305.971 47.6541V48.3186H302.09C302.143 48.7166 302.301 49.0358 302.564 49.2761C302.83 49.5164 303.166 49.6365 303.572 49.6365C304.199 49.6365 304.689 49.4094 305.042 48.9551L305.841 49.8506C305.597 50.196 305.267 50.4663 304.85 50.6616C304.433 50.8531 303.972 50.9488 303.465 50.9488ZM303.279 45.9475C302.956 45.9475 302.693 46.0564 302.49 46.2742C302.291 46.492 302.164 46.8036 302.107 47.2091H304.371V47.0796C304.364 46.7191 304.266 46.4413 304.079 46.246C303.891 46.047 303.624 45.9475 303.279 45.9475ZM312.2 44.7423V50.8362H310.572V46.0602H309.136L309.035 47.9413C308.971 48.9438 308.774 49.6741 308.443 50.1322C308.113 50.5902 307.621 50.8249 306.968 50.8362H306.416L306.399 49.5126L306.602 49.4957C306.895 49.4732 307.109 49.3005 307.244 48.9776C307.379 48.6547 307.463 48.1046 307.497 47.3274L307.61 44.7423H312.2ZM318.536 44.7423V50.8362H316.914V48.7298H315.883L314.712 50.8362H313.062L314.391 48.4538C314.027 48.2848 313.745 48.0558 313.546 47.7667C313.351 47.4776 313.253 47.149 313.253 46.7811C313.253 46.1916 313.48 45.7091 313.935 45.3336C314.393 44.9544 315.005 44.7573 315.771 44.7423H318.536ZM315.799 47.5921H316.914V46.0489H315.855C315.566 46.0489 315.331 46.1259 315.151 46.2798C314.971 46.43 314.881 46.614 314.881 46.8318C314.881 47.0495 314.967 47.2298 315.14 47.3725C315.313 47.5151 315.532 47.5883 315.799 47.5921Z" fill="black"/>
<rect x="233.751" y="97.3737" width="151.679" height="27.6828" rx="2.59526" stroke="#E0E0E0" stroke-width="0.576725"/>
<path d="M249.271 107.473H249.402C249.867 107.475 250.291 107.584 250.674 107.798C251.057 108.012 251.354 108.308 251.565 108.685C251.779 109.059 251.886 109.479 251.886 109.944C251.886 110.411 251.779 110.835 251.565 111.215C251.351 111.595 251.055 111.892 250.678 112.106C250.301 112.318 249.881 112.426 249.419 112.432H249.271V113.26H248.486V112.432H248.368C247.897 112.432 247.469 112.325 247.083 112.111C246.7 111.897 246.402 111.601 246.188 111.224C245.977 110.846 245.871 110.422 245.871 109.952C245.871 109.482 245.977 109.058 246.188 108.681C246.402 108.303 246.7 108.008 247.083 107.794C247.469 107.58 247.897 107.473 248.368 107.473H248.486V106.602H249.271V107.473ZM248.368 108.11C247.838 108.11 247.419 108.274 247.109 108.6C246.802 108.924 246.648 109.375 246.648 109.952C246.648 110.532 246.802 110.984 247.109 111.308C247.416 111.629 247.838 111.79 248.376 111.79H248.486V108.11H248.368ZM249.271 108.11V111.79H249.39C249.928 111.79 250.347 111.625 250.649 111.295C250.953 110.963 251.105 110.513 251.105 109.944C251.105 109.38 250.953 108.934 250.649 108.605C250.347 108.275 249.922 108.11 249.373 108.11H249.271ZM255.743 108.436H256.524V113.006H255.743V109.673L253.635 113.006H252.853V108.436H253.635V111.773L255.743 108.436ZM261.525 108.436V113.006H260.74V109.082H259.185L259.092 110.793C259.042 111.578 258.909 112.14 258.695 112.478C258.484 112.816 258.148 112.992 257.686 113.006H257.373V112.318L257.597 112.301C257.851 112.273 258.032 112.126 258.142 111.861C258.252 111.597 258.322 111.107 258.353 110.391L258.438 108.436H261.525ZM265.737 108.436H266.518V113.006H265.737V109.673L263.629 113.006H262.848V108.436H263.629V111.773L265.737 108.436ZM271.511 113.006H270.73V109.082H268.626V113.006H267.84V108.436H271.511V113.006ZM276.504 113.006H275.723V109.082H273.619V113.006H272.833V108.436H276.504V113.006ZM277.552 110.679C277.552 110.231 277.639 109.828 277.813 109.471C277.991 109.113 278.236 108.837 278.548 108.643C278.864 108.448 279.223 108.351 279.626 108.351C280.248 108.351 280.751 108.567 281.134 108.997C281.519 109.428 281.712 110.001 281.712 110.717V110.772C281.712 111.217 281.626 111.616 281.455 111.971C281.286 112.323 281.042 112.598 280.724 112.795C280.408 112.992 280.045 113.091 279.634 113.091C279.014 113.091 278.512 112.875 278.126 112.444C277.743 112.013 277.552 111.443 277.552 110.734V110.679ZM278.337 110.772C278.337 111.278 278.454 111.685 278.688 111.992C278.924 112.299 279.24 112.453 279.634 112.453C280.031 112.453 280.346 112.298 280.58 111.988C280.814 111.676 280.931 111.239 280.931 110.679C280.931 110.177 280.811 109.772 280.572 109.462C280.335 109.15 280.02 108.993 279.626 108.993C279.24 108.993 278.929 109.147 278.692 109.454C278.456 109.761 278.337 110.2 278.337 110.772ZM282.764 113.006V108.436H284.547C285.155 108.436 285.621 108.543 285.945 108.757C286.271 108.968 286.435 109.279 286.435 109.69C286.435 109.901 286.371 110.093 286.245 110.265C286.118 110.434 285.931 110.563 285.683 110.653C285.959 110.718 286.18 110.845 286.346 111.033C286.515 111.222 286.599 111.447 286.599 111.709C286.599 112.129 286.445 112.45 286.135 112.672C285.828 112.895 285.393 113.006 284.83 113.006H282.764ZM283.545 111V112.377H284.838C285.165 112.377 285.408 112.316 285.569 112.195C285.732 112.074 285.814 111.904 285.814 111.684C285.814 111.228 285.479 111 284.808 111H283.545ZM283.545 110.375H284.555C285.287 110.375 285.653 110.16 285.653 109.732C285.653 109.304 285.307 109.083 284.614 109.069H283.545V110.375Z" fill="#BDBDBD"/>
<path d="M237.346 82.5559H237.417C237.866 82.5559 238.272 82.6557 238.635 82.8555C239 83.0526 239.284 83.3339 239.486 83.6992C239.689 84.0645 239.79 84.4798 239.79 84.945C239.79 85.6336 239.569 86.1961 239.128 86.6324C238.689 87.0687 238.095 87.2868 237.346 87.2868V88.0201H236.206V87.2868H236.131C235.677 87.2868 235.267 87.1896 234.901 86.9951C234.536 86.798 234.252 86.522 234.05 86.1672C233.85 85.8123 233.75 85.4076 233.75 84.9529C233.75 84.4929 233.85 84.0816 234.05 83.7189C234.25 83.3562 234.529 83.0736 234.89 82.8713C235.25 82.6663 235.652 82.5611 236.096 82.5559H236.206V81.8068H237.346V82.5559ZM236.131 83.5375C235.74 83.5375 235.431 83.6611 235.205 83.9081C234.982 84.1552 234.87 84.5034 234.87 84.9529C234.87 85.3734 234.982 85.7046 235.205 85.9464C235.428 86.1856 235.742 86.3051 236.147 86.3051H236.206V83.5375H236.131ZM237.346 83.5375V86.3051H237.425C237.811 86.3051 238.114 86.1842 238.335 85.9424C238.559 85.698 238.67 85.3655 238.67 84.945C238.67 84.5061 238.561 84.1618 238.343 83.9121C238.125 83.6624 237.812 83.5375 237.405 83.5375H237.346ZM242.964 87.7836C242.911 87.6811 242.873 87.5536 242.849 87.4012C242.573 87.7087 242.215 87.8624 241.773 87.8624C241.355 87.8624 241.008 87.7415 240.732 87.4997C240.459 87.2579 240.322 86.953 240.322 86.5851C240.322 86.133 240.489 85.7861 240.823 85.5443C241.159 85.3025 241.644 85.1802 242.278 85.1776H242.802V84.9332C242.802 84.7361 242.751 84.5784 242.648 84.4601C242.548 84.3418 242.389 84.2827 242.171 84.2827C241.979 84.2827 241.828 84.3287 241.718 84.4207C241.61 84.5126 241.556 84.6388 241.556 84.7991H240.417C240.417 84.5521 240.493 84.3234 240.646 84.1131C240.798 83.9029 241.014 83.7386 241.292 83.6203C241.571 83.4994 241.883 83.439 242.23 83.439C242.756 83.439 243.173 83.5717 243.48 83.8372C243.79 84.1 243.945 84.4706 243.945 84.9489V86.798C243.948 87.2027 244.005 87.5089 244.115 87.7165V87.7836H242.964ZM242.021 86.9911C242.19 86.9911 242.345 86.9543 242.487 86.8807C242.629 86.8045 242.734 86.7033 242.802 86.5772V85.8439H242.376C241.806 85.8439 241.502 86.041 241.466 86.4352L241.462 86.5023C241.462 86.6442 241.512 86.7612 241.611 86.8531C241.711 86.9451 241.848 86.9911 242.021 86.9911ZM247.419 86.4392L248.534 83.5178H249.962V87.7836H248.822V85.1658L247.801 87.7836H247.036L246.035 85.2091V87.7836H244.896V83.5178H246.311L247.419 86.4392ZM253.526 83.5178H254.665V87.7836H253.526V85.15L252.098 87.7836H250.955V83.5178H252.098V86.1475L253.526 83.5178ZM259.246 83.5178V87.7836H258.107V84.4404H257.101L257.03 85.7571C256.986 86.4589 256.848 86.9701 256.616 87.2908C256.385 87.6114 256.041 87.7757 255.584 87.7836H255.197L255.185 86.8571L255.327 86.8453C255.532 86.8295 255.682 86.7086 255.777 86.4826C255.871 86.2565 255.93 85.8715 255.954 85.3274L256.033 83.5178H259.246ZM262.696 83.5178H263.835V87.7836H262.696V85.15L261.269 87.7836H260.125V83.5178H261.269V86.1475L262.696 83.5178ZM268.262 83.5178V87.7836H267.127V86.3091H266.406L265.586 87.7836H264.43L265.361 86.1159C265.106 85.9976 264.909 85.8373 264.769 85.6349C264.633 85.4326 264.564 85.2026 264.564 84.945C264.564 84.5324 264.723 84.1946 265.041 83.9318C265.362 83.6663 265.791 83.5283 266.327 83.5178H268.262ZM266.346 85.5127H267.127V84.4325H266.386C266.183 84.4325 266.019 84.4864 265.893 84.5941C265.767 84.6993 265.704 84.828 265.704 84.9805C265.704 85.1329 265.764 85.2591 265.885 85.359C266.006 85.4588 266.16 85.5101 266.346 85.5127Z" fill="#333333"/>
<rect x="233.751" y="153.893" width="151.679" height="27.6828" rx="2.59526" stroke="#E0E0E0" stroke-width="0.576725"/>
<path d="M250.961 169.525H250.146V166.682H247.045V169.525H246.234V163.375H247.045V166.019H250.146V163.375H250.961V169.525ZM254.657 167.037H253.213V169.525H252.397V163.375H254.433C255.126 163.375 255.658 163.533 256.03 163.848C256.405 164.163 256.592 164.622 256.592 165.225C256.592 165.608 256.488 165.942 256.279 166.226C256.074 166.511 255.786 166.723 255.417 166.864L256.862 169.474V169.525H255.992L254.657 167.037ZM253.213 166.374H254.459C254.861 166.374 255.181 166.27 255.417 166.061C255.657 165.853 255.777 165.574 255.777 165.225C255.777 164.845 255.662 164.553 255.434 164.351C255.209 164.148 254.882 164.045 254.454 164.042H253.213V166.374ZM259.236 167.231H257.175V166.594H259.236V167.231ZM259.963 168.887L260.233 168.554C260.537 168.159 260.71 167.568 260.752 166.78L260.824 164.955H263.768V168.887H264.356V170.868H263.574V169.525H260.385V170.868H259.604L259.608 168.887H259.963ZM260.888 168.887H262.987V165.677H261.58L261.534 166.767C261.486 167.676 261.271 168.383 260.888 168.887ZM268.178 164.955H268.96V169.525H268.178V166.192L266.071 169.525H265.289V164.955H266.071V168.292L268.178 164.955ZM274.075 167.291C274.075 167.986 273.916 168.547 273.598 168.972C273.28 169.397 272.849 169.61 272.305 169.61C271.751 169.61 271.314 169.434 270.996 169.082V171.282H270.214V164.955H270.928L270.966 165.462C271.284 165.067 271.727 164.87 272.293 164.87C272.842 164.87 273.275 165.077 273.594 165.491C273.915 165.905 274.075 166.481 274.075 167.219V167.291ZM273.294 167.202C273.294 166.687 273.184 166.28 272.964 165.981C272.745 165.683 272.443 165.533 272.06 165.533C271.587 165.533 271.232 165.743 270.996 166.163V168.347C271.23 168.763 271.587 168.972 272.069 168.972C272.443 168.972 272.74 168.824 272.96 168.528C273.182 168.23 273.294 167.788 273.294 167.202ZM276.969 169.61C276.349 169.61 275.845 169.407 275.456 169.001C275.068 168.593 274.873 168.048 274.873 167.367V167.223C274.873 166.77 274.959 166.366 275.131 166.011C275.306 165.653 275.548 165.374 275.858 165.174C276.17 164.972 276.508 164.87 276.871 164.87C277.466 164.87 277.927 165.066 278.257 165.457C278.586 165.849 278.751 166.409 278.751 167.139V167.464H275.655C275.666 167.914 275.797 168.279 276.048 168.558C276.301 168.834 276.622 168.972 277.011 168.972C277.287 168.972 277.521 168.915 277.712 168.803C277.904 168.69 278.071 168.541 278.215 168.355L278.692 168.727C278.309 169.315 277.735 169.61 276.969 169.61ZM276.871 165.512C276.556 165.512 276.291 165.628 276.077 165.859C275.863 166.087 275.731 166.408 275.68 166.822H277.97V166.763C277.947 166.366 277.84 166.059 277.649 165.842C277.457 165.622 277.198 165.512 276.871 165.512ZM281.083 167.578H280.513V169.525H279.727V164.955H280.513V166.889H281.024L282.561 164.955H283.507L281.7 167.151L283.66 169.525H282.667L281.083 167.578ZM287.727 165.588H286.194V169.525H285.413V165.588H283.909V164.955H287.727V165.588ZM288.103 167.198C288.103 166.75 288.191 166.347 288.365 165.99C288.543 165.632 288.788 165.356 289.1 165.162C289.416 164.967 289.775 164.87 290.177 164.87C290.8 164.87 291.302 165.086 291.685 165.517C292.071 165.947 292.264 166.52 292.264 167.236V167.291C292.264 167.736 292.178 168.135 292.006 168.49C291.837 168.842 291.594 169.117 291.276 169.314C290.96 169.511 290.597 169.61 290.186 169.61C289.566 169.61 289.064 169.394 288.678 168.963C288.295 168.532 288.103 167.962 288.103 167.253V167.198ZM288.889 167.291C288.889 167.798 289.006 168.204 289.24 168.511C289.476 168.818 289.791 168.972 290.186 168.972C290.583 168.972 290.898 168.817 291.132 168.507C291.366 168.195 291.483 167.758 291.483 167.198C291.483 166.696 291.363 166.291 291.123 165.981C290.887 165.669 290.572 165.512 290.177 165.512C289.791 165.512 289.48 165.666 289.244 165.973C289.007 166.28 288.889 166.719 288.889 167.291ZM297.105 167.291C297.105 167.986 296.946 168.547 296.627 168.972C296.309 169.397 295.878 169.61 295.335 169.61C294.78 169.61 294.344 169.434 294.025 169.082V171.282H293.244V164.955H293.958L293.996 165.462C294.314 165.067 294.756 164.87 295.322 164.87C295.871 164.87 296.305 165.077 296.623 165.491C296.944 165.905 297.105 166.481 297.105 167.219V167.291ZM296.323 167.202C296.323 166.687 296.213 166.28 295.994 165.981C295.774 165.683 295.473 165.533 295.09 165.533C294.617 165.533 294.262 165.743 294.025 166.163V168.347C294.259 168.763 294.617 168.972 295.098 168.972C295.473 168.972 295.77 168.824 295.99 168.528C296.212 168.23 296.323 167.788 296.323 167.202Z" fill="#BDBDBD"/>
<path d="M239.297 145.714H238.205V144.303H234.744V145.71H233.624L233.561 143.353H233.995C234.229 143.158 234.409 142.873 234.535 142.497C234.664 142.119 234.75 141.651 234.795 141.094L234.961 138.563H238.722V143.353H239.392L239.297 145.714ZM235.351 143.353H237.539V139.521H236.084L235.986 141.03C235.907 142.042 235.695 142.816 235.351 143.353ZM239.762 142.13C239.762 141.707 239.844 141.33 240.007 140.999C240.17 140.668 240.404 140.412 240.709 140.23C241.016 140.049 241.372 139.958 241.777 139.958C242.353 139.958 242.822 140.134 243.184 140.486C243.55 140.839 243.754 141.317 243.796 141.921L243.803 142.213C243.803 142.868 243.621 143.393 243.255 143.79C242.89 144.184 242.4 144.382 241.785 144.382C241.17 144.382 240.678 144.184 240.31 143.79C239.945 143.396 239.762 142.86 239.762 142.182V142.13ZM240.902 142.213C240.902 142.618 240.978 142.928 241.13 143.144C241.283 143.357 241.501 143.463 241.785 143.463C242.061 143.463 242.276 143.358 242.431 143.148C242.587 142.935 242.664 142.596 242.664 142.13C242.664 141.734 242.587 141.426 242.431 141.208C242.276 140.99 242.058 140.881 241.777 140.881C241.498 140.881 241.283 140.99 241.13 141.208C240.978 141.423 240.902 141.759 240.902 142.213ZM248.152 140.037V144.303H247.013V140.96H246.007L245.936 142.276C245.892 142.978 245.754 143.489 245.522 143.81C245.291 144.131 244.947 144.295 244.489 144.303H244.103L244.091 143.376L244.233 143.364C244.438 143.349 244.588 143.228 244.683 143.002C244.777 142.776 244.836 142.391 244.86 141.847L244.939 140.037H248.152ZM253.135 142.722H252.619V144.303H251.479V142.722H250.971L250.123 144.303H248.747L250.092 142.071L248.763 140.037H250.174L251.062 141.63H251.479V140.037H252.619V141.63H253.045L253.936 140.037H255.347L254.026 142.044L255.382 144.303H253.983L253.135 142.722ZM259.628 144.303H258.485V142.663H257.07V144.303H255.93V140.037H257.07V141.748H258.485V140.037H259.628V144.303ZM260.334 142.13C260.334 141.707 260.416 141.33 260.579 140.999C260.742 140.668 260.975 140.412 261.28 140.23C261.588 140.049 261.944 139.958 262.349 139.958C262.924 139.958 263.394 140.134 263.756 140.486C264.122 140.839 264.325 141.317 264.367 141.921L264.375 142.213C264.375 142.868 264.193 143.393 263.827 143.79C263.462 144.184 262.972 144.382 262.357 144.382C261.742 144.382 261.25 144.184 260.882 143.79C260.517 143.396 260.334 142.86 260.334 142.182V142.13ZM261.474 142.213C261.474 142.618 261.55 142.928 261.702 143.144C261.855 143.357 262.073 143.463 262.357 143.463C262.633 143.463 262.848 143.358 263.003 143.148C263.158 142.935 263.236 142.596 263.236 142.13C263.236 141.734 263.158 141.426 263.003 141.208C262.848 140.99 262.63 140.881 262.349 140.881C262.07 140.881 261.855 140.99 261.702 141.208C261.55 141.423 261.474 141.759 261.474 142.213ZM266.851 143.463C267.061 143.463 267.232 143.405 267.364 143.29C267.495 143.174 267.563 143.02 267.569 142.828H268.637C268.634 143.117 268.556 143.383 268.4 143.625C268.245 143.864 268.032 144.05 267.762 144.184C267.494 144.316 267.197 144.382 266.871 144.382C266.261 144.382 265.78 144.188 265.428 143.802C265.076 143.413 264.9 142.877 264.9 142.194V142.119C264.9 141.462 265.074 140.937 265.424 140.546C265.773 140.154 266.253 139.958 266.863 139.958C267.396 139.958 267.824 140.111 268.144 140.415C268.467 140.718 268.632 141.121 268.637 141.626H267.569C267.563 141.405 267.495 141.226 267.364 141.09C267.232 140.95 267.059 140.881 266.843 140.881C266.578 140.881 266.377 140.978 266.24 141.172C266.106 141.364 266.039 141.677 266.039 142.111V142.229C266.039 142.668 266.106 142.983 266.24 143.175C266.374 143.367 266.578 143.463 266.851 143.463ZM272.828 140.952H271.46V144.303H270.316V140.952H268.972V140.037H272.828V140.952ZM274.622 141.287H275.438C275.806 141.287 276.129 141.349 276.408 141.472C276.686 141.596 276.899 141.773 277.046 142.004C277.196 142.233 277.271 142.5 277.271 142.805C277.271 143.254 277.104 143.617 276.77 143.893C276.439 144.166 275.987 144.303 275.414 144.303H273.478V140.037H274.622V141.287ZM274.622 142.201V143.392H275.43C275.656 143.392 275.829 143.339 275.95 143.234C276.071 143.129 276.132 142.986 276.132 142.805C276.132 142.621 276.072 142.475 275.954 142.367C275.836 142.257 275.661 142.201 275.43 142.201H274.622Z" fill="#333333"/>
<rect x="67.6541" y="153.893" width="151.102" height="27.6828" rx="2.59526" stroke="#E0E0E0" stroke-width="0.576725"/>
<path d="M80.521 169.525H79.7395V164.955H80.521V169.525ZM79.6762 163.742C79.6762 163.616 79.7142 163.509 79.7902 163.421C79.8691 163.334 79.9845 163.29 80.1366 163.29C80.2886 163.29 80.4041 163.334 80.483 163.421C80.5618 163.509 80.6012 163.616 80.6012 163.742C80.6012 163.869 80.5618 163.975 80.483 164.059C80.4041 164.144 80.2886 164.186 80.1366 164.186C79.9845 164.186 79.8691 164.144 79.7902 164.059C79.7142 163.975 79.6762 163.869 79.6762 163.742ZM82.7304 164.955L82.7558 165.529C83.105 165.09 83.5612 164.87 84.1244 164.87C85.0903 164.87 85.5774 165.415 85.5859 166.505V169.525H84.8044V166.501C84.8016 166.171 84.7256 165.928 84.5763 165.77C84.4299 165.612 84.2004 165.533 83.8878 165.533C83.6344 165.533 83.4119 165.601 83.2204 165.736C83.0289 165.871 82.8797 166.049 82.7727 166.268V169.525H81.9912V164.955H82.7304ZM87.3645 169.525V165.559H86.6422V164.955H87.3645V164.486C87.3645 163.996 87.4954 163.617 87.7573 163.35C88.0192 163.082 88.3895 162.948 88.8682 162.948C89.0485 162.948 89.2273 162.972 89.4047 163.02L89.3625 163.654C89.2301 163.628 89.0893 163.616 88.9401 163.616C88.6866 163.616 88.4909 163.69 88.3529 163.84C88.2149 163.986 88.1459 164.197 88.1459 164.473V164.955H89.1217V165.559H88.1459V169.525H87.3645ZM89.9963 167.198C89.9963 166.75 90.0836 166.347 90.2582 165.99C90.4356 165.632 90.6806 165.356 90.9932 165.162C91.3086 164.967 91.6677 164.87 92.0704 164.87C92.6927 164.87 93.1954 165.086 93.5783 165.517C93.9641 165.947 94.157 166.52 94.157 167.236V167.291C94.157 167.736 94.0711 168.135 93.8994 168.49C93.7304 168.842 93.4868 169.117 93.1686 169.314C92.8532 169.511 92.4899 169.61 92.0788 169.61C91.4593 169.61 90.9566 169.394 90.5708 168.963C90.1878 168.532 89.9963 167.962 89.9963 167.253V167.198ZM90.782 167.291C90.782 167.798 90.8989 168.204 91.1326 168.511C91.3692 168.818 91.6846 168.972 92.0788 168.972C92.4759 168.972 92.7913 168.817 93.025 168.507C93.2587 168.195 93.3756 167.758 93.3756 167.198C93.3756 166.696 93.2559 166.291 93.0165 165.981C92.78 165.669 92.4646 165.512 92.0704 165.512C91.6846 165.512 91.3734 165.666 91.1368 165.973C90.9003 166.28 90.782 166.719 90.782 167.291ZM102.103 167.405C102.069 168.086 101.9 168.624 101.596 169.018C101.292 169.413 100.885 169.61 100.375 169.61C99.8485 169.61 99.5106 169.373 99.3613 168.9C99.2093 169.139 99.0347 169.318 98.8376 169.436C98.6433 169.552 98.4419 169.61 98.2335 169.61C97.8336 169.61 97.5309 169.446 97.3254 169.12C97.1198 168.793 97.0437 168.341 97.0973 167.764C97.1395 167.299 97.2451 166.885 97.4141 166.522C97.5858 166.156 97.8055 165.869 98.073 165.66C98.3434 165.452 98.6264 165.348 98.922 165.348C99.1501 165.348 99.3543 165.379 99.5345 165.44C99.7148 165.5 99.9175 165.618 100.143 165.795L99.9231 168.135C99.8696 168.786 100.05 169.111 100.464 169.111C100.782 169.111 101.04 168.953 101.237 168.638C101.434 168.323 101.541 167.912 101.558 167.405C101.611 166.309 101.407 165.474 100.945 164.9C100.486 164.325 99.7866 164.038 98.846 164.038C98.28 164.038 97.7773 164.179 97.338 164.46C96.8987 164.739 96.5523 165.143 96.2989 165.673C96.0455 166.202 95.9033 166.813 95.8723 167.506C95.8385 168.204 95.923 168.811 96.1257 169.327C96.3285 169.839 96.6368 170.231 97.0508 170.501C97.4676 170.774 97.9702 170.911 98.5588 170.911C98.8122 170.911 99.0657 170.88 99.3191 170.818C99.5754 170.756 99.788 170.675 99.9569 170.577L100.113 171.063C99.9386 171.173 99.7063 171.263 99.4163 171.333C99.129 171.403 98.8376 171.439 98.5419 171.439C97.8379 171.439 97.2324 171.28 96.7255 170.961C96.2186 170.646 95.8385 170.19 95.585 169.593C95.3344 168.999 95.226 168.303 95.2598 167.506C95.2936 166.732 95.4668 166.036 95.7793 165.419C96.0919 164.8 96.5157 164.323 97.0508 163.987C97.5858 163.649 98.1899 163.481 98.8629 163.481C99.5641 163.481 100.165 163.638 100.667 163.954C101.168 164.269 101.541 164.724 101.786 165.318C102.031 165.912 102.137 166.608 102.103 167.405ZM97.7689 167.764C97.7295 168.164 97.7661 168.471 97.8787 168.685C97.9942 168.899 98.1758 169.006 98.4236 169.006C98.5926 169.006 98.7545 168.934 98.9094 168.79C99.0671 168.647 99.1966 168.441 99.298 168.173L99.3022 168.135L99.4965 166.011C99.3388 165.929 99.1699 165.888 98.9896 165.888C98.6602 165.888 98.387 166.056 98.1702 166.391C97.9561 166.726 97.8224 167.184 97.7689 167.764ZM104.076 164.955L104.097 165.462C104.432 165.067 104.884 164.87 105.453 164.87C106.092 164.87 106.527 165.115 106.758 165.605C106.91 165.386 107.107 165.208 107.349 165.073C107.594 164.938 107.883 164.87 108.215 164.87C109.218 164.87 109.727 165.401 109.744 166.463V169.525H108.963V166.509C108.963 166.183 108.888 165.939 108.739 165.778C108.59 165.615 108.339 165.533 107.987 165.533C107.697 165.533 107.456 165.621 107.265 165.795C107.073 165.967 106.962 166.199 106.931 166.492V169.525H106.145V166.53C106.145 165.866 105.82 165.533 105.17 165.533C104.657 165.533 104.307 165.752 104.118 166.188V169.525H103.336V164.955H104.076ZM113.039 169.61C112.42 169.61 111.916 169.407 111.527 169.001C111.139 168.593 110.944 168.048 110.944 167.367V167.223C110.944 166.77 111.03 166.366 111.202 166.011C111.377 165.653 111.619 165.374 111.928 165.174C112.241 164.972 112.579 164.87 112.942 164.87C113.536 164.87 113.998 165.066 114.328 165.457C114.657 165.849 114.822 166.409 114.822 167.139V167.464H111.726C111.737 167.914 111.868 168.279 112.119 168.558C112.372 168.834 112.693 168.972 113.082 168.972C113.358 168.972 113.591 168.915 113.783 168.803C113.974 168.69 114.142 168.541 114.285 168.355L114.763 168.727C114.38 169.315 113.805 169.61 113.039 169.61ZM112.942 165.512C112.627 165.512 112.362 165.628 112.148 165.859C111.934 166.087 111.802 166.408 111.751 166.822H114.04V166.763C114.018 166.366 113.911 166.059 113.719 165.842C113.528 165.622 113.269 165.512 112.942 165.512ZM119.815 167.291C119.815 167.989 119.655 168.551 119.334 168.976C119.012 169.398 118.582 169.61 118.041 169.61C117.464 169.61 117.017 169.405 116.702 168.997L116.664 169.525H115.946V163.037H116.727V165.457C117.043 165.066 117.478 164.87 118.032 164.87C118.587 164.87 119.022 165.08 119.338 165.5C119.656 165.919 119.815 166.494 119.815 167.223V167.291ZM119.034 167.202C119.034 166.67 118.931 166.259 118.725 165.968C118.52 165.678 118.224 165.533 117.838 165.533C117.323 165.533 116.953 165.773 116.727 166.252V168.228C116.967 168.707 117.34 168.946 117.847 168.946C118.221 168.946 118.513 168.801 118.721 168.511C118.929 168.221 119.034 167.785 119.034 167.202ZM120.812 167.198C120.812 166.75 120.899 166.347 121.074 165.99C121.251 165.632 121.496 165.356 121.809 165.162C122.124 164.967 122.484 164.87 122.886 164.87C123.509 164.87 124.011 165.086 124.394 165.517C124.78 165.947 124.973 166.52 124.973 167.236V167.291C124.973 167.736 124.887 168.135 124.715 168.49C124.546 168.842 124.303 169.117 123.984 169.314C123.669 169.511 123.306 169.61 122.895 169.61C122.275 169.61 121.772 169.394 121.387 168.963C121.004 168.532 120.812 167.962 120.812 167.253V167.198ZM121.598 167.291C121.598 167.798 121.715 168.204 121.948 168.511C122.185 168.818 122.5 168.972 122.895 168.972C123.292 168.972 123.607 168.817 123.841 168.507C124.075 168.195 124.191 167.758 124.191 167.198C124.191 166.696 124.072 166.291 123.832 165.981C123.596 165.669 123.28 165.512 122.886 165.512C122.5 165.512 122.189 165.666 121.953 165.973C121.716 166.28 121.598 166.719 121.598 167.291ZM127.229 163.848V164.955H128.082V165.559H127.229V168.393C127.229 168.576 127.267 168.714 127.343 168.807C127.419 168.897 127.548 168.942 127.731 168.942C127.822 168.942 127.945 168.925 128.103 168.892V169.525C127.898 169.581 127.698 169.61 127.503 169.61C127.154 169.61 126.891 169.504 126.713 169.293C126.536 169.082 126.447 168.782 126.447 168.393V165.559H125.615V164.955H126.447V163.848H127.229ZM133.164 169.525H129.134V168.963L131.263 166.598C131.578 166.24 131.795 165.95 131.914 165.728C132.035 165.502 132.095 165.27 132.095 165.031C132.095 164.71 131.998 164.446 131.804 164.241C131.609 164.035 131.35 163.932 131.027 163.932C130.638 163.932 130.335 164.044 130.118 164.266C129.904 164.486 129.797 164.793 129.797 165.187H129.016C129.016 164.621 129.197 164.163 129.561 163.814C129.927 163.465 130.415 163.29 131.027 163.29C131.598 163.29 132.05 163.441 132.382 163.742C132.715 164.041 132.881 164.439 132.881 164.938C132.881 165.543 132.495 166.264 131.723 167.101L130.076 168.887H133.164V169.525ZM137.506 167.46H138.36V168.097H137.506V169.525H136.721V168.097H133.92V167.637L136.674 163.375H137.506V167.46ZM134.807 167.46H136.721V164.444L136.628 164.613L134.807 167.46ZM140.987 167.231H138.926V166.594H140.987V167.231ZM142.749 165.508C143.095 165.083 143.546 164.87 144.101 164.87C145.067 164.87 145.554 165.415 145.562 166.505V169.525H144.781V166.501C144.778 166.171 144.702 165.928 144.553 165.77C144.406 165.612 144.177 165.533 143.864 165.533C143.611 165.533 143.388 165.601 143.197 165.736C143.005 165.871 142.856 166.049 142.749 166.268V169.525H141.968V163.037H142.749V165.508ZM149.157 165.656C149.039 165.636 148.911 165.626 148.773 165.626C148.26 165.626 147.913 165.845 147.73 166.281V169.525H146.948V164.955H147.708L147.721 165.483C147.977 165.074 148.341 164.87 148.811 164.87C148.963 164.87 149.078 164.89 149.157 164.929V165.656ZM149.588 169.115C149.588 168.98 149.628 168.868 149.707 168.777C149.788 168.687 149.909 168.642 150.07 168.642C150.23 168.642 150.352 168.687 150.433 168.777C150.518 168.868 150.56 168.98 150.56 169.115C150.56 169.245 150.518 169.353 150.433 169.441C150.352 169.528 150.23 169.572 150.07 169.572C149.909 169.572 149.788 169.528 149.707 169.441C149.628 169.353 149.588 169.245 149.588 169.115ZM154.277 165.656C154.159 165.636 154.031 165.626 153.893 165.626C153.38 165.626 153.033 165.845 152.85 166.281V169.525H152.068V164.955H152.828L152.841 165.483C153.097 165.074 153.461 164.87 153.931 164.87C154.083 164.87 154.198 164.89 154.277 164.929V165.656ZM158.037 169.073C157.733 169.431 157.287 169.61 156.698 169.61C156.211 169.61 155.839 169.469 155.583 169.187C155.329 168.903 155.201 168.483 155.198 167.928V164.955H155.98V167.907C155.98 168.6 156.262 168.946 156.825 168.946C157.422 168.946 157.819 168.724 158.016 168.279V164.955H158.797V169.525H158.054L158.037 169.073Z" fill="#BDBDBD"/>
<path d="M72.0491 141.815H69.7783V143.353H72.4434V144.303H68.5955V138.563H72.4355V139.521H69.7783V140.889H72.0491V141.815ZM75.278 142.304H73.0584V141.385H75.278V142.304ZM77.261 140.037L77.2965 140.514C77.5988 140.143 78.0075 139.958 78.5226 139.958C79.0719 139.958 79.4491 140.175 79.6541 140.609C79.9537 140.175 80.3808 139.958 80.9354 139.958C81.398 139.958 81.7423 140.094 81.9683 140.364C82.1944 140.632 82.3074 141.037 82.3074 141.578V144.303H81.1641V141.582C81.1641 141.341 81.1168 141.165 81.0221 141.054C80.9275 140.941 80.7606 140.885 80.5215 140.885C80.1798 140.885 79.9432 141.048 79.8118 141.373L79.8158 144.303H78.6764V141.586C78.6764 141.339 78.6278 141.161 78.5305 141.05C78.4333 140.94 78.2677 140.885 78.0338 140.885C77.7105 140.885 77.4766 141.019 77.332 141.287V144.303H76.1926V140.037H77.261ZM85.6585 144.303C85.6059 144.2 85.5678 144.073 85.5441 143.92C85.2682 144.228 84.9094 144.382 84.4679 144.382C84.05 144.382 83.703 144.261 83.427 144.019C83.1537 143.777 83.017 143.472 83.017 143.104C83.017 142.652 83.1839 142.305 83.5177 142.063C83.8541 141.822 84.3391 141.699 84.9725 141.697H85.4968V141.452C85.4968 141.255 85.4456 141.098 85.3431 140.979C85.2432 140.861 85.0842 140.802 84.866 140.802C84.6742 140.802 84.523 140.848 84.4127 140.94C84.3049 141.032 84.251 141.158 84.251 141.318H83.1116C83.1116 141.071 83.1879 140.843 83.3403 140.632C83.4928 140.422 83.7083 140.258 83.9869 140.14C84.2655 140.019 84.5782 139.958 84.9252 139.958C85.4508 139.958 85.8674 140.091 86.1749 140.356C86.4851 140.619 86.6401 140.99 86.6401 141.468V143.317C86.6428 143.722 86.6993 144.028 86.8097 144.236V144.303H85.6585ZM84.7162 143.51C84.8844 143.51 85.0395 143.474 85.1814 143.4C85.3234 143.324 85.4285 143.223 85.4968 143.096V142.363H85.071C84.5007 142.363 84.1971 142.56 84.1603 142.954L84.1564 143.021C84.1564 143.163 84.2063 143.28 84.3062 143.372C84.4061 143.464 84.5428 143.51 84.7162 143.51ZM88.7178 144.303H87.5745V140.037H88.7178V144.303ZM87.5075 138.933C87.5075 138.762 87.564 138.622 87.677 138.511C87.7927 138.401 87.949 138.346 88.1462 138.346C88.3407 138.346 88.4957 138.401 88.6114 138.511C88.727 138.622 88.7848 138.762 88.7848 138.933C88.7848 139.107 88.7257 139.249 88.6074 139.359C88.4918 139.469 88.338 139.524 88.1462 139.524C87.9543 139.524 87.7992 139.469 87.681 139.359C87.5653 139.249 87.5075 139.107 87.5075 138.933ZM90.8625 144.303H89.7192V138.247H90.8625V144.303Z" fill="#333333"/>
<path d="M67.8782 210.049V204.309H69.8889C70.5854 204.309 71.1137 204.443 71.4738 204.711C71.8338 204.977 72.0139 205.367 72.0139 205.882C72.0139 206.163 71.9416 206.412 71.797 206.627C71.6525 206.84 71.4514 206.997 71.1938 207.096C71.4882 207.17 71.7195 207.319 71.8877 207.542C72.0586 207.765 72.144 208.039 72.144 208.362C72.144 208.914 71.9679 209.332 71.6157 209.616C71.2635 209.9 70.7615 210.044 70.1097 210.049H67.8782ZM69.061 207.55V209.099H70.0742C70.3528 209.099 70.5696 209.033 70.7247 208.902C70.8824 208.768 70.9612 208.584 70.9612 208.35C70.9612 207.824 70.6892 207.558 70.1452 207.55H69.061ZM69.061 206.714H69.9362C70.5328 206.703 70.8311 206.466 70.8311 206C70.8311 205.74 70.7549 205.554 70.6025 205.441C70.4527 205.325 70.2148 205.267 69.8889 205.267H69.061V206.714ZM75.432 210.049C75.3794 209.947 75.3413 209.819 75.3177 209.667C75.0417 209.974 74.6829 210.128 74.2414 210.128C73.8235 210.128 73.4765 210.007 73.2006 209.765C72.9272 209.524 72.7905 209.219 72.7905 208.851C72.7905 208.399 72.9574 208.052 73.2912 207.81C73.6277 207.568 74.1126 207.446 74.746 207.443H75.2703V207.199C75.2703 207.002 75.2191 206.844 75.1166 206.726C75.0167 206.608 74.8577 206.548 74.6396 206.548C74.4477 206.548 74.2966 206.594 74.1862 206.686C74.0784 206.778 74.0245 206.905 74.0245 207.065H72.8852C72.8852 206.818 72.9614 206.589 73.1138 206.379C73.2663 206.169 73.4818 206.004 73.7604 205.886C74.039 205.765 74.3518 205.705 74.6987 205.705C75.2244 205.705 75.6409 205.837 75.9484 206.103C76.2586 206.366 76.4137 206.736 76.4137 207.215V209.064C76.4163 209.468 76.4728 209.775 76.5832 209.982V210.049H75.432ZM74.4897 209.257C74.658 209.257 74.813 209.22 74.9549 209.146C75.0969 209.07 75.202 208.969 75.2703 208.843V208.11H74.8446C74.2742 208.11 73.9707 208.307 73.9339 208.701L73.9299 208.768C73.9299 208.91 73.9798 209.027 74.0797 209.119C74.1796 209.211 74.3163 209.257 74.4897 209.257ZM78.9605 208.476H78.5032V210.049H77.3638V205.784H78.5032V207.388H78.9092L79.8397 205.784H81.2786L79.883 207.814L81.4087 210.049H79.8909L78.9605 208.476ZM84.3104 210.049C84.2578 209.947 84.2197 209.819 84.1961 209.667C83.9201 209.974 83.5613 210.128 83.1198 210.128C82.7019 210.128 82.3549 210.007 82.079 209.765C81.8056 209.524 81.669 209.219 81.669 208.851C81.669 208.399 81.8358 208.052 82.1696 207.81C82.5061 207.568 82.991 207.446 83.6244 207.443H84.1488V207.199C84.1488 207.002 84.0975 206.844 83.995 206.726C83.8951 206.608 83.7361 206.548 83.518 206.548C83.3261 206.548 83.175 206.594 83.0646 206.686C82.9568 206.778 82.9029 206.905 82.9029 207.065H81.7636C81.7636 206.818 81.8398 206.589 81.9922 206.379C82.1447 206.169 82.3602 206.004 82.6388 205.886C82.9174 205.765 83.2302 205.705 83.5771 205.705C84.1028 205.705 84.5193 205.837 84.8269 206.103C85.137 206.366 85.2921 206.736 85.2921 207.215V209.064C85.2947 209.468 85.3512 209.775 85.4616 209.982V210.049H84.3104ZM83.3682 209.257C83.5364 209.257 83.6914 209.22 83.8334 209.146C83.9753 209.07 84.0804 208.969 84.1488 208.843V208.11H83.723C83.1526 208.11 82.8491 208.307 82.8123 208.701L82.8083 208.768C82.8083 208.91 82.8583 209.027 82.9581 209.119C83.058 209.211 83.1947 209.257 83.3682 209.257ZM89.8653 210.049H88.722V208.409H87.3067V210.049H86.1673V205.784H87.3067V207.495H88.722V205.784H89.8653V210.049ZM92.5225 209.21C92.7328 209.21 92.9036 209.152 93.0351 209.036C93.1665 208.92 93.2348 208.767 93.2401 208.575H94.3085C94.3058 208.864 94.227 209.129 94.0719 209.371C93.9168 209.61 93.704 209.797 93.4332 209.931C93.1652 210.062 92.8682 210.128 92.5422 210.128C91.9325 210.128 91.4515 209.935 91.0993 209.549C90.7471 209.16 90.571 208.623 90.571 207.94V207.865C90.571 207.208 90.7458 206.684 91.0954 206.292C91.4449 205.901 91.9246 205.705 92.5344 205.705C93.0679 205.705 93.495 205.857 93.8157 206.162C94.1389 206.464 94.3032 206.868 94.3085 207.372H93.2401C93.2348 207.152 93.1665 206.973 93.0351 206.836C92.9036 206.697 92.7302 206.627 92.5146 206.627C92.2492 206.627 92.0481 206.725 91.9115 206.919C91.7774 207.111 91.7104 207.424 91.7104 207.857V207.976C91.7104 208.415 91.7774 208.73 91.9115 208.922C92.0455 209.114 92.2492 209.21 92.5225 209.21ZM97.5295 205.784H98.6688V210.049H97.5295V207.416L96.1023 210.049H94.959V205.784H96.1023V208.413L97.5295 205.784ZM102.111 205.784H103.25V210.049H102.111V207.416L100.683 210.049H99.5401V205.784H100.683V208.413L102.111 205.784Z" fill="#333333"/>
<path d="M183.693 208.137C183.648 208.755 183.419 209.241 183.007 209.596C182.597 209.951 182.055 210.128 181.382 210.128C180.646 210.128 180.067 209.881 179.644 209.387C179.223 208.89 179.013 208.21 179.013 207.345V206.994C179.013 206.442 179.11 205.956 179.305 205.535C179.499 205.115 179.776 204.793 180.136 204.569C180.499 204.343 180.92 204.23 181.398 204.23C182.06 204.23 182.594 204.408 182.999 204.762C183.403 205.117 183.637 205.615 183.7 206.257H182.518C182.489 205.886 182.385 205.618 182.206 205.452C182.03 205.284 181.761 205.2 181.398 205.2C181.004 205.2 180.708 205.342 180.511 205.626C180.317 205.907 180.217 206.345 180.211 206.939V207.372C180.211 207.993 180.305 208.446 180.491 208.733C180.681 209.019 180.978 209.162 181.382 209.162C181.748 209.162 182.02 209.079 182.198 208.914C182.38 208.746 182.484 208.487 182.51 208.137H183.693ZM184.217 207.877C184.217 207.454 184.298 207.077 184.461 206.746C184.624 206.414 184.858 206.158 185.163 205.977C185.471 205.795 185.827 205.705 186.232 205.705C186.807 205.705 187.276 205.881 187.639 206.233C188.004 206.585 188.208 207.064 188.25 207.668L188.258 207.96C188.258 208.614 188.075 209.14 187.71 209.537C187.345 209.931 186.854 210.128 186.239 210.128C185.624 210.128 185.133 209.931 184.765 209.537C184.4 209.143 184.217 208.606 184.217 207.928V207.877ZM185.356 207.96C185.356 208.365 185.433 208.675 185.585 208.89C185.737 209.103 185.956 209.21 186.239 209.21C186.515 209.21 186.731 209.104 186.886 208.894C187.041 208.681 187.119 208.342 187.119 207.877C187.119 207.48 187.041 207.173 186.886 206.954C186.731 206.736 186.513 206.627 186.232 206.627C185.953 206.627 185.737 206.736 185.585 206.954C185.433 207.17 185.356 207.505 185.356 207.96ZM191.077 206.02C191.623 206.02 192.06 206.201 192.386 206.564C192.712 206.927 192.875 207.42 192.875 208.043V208.098C192.875 208.713 192.693 209.206 192.33 209.576C191.968 209.947 191.48 210.132 190.868 210.132C190.253 210.132 189.763 209.932 189.397 209.533C189.035 209.131 188.853 208.585 188.853 207.897V207.707C188.859 206.748 189.02 205.998 189.338 205.456C189.659 204.912 190.14 204.569 190.781 204.427C191.118 204.354 191.334 204.282 191.432 204.211C191.529 204.137 191.577 204.036 191.577 203.907H192.5C192.5 204.32 192.388 204.63 192.165 204.837C191.944 205.045 191.55 205.205 190.982 205.318C190.646 205.387 190.38 205.519 190.186 205.717C189.991 205.914 189.86 206.191 189.792 206.548C190.154 206.196 190.583 206.02 191.077 206.02ZM190.86 206.943C190.589 206.943 190.376 207.033 190.221 207.215C190.069 207.396 189.993 207.69 189.993 208.098C189.993 208.461 190.068 208.738 190.217 208.93C190.367 209.119 190.584 209.214 190.868 209.214C191.144 209.214 191.357 209.12 191.507 208.934C191.656 208.747 191.733 208.472 191.735 208.11V208.015C191.735 207.665 191.658 207.4 191.503 207.219C191.35 207.035 191.136 206.943 190.86 206.943ZM195.52 210.128C194.894 210.128 194.385 209.936 193.99 209.553C193.599 209.169 193.403 208.658 193.403 208.019V207.909C193.403 207.48 193.486 207.098 193.651 206.761C193.817 206.422 194.051 206.162 194.353 205.981C194.658 205.797 195.005 205.705 195.394 205.705C195.977 205.705 196.436 205.889 196.77 206.257C197.106 206.625 197.274 207.146 197.274 207.822V208.287H194.558C194.595 208.566 194.705 208.789 194.889 208.957C195.076 209.125 195.311 209.21 195.595 209.21C196.034 209.21 196.377 209.051 196.624 208.733L197.184 209.359C197.013 209.601 196.782 209.79 196.49 209.927C196.198 210.061 195.875 210.128 195.52 210.128ZM195.39 206.627C195.164 206.627 194.98 206.703 194.838 206.856C194.699 207.008 194.609 207.227 194.57 207.51H196.155V207.42C196.149 207.167 196.081 206.973 195.95 206.836C195.818 206.697 195.632 206.627 195.39 206.627ZM199.699 209.21C199.909 209.21 200.08 209.152 200.211 209.036C200.343 208.92 200.411 208.767 200.416 208.575H201.485C201.482 208.864 201.403 209.129 201.248 209.371C201.093 209.61 200.88 209.797 200.61 209.931C200.342 210.062 200.045 210.128 199.719 210.128C199.109 210.128 198.628 209.935 198.276 209.549C197.924 209.16 197.747 208.623 197.747 207.94V207.865C197.747 207.208 197.922 206.684 198.272 206.292C198.621 205.901 199.101 205.705 199.711 205.705C200.244 205.705 200.671 205.857 200.992 206.162C201.315 206.464 201.48 206.868 201.485 207.372H200.416C200.411 207.152 200.343 206.973 200.211 206.836C200.08 206.697 199.907 206.627 199.691 206.627C199.426 206.627 199.225 206.725 199.088 206.919C198.954 207.111 198.887 207.424 198.887 207.857V207.976C198.887 208.415 198.954 208.73 199.088 208.922C199.222 209.114 199.426 209.21 199.699 209.21ZM204.099 210.128C203.473 210.128 202.963 209.936 202.569 209.553C202.177 209.169 201.982 208.658 201.982 208.019V207.909C201.982 207.48 202.064 207.098 202.23 206.761C202.396 206.422 202.63 206.162 202.932 205.981C203.237 205.797 203.584 205.705 203.973 205.705C204.556 205.705 205.015 205.889 205.348 206.257C205.685 206.625 205.853 207.146 205.853 207.822V208.287H203.137C203.174 208.566 203.284 208.789 203.468 208.957C203.655 209.125 203.89 209.21 204.174 209.21C204.613 209.21 204.956 209.051 205.203 208.733L205.762 209.359C205.592 209.601 205.36 209.79 205.069 209.927C204.777 210.061 204.454 210.128 204.099 210.128ZM203.969 206.627C203.743 206.627 203.559 206.703 203.417 206.856C203.277 207.008 203.188 207.227 203.149 207.51H204.733V207.42C204.728 207.167 204.66 206.973 204.528 206.836C204.397 206.697 204.21 206.627 203.969 206.627ZM206.563 209.131C206.82 208.857 206.995 208.587 207.087 208.319C207.179 208.05 207.23 207.671 207.241 207.179L207.272 205.784H210.411V209.131H211.026V211.331H209.886V210.049H207.359V211.331H206.196V209.131H206.563ZM207.907 209.131H209.275V206.726H208.388L208.38 207.238C208.357 208.022 208.199 208.652 207.907 209.131ZM211.428 207.877C211.428 207.454 211.509 207.077 211.672 206.746C211.835 206.414 212.069 206.158 212.374 205.977C212.681 205.795 213.038 205.705 213.442 205.705C214.018 205.705 214.487 205.881 214.85 206.233C215.215 206.585 215.419 207.064 215.461 207.668L215.469 207.96C215.469 208.614 215.286 209.14 214.921 209.537C214.555 209.931 214.065 210.128 213.45 210.128C212.835 210.128 212.344 209.931 211.976 209.537C211.61 209.143 211.428 208.606 211.428 207.928V207.877ZM212.567 207.96C212.567 208.365 212.643 208.675 212.796 208.89C212.948 209.103 213.166 209.21 213.45 209.21C213.726 209.21 213.942 209.104 214.097 208.894C214.252 208.681 214.329 208.342 214.329 207.877C214.329 207.48 214.252 207.173 214.097 206.954C213.942 206.736 213.724 206.627 213.442 206.627C213.164 206.627 212.948 206.736 212.796 206.954C212.643 207.17 212.567 207.505 212.567 207.96ZM216.245 210.049V205.784H218.027C218.608 205.784 219.054 205.886 219.364 206.091C219.674 206.296 219.829 206.59 219.829 206.974C219.829 207.171 219.763 207.349 219.632 207.506C219.503 207.662 219.314 207.781 219.064 207.865C219.369 207.923 219.608 208.037 219.782 208.208C219.958 208.376 220.046 208.584 220.046 208.831C220.046 209.228 219.896 209.53 219.597 209.738C219.3 209.945 218.867 210.049 218.299 210.049H216.245ZM217.385 208.279V209.139H218.303C218.706 209.139 218.907 208.998 218.907 208.717C218.907 208.43 218.715 208.284 218.331 208.279H217.385ZM217.385 207.514H218.09C218.49 207.509 218.69 207.38 218.69 207.128C218.69 206.973 218.635 206.862 218.524 206.797C218.416 206.731 218.251 206.698 218.027 206.698H217.385V207.514ZM223.216 210.049C223.163 209.947 223.125 209.819 223.101 209.667C222.825 209.974 222.467 210.128 222.025 210.128C221.607 210.128 221.26 210.007 220.984 209.765C220.711 209.524 220.574 209.219 220.574 208.851C220.574 208.399 220.741 208.052 221.075 207.81C221.411 207.568 221.896 207.446 222.53 207.443H223.054V207.199C223.054 207.002 223.003 206.844 222.9 206.726C222.8 206.608 222.641 206.548 222.423 206.548C222.231 206.548 222.08 206.594 221.97 206.686C221.862 206.778 221.808 206.905 221.808 207.065H220.669C220.669 206.818 220.745 206.589 220.898 206.379C221.05 206.169 221.265 206.004 221.544 205.886C221.823 205.765 222.135 205.705 222.482 205.705C223.008 205.705 223.425 205.837 223.732 206.103C224.042 206.366 224.197 206.736 224.197 207.215V209.064C224.2 209.468 224.257 209.775 224.367 209.982V210.049H223.216ZM222.273 209.257C222.442 209.257 222.597 209.22 222.739 209.146C222.881 209.07 222.986 208.969 223.054 208.843V208.11H222.628C222.058 208.11 221.754 208.307 221.718 208.701L221.714 208.768C221.714 208.91 221.764 209.027 221.863 209.119C221.963 209.211 222.1 209.257 222.273 209.257ZM228.771 210.049H227.627V208.409H226.212V210.049H225.073V205.784H226.212V207.495H227.627V205.784H228.771V210.049ZM232.224 205.784H233.364V210.049H232.224V207.416L230.797 210.049H229.654V205.784H230.797V208.413L232.224 205.784ZM237.791 205.784V210.049H236.656V208.575H235.934L235.114 210.049H233.959L234.889 208.382C234.634 208.263 234.437 208.103 234.298 207.901C234.161 207.698 234.093 207.468 234.093 207.211C234.093 206.798 234.252 206.46 234.57 206.198C234.891 205.932 235.319 205.794 235.855 205.784H237.791ZM235.875 207.778H236.656V206.698H235.914C235.712 206.698 235.548 206.752 235.422 206.86C235.295 206.965 235.232 207.094 235.232 207.246C235.232 207.399 235.293 207.525 235.414 207.625C235.535 207.725 235.688 207.776 235.875 207.778Z" fill="#333333"/>
<path d="M292.581 208.867H290.508L290.113 210.049H288.856L290.993 204.309H292.089L294.237 210.049H292.98L292.581 208.867ZM290.827 207.909H292.262L291.541 205.76L290.827 207.909ZM298.207 210.049H297.064V208.409H295.649V210.049H294.509V205.784H295.649V207.495H297.064V205.784H298.207V210.049ZM300.762 208.476H300.305V210.049H299.165V205.784H300.305V207.388H300.711L301.641 205.784H303.08L301.684 207.814L303.21 210.049H301.692L300.762 208.476ZM305.54 210.128C304.915 210.128 304.405 209.936 304.011 209.553C303.619 209.169 303.423 208.658 303.423 208.019V207.909C303.423 207.48 303.506 207.098 303.671 206.761C303.837 206.422 304.071 206.162 304.373 205.981C304.678 205.797 305.025 205.705 305.414 205.705C305.998 205.705 306.456 205.889 306.79 206.257C307.126 206.625 307.295 207.146 307.295 207.822V208.287H304.578C304.615 208.566 304.725 208.789 304.909 208.957C305.096 209.125 305.331 209.21 305.615 209.21C306.054 209.21 306.397 209.051 306.644 208.733L307.204 209.359C307.033 209.601 306.802 209.79 306.51 209.927C306.218 210.061 305.895 210.128 305.54 210.128ZM305.41 206.627C305.184 206.627 305 206.703 304.858 206.856C304.719 207.008 304.629 207.227 304.59 207.51H306.175V207.42C306.17 207.167 306.101 206.973 305.97 206.836C305.839 206.697 305.652 206.627 305.41 206.627ZM311.438 206.698H310.07V210.049H308.927V206.698H307.582V205.784H311.438V206.698ZM313.232 207.033H314.048C314.416 207.033 314.739 207.095 315.018 207.219C315.296 207.342 315.509 207.52 315.657 207.751C315.806 207.98 315.881 208.246 315.881 208.551C315.881 209.001 315.714 209.363 315.381 209.639C315.049 209.913 314.597 210.049 314.024 210.049H312.089V205.784H313.232V207.033ZM317.695 210.049H316.555V205.784H317.695V210.049ZM313.232 207.948V209.139H314.04C314.266 209.139 314.44 209.086 314.561 208.981C314.681 208.876 314.742 208.733 314.742 208.551C314.742 208.367 314.683 208.221 314.564 208.114C314.446 208.003 314.271 207.948 314.04 207.948H313.232Z" fill="#333333"/>
<rect x="67.0774" y="97.3737" width="152.255" height="27.6828" rx="2.59526" stroke="#E0E0E0" stroke-width="0.576725"/>
<path d="M82.5431 111.401H79.9664L79.3877 113.006H78.5514L80.9 106.856H81.6096L83.9624 113.006H83.1303L82.5431 111.401ZM80.2114 110.734H82.3023L81.2548 107.857L80.2114 110.734ZM88.4906 108.436V113.006H87.7049V109.082H86.1505L86.0575 110.793C86.0068 111.578 85.8745 112.14 85.6605 112.478C85.4493 112.816 85.1128 112.992 84.6509 113.006H84.3383V112.318L84.5622 112.301C84.8157 112.273 84.9973 112.126 85.1071 111.861C85.2169 111.597 85.2873 111.107 85.3183 110.391L85.4028 108.436H88.4906ZM91.6417 113.091C91.0222 113.091 90.5181 112.888 90.1295 112.482C89.7409 112.074 89.5466 111.529 89.5466 110.848V110.704C89.5466 110.251 89.6325 109.847 89.8043 109.492C89.9789 109.134 90.221 108.855 90.5308 108.655C90.8434 108.453 91.1813 108.351 91.5446 108.351C92.1388 108.351 92.6006 108.547 92.9301 108.938C93.2596 109.33 93.4243 109.89 93.4243 110.62V110.945H90.3281C90.3393 111.395 90.4703 111.76 90.7209 112.039C90.9743 112.315 91.2954 112.453 91.684 112.453C91.96 112.453 92.1937 112.396 92.3852 112.284C92.5767 112.171 92.7442 112.022 92.8878 111.836L93.3652 112.208C92.9822 112.796 92.4077 113.091 91.6417 113.091ZM91.5446 108.993C91.2292 108.993 90.9645 109.109 90.7505 109.34C90.5364 109.568 90.4041 109.889 90.3534 110.303H92.6428V110.244C92.6203 109.847 92.5133 109.54 92.3218 109.323C92.1303 109.103 91.8712 108.993 91.5446 108.993ZM95.756 111.059H95.1857V113.006H94.4001V108.436H95.1857V110.37H95.6968L97.2344 108.436H98.1806L96.3727 110.632L98.3327 113.006H97.34L95.756 111.059ZM100.77 112.453C101.049 112.453 101.292 112.368 101.501 112.199C101.709 112.03 101.825 111.819 101.847 111.566H102.586C102.572 111.828 102.482 112.077 102.316 112.313C102.15 112.55 101.927 112.739 101.649 112.879C101.373 113.02 101.08 113.091 100.77 113.091C100.148 113.091 99.652 112.884 99.2831 112.47C98.917 112.053 98.7339 111.484 98.7339 110.763V110.632C98.7339 110.187 98.8156 109.792 98.9789 109.445C99.1423 109.099 99.376 108.83 99.6801 108.638C99.9871 108.447 100.349 108.351 100.766 108.351C101.278 108.351 101.703 108.505 102.041 108.812C102.382 109.119 102.564 109.517 102.586 110.007H101.847C101.825 109.711 101.712 109.469 101.509 109.28C101.309 109.089 101.061 108.993 100.766 108.993C100.369 108.993 100.06 109.137 99.8406 109.424C99.6238 109.709 99.5154 110.121 99.5154 110.662V110.81C99.5154 111.336 99.6238 111.742 99.8406 112.026C100.057 112.311 100.367 112.453 100.77 112.453ZM106.287 113.006C106.241 112.916 106.205 112.755 106.177 112.525C105.813 112.902 105.38 113.091 104.876 113.091C104.425 113.091 104.055 112.964 103.765 112.71C103.478 112.454 103.334 112.13 103.334 111.739C103.334 111.263 103.514 110.894 103.875 110.632C104.238 110.367 104.748 110.235 105.404 110.235H106.164V109.876C106.164 109.603 106.082 109.386 105.919 109.226C105.756 109.062 105.515 108.981 105.197 108.981C104.918 108.981 104.684 109.051 104.496 109.192C104.307 109.333 104.213 109.503 104.213 109.703H103.427C103.427 109.475 103.507 109.255 103.668 109.044C103.831 108.83 104.051 108.661 104.327 108.537C104.605 108.413 104.911 108.351 105.243 108.351C105.77 108.351 106.182 108.484 106.481 108.748C106.779 109.01 106.934 109.372 106.946 109.834V111.937C106.946 112.357 106.999 112.691 107.106 112.939V113.006H106.287ZM104.99 112.411C105.235 112.411 105.467 112.347 105.687 112.22C105.906 112.094 106.065 111.929 106.164 111.726V110.788H105.552C104.594 110.788 104.115 111.069 104.115 111.629C104.115 111.874 104.197 112.066 104.36 112.204C104.524 112.342 104.734 112.411 104.99 112.411ZM111.905 113.006H111.123V111.055H109.024V113.006H108.238V108.436H109.024V110.417H111.123V108.436H111.905V113.006ZM113.125 112.368L113.396 112.035C113.7 111.64 113.873 111.049 113.915 110.26L113.987 108.436H116.931V112.368H117.518V114.349H116.737V113.006H113.548V114.349H112.766L112.77 112.368H113.125ZM114.05 112.368H116.15V109.158H114.743L114.697 110.248C114.649 111.157 114.433 111.864 114.05 112.368ZM122.245 110.772C122.245 111.467 122.086 112.028 121.768 112.453C121.45 112.878 121.019 113.091 120.475 113.091C119.92 113.091 119.484 112.915 119.166 112.563V114.763H118.384V108.436H119.098L119.136 108.943C119.454 108.548 119.896 108.351 120.462 108.351C121.012 108.351 121.445 108.558 121.764 108.972C122.085 109.386 122.245 109.962 122.245 110.7V110.772ZM121.464 110.683C121.464 110.168 121.354 109.761 121.134 109.462C120.914 109.164 120.613 109.014 120.23 109.014C119.757 109.014 119.402 109.224 119.166 109.644V111.828C119.399 112.244 119.757 112.453 120.239 112.453C120.613 112.453 120.91 112.305 121.13 112.009C121.352 111.711 121.464 111.269 121.464 110.683Z" fill="#BDBDBD"/>
<path d="M70.7438 82.0434H71.9305V87.7836H70.7438V83.9712L68.4454 87.7836H67.2626V82.0434H68.4454V85.8636L70.7438 82.0434ZM75.4787 86.4392L76.5944 83.5178H78.0216V87.7836H76.8822V85.1658L75.8611 87.7836H75.0963L74.0949 85.2091V87.7836H72.9556V83.5178H74.3709L75.4787 86.4392ZM82.5712 83.5178V87.7836H81.4358V86.3091H80.7143L79.8943 87.7836H78.7391L79.6696 86.1159C79.4146 85.9976 79.2175 85.8373 79.0782 85.6349C78.9415 85.4326 78.8732 85.2026 78.8732 84.945C78.8732 84.5324 79.0322 84.1946 79.3502 83.9318C79.6709 83.6663 80.0993 83.5283 80.6355 83.5178H82.5712ZM80.6552 85.5127H81.4358V84.4325H80.6946C80.4922 84.4325 80.3279 84.4864 80.2018 84.5941C80.0756 84.6993 80.0125 84.828 80.0125 84.9805C80.0125 85.1329 80.073 85.2591 80.1939 85.359C80.3148 85.4588 80.4686 85.5101 80.6552 85.5127Z" fill="#333333"/>
<rect x="67.6541" y="219.639" width="96.3131" height="17.8785" rx="2.59526" stroke="#CDCEDE" stroke-width="0.576725"/>
<path d="M80.1356 230.658H79.3204V225.175H76.2875V230.658H75.4765V224.508H80.1356V230.658ZM85.3523 228.423C85.3523 229.119 85.1932 229.679 84.875 230.105C84.5568 230.53 84.126 230.742 83.5825 230.742C83.0277 230.742 82.5912 230.566 82.273 230.214V232.415H81.4916V226.088H82.2054L82.2434 226.594C82.5616 226.2 83.0038 226.003 83.5698 226.003C84.1189 226.003 84.5526 226.21 84.8708 226.624C85.1918 227.038 85.3523 227.614 85.3523 228.352V228.423ZM84.5709 228.335C84.5709 227.819 84.4611 227.412 84.2414 227.114C84.0218 226.815 83.7204 226.666 83.3375 226.666C82.8644 226.666 82.5096 226.876 82.273 227.296V229.479C82.5067 229.896 82.8644 230.105 83.3459 230.105C83.7204 230.105 84.0175 229.957 84.2372 229.661C84.4597 229.363 84.5709 228.92 84.5709 228.335ZM86.1422 228.331C86.1422 227.883 86.2295 227.48 86.4041 227.122C86.5815 226.765 86.8265 226.489 87.1391 226.295C87.4545 226.1 87.8136 226.003 88.2163 226.003C88.8386 226.003 89.3413 226.218 89.7242 226.649C90.11 227.08 90.3029 227.653 90.3029 228.369V228.423C90.3029 228.868 90.2171 229.268 90.0453 229.623C89.8763 229.975 89.6327 230.25 89.3145 230.447C88.9991 230.644 88.6358 230.742 88.2247 230.742C87.6052 230.742 87.1025 230.527 86.7167 230.096C86.3337 229.665 86.1422 229.095 86.1422 228.385V228.331ZM86.9279 228.423C86.9279 228.93 87.0448 229.337 87.2785 229.644C87.5151 229.951 87.8305 230.105 88.2247 230.105C88.6218 230.105 88.9372 229.95 89.1709 229.64C89.4046 229.327 89.5215 228.891 89.5215 228.331C89.5215 227.829 89.4018 227.424 89.1624 227.114C88.9259 226.801 88.6105 226.645 88.2163 226.645C87.8305 226.645 87.5193 226.799 87.2827 227.106C87.0462 227.412 86.9279 227.852 86.9279 228.423ZM93.1162 230.105C93.395 230.105 93.6385 230.02 93.8469 229.851C94.0553 229.682 94.1708 229.471 94.1933 229.218H94.9325C94.9184 229.479 94.8283 229.729 94.6622 229.965C94.496 230.202 94.2736 230.39 93.9948 230.531C93.7188 230.672 93.4259 230.742 93.1162 230.742C92.4938 230.742 91.9982 230.535 91.6293 230.122C91.2632 229.705 91.0802 229.136 91.0802 228.415V228.284C91.0802 227.839 91.1618 227.443 91.3252 227.097C91.4885 226.751 91.7222 226.482 92.0264 226.29C92.3333 226.099 92.6952 226.003 93.1119 226.003C93.6245 226.003 94.0497 226.157 94.3876 226.463C94.7283 226.77 94.91 227.169 94.9325 227.659H94.1933C94.1708 227.363 94.0581 227.121 93.8554 226.932C93.6554 226.741 93.4076 226.645 93.1119 226.645C92.7149 226.645 92.4065 226.789 92.1869 227.076C91.97 227.36 91.8616 227.773 91.8616 228.314V228.461C91.8616 228.988 91.97 229.394 92.1869 229.678C92.4037 229.962 92.7135 230.105 93.1162 230.105ZM98.4427 229.623L99.9972 226.088H100.973V230.658H100.191V227.334L98.713 230.658H98.1724L96.6644 227.262V230.658H95.8829V226.088H96.8967L98.4427 229.623ZM102.025 228.331C102.025 227.883 102.112 227.48 102.287 227.122C102.464 226.765 102.709 226.489 103.022 226.295C103.337 226.1 103.696 226.003 104.099 226.003C104.721 226.003 105.224 226.218 105.607 226.649C105.993 227.08 106.185 227.653 106.185 228.369V228.423C106.185 228.868 106.1 229.268 105.928 229.623C105.759 229.975 105.515 230.25 105.197 230.447C104.882 230.644 104.518 230.742 104.107 230.742C103.488 230.742 102.985 230.527 102.599 230.096C102.216 229.665 102.025 229.095 102.025 228.385V228.331ZM102.81 228.423C102.81 228.93 102.927 229.337 103.161 229.644C103.398 229.951 103.713 230.105 104.107 230.105C104.504 230.105 104.82 229.95 105.053 229.64C105.287 229.327 105.404 228.891 105.404 228.331C105.404 227.829 105.284 227.424 105.045 227.114C104.808 226.801 104.493 226.645 104.099 226.645C103.713 226.645 103.402 226.799 103.165 227.106C102.929 227.412 102.81 227.852 102.81 228.423ZM110.469 226.721H108.935V230.658H108.154V226.721H106.65V226.088H110.469V226.721ZM115.09 228.423C115.09 229.119 114.931 229.679 114.612 230.105C114.294 230.53 113.863 230.742 113.32 230.742C112.765 230.742 112.329 230.566 112.01 230.214V232.415H111.229V226.088H111.943L111.981 226.594C112.299 226.2 112.741 226.003 113.307 226.003C113.856 226.003 114.29 226.21 114.608 226.624C114.929 227.038 115.09 227.614 115.09 228.352V228.423ZM114.308 228.335C114.308 227.819 114.198 227.412 113.979 227.114C113.759 226.815 113.458 226.666 113.075 226.666C112.602 226.666 112.247 226.876 112.01 227.296V229.479C112.244 229.896 112.602 230.105 113.083 230.105C113.458 230.105 113.755 229.957 113.975 229.661C114.197 229.363 114.308 228.92 114.308 228.335Z" fill="#4F4F4F"/>
<path d="M155.604 227.425C155.397 227.61 153.788 229.04 153.009 229.732L150.414 227.425" stroke="#4F4F4F" stroke-width="0.865087" stroke-linecap="round" stroke-linejoin="round"/>
<rect x="289.116" y="219.639" width="96.1497" height="17.8785" rx="2.59526" stroke="#CDCEDE" stroke-width="0.576725"/>
<path d="M301.97 230.658H301.155V225.175H298.122V230.658H297.311V224.508H301.97V230.658ZM307.187 228.423C307.187 229.119 307.028 229.679 306.709 230.105C306.391 230.53 305.96 230.742 305.417 230.742C304.862 230.742 304.426 230.566 304.107 230.214V232.415H303.326V226.088H304.04L304.078 226.594C304.396 226.2 304.838 226.003 305.404 226.003C305.953 226.003 306.387 226.21 306.705 226.624C307.026 227.038 307.187 227.614 307.187 228.352V228.423ZM306.405 228.335C306.405 227.819 306.296 227.412 306.076 227.114C305.856 226.815 305.555 226.666 305.172 226.666C304.699 226.666 304.344 226.876 304.107 227.296V229.479C304.341 229.896 304.699 230.105 305.18 230.105C305.555 230.105 305.852 229.957 306.072 229.661C306.294 229.363 306.405 228.92 306.405 228.335ZM307.977 228.331C307.977 227.883 308.064 227.48 308.239 227.122C308.416 226.765 308.661 226.489 308.974 226.295C309.289 226.1 309.648 226.003 310.051 226.003C310.673 226.003 311.176 226.218 311.559 226.649C311.945 227.08 312.137 227.653 312.137 228.369V228.423C312.137 228.868 312.052 229.268 311.88 229.623C311.711 229.975 311.467 230.25 311.149 230.447C310.834 230.644 310.47 230.742 310.059 230.742C309.44 230.742 308.937 230.527 308.551 230.096C308.168 229.665 307.977 229.095 307.977 228.385V228.331ZM308.762 228.423C308.762 228.93 308.879 229.337 309.113 229.644C309.35 229.951 309.665 230.105 310.059 230.105C310.456 230.105 310.772 229.95 311.005 229.64C311.239 229.327 311.356 228.891 311.356 228.331C311.356 227.829 311.236 227.424 310.997 227.114C310.76 226.801 310.445 226.645 310.051 226.645C309.665 226.645 309.354 226.799 309.117 227.106C308.881 227.412 308.762 227.852 308.762 228.423ZM314.951 230.105C315.229 230.105 315.473 230.02 315.681 229.851C315.89 229.682 316.005 229.471 316.028 229.218H316.767C316.753 229.479 316.663 229.729 316.497 229.965C316.33 230.202 316.108 230.39 315.829 230.531C315.553 230.672 315.26 230.742 314.951 230.742C314.328 230.742 313.833 230.535 313.464 230.122C313.098 229.705 312.915 229.136 312.915 228.415V228.284C312.915 227.839 312.996 227.443 313.16 227.097C313.323 226.751 313.557 226.482 313.861 226.29C314.168 226.099 314.53 226.003 314.946 226.003C315.459 226.003 315.884 226.157 316.222 226.463C316.563 226.77 316.744 227.169 316.767 227.659H316.028C316.005 227.363 315.893 227.121 315.69 226.932C315.49 226.741 315.242 226.645 314.946 226.645C314.549 226.645 314.241 226.789 314.021 227.076C313.805 227.36 313.696 227.773 313.696 228.314V228.461C313.696 228.988 313.805 229.394 314.021 229.678C314.238 229.962 314.548 230.105 314.951 230.105ZM320.277 229.623L321.832 226.088H322.807V230.658H322.026V227.334L320.548 230.658H320.007L318.499 227.262V230.658H317.717V226.088H318.731L320.277 229.623ZM323.859 228.331C323.859 227.883 323.946 227.48 324.121 227.122C324.298 226.765 324.543 226.489 324.856 226.295C325.171 226.1 325.53 226.003 325.933 226.003C326.556 226.003 327.058 226.218 327.441 226.649C327.827 227.08 328.02 227.653 328.02 228.369V228.423C328.02 228.868 327.934 229.268 327.762 229.623C327.593 229.975 327.35 230.25 327.031 230.447C326.716 230.644 326.353 230.742 325.942 230.742C325.322 230.742 324.819 230.527 324.434 230.096C324.051 229.665 323.859 229.095 323.859 228.385V228.331ZM324.645 228.423C324.645 228.93 324.762 229.337 324.995 229.644C325.232 229.951 325.547 230.105 325.942 230.105C326.339 230.105 326.654 229.95 326.888 229.64C327.122 229.327 327.238 228.891 327.238 228.331C327.238 227.829 327.119 227.424 326.879 227.114C326.643 226.801 326.327 226.645 325.933 226.645C325.547 226.645 325.236 226.799 325 227.106C324.763 227.412 324.645 227.852 324.645 228.423ZM332.303 226.721H330.77V230.658H329.988V226.721H328.485V226.088H332.303V226.721ZM336.924 228.423C336.924 229.119 336.765 229.679 336.447 230.105C336.129 230.53 335.698 230.742 335.154 230.742C334.6 230.742 334.163 230.566 333.845 230.214V232.415H333.063V226.088H333.777L333.815 226.594C334.134 226.2 334.576 226.003 335.142 226.003C335.691 226.003 336.124 226.21 336.443 226.624C336.764 227.038 336.924 227.614 336.924 228.352V228.423ZM336.143 228.335C336.143 227.819 336.033 227.412 335.813 227.114C335.594 226.815 335.292 226.666 334.909 226.666C334.436 226.666 334.081 226.876 333.845 227.296V229.479C334.079 229.896 334.436 230.105 334.918 230.105C335.292 230.105 335.589 229.957 335.809 229.661C336.032 229.363 336.143 228.92 336.143 228.335Z" fill="#4F4F4F"/>
<path d="M377.644 227.425C377.39 227.61 375.424 229.04 374.472 229.732L371.3 227.425" stroke="#4F4F4F" stroke-width="0.865087" stroke-linecap="round" stroke-linejoin="round"/>
<rect x="178.962" y="219.639" width="95.943" height="17.8785" rx="2.59526" stroke="#CDCEDE" stroke-width="0.576725"/>
<path d="M187.323 228.25V230.658H186.512V224.508H188.78C189.453 224.508 189.98 224.68 190.36 225.023C190.743 225.367 190.934 225.821 190.934 226.387C190.934 226.984 190.747 227.445 190.373 227.769C190.001 228.09 189.467 228.25 188.772 228.25H187.323ZM187.323 227.587H188.78C189.214 227.587 189.546 227.486 189.777 227.283C190.008 227.077 190.123 226.782 190.123 226.396C190.123 226.03 190.008 225.737 189.777 225.517C189.546 225.298 189.229 225.184 188.827 225.175H187.323V227.587ZM193.684 230.742C193.065 230.742 192.561 230.54 192.172 230.134C191.783 229.726 191.589 229.181 191.589 228.499V228.356C191.589 227.902 191.675 227.498 191.847 227.144C192.021 226.786 192.263 226.507 192.573 226.307C192.886 226.104 193.224 226.003 193.587 226.003C194.181 226.003 194.643 226.199 194.973 226.59C195.302 226.982 195.467 227.542 195.467 228.271V228.597H192.37C192.382 229.047 192.513 229.412 192.763 229.691C193.017 229.967 193.338 230.105 193.726 230.105C194.002 230.105 194.236 230.048 194.428 229.936C194.619 229.823 194.787 229.674 194.93 229.488L195.408 229.86C195.025 230.448 194.45 230.742 193.684 230.742ZM193.587 226.645C193.272 226.645 193.007 226.761 192.793 226.991C192.579 227.22 192.447 227.541 192.396 227.955H194.685V227.895C194.663 227.498 194.556 227.191 194.364 226.975C194.173 226.755 193.914 226.645 193.587 226.645ZM196.337 230.02L196.607 229.686C196.911 229.292 197.085 228.701 197.127 227.912L197.199 226.088H200.143V230.02H200.73V232.001H199.948V230.658H196.759V232.001H195.978L195.982 230.02H196.337ZM197.262 230.02H199.361V226.81H197.955L197.908 227.9C197.86 228.809 197.645 229.516 197.262 230.02ZM204.418 230.658C204.372 230.568 204.336 230.407 204.308 230.176C203.944 230.554 203.511 230.742 203.007 230.742C202.556 230.742 202.186 230.616 201.896 230.362C201.609 230.106 201.465 229.782 201.465 229.391C201.465 228.915 201.645 228.546 202.006 228.284C202.369 228.019 202.879 227.887 203.535 227.887H204.295V227.528C204.295 227.255 204.213 227.038 204.05 226.877C203.887 226.714 203.646 226.632 203.328 226.632C203.049 226.632 202.815 226.703 202.627 226.844C202.438 226.984 202.343 227.155 202.343 227.355H201.558C201.558 227.127 201.638 226.907 201.799 226.696C201.962 226.482 202.182 226.313 202.458 226.189C202.736 226.065 203.042 226.003 203.374 226.003C203.901 226.003 204.313 226.135 204.612 226.4C204.91 226.662 205.065 227.024 205.076 227.486V229.589C205.076 230.009 205.13 230.343 205.237 230.59V230.658H204.418ZM203.121 230.062C203.366 230.062 203.598 229.999 203.818 229.872C204.037 229.746 204.196 229.581 204.295 229.378V228.44H203.683C202.725 228.44 202.246 228.721 202.246 229.281C202.246 229.526 202.328 229.717 202.491 229.855C202.655 229.993 202.864 230.062 203.121 230.062ZM207.725 228.711H207.155V230.658H206.369V226.088H207.155V228.022H207.666L209.203 226.088H210.15L208.342 228.284L210.302 230.658H209.309L207.725 228.711ZM214.369 226.721H212.836V230.658H212.055V226.721H210.551V226.088H214.369V226.721ZM218.087 226.088H218.868V230.658H218.087V227.325L215.979 230.658H215.197V226.088H215.979V229.425L218.087 226.088ZM223.983 228.423C223.983 229.119 223.824 229.679 223.506 230.105C223.188 230.53 222.757 230.742 222.213 230.742C221.659 230.742 221.222 230.566 220.904 230.214V232.415H220.123V226.088H220.836L220.874 226.594C221.193 226.2 221.635 226.003 222.201 226.003C222.75 226.003 223.184 226.21 223.502 226.624C223.823 227.038 223.983 227.614 223.983 228.352V228.423ZM223.202 228.335C223.202 227.819 223.092 227.412 222.872 227.114C222.653 226.815 222.351 226.666 221.968 226.666C221.495 226.666 221.141 226.876 220.904 227.296V229.479C221.138 229.896 221.495 230.105 221.977 230.105C222.351 230.105 222.649 229.957 222.868 229.661C223.091 229.363 223.202 228.92 223.202 228.335ZM224.773 228.331C224.773 227.883 224.861 227.48 225.035 227.122C225.213 226.765 225.458 226.489 225.77 226.295C226.086 226.1 226.445 226.003 226.847 226.003C227.47 226.003 227.972 226.218 228.355 226.649C228.741 227.08 228.934 227.653 228.934 228.369V228.423C228.934 228.868 228.848 229.268 228.676 229.623C228.507 229.975 228.264 230.25 227.946 230.447C227.63 230.644 227.267 230.742 226.856 230.742C226.236 230.742 225.734 230.527 225.348 230.096C224.965 229.665 224.773 229.095 224.773 228.385V228.331ZM225.559 228.423C225.559 228.93 225.676 229.337 225.91 229.644C226.146 229.951 226.461 230.105 226.856 230.105C227.253 230.105 227.568 229.95 227.802 229.64C228.036 229.327 228.152 228.891 228.152 228.331C228.152 227.829 228.033 227.424 227.793 227.114C227.557 226.801 227.242 226.645 226.847 226.645C226.461 226.645 226.15 226.799 225.914 227.106C225.677 227.412 225.559 227.852 225.559 228.423ZM229.986 230.658V226.088H231.768C232.377 226.088 232.843 226.195 233.166 226.409C233.493 226.62 233.656 226.931 233.656 227.342C233.656 227.553 233.593 227.745 233.466 227.917C233.34 228.086 233.152 228.215 232.905 228.305C233.181 228.37 233.402 228.497 233.568 228.685C233.737 228.874 233.821 229.099 233.821 229.361C233.821 229.781 233.666 230.102 233.357 230.324C233.05 230.547 232.615 230.658 232.051 230.658H229.986ZM230.767 228.652V230.029H232.06C232.386 230.029 232.63 229.968 232.791 229.847C232.954 229.726 233.036 229.555 233.036 229.336C233.036 228.88 232.7 228.652 232.03 228.652H230.767ZM230.767 228.026H231.777C232.509 228.026 232.875 227.812 232.875 227.384C232.875 226.956 232.529 226.735 231.836 226.721H230.767V228.026ZM237.678 230.658C237.633 230.568 237.596 230.407 237.568 230.176C237.205 230.554 236.771 230.742 236.267 230.742C235.816 230.742 235.446 230.616 235.156 230.362C234.869 230.106 234.725 229.782 234.725 229.391C234.725 228.915 234.905 228.546 235.266 228.284C235.629 228.019 236.139 227.887 236.795 227.887H237.555V227.528C237.555 227.255 237.474 227.038 237.31 226.877C237.147 226.714 236.906 226.632 236.588 226.632C236.309 226.632 236.075 226.703 235.887 226.844C235.698 226.984 235.604 227.155 235.604 227.355H234.818C234.818 227.127 234.898 226.907 235.059 226.696C235.222 226.482 235.442 226.313 235.718 226.189C235.997 226.065 236.302 226.003 236.634 226.003C237.161 226.003 237.574 226.135 237.872 226.4C238.171 226.662 238.325 227.024 238.337 227.486V229.589C238.337 230.009 238.39 230.343 238.497 230.59V230.658H237.678ZM236.381 230.062C236.626 230.062 236.858 229.999 237.078 229.872C237.298 229.746 237.457 229.581 237.555 229.378V228.44H236.943C235.985 228.44 235.507 228.721 235.507 229.281C235.507 229.526 235.588 229.717 235.752 229.855C235.915 229.993 236.125 230.062 236.381 230.062ZM243.296 230.658H242.514V228.706H240.415V230.658H239.629V226.088H240.415V228.069H242.514V226.088H243.296V230.658ZM247.511 226.088H248.293V230.658H247.511V227.325L245.404 230.658H244.622V226.088H245.404V229.425L247.511 226.088ZM251.444 230.742C250.824 230.742 250.32 230.54 249.932 230.134C249.543 229.726 249.349 229.181 249.349 228.499V228.356C249.349 227.902 249.435 227.498 249.606 227.144C249.781 226.786 250.023 226.507 250.333 226.307C250.646 226.104 250.984 226.003 251.347 226.003C251.941 226.003 252.403 226.199 252.732 226.59C253.062 226.982 253.227 227.542 253.227 228.271V228.597H250.13C250.142 229.047 250.272 229.412 250.523 229.691C250.777 229.967 251.098 230.105 251.486 230.105C251.762 230.105 251.996 230.048 252.187 229.936C252.379 229.823 252.546 229.674 252.69 229.488L253.167 229.86C252.784 230.448 252.21 230.742 251.444 230.742ZM251.347 226.645C251.031 226.645 250.767 226.761 250.553 226.991C250.339 227.22 250.206 227.541 250.156 227.955H252.445V227.895C252.423 227.498 252.316 227.191 252.124 226.975C251.933 226.755 251.673 226.645 251.347 226.645Z" fill="#4F4F4F"/>
<path d="M266.336 227.425C266.128 227.61 264.519 229.04 263.741 229.732L261.145 227.425" stroke="#4F4F4F" stroke-width="0.865087" stroke-linecap="round" stroke-linejoin="round"/>
<defs>
<filter id="filter0_d" x="0.465501" y="0.772401" width="452.152" height="343.151" filterUnits="userSpaceOnUse" color-interpolation-filters="sRGB">
<feFlood flood-opacity="0" result="BackgroundImageFix"/>
<feColorMatrix in="SourceAlpha" type="matrix" values="0 0 0 0 0 0 0 0 0 0 0 0 0 0 0 0 0 0 127 0"/>
<feOffset dy="2.3069"/>
<feGaussianBlur stdDeviation="5.76725"/>
<feColorMatrix type="matrix" values="0 0 0 0 0.220981 0 0 0 0 0.219028 0 0 0 0 0.316667 0 0 0 0.17 0"/>
<feBlend mode="normal" in2="BackgroundImageFix" result="effect1_dropShadow"/>
<feBlend mode="normal" in="SourceGraphic" in2="effect1_dropShadow" result="shape"/>
</filter>
</defs>
</svg>
