<svg width="86" height="86" fill="none" xmlns="http://www.w3.org/2000/svg"><path d="M43 86c23.748 0 43-19.252 43-43S66.748 0 43 0 0 19.252 0 43s19.252 43 43 43z" fill="#3A9BF5"/><path d="M49.8 85.463c17.77-2.824 31.912-16.531 35.38-34.078L70.682 36.887l-1.62 2.213-14.206-14.205L18.31 45.283l7.228 7.227-2.814 5.877L49.8 85.463z" fill="#1478D2"/><path d="M35.789 16.948c-12.519 0-22.668 7.75-22.668 17.312 0 5.845 3.794 11.014 9.603 14.148v9.979l8.488-7.168a29.65 29.65 0 004.577.353c12.519 0 22.667-7.75 22.667-17.312 0-9.561-10.148-17.312-22.667-17.312z" fill="#fff"/><path d="M35.789 16.948h-.104v34.623l.104.001c12.518 0 22.667-7.75 22.667-17.312 0-9.561-10.149-17.312-22.667-17.312z" fill="#DCE1EB"/><path d="M52.227 29.628c12.519 0 22.667 7.751 22.667 17.313 0 5.845-3.793 11.013-9.603 14.148v9.979l-8.487-7.169c-1.478.232-3.01.354-4.577.354-12.519 0-22.668-7.751-22.668-17.312 0-9.562 10.149-17.313 22.668-17.313z" fill="#FFDA00"/><path d="M52.227 29.628c-.082 0-.163.002-.245.003v34.62l.245.002c1.568 0 3.098-.122 4.577-.354l8.487 7.169v-9.979c5.81-3.134 9.603-8.303 9.603-14.148 0-9.562-10.148-17.313-22.667-17.313z" fill="#FFA426"/></svg>