<svg width="86" height="86" fill="none" xmlns="http://www.w3.org/2000/svg"><path d="M43 86c23.748 0 43-19.252 43-43S66.748 0 43 0 0 19.252 0 43s19.252 43 43 43z" fill="#34D678"/><path d="M86 43c0-1.56-.085-3.1-.247-4.617l-16.61-16.61L56.91 32.967l-6.76-6.76-6.72 11.913 3.75 3.75-9.295 3.253-23.27 7.438 33.171 33.172C69.281 83.353 86 65.13 86 43z" fill="#219653"/><path d="M39.248 52.159h-13.59v6.315h13.59v-6.315z" fill="#324A5E"/><path d="M39.25 52.159h-6.77v6.315h6.77v-6.315z" fill="#2B3B4E"/><path d="M49.282 53.05H15.626a1.293 1.293 0 01-1.292-1.292V27.163c0-.714.578-1.293 1.292-1.293h33.656c.714 0 1.292.579 1.292 1.293v24.595c0 .714-.578 1.293-1.292 1.293z" fill="#2B3B4E"/><path d="M49.282 25.87H32.478v27.18H49.28c.714 0 1.293-.578 1.293-1.292V27.163c0-.714-.578-1.293-1.292-1.293z" fill="#1D2C3A"/><path d="M49.202 27.416H15.706v24.091h33.496V27.416z" fill="#B5F1F4"/><path d="M49.203 27.416H32.48v24.091h16.723V27.416z" fill="#84DBFF"/><path d="M39.813 60.532H25.095a1.7 1.7 0 01-1.701-1.7v-1.129a1.7 1.7 0 011.7-1.7h14.72c.938 0 1.7.76 1.7 1.7v1.128a1.7 1.7 0 01-1.7 1.701z" fill="#2B3B4E"/><path d="M39.813 56.002H32.48v4.53h7.334a1.7 1.7 0 001.701-1.7v-1.129a1.7 1.7 0 00-1.7-1.7z" fill="#1D2C3A"/><path d="M67.962 62.111h-14.46a1.83 1.83 0 01-1.83-1.83V23.17c0-1.011.82-1.83 1.83-1.83h14.46a1.83 1.83 0 011.83 1.83v37.11a1.83 1.83 0 01-1.83 1.83z" fill="#2B3B4E"/><path d="M67.963 21.34h-7.3v40.771h7.3c1.01 0 1.83-.82 1.83-1.83V23.17a1.83 1.83 0 00-1.83-1.83z" fill="#1D2C3A"/><path d="M60.733 52.022a1.236 1.236 0 100-2.471 1.236 1.236 0 000 2.47z" fill="#84DBFF"/><path d="M60.733 55.523a1.236 1.236 0 100-2.472 1.236 1.236 0 000 2.472z" fill="#4CDBC4"/><path d="M68.56 26.761H52.909v2.746h15.65V26.76zm0-3.636H52.909v2.745h15.65v-2.745zm0 7.276H52.909v2.746h15.65V30.4z" fill="#324A5E"/><path d="M59.497 50.786c0 .658.517 1.192 1.166 1.228v-2.457a1.233 1.233 0 00-1.166 1.229z" fill="#B5F1F4"/><path d="M60.733 49.55c-.024 0-.046.006-.07.007v2.457c.024.002.046.007.07.007a1.236 1.236 0 100-2.47z" fill="#84DBFF"/><path d="M59.497 54.286c0 .66.517 1.192 1.166 1.229v-2.457a1.232 1.232 0 00-1.166 1.228z" fill="#4CDBC4"/><path d="M60.733 53.051c-.024 0-.046.006-.07.007v2.457c.024.001.046.007.07.007a1.236 1.236 0 000-2.47z" fill="#2C9984"/><path d="M68.557 26.761h-7.894v2.746h7.894V26.76zm0-3.636h-7.894v2.745h7.894v-2.745zm0 7.276h-7.894v2.746h7.894V30.4z" fill="#2B3B4E"/></svg>