<svg width="86" height="87" fill="none" xmlns="http://www.w3.org/2000/svg"><path d="M43 .97C19.253.97 0 20.206 0 43.937c0 21.566 15.9 39.422 36.625 42.5l49.36-43.72C85.337 19.553 66.34.97 43 .97z" fill="#71E2F0"/><path d="M86 44c0-.429-.008-.855-.02-1.28l-28.92-28.9-28.177 28.156 12.525 12.515-22.864 13.947 18.072 18.059c2.083.31 4.214.472 6.383.472C66.748 86.97 86 67.731 86 44z" fill="#38C6D9"/><path d="M42.971 7.99c11.004 0 19.924 8.913 19.924 19.908 0 10.996-8.92 19.909-19.924 19.909l-6.99-19.909L42.97 7.99z" fill="#366796"/><path d="M42.971 7.99v39.817c-11.003 0-19.923-8.913-19.923-19.909 0-10.995 8.92-19.908 19.924-19.908z" fill="#5488A8"/><path d="M60.517 51.544a39.514 39.514 0 0112.449 9.662C66.987 71.543 55.806 78.5 42.999 78.5L39.26 61.285l17.908-9.741h3.35z" fill="#121149"/><path d="M25.481 51.544a39.514 39.514 0 00-12.448 9.662C19.01 71.543 30.192 78.5 42.999 78.5V58.55l-14.168-7.006h-3.35z" fill="#366796"/><path d="M51.88 51.544L41.13 58.55 43 65.701l14.168-14.158H51.88z" fill="#366796"/><path d="M34.119 51.544l8.88 7.006v7.152L28.831 51.544h5.288z" fill="#5488A8"/><path d="M43 51.544l-1.87 3.79L43 60.417l8.88-8.873H43z" fill="#C2FBFF"/><path d="M34.119 51.544l8.88 8.873v-8.873h-8.88z" fill="#fff"/></svg>