<svg width="86" height="86" fill="none" xmlns="http://www.w3.org/2000/svg"><path d="M43 86c23.748 0 43-19.252 43-43S66.748 0 43 0 0 19.252 0 43s19.252 43 43 43z" fill="#334D5C"/><path d="M45.195 58.913l1.07-2.879-3.284-2.44-3.294 2.449 1.19 2.87h4.318z" fill="#EF4C35"/><path d="M40.877 58.913l.063.152-1.47 9.203h7.143l-1.471-9.212.053-.143h-4.318z" fill="#DD3E2B"/><path d="M40.386 68.268l1.488-9.315-1.438-3.467-4.612-4.43.903 6.642 2.931 10.57h.728z" fill="#D2D2D7"/><path d="M46.44 68.268l2.964-10.692.904-6.644-4.8 4.54-1.297 3.49 1.486 9.306h.742z" fill="#E4E4EA"/><path d="M46.507 57.338c.95.706 1.524.077 1.738-.25l3.024-6.278-3.903-2.602-.921 1.676-3.433 3.599-3.34-3.287-.648-2.273-4.33 2.887 2.952 6.13c.082.163.681 1.247 1.823.399l3.512-2.61 3.348 2.487c.053.033.111.072.178.122z" fill="#F5F5F7"/><path d="M43.48 16.845h-.917c-6.257 0-11.347 5.142-11.347 11.462v5.376s2.583-.258 2.901-1.524l-.002-.001c.11-.12.2-.256.265-.41 1.465-.044 8.311-.098 12.22-4.866.467 1.378 2.045 3.988 5.082 4.81.062.167.155.317.269.447l-.025.02c.317 1.266 2.901 1.525 2.901 1.525v-5.378c0-6.319-5.09-11.46-11.348-11.46zm8.555 14.491l.11-.08h.015l-.178.133.053-.053zm-.056.035l.013-.04.037-.075h.016l-.045.095-.02.02zm-.3.235l-.005-.006.28-.205-.066.064-.205.153-.005-.006zm.23-.067l-.087.183h-.002l-.012-.006-.006-.003.143-.287.004-.003-.04.116z" fill="#EA8C00"/><path d="M53.464 32.022a1.418 1.418 0 00-1.272.215 1.449 1.449 0 00-.582 1.162v4.112c0 .46.216.89.582 1.162a1.418 1.418 0 001.272.216 3.53 3.53 0 00.8-.37 1.44 1.44 0 00.39-.357c.158-.082.299-.193.416-.327a3.61 3.61 0 00.896-2.38 3.577 3.577 0 00-2.502-3.433z" fill="#FFDCB8"/><path d="M33.892 32.236a1.418 1.418 0 00-1.272-.215 3.578 3.578 0 00-2.502 3.434 3.578 3.578 0 002.502 3.434 1.42 1.42 0 001.272-.215c.366-.272.582-.704.582-1.163V33.4c0-.459-.216-.89-.582-1.163zM46.943 44.68a1.428 1.428 0 00-1.05-.4l-.048.003a1.439 1.439 0 00-.26.033 7.634 7.634 0 01-1.67.187H42.17a7.64 7.64 0 01-1.72-.198 1.415 1.415 0 00-1.21.278c-.34.273-.538.69-.538 1.128v4.198l-.001.014c-.023.416.134.822.43 1.114L42 53.86c.267.262.625.409.997.409h.023c.38-.007.743-.166 1.006-.442l2.958-3.101c.256-.269.4-.628.4-1v-4.005c0-.393-.16-.77-.441-1.042z" fill="#EDBA89"/><path d="M51.395 30.844a4.958 4.958 0 01-.495-.222c-2.401-1.13-3.398-2.602-3.799-3.48a.972.972 0 01-.072-.116c-.287-.533-.734-.195-.734-.195l-.002-.002c-2.242 1.737-4.69 2.753-6.727 3.344-.792.236-1.552.407-2.238.532-1.365.253-2.242.286-2.242.286a1.438 1.438 0 00-1.327 1.44v5.888c0 4.683 3.773 8.493 8.41 8.493h1.747c4.636 0 8.409-3.81 8.409-8.493v-6.123c0-.603-.372-1.141-.93-1.352z" fill="#FFDCB8"/><path d="M26.67 68.268h13.927l-4.99-17.995-5.147 2.167-.007.002c-2.09.741-5.628 3.43-5.628 8.804v5.16c.027.556.26 1.862 1.846 1.862zm34.387-1.799v-5.223c0-5.44-3.68-8.135-5.636-8.806l-4.953-2.085L45.5 68.268h13.715c1.528 0 1.8-1.214 1.842-1.8z" fill="#FCD462"/></svg>