<svg width="86" height="86" fill="none" xmlns="http://www.w3.org/2000/svg"><path d="M43 86c23.748 0 43-19.252 43-43S66.748 0 43 0 0 19.252 0 43s19.252 43 43 43z" fill="#334D5C"/><path d="M18.365 58.502v.51c0 1.052.852 1.904 1.903 1.904h35.41v-2.414H18.365z" fill="#F6C358"/><path d="M55.678 25.084h-35.41a1.904 1.904 0 00-1.903 1.903v31.515h37.313V25.084z" fill="#FCD462"/><path d="M55.678 58.502v2.414h8.934a1.904 1.904 0 001.903-1.903v-.511H55.678z" fill="#CC7940"/><path d="M66.515 58.502V26.987a1.903 1.903 0 00-1.904-1.903h-8.933v33.418h10.837zM33.017 27.93a.427.427 0 00-.427-.426h-2.292a.427.427 0 000 .854h2.292a.427.427 0 00.427-.427zM29.38 57.642h-2.292a.427.427 0 000 .854h2.292a.427.427 0 000-.854zm-4.584 0h-1.798c-.127 0-.251-.017-.37-.05a.427.427 0 10-.234.821c.195.055.398.084.604.084h1.797a.427.427 0 000-.855zM42.185 27.93a.427.427 0 00-.427-.426h-2.292a.427.427 0 000 .854h2.292a.427.427 0 00.427-.427zm-8.221 29.712h-2.292a.427.427 0 000 .854h2.292a.427.427 0 000-.854zm4.584 0h-2.292a.427.427 0 000 .854h2.292a.427.427 0 000-.854zM37.6 27.93a.427.427 0 00-.427-.426h-2.291a.427.427 0 000 .854h2.291a.427.427 0 00.427-.427zm-9.167 0a.427.427 0 00-.427-.426h-2.292a.427.427 0 000 .854h2.292a.427.427 0 00.427-.427zm-7.221 21.05a.427.427 0 00-.427.427V51.7a.427.427 0 00.854 0v-2.292a.427.427 0 00-.427-.427zm0-4.584a.427.427 0 00-.427.427v2.292a.427.427 0 00.854 0v-2.292a.427.427 0 00-.427-.427zm1.786-16.038h.424a.427.427 0 000-.854h-.426a2.22 2.22 0 00-1.913 1.103.427.427 0 00.738.429 1.364 1.364 0 011.176-.678zm-1.786 25.206a.427.427 0 00-.427.427v2.313c0 .236.19.417.427.417a.436.436 0 00.427-.438v-2.292a.427.427 0 00-.427-.427zm0-22.92a.427.427 0 00-.427.427v2.292a.427.427 0 00.854 0V31.07a.427.427 0 00-.427-.427zm0 4.584a.427.427 0 00-.427.427v2.292a.427.427 0 00.854 0v-2.292a.427.427 0 00-.427-.427zm0 4.584a.427.427 0 00-.427.427v2.292a.427.427 0 00.854 0v-2.292a.427.427 0 00-.427-.427z" fill="#DC8744"/><path d="M63.668 54.492a.427.427 0 00-.427.427v1.364c0 .237-.062.47-.178.675a.426.426 0 10.741.423 2.22 2.22 0 00.291-1.098v-1.364a.427.427 0 00-.427-.427z" fill="#CC7940"/><path d="M43.133 57.642H40.84a.427.427 0 000 .854h2.292a.427.427 0 100-.854z" fill="#DC8744"/><path d="M63.668 49.908a.427.427 0 00-.427.427v2.292a.427.427 0 10.854 0v-2.292a.427.427 0 00-.427-.427zm0-19.775h.002a.427.427 0 00.425-.43 2.225 2.225 0 00-1.596-2.112.428.428 0 00-.238.82c.574.167.977.7.98 1.297a.428.428 0 00.427.425zm-2.199 27.509h-2.293a.427.427 0 000 .854h2.293a.427.427 0 000-.854zm2.199-26.07a.427.427 0 00-.427.427v2.292a.427.427 0 00.854 0v-2.292a.427.427 0 00-.427-.427zm0 9.168a.427.427 0 00-.427.427v2.292a.427.427 0 10.854 0v-2.292a.427.427 0 00-.427-.427zm0-4.584a.427.427 0 00-.427.427v2.291a.427.427 0 10.854 0v-2.291a.427.427 0 00-.427-.427zm0 9.168a.427.427 0 00-.427.427v2.292a.427.427 0 10.854 0v-2.292a.427.427 0 00-.427-.427zM60.521 27.93a.427.427 0 00-.427-.426h-2.292a.427.427 0 000 .854h2.292a.427.427 0 00.427-.427z" fill="#CC7940"/><path d="M47.716 57.642h-2.292a.427.427 0 000 .854h2.292a.427.427 0 100-.854zM46.77 27.93a.427.427 0 00-.428-.426H44.05a.427.427 0 000 .854h2.292a.427.427 0 00.427-.427zm4.583 0a.427.427 0 00-.427-.426h-2.292a.427.427 0 000 .854h2.292a.427.427 0 00.427-.427z" fill="#DC8744"/><path d="M56.884 57.642h-2.291a.427.427 0 000 .854h2.291a.427.427 0 100-.854z" fill="#CC7940"/><path d="M55.937 27.93a.427.427 0 00-.427-.426h-2.292a.427.427 0 000 .854h2.292a.427.427 0 00.427-.427zM52.3 57.642h-2.292a.427.427 0 000 .854H52.3a.427.427 0 100-.854z" fill="#DC8744"/><path d="M67.635 45.897v-5.793c0-.59-.477-1.068-1.067-1.068H49.25c-.59 0-1.067.478-1.067 1.068v5.793c0 .023.005.045.007.068h19.439c.001-.023.006-.045.006-.068z" fill="#D15241"/><path d="M48.19 45.965c.035.557.494.999 1.06.999h17.318c.566 0 1.025-.442 1.06-1H48.19z" fill="#CE412D"/><path d="M52.514 45.652a2.652 2.652 0 100-5.304 2.652 2.652 0 000 5.304z" fill="#EBF0F3"/><path d="M54.137 41.794c.12.259.191.544.191.847 0 1.12-.907 2.027-2.026 2.027a2.016 2.016 0 01-1.62-.82 2.023 2.023 0 003.86-.848c0-.454-.154-.868-.406-1.206z" fill="#D5D6DB"/></svg>