<svg width="19" height="20" fill="none" xmlns="http://www.w3.org/2000/svg"><path d="M6.864 11.034a.447.447 0 00-.44-.454h-1.54a.447.447 0 00-.44.454v1.584c0 .25.197.454.44.454h1.54a.447.447 0 00.44-.454v-1.584zm3.846 0a.447.447 0 00-.44-.454H8.73a.447.447 0 00-.44.454v1.584c0 .25.197.454.44.454h1.54c.243 0 .44-.203.44-.454v-1.584zm3.847 0a.447.447 0 00-.441-.454h-1.54a.447.447 0 00-.44.454v1.584c0 .25.197.454.44.454h1.54c.243 0 .44-.203.44-.454v-1.584zm-7.693 3.959a.447.447 0 00-.44-.454h-1.54a.447.447 0 00-.44.454v1.584c0 .25.197.454.44.454h1.54a.447.447 0 00.44-.454v-1.584zm3.846 0a.447.447 0 00-.44-.454H8.73a.447.447 0 00-.44.454v1.584c0 .25.197.454.44.454h1.54c.243 0 .44-.203.44-.454v-1.584zm3.847 0a.447.447 0 00-.44-.454h-1.54a.447.447 0 00-.441.454v1.584c0 .25.197.454.44.454h1.54c.243 0 .44-.203.44-.454v-1.584z" fill="#E0E0E0"/><path d="M17.309 2.227v2.42c0 1.093-.862 1.974-1.924 1.974H14.17c-1.062 0-1.936-.881-1.936-1.975V2.218h-5.47v2.428c0 1.094-.874 1.975-1.936 1.975H3.615c-1.062 0-1.924-.881-1.924-1.975v-2.42C.763 2.257 0 3.047 0 4.019v14.179C0 19.187.78 20 1.742 20h15.516c.96 0 1.742-.815 1.742-1.803V4.018c0-.972-.763-1.762-1.691-1.791zm-.564 15.087a.764.764 0 01-.753.775H2.975a.764.764 0 01-.753-.775V9.99c0-.428.337-.775.753-.775h13.017c.416 0 .753.347.753.775v7.324z" fill="#E0E0E0"/><path d="M3.611 5.324h1.2a.67.67 0 00.66-.679V.68A.67.67 0 004.812 0h-1.2a.67.67 0 00-.66.679v3.966a.67.67 0 00.66.679zm10.544 0h1.201a.67.67 0 00.66-.679V.68a.67.67 0 00-.66-.679h-1.2a.67.67 0 00-.66.679v3.966a.67.67 0 00.66.679z" fill="#E0E0E0"/></svg>