<svg width="39" height="39" fill="none" xmlns="http://www.w3.org/2000/svg"><circle cx="19.5" cy="19.5" r="19.5" fill="#F3F3F7"/><path d="M27.371 12.892c-.022 0-.022-.022-.043-.044-.022-.023-.022-.045-.044-.067l-3.74-4.29c-.021-.023-.065-.045-.087-.067-.021 0-.021-.022-.043-.022a.402.402 0 00-.174-.045h-9.176c-1.348 0-2.457 1.134-2.457 2.512v15.405c0 1.378 1.11 2.512 2.457 2.512h10.872c1.348 0 2.457-1.134 2.457-2.512V13.047c0-.044-.022-.11-.022-.155zm-3.718-3.023l2.414 2.778h-2.414V9.87zm2.914 16.383c0 .933-.718 1.689-1.631 1.689H14.064c-.913 0-1.63-.756-1.63-1.667V10.847c0-.934.739-1.667 1.63-1.667h8.763v3.867c0 .223.174.423.413.423h3.327v12.782z" fill="#CDCEDE"/><path d="M14.543 13.47h3.63a.417.417 0 00.414-.423.404.404 0 00-.413-.422h-3.631a.417.417 0 00-.414.422c0 .245.196.423.414.423zm3.631 10.203h-3.631a.417.417 0 00-.414.422c0 .223.174.423.414.423h3.63a.417.417 0 00.414-.423.433.433 0 00-.413-.422zm-4.044-7.825c0 .223.173.423.412.423h9.698a.417.417 0 00.413-.423.418.418 0 00-.413-.422h-9.697a.417.417 0 00-.414.422zm10.11 1.668h-9.697a.417.417 0 00-.414.422c0 .222.174.422.414.422h9.697a.417.417 0 00.413-.422.404.404 0 00-.413-.422zm0 2.067h-9.697a.417.417 0 00-.414.422c0 .223.174.423.414.423h9.697a.417.417 0 00.413-.423.404.404 0 00-.413-.422zm0 2.067h-9.697a.417.417 0 00-.414.423c0 .222.174.422.414.422h9.697a.417.417 0 00.413-.422.418.418 0 00-.413-.423z" fill="#CDCEDE"/></svg>