<svg width="58" height="58" fill="none" xmlns="http://www.w3.org/2000/svg"><circle cx="29" cy="29" r="29" fill="#fff"/><mask id="a" maskUnits="userSpaceOnUse" x="0" y="0" width="58" height="58"><circle cx="29" cy="29" r="29" fill="#fff"/></mask><g mask="url(#a)"><path d="M49.412 23.178H36.728v6.383h-6.569v7.825h19.253l-4.294-7.104 4.294-7.104z" fill="#FF6326"/><path d="M21.06 17.884h18.198V32.09H21.06V17.884z" fill="#FF8E00"/><path d="M23.707 13.275h-5.294v2.53h1.382v52.782h2.53V15.806h1.382v-2.531z" fill="#FFD321"/><path d="M39.258 32.091H30.16v5.295l9.1-5.295z" fill="#FF3838"/><path d="M49.412 23.178H36.728v6.383h-6.569v7.825h19.253l-4.294-7.104 4.294-7.104z" fill="#FF3838"/><path d="M39.258 32.091H30.16v5.295l9.1-5.295z" fill="#C30047"/><path d="M30.16 17.884h9.098V32.09H30.16V17.884z" fill="#FF6326"/></g></svg>