<svg width="40" height="40" fill="none" xmlns="http://www.w3.org/2000/svg"><path d="M10 0a2.507 2.507 0 00-2.5 2.5v35c0 1.375 1.125 2.5 2.5 2.5h25c1.375 0 2.5-1.125 2.5-2.5V10l-10-10H10z" fill="#DFDFE0"/><path d="M30 10h7.5l-10-10v7.5c0 1.375 1.125 2.5 2.5 2.5z" fill="#B0B7BD"/><path d="M37.5 17.5L30 10h7.5v7.5z" fill="#CAD1D8"/><path d="M32.5 32.5c0 .688-.563 1.25-1.25 1.25H3.75c-.688 0-1.25-.563-1.25-1.25V20c0-.688.563-1.25 1.25-1.25h27.5c.688 0 1.25.563 1.25 1.25v12.5z" fill="#3BBCED"/><path d="M11.091 23.684c0-.84 1.32-.84 1.32 0v3.947c0 1.57-.75 2.52-2.478 2.52-.85 0-1.56-.231-2.18-1.03-.51-.61.45-1.488.97-.85.42.52.87.64 1.31.62.558-.02 1.05-.271 1.06-1.26v-3.947h-.002zM14.168 23.684c0-.33.26-.69.68-.69h2.308c1.3 0 2.47.87 2.47 2.537 0 1.58-1.17 2.46-2.47 2.46h-1.668v1.32c0 .44-.28.689-.64.689a.674.674 0 01-.68-.689v-5.627zm1.32.569v2.49h1.668c.67 0 1.2-.592 1.2-1.212 0-.698-.53-1.278-1.2-1.278h-1.668zM26.764 29.231c-.71.59-1.58.84-2.459.84-2.1 0-3.589-1.199-3.589-3.579 0-2.017 1.57-3.586 3.678-3.586.79 0 1.659.269 2.279.879.608.599-.27 1.489-.87.96-.37-.36-.89-.63-1.41-.63-1.208 0-2.377.969-2.377 2.378 0 1.48.98 2.38 2.29 2.38.608 0 1.128-.182 1.498-.45v-1.23h-1.499c-.89 0-.8-1.22 0-1.22h1.999c.37 0 .709.28.709.59v2.13c0 .18-.08.347-.25.538z" fill="#fff"/><path d="M31.25 33.75H7.5V35h23.75c.688 0 1.25-.563 1.25-1.25V32.5c0 .688-.563 1.25-1.25 1.25z" fill="#CAD1D8"/></svg>