<svg width="40" height="40" fill="none" xmlns="http://www.w3.org/2000/svg"><path d="M10 0a2.507 2.507 0 00-2.5 2.5v35c0 1.375 1.125 2.5 2.5 2.5h25c1.375 0 2.5-1.125 2.5-2.5V10l-10-10H10z" fill="#DFDFE0"/><path d="M30 10h7.5l-10-10v7.5c0 1.375 1.125 2.5 2.5 2.5z" fill="#B0B7BD"/><path d="M37.5 17.5L30 10h7.5v7.5z" fill="#CAD1D8"/><path d="M32.5 32.5c0 .688-.563 1.25-1.25 1.25H3.75c-.688 0-1.25-.563-1.25-1.25V20c0-.688.563-1.25 1.25-1.25h27.5c.688 0 1.25.563 1.25 1.25v12.5z" fill="#298CFF"/><path d="M7.232 30c-.33 0-.69-.181-.69-.62v-5.676c0-.36.36-.62.69-.62h2.29c4.567 0 4.466 6.916.088 6.916H7.232zm.63-5.698v4.478h1.66c2.698 0 2.817-4.478 0-4.478h-1.66zM17.813 30.1c-1.85.08-3.77-1.15-3.77-3.599 0-2.459 1.92-3.667 3.77-3.667 1.748.088 3.577 1.299 3.577 3.667 0 2.37-1.829 3.599-3.577 3.599zm-.11-5.966c-1.12 0-2.34.79-2.34 2.369 0 1.57 1.22 2.37 2.34 2.37 1.15 0 2.378-.8 2.378-2.37 0-1.58-1.228-2.37-2.378-2.37zM22.566 26.491c0-1.928 1.21-3.587 3.51-3.587.87 0 1.56.26 2.288.89.27.248.3.689.03.968a.679.679 0 01-.92-.03c-.409-.43-.829-.548-1.399-.548-1.539 0-2.277 1.09-2.277 2.308 0 1.24.728 2.38 2.277 2.38.57 0 1.1-.232 1.56-.64.309-.24.739-.122.919.12.16.22.239.59-.11.938-.7.651-1.539.781-2.37.781-2.418 0-3.508-1.651-3.508-3.58z" fill="#fff"/><path d="M31.25 33.75H7.5V35h23.75c.688 0 1.25-.563 1.25-1.25V32.5c0 .688-.563 1.25-1.25 1.25z" fill="#CAD1D8"/></svg>