<svg width="41" height="40" fill="none" xmlns="http://www.w3.org/2000/svg"><path d="M10.25 0C8.84 0 7.687 1.125 7.687 2.5v35c0 1.375 1.154 2.5 2.563 2.5h25.625c1.41 0 2.563-1.125 2.563-2.5V10L28.188 0H10.25z" fill="#DFDFE0"/><path d="M30.75 10h7.688L28.188 0v7.5c0 1.375 1.153 2.5 2.562 2.5z" fill="#B0B7BD"/><path d="M38.438 17.5L30.75 10h7.688v7.5z" fill="#CAD1D8"/><path d="M33.313 32.5c0 .688-.577 1.25-1.282 1.25H3.844c-.705 0-1.281-.563-1.281-1.25V20c0-.688.576-1.25 1.28-1.25h28.188c.705 0 1.282.563 1.282 1.25v12.5z" fill="#16A753"/><path d="M11.558 25.484l1.782-2.179c.533-.68 1.569.189.984.839-.613.71-1.26 1.48-1.874 2.269l2.09 2.538c.563.75-.563 1.469-1.116.729l-1.886-2.359-1.854 2.41c-.523.729-1.681-.09-1.097-.77l2.059-2.548c-.646-.79-1.271-1.56-1.895-2.27-.645-.75.553-1.518 1.025-.817l1.782 2.158zM15.804 23.684c0-.33.287-.61.646-.61.328 0 .605.281.605.61v5.007h2.786c1.004 0 1.025 1.309 0 1.309h-3.39c-.358 0-.646-.249-.646-.609v-5.707zM21.784 24.584c.236-1.94 3.236-2.289 4.65-1.229.698.549-.04 1.419-.655.979-.759-.469-2.48-.689-2.695.349-.276 1.64 4.18.7 4.108 3.36-.072 2.538-3.841 2.597-5.256 1.458a.726.726 0 01-.143-.98c.267-.259.562-.349.912-.069.84.56 3.002.98 3.155-.44-.132-1.478-4.394-.59-4.076-3.428z" fill="#fff"/><path d="M32.031 33.75H7.688V35H32.03c.705 0 1.282-.563 1.282-1.25V32.5c0 .688-.577 1.25-1.282 1.25z" fill="#CAD1D8"/></svg>