<svg width="40" height="40" fill="none" xmlns="http://www.w3.org/2000/svg"><path d="M10 0a2.507 2.507 0 00-2.5 2.5v35c0 1.375 1.125 2.5 2.5 2.5h25c1.375 0 2.5-1.125 2.5-2.5V10l-10-10H10z" fill="#DFDFE0"/><path d="M30 10h7.5l-10-10v7.5c0 1.375 1.125 2.5 2.5 2.5z" fill="#B0B7BD"/><path d="M37.5 17.5L30 10h7.5v7.5z" fill="#CAD1D8"/><path d="M32.5 32.5c0 .688-.563 1.25-1.25 1.25H3.75c-.688 0-1.25-.563-1.25-1.25V20c0-.688.563-1.25 1.25-1.25h27.5c.688 0 1.25.563 1.25 1.25v12.5z" fill="#F15642"/><path d="M7.949 23.684c0-.33.26-.69.678-.69h2.31c1.3 0 2.47.87 2.47 2.537 0 1.58-1.17 2.46-2.47 2.46h-1.67v1.32c0 .44-.28.689-.64.689a.673.673 0 01-.678-.689v-5.627zm1.318.569v2.49h1.67c.67 0 1.2-.592 1.2-1.212 0-.698-.53-1.278-1.2-1.278h-1.67zM15.364 30c-.33 0-.69-.18-.69-.619v-5.677c0-.359.36-.62.69-.62h2.289c4.567 0 4.467 6.916.09 6.916h-2.38zm.63-5.696v4.477h1.659c2.698 0 2.818-4.477 0-4.477h-1.66zM23.74 24.384v1.588h2.549c.36 0 .72.36.72.71 0 .33-.36.6-.72.6H23.74v2.098c0 .35-.249.619-.599.619-.44 0-.708-.269-.708-.619v-5.677c0-.36.27-.62.708-.62h3.51c.44 0 .7.26.7.62 0 .32-.26.68-.7.68h-2.91z" fill="#fff"/><path d="M31.25 33.75H7.5V35h23.75c.688 0 1.25-.563 1.25-1.25V32.5c0 .688-.563 1.25-1.25 1.25z" fill="#CAD1D8"/></svg>