<svg width="41" height="40" fill="none" xmlns="http://www.w3.org/2000/svg"><path d="M10.25 0C8.84 0 7.687 1.125 7.687 2.5v35c0 1.375 1.154 2.5 2.563 2.5h25.625c1.41 0 2.563-1.125 2.563-2.5V10L28.188 0H10.25z" fill="#DFDFE0"/><path d="M30.75 10h7.688L28.188 0v7.5c0 1.375 1.153 2.5 2.562 2.5z" fill="#B0B7BD"/><path d="M38.438 17.5L30.75 10h7.688v7.5z" fill="#CAD1D8"/><path d="M33.313 32.5c0 .688-.577 1.25-1.282 1.25H3.844c-.705 0-1.281-.563-1.281-1.25V20c0-.688.576-1.25 1.28-1.25h28.188c.705 0 1.282.563 1.282 1.25v12.5z" fill="#A066AA"/><path d="M7.433 23.684c0-.33.265-.692.695-.692h2.368c1.331 0 2.53.87 2.53 2.54 0 1.58-1.199 2.458-2.53 2.458H8.783v1.32c0 .441-.284.69-.655.69-.338 0-.695-.249-.695-.69v-5.626zm1.35.569v2.488h1.712c.685 0 1.229-.59 1.229-1.21 0-.7-.544-1.278-1.23-1.278H8.784zM14.332 23.784c0-.361.082-.71.615-.71.368 0 .451.09.727.348l3.39 4.14v-3.878c0-.33.296-.692.646-.692.369 0 .726.362.726.692v5.626c0 .441-.276.609-.543.69-.358 0-.533-.08-.829-.349l-3.39-4.198v3.858c0 .442-.277.69-.646.69s-.697-.248-.697-.69v-5.527h.001zM28.142 29.231c-.727.589-1.619.84-2.52.84-2.152 0-3.678-1.2-3.678-3.579 0-2.018 1.61-3.587 3.77-3.587.809 0 1.7.27 2.335.88.625.599-.277 1.489-.89.96-.38-.361-.913-.63-1.446-.63-1.239 0-2.437.969-2.437 2.378 0 1.48 1.004 2.378 2.346 2.378.624 0 1.157-.18 1.537-.45v-1.227h-1.537c-.912 0-.82-1.221 0-1.221h2.049c.38 0 .727.28.727.59v2.13c0 .178-.081.347-.256.538z" fill="#fff"/><path d="M32.031 33.75H7.688V35H32.03c.705 0 1.282-.563 1.282-1.25V32.5c0 .688-.577 1.25-1.282 1.25z" fill="#CAD1D8"/></svg>