<svg width="11" height="15" fill="none" xmlns="http://www.w3.org/2000/svg"><path d="M5.5 7.217c1.608 0 2.912-1.533 2.912-3.424C8.412 1.903 7.984.37 5.5.37S2.588 1.902 2.588 3.793c0 1.89 1.304 3.424 2.912 3.424zM0 12.444c0-.033 0-.115 0 0zm11 .09c0-.22 0-.032 0 0zm-.007-.228c-.054-3.294-.498-4.233-3.899-4.827 0 0-.478.59-1.594.59s-1.594-.59-1.594-.59C.542 8.067.07 8.992.009 12.2c-.005.261-.008.275-.008.245v.346s.81 1.58 5.499 1.58c4.69 0 5.499-1.58 5.499-1.58v-.256c0 .019-.003-.018-.006-.228z" fill="#CDCEDE"/></svg>