<svg width="122" height="33" fill="none" xmlns="http://www.w3.org/2000/svg"><circle cx="108.885" cy="14.637" r="13.115" fill="#fff"/><path d="M105.204 13.64v4.036h-1.79V8.79h1.79v3.325c.575-.626 1.282-.939 2.119-.939.728 0 1.295.233 1.701.698.406.457.609 1.096.609 1.917v3.884h-1.789V14.16c0-.457-.114-.796-.343-1.016-.22-.22-.508-.33-.863-.33-.271 0-.541.08-.812.242a1.79 1.79 0 00-.622.583zm7.846 4.036h-1.79v-6.334h1.79v1.066c.194-.338.491-.626.888-.863a2.552 2.552 0 011.32-.368c.102 0 .169.004.203.013v1.751a2.292 2.292 0 00-.558-.063c-.415 0-.796.11-1.142.33-.339.211-.576.47-.711.774v3.694z" fill="#333"/><path d="M10.528 21.06H8.467v-9.37h2.06v1.222c.713-.98 1.744-1.47 3.092-1.47.725 0 1.348.153 1.87.458.521.306.884.713 1.087 1.222a3.685 3.685 0 011.412-1.222 4.418 4.418 0 012.004-.457c1.043 0 1.857.324 2.442.973.586.649.878 1.577.878 2.786v5.857h-2.06v-5.38c0-1.54-.637-2.31-1.909-2.31-.496 0-.973.153-1.43.459-.446.292-.77.661-.974 1.106v6.126h-2.06v-5.381c0-1.54-.643-2.31-1.928-2.31-.483 0-.954.147-1.412.44-.445.28-.782.636-1.011 1.068v6.182zm14.862-4.694c0-1.412.445-2.583 1.335-3.511.903-.942 2.061-1.412 3.473-1.412.967 0 1.787.254 2.462.763 1.323.941 1.984 2.353 1.984 4.236v.534H27.47c.127.789.502 1.406 1.125 1.851.636.445 1.438.668 2.405.668 1.068 0 2.073-.28 3.014-.84v1.737c-.865.61-2.016.916-3.453.916-1.438 0-2.665-.458-3.683-1.374-.992-.916-1.488-2.106-1.488-3.569zm2.098-.954h5.076a2.34 2.34 0 00-.668-1.546c-.432-.458-1.03-.687-1.793-.687-.725 0-1.33.216-1.813.649a2.37 2.37 0 00-.802 1.584zm14.889 5.896c-1.438 0-2.55-.51-3.34-1.527v1.279h-2.06V7.703h2.06v5.266c.79-1.018 1.902-1.526 3.34-1.526 1.323 0 2.41.477 3.263 1.43.852.942 1.278 2.106 1.278 3.493 0 1.399-.426 2.57-1.278 3.51-.852.954-1.94 1.431-3.263 1.431zm-.553-1.813c.864 0 1.583-.3 2.156-.897.572-.61.858-1.355.858-2.232 0-.865-.286-1.597-.858-2.195-.573-.61-1.291-.916-2.156-.916-.586 0-1.133.16-1.642.477-.496.306-.877.7-1.144 1.183v2.9c.267.497.648.904 1.145 1.222a3.07 3.07 0 001.64.458zm11.842 0c.865 0 1.597-.3 2.195-.897.585-.585.877-1.33.877-2.232 0-.89-.292-1.629-.877-2.214-.598-.598-1.33-.897-2.195-.897-.877 0-1.615.3-2.213.897-.585.585-.878 1.323-.878 2.214 0 .903.293 1.647.878 2.232.598.598 1.335.897 2.213.897zm0 1.813c-1.5 0-2.735-.477-3.701-1.431-.967-.955-1.45-2.125-1.45-3.511 0-1.374.483-2.538 1.45-3.492.966-.954 2.2-1.431 3.701-1.431 1.476 0 2.703.477 3.683 1.43.967.955 1.45 2.119 1.45 3.493 0 1.373-.483 2.544-1.45 3.51-.98.954-2.207 1.431-3.683 1.431zm8.117-2.805v-5h-2.004v-1.812h2.004V8.962h2.06v2.729h2.958v1.812h-2.957v4.408c0 .522.12.903.362 1.145s.61.363 1.107.363c.496 0 .967-.115 1.412-.344v1.775c-.445.305-1.139.457-2.08.457-.89 0-1.59-.241-2.099-.724-.509-.484-.763-1.177-.763-2.08zm14.787 2.556h-8.242v-1.353l3.723-3.486c.79-.734 1.37-1.366 1.743-1.896.339-.508.508-1.05.508-1.624 0-.598-.22-1.078-.66-1.439-.429-.372-.993-.558-1.692-.558-1.174 0-2.28.49-3.317 1.472v-1.946c.97-.824 2.138-1.236 3.503-1.236 1.117 0 2.064.322 2.843.965.79.643 1.184 1.483 1.184 2.521 0 .802-.197 1.53-.592 2.184-.417.665-1.083 1.432-1.997 2.301l-2.555 2.437h5.55v1.659zm8.996 0h-1.828v-3.096h-6.143V16.54l6.143-7.328h1.828v7.159h1.844v1.59h-1.844v3.098zm-1.828-9.46l-4.028 4.773h4.028V11.6z" fill="#fff"/><path d="M32.688 27.053v3.898a.3.3 0 01-.466.25l-4.665-3.088H6.432c-3 0-5.432-2.489-5.432-5.559V9.62c0-3.071 2.432-5.56 5.432-5.56h21.125" stroke="#fff" stroke-width="1.5"/></svg>