<svg width="19" height="25" fill="none" xmlns="http://www.w3.org/2000/svg"><path d="M9.453 24.785c2.031 0 3.689-1.723 3.783-3.887H5.67c.094 2.164 1.752 3.887 3.782 3.887z" fill="url(#paint0_linear)"/><path d="M8.598 1.792c0-.51.383-.922.856-.922s.856.413.856.922c0 .14-.03.273-.082.392.275.034.546.086.81.155a1.96 1.96 0 00.079-.547C11.117.802 10.372 0 9.454 0 8.535 0 7.79.802 7.79 1.792c0 .191.029.375.08.547a6.24 6.24 0 01.81-.155.98.98 0 01-.082-.392z" fill="url(#paint1_linear)"/><path d="M16.786 16.023c-.47-1.36-.422-4.68-.378-6.066a8.01 8.01 0 00.024-.623c0-4.153-3.124-7.52-6.978-7.52-3.854 0-6.978 3.367-6.978 7.52 0 .21.008.418.024.624.044 1.385.092 4.706-.378 6.065-.621 1.794-1.044 2.072-1.044 2.072H17.83s-.423-.278-1.044-2.072z" fill="#FFB74F"/><path d="M16.786 16.023c-.47-1.36-.422-4.68-.378-6.066a8.01 8.01 0 00.024-.623c0-4.153-3.124-7.52-6.978-7.52-3.854 0-6.978 3.367-6.978 7.52 0 .21.008.418.024.624.044 1.385.092 4.706-.378 6.065-.621 1.794-1.044 2.072-1.044 2.072H17.83s-.423-.278-1.044-2.072z" fill="url(#paint2_linear)"/><path d="M17.283 21.26H1.624C.731 21.26 0 20.471 0 19.508v-.33c0-.963.731-1.75 1.624-1.75h15.66c.893 0 1.623.787 1.623 1.75v.33c0 .963-.73 1.75-1.624 1.75z" fill="url(#paint3_linear)"/><defs><linearGradient id="paint0_linear" x1="3.379" y1="22.841" x2="15.657" y2="22.841" gradientUnits="userSpaceOnUse"><stop stop-color="#FF9A00"/><stop offset="1" stop-color="#C06100"/></linearGradient><linearGradient id="paint1_linear" x1="3.379" y1="1.169" x2="15.657" y2="1.169" gradientUnits="userSpaceOnUse"><stop stop-color="#FFBD53"/><stop offset="1" stop-color="#F80"/></linearGradient><linearGradient id="paint2_linear" x1="3.38" y1="9.955" x2="15.657" y2="9.955" gradientUnits="userSpaceOnUse"><stop stop-color="#FFCF00"/><stop offset="1" stop-color="#FFA91F"/></linearGradient><linearGradient id="paint3_linear" x1="3.379" y1="19.344" x2="15.657" y2="19.344" gradientUnits="userSpaceOnUse"><stop stop-color="#FFBD53"/><stop offset="1" stop-color="#F80"/></linearGradient></defs></svg>