<svg width="58" height="58" fill="none" xmlns="http://www.w3.org/2000/svg"><path d="M58 29c0 15.994-13.006 29-29 29S0 44.994 0 29 13.006 0 29 0s29 13.006 29 29z" fill="#fff"/><path d="M29 46.424c9.623 0 17.424-7.8 17.424-17.424 0-9.623-7.8-17.424-17.424-17.424-9.623 0-17.424 7.8-17.424 17.424 0 9.623 7.8 17.424 17.424 17.424z" fill="url(#paint0_linear)"/><path d="M34.436 19.845a1.266 1.266 0 00-1.742.488 1.266 1.266 0 00.488 1.743c2.648 1.533 4.32 4.32 4.32 7.388 0 4.67-3.832 8.503-8.502 8.503-4.67 0-8.503-3.834-8.503-8.503 0-3.067 1.672-5.855 4.321-7.388a1.266 1.266 0 00.488-1.743 1.266 1.266 0 00-1.742-.488 11.047 11.047 0 00-5.646 9.619A11.065 11.065 0 0029 40.545a11.065 11.065 0 0011.082-11.081c0-3.973-2.16-7.667-5.646-9.619z" fill="#fff"/><path d="M29 25.91c.697 0 1.324-.558 1.324-1.325v-7.806c0-.697-.557-1.324-1.324-1.324s-1.324.557-1.324 1.324v7.806c0 .697.627 1.324 1.324 1.324z" fill="#fff"/><defs><linearGradient id="paint0_linear" x1="29" y1="11.576" x2="29" y2="46.424" gradientUnits="userSpaceOnUse"><stop stop-color="#FFE24E"/><stop offset="1" stop-color="#FFA91F"/></linearGradient></defs></svg>