<svg width="20" height="19" fill="none" xmlns="http://www.w3.org/2000/svg"><path d="M10 1.113c-4.84 0-8.763 3.877-8.763 8.659a8.58 8.58 0 002.53 6.084l-1.292 1.637a.926.926 0 00.164 1.31.949.949 0 00.58.197c.281 0 .56-.123.746-.359 0 0 .79-1.002 1.27-1.607A8.783 8.783 0 0010 18.433a8.789 8.789 0 004.767-1.4l1.269 1.608a.95.95 0 001.325.162.925.925 0 00.165-1.31l-1.293-1.637a8.576 8.576 0 002.529-6.084c0-4.782-3.923-8.659-8.763-8.659zM2.925 9.772c0-3.855 3.174-6.99 7.074-6.99 3.902 0 7.075 3.135 7.075 6.99 0 3.856-3.173 6.993-7.075 6.993s-7.074-3.137-7.074-6.993z" fill="#828282"/><path d="M10.577 8.597l.005-2.427a.56.56 0 00-.562-.558.56.56 0 00-.563.556l-.005 2.413a1.323 1.323 0 00-.675.682l-4.074-.008a.56.56 0 00-.563.557c0 .304.25.554.562.555l4.126.007c.22.42.66.71 1.172.71.735 0 1.326-.588 1.326-1.312 0-.518-.305-.963-.749-1.175zM1.015.983a3.364 3.364 0 00-.178 4.629L5.701.845a3.466 3.466 0 00-4.686.138zm17.972 0A3.467 3.467 0 0014.3.845l4.862 4.767a3.366 3.366 0 00-.175-4.629z" fill="#828282"/></svg>