<svg width="10" height="9" viewBox="0 0 10 9" fill="none" xmlns="http://www.w3.org/2000/svg">
<path d="M3.05925 8.54951C2.62148 8.00455 2.61358 7.12723 3.0416 6.59976L8.09116 0.385445C8.51926 -0.141254 9.22748 -0.126235 9.66586 0.418649C10.1043 0.964303 10.1122 1.84086 9.68413 2.36839L4.6339 8.58278C4.20585 9.10941 3.49768 9.09438 3.05925 8.54951Z" fill="white"/>
<path d="M0.325218 3.63255C0.765828 3.09608 1.49289 3.10989 1.94188 3.66402L4.3407 6.62363C4.7897 7.17776 4.797 8.06977 4.3571 8.60696C3.91649 9.14343 3.18936 9.12884 2.74037 8.57471L0.341621 5.61595C-0.107372 5.06181 -0.114748 4.16902 0.325218 3.63255Z" fill="white"/>
</svg>
