<svg width="122" height="32" viewBox="0 0 122 32" fill="none" xmlns="http://www.w3.org/2000/svg">
<circle cx="108.885" cy="13.9616" r="13.1154" fill="white"/>
<path d="M105.204 12.9638V17H103.414V8.11538H105.204V11.4408C105.779 10.8146 106.486 10.5015 107.323 10.5015C108.051 10.5015 108.618 10.7342 109.024 11.1996C109.43 11.6565 109.633 12.2954 109.633 13.1162V17H107.844V13.4842C107.844 13.0273 107.73 12.6888 107.501 12.4688C107.281 12.2488 106.993 12.1388 106.638 12.1388C106.367 12.1388 106.097 12.2192 105.826 12.38C105.563 12.5323 105.356 12.7269 105.204 12.9638ZM113.05 17H111.26V10.6665H113.05V11.7327C113.244 11.3942 113.541 11.1065 113.938 10.8696C114.353 10.6242 114.793 10.5015 115.258 10.5015C115.36 10.5015 115.427 10.5058 115.461 10.5142V12.2658C115.292 12.2235 115.106 12.2023 114.903 12.2023C114.488 12.2023 114.107 12.3123 113.761 12.5323C113.422 12.7438 113.185 13.0019 113.05 13.3065V17Z" fill="#333333"/>
<path d="M10.5278 20.3838H8.46705V11.015H10.5278V12.2362C11.2402 11.2567 12.2706 10.7669 13.619 10.7669C14.344 10.7669 14.9673 10.9196 15.4889 11.2249C16.0105 11.5301 16.373 11.9372 16.5765 12.446C16.92 11.9372 17.3907 11.5301 17.9885 11.2249C18.5991 10.9196 19.267 10.7669 19.992 10.7669C21.0351 10.7669 21.8493 11.0913 22.4344 11.74C23.0196 12.3888 23.3122 13.3174 23.3122 14.5259V20.3838H21.2514V15.0029C21.2514 13.4637 20.6154 12.6941 19.3433 12.6941C18.8472 12.6941 18.3701 12.8467 17.9122 13.152C17.467 13.4446 17.1426 13.8135 16.9391 14.2588V20.3838H14.8783V15.0029C14.8783 13.4637 14.2359 12.6941 12.9511 12.6941C12.4677 12.6941 11.9971 12.8404 11.5391 13.133C11.0939 13.4128 10.7568 13.769 10.5278 14.2015V20.3838ZM25.3896 15.6898C25.3896 14.2778 25.8348 13.1075 26.7253 12.1789C27.6285 11.2376 28.7861 10.7669 30.1981 10.7669C31.1648 10.7669 31.9853 11.0213 32.6595 11.5302C33.9825 12.4715 34.644 13.8835 34.644 15.7662V16.3004H27.4695C27.5967 17.0891 27.9719 17.7061 28.5952 18.1513C29.2313 18.5965 30.0327 18.8191 30.9995 18.8191C32.068 18.8191 33.0729 18.5393 34.0143 17.9796V19.7159C33.1493 20.3265 31.998 20.6318 30.5606 20.6318C29.1232 20.6318 27.8956 20.1739 26.8779 19.258C25.8857 18.3421 25.3896 17.1527 25.3896 15.6898ZM27.4885 14.7358H32.5641C32.5387 14.1506 32.3161 13.6354 31.8963 13.1902C31.4638 12.7323 30.8659 12.5033 30.1027 12.5033C29.3776 12.5033 28.7733 12.7195 28.2899 13.152C27.8193 13.5718 27.5521 14.0997 27.4885 14.7358ZM42.3769 20.6318C40.9394 20.6318 39.8264 20.123 39.0377 19.1054V20.3838H36.9769V7.02701H39.0377V12.2934C39.8264 11.2757 40.9394 10.7669 42.3769 10.7669C43.6998 10.7669 44.7875 11.2439 45.6397 12.198C46.492 13.1393 46.9182 14.3033 46.9182 15.6898C46.9182 17.0891 46.492 18.2594 45.6397 19.2008C44.7875 20.1548 43.6998 20.6318 42.3769 20.6318ZM41.8235 18.8191C42.6885 18.8191 43.4073 18.5202 43.9797 17.9223C44.5521 17.3117 44.8383 16.5676 44.8383 15.6898C44.8383 14.8248 44.5521 14.0934 43.9797 13.4955C43.4073 12.8849 42.6885 12.5796 41.8235 12.5796C41.2384 12.5796 40.6914 12.7386 40.1825 13.0566C39.6864 13.3619 39.3048 13.7563 39.0377 14.2397V17.14C39.3048 17.6361 39.6864 18.0432 40.1825 18.3612C40.6787 18.6665 41.2257 18.8191 41.8235 18.8191ZM53.6662 18.8191C54.5312 18.8191 55.2626 18.5202 55.8605 17.9223C56.4457 17.3372 56.7383 16.593 56.7383 15.6898C56.7383 14.7994 56.4457 14.0616 55.8605 13.4764C55.2626 12.8785 54.5312 12.5796 53.6662 12.5796C52.7885 12.5796 52.0507 12.8785 51.4528 13.4764C50.8676 14.0616 50.5751 14.7994 50.5751 15.6898C50.5751 16.593 50.8676 17.3372 51.4528 17.9223C52.0507 18.5202 52.7885 18.8191 53.6662 18.8191ZM53.6662 20.6318C52.1651 20.6318 50.9312 20.1548 49.9645 19.2008C48.9977 18.2467 48.5143 17.0764 48.5143 15.6898C48.5143 14.316 48.9977 13.152 49.9645 12.198C50.9312 11.2439 52.1651 10.7669 53.6662 10.7669C55.1418 10.7669 56.3694 11.2439 57.3488 12.198C58.3156 13.152 58.799 14.316 58.799 15.6898C58.799 17.0637 58.3156 18.234 57.3488 19.2008C56.3694 20.1548 55.1418 20.6318 53.6662 20.6318ZM61.7828 17.8269V12.8277H59.7793V11.015H61.7828V8.28636H63.8436V11.015H66.8012V12.8277H63.8436V17.2354C63.8436 17.757 63.9644 18.1386 64.2061 18.3803C64.4478 18.622 64.8167 18.7428 65.3128 18.7428C65.8089 18.7428 66.2796 18.6283 66.7248 18.3994V20.1739C66.2796 20.4792 65.5863 20.6318 64.645 20.6318C63.7545 20.6318 63.0549 20.3901 62.5461 19.9068C62.0372 19.4234 61.7828 18.7301 61.7828 17.8269ZM76.5696 20.3838H68.3281V19.0299L72.0512 15.5438C72.8409 14.8105 73.4219 14.1787 73.7942 13.6484C74.1327 13.1407 74.3019 12.5992 74.3019 12.0238C74.3019 11.4258 74.0819 10.9464 73.6419 10.5853C73.2132 10.213 72.6491 10.0269 71.9496 10.0269C70.7763 10.0269 69.6706 10.5176 68.6327 11.4992V9.55302C69.603 8.72943 70.7706 8.31763 72.1358 8.31763C73.2527 8.31763 74.2004 8.63917 74.9789 9.28225C75.7686 9.92533 76.1635 10.7658 76.1635 11.8038C76.1635 12.6048 75.966 13.3325 75.5712 13.9869C75.1537 14.6525 74.4881 15.4197 73.5742 16.2884L71.0189 18.7253H76.5696V20.3838ZM85.5658 20.3838H83.7381V17.2869H77.5951V15.8653L83.7381 8.53763H85.5658V15.6961H87.4104V17.2869H85.5658V20.3838ZM83.7381 10.9238L79.7104 15.6961H83.7381V10.9238Z" fill="white"/>
<path d="M32.6877 26.3769V30.2757C32.6877 30.5148 32.4215 30.6578 32.2222 30.5258L27.5573 27.437H6.43217C3.43206 27.437 1 24.9484 1 21.8784L1.00002 8.94314C1.00002 5.8732 3.43208 3.38452 6.43219 3.38452H27.5573" stroke="white" stroke-width="1.49951"/>
</svg>
