<svg width="149" height="141" viewBox="0 0 149 141" fill="none" xmlns="http://www.w3.org/2000/svg">
<ellipse cx="74.5" cy="121.632" rx="74.5" ry="19.2585" fill="#5753B9"/>
<path d="M123.638 28.6901C123.638 41.9282 113.142 52.4242 99.9041 52.4242C86.7605 52.4242 75.981 41.9282 75.981 28.6901C75.981 24.2459 77.2102 20.0854 79.385 16.5867C79.5742 16.2085 79.8578 15.8303 80.1415 15.452C84.4912 9.11667 91.7721 5.05068 99.9986 5.05068C113.142 4.95612 123.638 15.452 123.638 28.6901Z" fill="#E7EAEF"/>
<path d="M99.8109 48.0745C89.1259 48.0745 80.332 39.3752 80.332 28.6901C80.332 18.0051 89.0314 9.30579 99.8109 9.30579C110.496 9.30579 119.29 18.0051 119.29 28.6901C119.29 39.3752 110.591 48.0745 99.8109 48.0745ZM99.8109 12.5207C90.828 12.5207 83.547 19.8017 83.547 28.6901C83.547 37.5786 90.828 44.8595 99.8109 44.8595C108.794 44.8595 116.075 37.5786 116.075 28.6901C116.075 19.8017 108.794 12.5207 99.8109 12.5207Z" fill="#FF7058"/>
<path d="M99.81 39.9424C93.5692 39.9424 88.5576 34.9308 88.5576 28.69C88.5576 22.4492 93.6637 17.4376 99.81 17.4376C105.956 17.4376 111.062 22.4492 111.062 28.69C111.062 34.9308 106.051 39.9424 99.81 39.9424ZM99.81 20.7471C95.4603 20.7471 91.8671 24.3403 91.8671 28.69C91.8671 33.0397 95.4603 36.6329 99.81 36.6329C104.16 36.6329 107.753 33.0397 107.753 28.69C107.753 24.3403 104.254 20.7471 99.81 20.7471Z" fill="#FF7058"/>
<path d="M99.8118 28.3124C99.6227 28.3124 99.4336 28.5015 99.4336 28.6906C99.4336 29.0688 100.095 29.0688 100.095 28.6906C100.19 28.5015 100.001 28.3124 99.8118 28.3124Z" fill="white"/>
<path d="M103.499 28.6905C103.499 30.6762 101.891 32.2837 99.9055 32.2837C97.9198 32.2837 96.2178 30.6762 96.2178 28.6905C96.2178 26.7048 97.8253 25.0973 99.9055 25.0973C101.891 25.0973 103.499 26.7048 103.499 28.6905Z" fill="#FF7058"/>
<g opacity="0.1">
<g opacity="0.1">
<path opacity="0.1" d="M100.094 28.5013C100.189 28.7849 99.9998 29.0686 99.7162 29.0686L96.0284 29.1632C95.6502 29.2577 95.3665 28.7849 95.5556 28.5013L96.3121 27.3666L79.3862 16.587C79.5753 16.2087 79.859 15.8305 80.1427 15.4523L97.0685 26.1373L97.825 25.0026C98.0141 24.7189 98.4869 24.7189 98.5815 25.0972L100.094 28.5013Z" fill="black"/>
</g>
</g>
<path d="M77.9678 6.4691L75.5093 6.84733C75.3202 6.84733 75.2256 6.84733 75.1311 6.75277L71.6324 3.15957C71.5379 3.06502 71.6324 2.8759 71.727 2.8759L74.0909 2.49767L74.5637 0.133724C74.5637 0.039166 74.7528 -0.0553904 74.8474 0.0391674L78.346 3.63236C78.4406 3.72692 78.5351 3.91604 78.4406 4.10515L77.9678 6.4691Z" fill="#FF7058"/>
<path d="M99.6205 28.9739L96.0273 28.2174C95.6491 28.2174 95.46 27.7446 95.7436 27.4609L96.6892 26.5154L72.8606 2.214C72.577 1.93032 72.577 1.55209 72.7661 1.26842C73.0498 0.984746 73.5225 0.984746 73.8062 1.26842L97.6348 25.5698L98.5804 24.6242C98.864 24.3405 99.3368 24.5296 99.3368 24.9079L99.9987 28.5956C100.093 28.7847 99.9042 28.9739 99.6205 28.9739Z" fill="#84DBFF"/>
<path d="M125.057 42.7799V102.73C125.057 104.242 123.828 105.472 122.315 105.472H26.0552C24.5422 105.472 23.313 104.242 23.313 102.73V42.7799C23.313 41.2669 24.5422 39.9431 26.1497 39.9431H122.41C123.828 40.0377 125.057 41.2669 125.057 42.7799Z" fill="white"/>
<path d="M114.278 44.1031H34.0933V101.5H114.278V44.1031Z" fill="#2B3B4E"/>
<path d="M81.0881 73.7943L71.1595 80.6025C70.3085 81.1698 69.1738 80.6025 69.1738 79.5624V65.8515C69.1738 64.8113 70.3085 64.244 71.1595 64.8113L81.0881 71.6195C81.75 72.2814 81.75 73.3215 81.0881 73.7943Z" fill="white"/>
<path d="M61.135 74.4565H53.854C54.6105 84.8579 62.5533 93.0844 72.5765 93.8409V85.898C66.5248 85.1416 61.7969 80.4137 61.135 74.4565Z" fill="#81ACFF"/>
<path d="M72.5765 59.7057V51.7628C62.5533 52.6138 54.6105 60.8404 53.854 71.1472H61.135C61.7969 65.19 66.5248 60.4621 72.5765 59.7057Z" fill="#60CE7F"/>
<path d="M87.3292 71.1472H94.6101C93.8537 60.8404 85.9108 52.5193 75.8877 51.7628V59.7057C81.8448 60.4621 86.5727 65.19 87.3292 71.1472Z" fill="#FF7058"/>
<path d="M75.7925 85.898V93.8409C85.8156 92.9899 93.7585 84.7633 94.5149 74.4565H87.234C86.5721 80.4137 81.8442 85.1416 75.7925 85.898Z" fill="white"/>
<g opacity="0.1">
<path opacity="0.1" d="M87.2351 74.4564C86.4786 80.4135 81.8453 85.1414 75.7936 85.8979V89.4911C83.7365 88.7346 89.9773 82.3993 90.7337 74.551H87.2351V74.4564ZM75.7936 56.2067V59.7999C81.7507 60.5564 86.4786 65.2843 87.2351 71.2414H90.8283C90.0718 63.204 83.7365 56.9632 75.7936 56.2067ZM61.1371 74.4564H57.5439C58.3004 82.3993 64.5412 88.6401 72.4841 89.3965V85.8033C66.6215 85.1414 61.8936 80.4135 61.1371 74.4564ZM57.5439 71.1469H61.1371C61.8936 65.1897 66.6215 60.4618 72.5786 59.7054V56.1122C64.6358 56.9632 58.3004 63.204 57.5439 71.1469Z" fill="black"/>
</g>
<path d="M96.1221 89.5856V108.497C96.1221 108.875 96.0276 109.348 95.933 109.726C95.4602 110.956 94.231 113.698 91.9616 114.171H74.752C72.4827 111.05 66.431 104.999 60.4738 104.148C60.2847 104.148 60.1901 104.053 60.1901 103.864C59.8119 101.405 60.9466 99.5142 64.067 99.2305C65.8636 99.136 66.9037 99.5142 71.6316 100.933V73.889C71.6316 72.0924 73.05 70.6741 74.752 70.6741C75.6031 70.6741 76.3595 71.0523 76.9269 71.6197C77.4942 72.187 77.8725 73.038 77.8725 73.889V88.4509C78.3452 87.2217 79.4799 86.3707 80.8037 86.3707C82.3167 86.3707 83.4514 87.4108 83.8296 88.7346C84.2078 87.3162 85.4371 86.3707 86.8554 86.3707C88.3684 86.3707 89.5031 87.4108 89.8813 88.7346C90.2595 87.3162 91.4888 86.3707 92.9071 86.3707C93.7582 86.3707 94.5146 86.7489 95.1765 87.3162C95.8384 87.8836 96.1221 88.7346 96.1221 89.5856Z" fill="#FFD05B"/>
<path d="M95.2708 113.698V118.615H72.1987V113.698C72.1987 113.225 72.577 112.847 73.0498 112.847H94.3253C94.8926 112.753 95.2708 113.225 95.2708 113.698Z" fill="white"/>
<path d="M96.501 128.354V117.291C96.501 116.818 96.1228 116.44 95.65 116.44H71.916C71.4432 116.44 71.0649 116.818 71.0649 117.291V128.354H96.501Z" fill="#FF7058"/>
<path d="M77.8721 88.4512L78.0612 98.2852L78.6285 87.3165C78.3449 87.6002 78.0612 87.9784 77.8721 88.4512Z" fill="#F9B54C"/>
<path d="M84.3972 87.6953L83.9244 96.3001L83.4517 87.6953C83.6408 87.979 83.8299 88.3572 83.9244 88.7354C84.019 88.3572 84.1136 87.979 84.3972 87.6953Z" fill="#F9B54C"/>
<path d="M90.5431 87.6008L89.9757 98.1913L89.5029 87.6008C89.692 87.8845 89.8812 88.2627 89.9757 88.641C90.0703 88.3573 90.2594 87.9791 90.5431 87.6008Z" fill="#F9B54C"/>
</svg>
