<svg width="149" height="141" viewBox="0 0 149 141" fill="none" xmlns="http://www.w3.org/2000/svg">
<ellipse cx="74.5" cy="121.633" rx="74.5" ry="19.2585" fill="#5753B9"/>
<path d="M109.318 116.382V69.064V45.2826L92.2962 28.261H44.8149V45.8527V69.064V116.382H109.318Z" fill="white"/>
<path d="M92.2964 45.2826H109.318L92.2964 28.261V45.2826Z" fill="#DE3F18"/>
<path d="M109.318 45.2826H92.2964L109.318 62.3042V45.2826Z" fill="#D1ECFB"/>
<path d="M76.7404 48.4592H57.0312V50.0881H76.7404V48.4592Z" fill="#FD6120"/>
<path d="M97.1041 56.3589H57.0342V57.9877H97.1041V56.3589Z" fill="#A6DAE9"/>
<path d="M97.0992 61.4086H57.0293V63.0374H97.0992V61.4086Z" fill="#A6DAE9"/>
<path d="M97.0992 66.4579H57.0293V68.0867H97.0992V66.4579Z" fill="#A6DAE9"/>
<path d="M97.0992 71.589H57.0293V73.2179H97.0992V71.589Z" fill="#A6DAE9"/>
<path d="M97.0992 76.6387H57.0293V78.2675H97.0992V76.6387Z" fill="#A6DAE9"/>
<path d="M97.0992 81.6879H57.0293V83.3167H97.0992V81.6879Z" fill="#A6DAE9"/>
<path d="M97.0992 86.7375H57.0293V88.3664H97.0992V86.7375Z" fill="#A6DAE9"/>
<path d="M81.3025 105.469H81.221C80.8138 105.388 80.651 104.899 80.4881 104.492C80.1623 103.27 80.3252 101.967 80.9767 100.908C80.8953 100.583 80.7324 100.175 80.4881 99.8496C80.4066 99.6867 80.4881 99.4424 80.651 99.2795C80.8139 99.198 81.0582 99.2795 81.221 99.4424C81.3839 99.6867 81.4654 99.931 81.5468 100.175C82.2798 99.4424 83.1757 99.0352 84.2344 99.0352C85.5375 99.0352 86.7592 100.175 87.4107 101.316C87.4107 101.397 87.4922 101.397 87.4922 101.478C88.7138 100.664 90.3427 100.012 91.1571 100.175C92.2973 100.338 92.4602 101.397 92.4602 102.13C92.786 101.723 92.8674 101.397 92.9489 101.153C93.2746 100.257 93.5189 100.338 95.4736 100.745L95.8808 100.827C96.1251 100.827 96.2066 101.071 96.2066 101.316C96.2066 101.56 95.9623 101.641 95.7179 101.641L95.3107 101.56C94.4963 101.397 93.8448 101.316 93.6819 101.316C93.7633 101.316 93.6819 101.397 93.6819 101.478C93.6004 101.723 93.4375 102.211 92.9489 102.782C92.6231 103.189 92.3788 103.515 91.9715 103.352C91.6458 103.189 91.6458 102.863 91.6458 102.374C91.6458 101.478 91.5643 100.99 91.0757 100.908C90.2613 100.827 88.8767 101.478 87.818 102.13C88.1437 102.863 88.2252 103.596 87.8994 104.003C87.7365 104.166 87.4107 104.492 86.6777 104.248C85.7004 104.003 85.7819 103.27 85.7819 103.107C85.8633 102.7 86.1891 102.293 86.6777 101.886C86.6777 101.804 86.5963 101.804 86.5963 101.723C86.0262 100.827 85.0489 99.8496 84.0716 99.8496C83.0942 99.8496 82.2798 100.257 81.7097 101.071C82.1984 102.863 82.0355 104.655 81.6283 105.225C81.6283 105.469 81.4654 105.469 81.3025 105.469ZM81.3839 102.13C81.1396 102.782 81.1396 103.596 81.3839 104.248C81.3839 104.248 81.3839 104.248 81.3839 104.329C81.3839 103.922 81.4654 103.026 81.3839 102.13ZM87.3293 102.619C87.0849 102.863 86.8406 103.107 86.8406 103.27C86.8406 103.27 86.8407 103.433 87.1664 103.515C87.4108 103.596 87.4922 103.515 87.4922 103.515C87.4922 103.515 87.4922 103.107 87.3293 102.619Z" fill="#FD6120"/>
<path d="M60.6948 104.573C58.4959 104.573 56.7041 102.781 56.7041 100.583C56.7041 98.3836 58.4959 96.5918 60.6948 96.5918C62.8938 96.5918 64.6855 98.3836 64.6855 100.583C64.6855 102.781 62.8938 104.573 60.6948 104.573ZM60.6948 98.0578C59.3103 98.0578 58.1701 99.198 58.1701 100.583C58.1701 101.967 59.3103 103.107 60.6948 103.107C62.0794 103.107 63.2195 101.967 63.2195 100.583C63.2195 99.198 62.0794 98.0578 60.6948 98.0578Z" fill="#1B5E8F"/>
<path d="M61.754 104.654C61.6725 104.654 61.5911 104.654 61.5097 104.654L60.6138 104.41L59.7179 104.654C59.3921 104.736 59.1478 104.654 58.9035 104.41L58.3334 103.677L57.5189 103.351C57.1932 103.27 57.0303 102.944 57.0303 102.7V101.804L56.5416 101.071C56.3787 100.827 56.3787 100.501 56.5416 100.256L57.0303 99.5235V98.6276C57.0303 98.3019 57.2746 98.0575 57.5189 97.9761L58.3334 97.6503L58.9035 96.9173C59.0664 96.673 59.3921 96.5916 59.7179 96.673L60.6138 96.9173L61.5097 96.673C61.8354 96.5916 62.0798 96.673 62.3241 96.9173L62.8941 97.6503L63.7901 97.9761C64.1158 98.0575 64.2787 98.3833 64.2787 98.6276V99.5235L64.7674 100.256C64.9303 100.501 64.9303 100.827 64.7674 101.071L64.2787 101.804V102.7C64.2787 103.026 64.0344 103.27 63.7901 103.351L62.9756 103.677L62.4055 104.41C62.2426 104.573 61.9983 104.654 61.754 104.654ZM60.6952 102.863C60.7767 102.863 60.8581 102.863 60.9395 102.863L61.5097 103.026L61.9169 102.537C61.9983 102.455 62.0797 102.374 62.2426 102.293L62.8127 102.048V101.397C62.8127 101.234 62.8942 101.152 62.9756 100.989L63.3014 100.501L62.9756 100.012C62.8942 99.9307 62.8127 99.7678 62.8127 99.605V98.9534L62.2426 98.7091C62.0797 98.6276 61.9983 98.5462 61.9169 98.4647L61.5097 97.9761L60.9395 98.139C60.7767 98.139 60.6952 98.139 60.5323 98.139L59.9622 97.9761L59.555 98.4647C59.4736 98.5462 59.3921 98.6276 59.2292 98.7091L58.6591 98.9534V99.605C58.6591 99.7678 58.5777 99.8493 58.4963 100.012L58.1705 100.501L58.4963 100.989C58.5777 101.071 58.6591 101.234 58.6591 101.397V102.048L59.2292 102.293C59.3921 102.374 59.4736 102.455 59.555 102.537L59.9622 103.026L60.5323 102.863C60.5323 102.863 60.6138 102.863 60.6952 102.863Z" fill="#1B5E8F"/>
<path d="M63.136 106.609C62.8916 106.609 62.6473 106.528 62.5659 106.283L61.3442 104.654C61.0999 104.329 61.1813 103.84 61.5071 103.596C61.8329 103.351 62.3215 103.433 62.5659 103.759L63.7875 105.387C64.0318 105.713 63.9504 106.202 63.6246 106.446C63.4617 106.528 63.2989 106.609 63.136 106.609Z" fill="#1B5E8F"/>
<path d="M58.1692 106.611C58.0063 106.611 57.8434 106.529 57.762 106.448C57.4362 106.203 57.3548 105.715 57.5991 105.389L58.8207 103.76C59.0651 103.434 59.5538 103.353 59.8795 103.597C60.2053 103.841 60.2867 104.33 60.0424 104.656L58.8207 106.285C58.6579 106.448 58.4135 106.611 58.1692 106.611Z" fill="#1B5E8F"/>
<path d="M89.1997 119.396C90.91 120.862 91.1543 124.364 89.9327 128.029L90.4214 128.192V128.11L93.7605 120.373C93.5162 120.129 93.4347 119.803 93.5162 119.477C93.6791 119.07 94.1677 118.907 94.5749 119.07C94.9821 119.233 95.145 119.722 94.9821 120.129C94.8193 120.455 94.4935 120.617 94.1677 120.617L90.8286 128.355V128.436L91.3172 128.599C93.109 125.097 95.878 122.898 98.077 123.142C98.2399 121.839 98.6471 120.373 99.0543 118.907C99.543 117.441 100.113 116.057 100.683 114.835C99.543 114.509 98.2399 114.102 96.9368 113.532C95.6337 112.962 94.4935 112.31 93.4347 111.659C92.946 112.962 92.376 114.265 91.643 115.649C90.8286 117.115 90.0141 118.337 89.1997 119.396Z" fill="#103754"/>
<path d="M115.017 79.9773C117.949 73.1361 111.76 70.4485 108.828 77.2897C103.697 88.7732 98.566 100.257 93.4351 111.74C95.7969 112.799 98.1588 113.776 100.602 114.835C105.407 103.27 110.212 91.6237 115.017 79.9773Z" fill="#DE3F18"/>
<path d="M100.737 114.919L93.3325 111.729L92.8814 112.777L100.286 115.966L100.737 114.919Z" fill="#FD6120"/>
<path d="M112.656 89.1805L123.651 63.6888C124.466 61.7342 123.733 59.4538 121.941 58.7208L119.742 57.7435C117.95 57.0105 115.833 57.9878 114.937 59.9425L103.942 85.3527L112.656 89.1805Z" fill="#FD6120"/>
<path d="M104.105 78.2666L102.639 81.6058C103.86 81.6872 105.082 81.0357 105.489 80.1398C105.896 79.2439 105.326 78.4295 104.105 78.2666Z" fill="#103754"/>
<path d="M104.185 80.7918C104.104 80.7918 104.022 80.7918 103.859 80.7104C103.452 80.5475 103.289 80.1403 103.452 79.7331L111.026 62.2228C111.678 60.5939 113.551 59.861 115.18 60.5939L123.894 64.3403C124.301 64.5032 124.464 64.9104 124.301 65.3176C124.139 65.7249 123.731 65.8877 123.324 65.7249L114.61 61.9785C113.714 61.5713 112.737 61.9785 112.411 62.8744L104.837 80.3846C104.674 80.6289 104.429 80.7918 104.185 80.7918Z" fill="#103754"/>
<path d="M58.1701 10.5876C54.668 11.1577 51.0845 11.6464 47.5825 12.2165C43.0217 13.0309 39.7639 16.1258 40.2526 19.2206C40.7413 22.3154 41.2299 25.4917 41.7186 28.5866C42.2072 31.6 44.0805 33.7175 50.9217 35.7536C54.9938 36.9752 58.8216 37.7082 62.4051 37.9525L58.1701 10.5876Z" fill="#2C5871"/>
<path d="M58.0889 10.5876C61.5909 10.0175 65.1744 9.5288 68.6765 8.95869C73.2373 8.30715 77.3094 10.3432 77.7166 13.4381C78.2053 16.5329 78.6939 19.7092 79.1826 22.804C79.6712 25.8174 78.5311 28.4236 72.5857 32.4143C69.0837 34.7761 65.6631 36.7308 62.2424 38.0339L58.0889 10.5876Z" fill="#0E303F"/>
<path d="M60.9394 28.7496L23.557 20.6053L23.4756 19.0579L93.8424 8.14453L94.0867 9.61051L60.9394 28.7496Z" fill="#0E303F"/>
<path d="M60.6954 27.2834L23.313 19.1391L56.4603 0L93.8427 8.14431L60.6954 27.2834Z" fill="#2C5871"/>
<path d="M82.9294 24.9219C82.6037 24.9219 82.3593 24.6776 82.2779 24.3518L80.9748 16.126L57.6006 11.0766C57.2748 10.9951 57.0305 10.6694 57.112 10.2621C57.1934 9.93636 57.5192 9.69203 57.9264 9.77348L81.7078 14.9858C81.9521 15.0673 82.1964 15.2302 82.1964 15.5559L83.581 24.1889C83.6624 24.5147 83.4181 24.9219 83.0109 24.9219H82.9294Z" fill="#F4DA80"/>
<path d="M81.056 16.5329C80.9745 16.5329 80.9745 16.5329 80.8931 16.5329L58.5777 11.7278C58.2519 11.6463 58.0076 11.3206 58.089 10.9948C58.1705 10.669 58.4962 10.4247 58.822 10.5061L81.1374 15.3113C81.4632 15.3927 81.7075 15.7185 81.626 16.0443C81.626 16.2886 81.3003 16.5329 81.056 16.5329Z" fill="#D8C171"/>
<path d="M59.2782 13.064C61.3671 12.7392 62.8813 11.323 62.6602 9.90081C62.4391 8.47859 60.5665 7.58889 58.4776 7.91362C56.3887 8.23834 54.8745 9.65453 55.0956 11.0768C55.3167 12.499 57.1893 13.3887 59.2782 13.064Z" fill="#0E303F"/>
<path d="M61.9158 9.52903C62.0787 10.5878 60.4498 11.728 58.3323 12.0538C56.2148 12.3795 54.3416 11.8094 54.1787 10.6692C54.0159 9.61047 55.5632 8.47027 57.7622 8.1445C59.8797 7.81873 61.7529 8.38883 61.9158 9.52903Z" fill="#2C5871"/>
<path d="M82.6038 24.4329C83.7733 24.4329 84.7214 23.4849 84.7214 22.3154C84.7214 21.1459 83.7733 20.1979 82.6038 20.1979C81.4344 20.1979 80.4863 21.1459 80.4863 22.3154C80.4863 23.4849 81.4344 24.4329 82.6038 24.4329Z" fill="#F4DA80"/>
<path d="M84.3964 26.2248C84.4778 26.8764 84.0706 27.4465 83.419 27.5279C82.7675 27.6094 82.1974 27.2022 82.116 26.5506L81.4644 22.4785C81.383 21.8269 81.7902 21.2568 82.4417 21.1754C83.0933 21.0939 83.6634 21.5011 83.7448 22.1527L84.3964 26.2248Z" fill="#F4DA80"/>
<path d="M88.2234 33.8806C87.246 33.229 86.7574 31.5187 85.4543 26.795C85.1285 25.6548 84.0697 24.9218 83.011 25.0847C81.9522 25.2476 81.2192 26.3064 81.2192 27.4466C81.4635 32.2517 81.545 34.0435 80.7306 35.0208C80.5677 36.161 82.4409 37.1383 84.8027 36.8125C87.246 36.4868 88.712 34.9393 88.2234 33.8806Z" fill="#F4DA80"/>
<path d="M82.6841 28.1791C82.6841 27.3647 83.0099 26.6317 83.4985 26.143L83.2541 24.4327C82.6026 24.1069 82.0325 23.5368 81.8697 22.7224C81.7068 21.7451 82.1954 20.7678 83.0913 20.2791C82.847 20.1977 82.6026 20.1977 82.2769 20.2791C81.1367 20.442 80.3222 21.5007 80.4851 22.7224C80.5666 23.4554 81.0552 23.944 81.7068 24.2698L81.9511 25.8172C81.5439 26.3059 81.2181 26.876 81.2181 27.609C81.4624 32.4141 81.5439 34.2059 80.7294 35.1832C80.648 35.8347 81.2181 36.4048 82.114 36.7306C83.0098 35.5904 82.9284 33.5543 82.6841 28.1791Z" fill="#D8C171"/>
</svg>
