<svg width="149" height="141" viewBox="0 0 149 141" fill="none" xmlns="http://www.w3.org/2000/svg">
<ellipse cx="74.5" cy="121.632" rx="74.5" ry="19.2585" fill="#5753B9"/>
<path d="M66.1593 89.6257C67.0103 96.8121 64.8355 104.66 64.9301 106.741H91.6899C91.1226 105.511 92.2573 96.1502 91.6899 95.1101C89.9879 91.8006 88.8532 88.2074 88.3804 84.4251C87.7185 79.2244 89.326 77.806 91.6899 73.74C94.9995 68.0665 96.796 62.0149 96.6069 55.4904C96.2287 44.0489 85.3546 37.9026 74.2913 37.9972C61.1478 38.0917 54.1505 52.7482 55.5688 60.9747C55.758 61.6366 55.5688 62.204 55.1906 62.7713C54.0559 64.3788 52.8267 65.7972 51.692 67.3101C51.1246 68.0666 50.4627 68.823 49.8954 69.674C49.4226 70.4305 49.6117 71.3761 50.4627 71.7543C53.7722 73.3618 54.1505 71.7543 53.2049 75.5366C52.8267 76.8604 52.8267 76.8604 54.0559 77.4278C53.9613 78.0897 53.4886 78.8461 54.1505 79.4135C56.0416 80.8319 52.0702 84.4251 56.2308 86.3162C60.1076 88.0183 65.592 84.236 66.1593 89.6257Z" fill="#FFD05B"/>
<path d="M92.7288 116.575L88.3791 103.431L86.2988 97.0959C101.334 91.8952 112.208 77.2387 112.208 59.9347C112.208 55.585 111.546 51.3299 110.222 47.3584L117.787 44.7108L131.119 40.0775C141.426 71.4707 124.217 105.701 92.7288 116.575Z" fill="#FF7058"/>
<path d="M92.7293 116.575C61.2415 127.544 27.3898 111.091 17.083 79.7921L30.3211 75.1587L37.8857 72.5111C44.5993 92.9356 66.3476 104.093 86.2048 97.0961L88.285 103.432L92.7293 116.575Z" fill="#81ACFF"/>
<path d="M35.9947 60.0291C35.9947 64.3787 36.6565 68.6339 37.9803 72.6053L30.4157 75.2529L17.1776 79.8862C6.87082 48.5876 24.0803 14.4522 55.5681 3.48352L59.9178 16.6271L61.9981 22.9624C46.7742 28.1631 35.9947 42.725 35.9947 60.0291Z" fill="#2B3B4E"/>
<path d="M131.121 40.172L117.789 44.8053L110.224 47.4529C105.118 31.9455 90.8397 20.7876 74.103 20.7876C69.8479 20.7876 65.6874 21.5441 61.905 22.8679L59.8248 16.5325L55.4751 3.38899C86.9629 -7.57972 120.815 8.96789 131.121 40.172Z" fill="#60CE7F"/>
<g opacity="0.1">
<g opacity="0.1">
<path opacity="0.1" d="M117.787 44.8052C109.939 20.7875 83.9355 8.21128 59.8233 16.5324C35.711 24.948 22.5675 51.1405 30.4158 75.1582C38.3586 99.0813 64.2675 111.752 88.3797 103.431C112.492 95.0154 125.73 68.8229 117.787 44.8052ZM86.2994 97.0956C66.4423 104.093 44.694 93.0296 37.9804 72.5106C36.6566 68.5392 35.9947 64.3786 35.9947 59.9344C35.9947 42.7249 46.8689 28.0684 61.9035 22.7732C65.7804 21.4494 69.8464 20.6929 74.1015 20.6929C90.9328 20.6929 105.116 31.8507 110.223 47.3582C111.546 51.3296 112.208 55.4902 112.208 59.9344C112.208 77.2385 101.334 91.895 86.2994 97.0956Z" fill="black"/>
</g>
</g>
<path d="M100.2 57.8542H72.116C71.7378 57.8542 71.4541 57.5705 71.4541 57.1923C71.4541 56.814 71.7378 56.5304 72.116 56.5304H99.6323V16.627C99.6323 16.2487 99.916 15.9651 100.294 15.9651C100.672 15.9651 100.956 16.2487 100.956 16.627V57.1923C100.767 57.5705 100.483 57.8542 100.2 57.8542Z" fill="white"/>
<path d="M100.198 20.22C102.131 20.22 103.697 18.6112 103.697 16.6268C103.697 14.6423 102.131 13.0336 100.198 13.0336C98.2661 13.0336 96.6997 14.6423 96.6997 16.6268C96.6997 18.6112 98.2661 20.22 100.198 20.22Z" fill="white"/>
<path d="M126.771 54.6394C128.703 54.6394 130.269 53.0307 130.269 51.0462C130.269 49.0617 128.703 47.453 126.771 47.453C124.838 47.453 123.272 49.0617 123.272 51.0462C123.272 53.0307 124.838 54.6394 126.771 54.6394Z" fill="white"/>
<path d="M124.596 73.8345C126.529 73.8345 128.095 72.2258 128.095 70.2413C128.095 68.2568 126.529 66.6481 124.596 66.6481C122.664 66.6481 121.098 68.2568 121.098 70.2413C121.098 72.2258 122.664 73.8345 124.596 73.8345Z" fill="white"/>
<path d="M119.867 64.284H72.0208C71.6425 64.284 71.3589 64.0004 71.3589 63.6221C71.3589 63.2439 71.6425 62.9602 72.0208 62.9602H119.489L125.824 51.8024C126.013 51.5187 126.392 51.4242 126.675 51.6133C126.959 51.8024 127.053 52.1806 126.864 52.4643L120.434 64.0004C120.34 64.1895 120.056 64.284 119.867 64.284Z" fill="white"/>
<path d="M124.596 70.9034H72.116C71.7378 70.9034 71.4541 70.6197 71.4541 70.2415C71.4541 69.8633 71.7378 69.5796 72.116 69.5796H124.596C124.974 69.5796 125.257 69.8633 125.257 70.2415C125.163 70.6197 124.879 70.9034 124.596 70.9034Z" fill="white"/>
</svg>
