<svg width="149" height="141" viewBox="0 0 149 141" fill="none" xmlns="http://www.w3.org/2000/svg">
<ellipse cx="74.5" cy="121.632" rx="74.5" ry="19.2585" fill="#5753B9"/>
<path d="M81.7691 114.978C81.7691 118.574 78.173 120.089 73.82 120.089C69.4669 120.089 65.8708 118.574 65.8708 114.978C65.8708 111.382 69.4669 107.029 73.82 107.029C78.173 107.029 81.7691 111.382 81.7691 114.978Z" fill="#324A5E"/>
<path d="M88.7726 93.97V112.991C88.7726 113.843 88.1102 114.6 87.1639 114.6H60.3829C59.5312 114.6 58.7742 113.937 58.7742 112.991V93.97H88.7726Z" fill="#2B3B4E"/>
<path d="M109.875 49.5874C109.875 60.0916 105.427 69.4602 98.33 76.0845C94.2608 79.8698 91.8004 85.1692 91.8004 90.7525V92.2666C91.8004 94.727 89.8131 96.7143 87.3526 96.7143H60.4771C58.0166 96.7143 56.0294 94.727 56.0294 92.2666V90.7525C56.0294 85.1692 53.6635 79.8698 49.4997 76.0845C42.213 69.3656 37.6707 59.6184 37.8599 48.7357C38.2385 29.4307 54.1367 13.7218 73.4417 13.4379C93.5038 13.154 109.875 29.4307 109.875 49.5874Z" fill="#FFD05B"/>
<path d="M74.1029 55.4544C73.9137 55.2652 73.7244 54.9813 73.5352 54.792C73.7244 54.9813 73.9137 55.1705 74.1029 55.4544Z" fill="#FFD05B"/>
<path d="M90.1919 99.8369C90.1919 100.405 89.7187 100.878 89.1509 100.878H58.5847C58.0169 100.878 57.5437 100.405 57.5437 99.8369C57.5437 99.2691 58.0169 98.796 58.5847 98.796H89.1509C89.7187 98.7014 90.1919 99.1745 90.1919 99.8369Z" fill="#324A5E"/>
<path d="M90.1901 103.717C90.1901 104.285 89.717 104.758 89.1492 104.758H58.583C58.0152 104.758 57.542 104.285 57.542 103.717C57.542 103.149 58.0152 102.676 58.583 102.676H89.1492C89.717 102.676 90.1901 103.149 90.1901 103.717Z" fill="#324A5E"/>
<path d="M90.1901 107.597C90.1901 108.165 89.717 108.638 89.1492 108.638H58.583C58.0152 108.638 57.542 108.165 57.542 107.597C57.542 107.029 58.0152 106.556 58.583 106.556H89.1492C89.717 106.556 90.1901 107.029 90.1901 107.597Z" fill="#324A5E"/>
<path d="M90.1901 111.572C90.1901 112.14 89.717 112.613 89.1492 112.613H58.583C58.0152 112.613 57.542 112.14 57.542 111.572C57.542 111.004 58.0152 110.531 58.583 110.531H89.1492C89.717 110.436 90.1901 110.909 90.1901 111.572Z" fill="#324A5E"/>
<path d="M74.9538 1.13559V9.6525C74.9538 10.2203 74.4806 10.7881 73.8182 10.7881C73.2504 10.7881 72.6826 10.3149 72.6826 9.6525V1.13559C72.6826 0.567795 73.1558 0 73.8182 0C74.386 0.0946323 74.9538 0.567795 74.9538 1.13559Z" fill="#F9B54C"/>
<path d="M122.177 50.6281H113.661C113.093 50.6281 112.525 50.1549 112.525 49.4925C112.525 48.8301 112.998 48.3569 113.661 48.3569H122.177C122.745 48.3569 123.313 48.8301 123.313 49.4925C123.313 50.1549 122.84 50.6281 122.177 50.6281Z" fill="#F9B54C"/>
<path d="M33.9791 50.6285H25.4622C24.8944 50.6285 24.3267 50.1553 24.3267 49.4929C24.3267 48.8305 24.7998 48.3573 25.4622 48.3573H33.9791C34.5469 48.3573 35.1147 48.8305 35.1147 49.4929C35.1147 50.1553 34.5469 50.6285 33.9791 50.6285Z" fill="#F9B54C"/>
<path d="M108.835 16.0878L102.778 22.1442C102.305 22.6174 101.643 22.6174 101.17 22.1442C100.697 21.6711 100.791 21.0086 101.17 20.5355L107.226 14.479C107.699 14.0059 108.362 14.0059 108.835 14.479C109.213 14.9522 109.213 15.7092 108.835 16.0878Z" fill="#F9B54C"/>
<path d="M44.8632 22.1454L38.8068 16.0889C38.3336 15.6157 38.3336 14.9533 38.8068 14.4802C39.2799 14.007 39.9424 14.1016 40.4155 14.4802L46.3774 20.6313C46.8505 21.1044 46.8505 21.7668 46.3774 22.24C45.9042 22.7132 45.2418 22.6185 44.8632 22.1454Z" fill="#F9B54C"/>
<path d="M56.3134 4.44772L59.6255 12.3022C59.8148 12.87 59.6255 13.5324 59.0577 13.7217C58.4899 13.911 57.8275 13.7217 57.6382 13.1539L54.3261 5.29941C54.1368 4.73162 54.3261 4.06919 54.8939 3.87993C55.4617 3.59603 56.1241 3.87993 56.3134 4.44772Z" fill="#F9B54C"/>
<path d="M118.959 32.0802L111.105 35.3924C110.537 35.5816 109.875 35.3924 109.685 34.8246C109.496 34.2568 109.685 33.5943 110.253 33.4051L118.108 30.0929C118.676 29.9037 119.338 30.0929 119.527 30.6607C119.811 31.2285 119.527 31.7963 118.959 32.0802Z" fill="#F9B54C"/>
<path d="M37.3864 65.8638L29.532 69.1759C28.9642 69.3652 28.3017 69.1759 28.1125 68.6081C27.9232 68.0403 28.1125 67.3779 28.6803 67.1886L36.5348 63.8765C37.1025 63.6873 37.765 63.8765 37.9542 64.4443C38.2381 65.0121 37.9542 65.5799 37.3864 65.8638Z" fill="#F9B54C"/>
<path d="M93.3131 5.29941L90.001 13.1539C89.8117 13.7217 89.1493 14.0056 88.5815 13.7217C88.0137 13.5324 87.7298 12.87 88.0137 12.3022L91.3258 4.44772C91.5151 3.87993 92.1775 3.59603 92.7453 3.87993C93.3131 4.06919 93.597 4.73162 93.3131 5.29941Z" fill="#F9B54C"/>
<path d="M118.107 69.0816L110.252 65.7694C109.685 65.5802 109.401 64.9177 109.685 64.3499C109.874 63.7821 110.536 63.4983 111.104 63.7822L118.959 67.0943C119.526 67.2835 119.81 67.946 119.526 68.5138C119.337 69.0816 118.675 69.3655 118.107 69.0816Z" fill="#F9B54C"/>
<path d="M36.5341 35.298L28.6796 31.9859C28.1118 31.7966 27.828 31.1342 28.1119 30.5664C28.3011 29.9986 28.9636 29.7147 29.5314 29.9986L37.3858 33.3107C37.9536 33.5 38.2375 34.1624 37.9536 34.7302C37.7644 35.298 37.1019 35.5819 36.5341 35.298Z" fill="#F9B54C"/>
<path d="M93.6923 49.3032C94.8279 49.3032 95.4903 48.4515 95.4903 47.5052C95.4903 46.4642 94.6386 45.7071 93.6923 45.7071H91.0426C90.9479 44.6662 90.7587 43.6252 90.4748 42.5843L92.8406 41.6379C93.7869 41.2594 94.2601 40.1238 93.7869 39.2721C93.4084 38.3258 92.3674 37.9473 91.4211 38.3258L89.0553 39.2721C88.5821 38.4204 88.0143 37.4741 87.3519 36.6224L89.1499 34.8244C89.8124 34.162 89.907 32.9318 89.1499 32.2694C88.3929 31.5123 87.2573 31.6069 86.5948 32.2694L84.7968 34.0674C83.9451 33.4049 83.0934 32.8371 82.1471 32.2694L83.0934 29.9035C83.472 28.9572 82.9988 27.9163 82.1471 27.5377C81.2008 27.1592 80.1598 27.6324 79.7813 28.4841L78.835 30.8499C77.794 30.566 76.7531 30.3767 75.7121 30.2821V27.6324C75.7121 26.5914 74.8604 25.8344 73.9141 25.8344C72.8732 25.8344 72.1161 26.686 72.1161 27.6324V30.1874C71.0752 30.2821 70.0342 30.4713 68.9932 30.7552L68.0469 28.3894C67.6684 27.4431 66.6274 26.9699 65.6811 27.3485C64.7348 27.727 64.2616 28.768 64.7348 29.7143L65.7757 32.0801C64.8294 32.5532 63.9777 33.121 63.126 33.7835L61.328 31.9855C60.5709 31.2284 59.4354 31.2284 58.7729 31.9855C58.0159 32.7425 58.0159 33.8781 58.7729 34.6352L60.571 36.4332C59.9085 37.2849 59.3407 38.1366 58.8676 39.0829L56.5018 38.1366C55.5555 37.758 54.5145 38.1366 54.136 39.0829C53.7574 40.0292 54.2306 41.0702 55.1769 41.4487L57.5427 42.395C57.2588 43.436 57.0696 44.4769 56.9749 45.5179H53.9467C52.9057 45.5179 52.1487 46.3696 52.1487 47.3159C52.1487 48.3568 53.0004 49.1139 53.9467 49.1139H56.5964C56.691 50.1549 56.8803 51.1958 57.2588 52.2368L54.893 53.2777C53.9467 53.6563 53.4735 54.6972 53.8521 55.6435C54.2306 56.5899 55.2715 56.9684 56.2179 56.5899L58.5837 55.5489C59.0568 56.4952 59.6246 57.3469 60.3817 58.1986L58.5837 59.9966C57.8266 60.7537 57.8266 61.8893 58.5837 62.5517C59.3407 63.3088 60.4763 63.3088 61.1388 62.5517L62.9368 60.7537C63.7885 61.4161 64.6401 61.9839 65.5865 62.5517L64.6401 64.9175C64.2616 65.8638 64.7348 66.9048 65.5865 67.2833C66.5328 67.6618 67.5737 67.1887 67.9523 66.2424L68.8986 63.8765C69.9395 64.1604 70.9805 64.3497 72.0215 64.539V67.094C72.0215 68.135 72.8732 68.8921 73.8195 68.8921C74.8604 68.8921 75.6175 68.0404 75.6175 67.094V64.4443C76.6584 64.3497 77.6994 64.1604 78.7404 63.8765L79.6867 66.2424C80.0652 67.1887 81.1062 67.5672 82.0525 67.2833C82.9988 66.9048 83.472 65.7692 82.9988 64.9175L82.0525 62.5517C82.9988 62.0785 83.8505 61.5107 84.7022 60.7537L86.5002 62.5517C87.1626 63.2141 88.3929 63.3088 89.1499 62.5517C89.907 61.7946 89.8124 60.659 89.1499 59.9966L87.3519 58.1986C88.0143 57.3469 88.5821 56.4952 89.1499 55.5489L91.5157 56.5899C92.4621 56.9684 93.503 56.4952 93.8815 55.6435C94.2601 54.6972 93.7869 53.6563 92.8406 53.2777L90.4748 52.2368C90.7587 51.1958 90.9479 50.1549 91.0426 49.1139H93.6923V49.3032ZM71.8322 34.5405V40.4077C69.2771 41.0702 67.2898 43.0574 66.6274 45.6125H60.7602C61.7066 39.8399 66.1543 35.3922 71.8322 34.5405ZM71.8322 60.5644C66.1543 59.7127 61.6119 55.1704 60.7602 49.4924H66.6274C67.2898 52.0475 69.2771 54.0348 71.8322 54.6972V60.5644ZM74.8604 51.2904C74.5765 51.3851 74.198 51.4797 73.8195 51.4797C73.4409 51.4797 73.0624 51.3851 72.7785 51.2904C71.4537 50.9119 70.4127 49.871 70.0342 48.5461C69.9396 48.2622 69.8449 47.8837 69.8449 47.5052C69.8449 47.1266 69.9396 46.7481 70.0342 46.4642C70.4127 45.1393 71.4537 44.0984 72.7785 43.7199C73.0624 43.6252 73.4409 43.5306 73.8195 43.5306C74.198 43.5306 74.4819 43.6252 74.8604 43.7199C76.1853 44.0984 77.2262 45.1393 77.6048 46.4642C77.6994 46.7481 77.794 47.1266 77.794 47.5052C77.794 47.8837 77.6994 48.2622 77.6048 48.5461C77.2262 49.871 76.1853 50.9119 74.8604 51.2904ZM75.8068 60.5644V54.6972C78.3618 54.0348 80.3491 52.0475 81.0115 49.4924H86.8787C85.9324 55.1704 81.4847 59.6181 75.8068 60.5644ZM81.0115 45.5179C80.3491 42.9628 78.3618 40.9755 75.8068 40.3131V34.4459C81.4847 35.2976 86.027 39.8399 86.8787 45.5179H81.0115Z" fill="#324A5E"/>
<path d="M76.6569 73.7183H70.8843V96.7139H76.6569V73.7183Z" fill="white"/>
<path d="M76.7515 77.1251V81.289C75.8998 81.6675 74.8588 81.8567 73.8179 81.8567C72.7769 81.8567 71.8306 81.6675 70.8843 81.289V77.1251H76.7515Z" fill="#E7EAEF"/>
<path d="M82.2408 72.4881C82.2408 77.125 78.4555 80.9103 73.8185 80.9103C69.1815 80.9103 65.3962 77.125 65.3962 72.4881C65.3962 69.0813 67.3835 66.0531 70.5064 64.7282C70.601 64.7282 70.6956 64.7282 70.7903 64.7282C70.8849 64.8228 70.9795 64.9175 70.9795 65.0121V69.7437L73.8185 71.1632L76.6575 69.7437V65.0121C76.6575 64.9175 76.7521 64.8228 76.8468 64.7282C76.9414 64.6336 77.036 64.6336 77.1306 64.7282C80.2535 66.1477 82.2408 69.1759 82.2408 72.4881Z" fill="white"/>
<path d="M74.4787 84.601V94.1589C74.4787 94.5374 74.1948 94.8213 73.8162 94.8213C73.4377 94.8213 73.1538 94.5374 73.1538 94.1589V84.601C73.1538 84.2225 73.4377 83.9386 73.8162 83.9386C74.1948 83.9386 74.4787 84.2225 74.4787 84.601Z" fill="#E7EAEF"/>
<g opacity="0.5">
<path opacity="0.5" d="M74.384 84.3171C74.2894 84.2225 74.1948 84.2225 74.1001 84.2225C73.7216 84.2225 73.4377 84.5064 73.4377 84.8849V94.4428C73.4377 94.5374 73.4377 94.6321 73.5324 94.8213C73.3431 94.7267 73.1538 94.4428 73.1538 94.1589V84.601C73.1538 84.2225 73.4377 83.9386 73.8162 83.9386C74.1001 83.9386 74.2894 84.0332 74.384 84.3171Z" fill="#ADB3BA"/>
</g>
</svg>
